<?xml version="1.0" encoding="utf-8" standalone="no"?>
<!DOCTYPE svg PUBLIC "-//W3C//DTD SVG 1.1//EN"
  "http://www.w3.org/Graphics/SVG/1.1/DTD/svg11.dtd">
<svg xmlns:xlink="http://www.w3.org/1999/xlink" width="432pt" height="288pt" viewBox="0 0 432 288" xmlns="http://www.w3.org/2000/svg" version="1.1">
 <metadata>
  <rdf:RDF xmlns:dc="http://purl.org/dc/elements/1.1/" xmlns:cc="http://creativecommons.org/ns#" xmlns:rdf="http://www.w3.org/1999/02/22-rdf-syntax-ns#">
   <cc:Work>
    <dc:type rdf:resource="http://purl.org/dc/dcmitype/StillImage"/>
    <dc:date>2024-03-12T14:53:27.730288</dc:date>
    <dc:format>image/svg+xml</dc:format>
    <dc:creator>
     <cc:Agent>
      <dc:title>Matplotlib v3.7.1, https://matplotlib.org/</dc:title>
     </cc:Agent>
    </dc:creator>
   </cc:Work>
  </rdf:RDF>
 </metadata>
 <defs>
  <style type="text/css">*{stroke-linejoin: round; stroke-linecap: butt}</style>
 </defs>
 <g id="figure_1">
  <g id="patch_1">
   <path d="M 0 288 
L 432 288 
L 432 0 
L 0 0 
z
" style="fill: #ffffff"/>
  </g>
  <g id="axes_1">
   <g id="patch_2">
    <path d="M 54 256.32 
L 388.8 256.32 
L 388.8 34.56 
L 54 34.56 
z
" style="fill: #ffffff"/>
   </g>
   <g id="PolyCollection_1">
    <defs>
     <path id="m2bddb3c228" d="M 69.218182 -161.024819 
L 69.218182 -41.86629 
L 72.42201 -41.9246 
L 75.625837 -42.52532 
L 78.829665 -42.470663 
L 82.033493 -42.14276 
L 85.237321 -41.813316 
L 88.441148 -41.862883 
L 91.644976 -42.058381 
L 94.848804 -41.76 
L 98.052632 -41.854207 
L 101.256459 -41.999153 
L 104.460287 -42.13886 
L 107.664115 -42.087696 
L 110.867943 -41.845031 
L 114.07177 -41.840324 
L 117.275598 -41.771535 
L 120.479426 -41.888612 
L 123.683254 -42.116469 
L 126.887081 -41.874186 
L 130.090909 -41.810611 
L 133.294737 -42.08515 
L 136.498565 -42.491458 
L 139.702392 -42.783822 
L 142.90622 -43.885063 
L 146.110048 -44.364396 
L 149.313876 -42.662791 
L 152.517703 -43.530014 
L 155.721531 -44.534206 
L 158.925359 -45.36365 
L 162.129187 -46.685137 
L 165.333014 -47.563413 
L 168.536842 -47.582118 
L 171.74067 -45.512962 
L 174.944498 -45.982795 
L 178.148325 -46.051939 
L 181.352153 -48.773973 
L 184.555981 -51.684246 
L 187.759809 -51.308293 
L 190.963636 -49.704604 
L 194.167464 -51.322217 
L 197.371292 -46.990128 
L 200.57512 -47.215913 
L 203.778947 -49.732479 
L 206.982775 -46.32422 
L 210.186603 -47.752715 
L 213.390431 -50.556001 
L 216.594258 -48.529849 
L 219.798086 -46.289839 
L 223.001914 -47.727737 
L 226.205742 -46.747843 
L 229.409569 -47.883949 
L 232.613397 -45.586686 
L 235.817225 -45.719838 
L 239.021053 -45.706871 
L 242.22488 -47.076346 
L 245.428708 -46.077389 
L 248.632536 -48.2049 
L 251.836364 -45.379294 
L 255.040191 -46.180012 
L 258.244019 -48.135477 
L 261.447847 -46.494496 
L 264.651675 -47.831017 
L 267.855502 -47.205453 
L 271.05933 -45.786153 
L 274.263158 -45.803768 
L 277.466986 -45.265509 
L 280.670813 -45.869455 
L 283.874641 -45.283362 
L 287.078469 -53.085553 
L 290.282297 -45.577031 
L 293.486124 -48.837906 
L 296.689952 -49.356371 
L 299.89378 -47.873367 
L 303.097608 -48.856888 
L 306.301435 -50.862031 
L 309.505263 -48.724181 
L 312.709091 -49.542018 
L 315.912919 -49.149802 
L 319.116746 -47.477426 
L 322.320574 -43.758466 
L 325.524402 -43.991662 
L 328.72823 -45.995206 
L 331.932057 -45.396657 
L 335.135885 -46.182569 
L 338.339713 -44.176734 
L 341.543541 -43.584324 
L 344.747368 -43.669907 
L 347.951196 -43.474081 
L 351.155024 -43.013595 
L 354.358852 -43.470284 
L 357.562679 -42.042107 
L 360.766507 -42.011337 
L 363.970335 -41.965904 
L 367.174163 -41.902491 
L 370.37799 -42.523498 
L 373.581818 -43.109761 
L 373.581818 -170.474398 
L 373.581818 -170.474398 
L 370.37799 -170.288879 
L 367.174163 -171.151619 
L 363.970335 -169.487932 
L 360.766507 -170.090868 
L 357.562679 -170.144342 
L 354.358852 -172.681731 
L 351.155024 -177.964049 
L 347.951196 -176.775122 
L 344.747368 -176.771587 
L 341.543541 -178.648937 
L 338.339713 -177.815384 
L 335.135885 -183.470548 
L 331.932057 -186.410648 
L 328.72823 -190.201616 
L 325.524402 -192.496153 
L 322.320574 -196.92576 
L 319.116746 -203.316093 
L 315.912919 -207.83999 
L 312.709091 -215.026689 
L 309.505263 -227.081003 
L 306.301435 -225.716421 
L 303.097608 -218.26665 
L 299.89378 -214.67769 
L 296.689952 -225.168719 
L 293.486124 -225.366441 
L 290.282297 -221.585873 
L 287.078469 -225.464616 
L 283.874641 -226.242432 
L 280.670813 -230.173021 
L 277.466986 -232.438946 
L 274.263158 -234.069617 
L 271.05933 -232.402022 
L 267.855502 -233.6399 
L 264.651675 -238.035817 
L 261.447847 -233.665565 
L 258.244019 -236.321495 
L 255.040191 -243.36 
L 251.836364 -238.862153 
L 248.632536 -239.306125 
L 245.428708 -237.199129 
L 242.22488 -231.473065 
L 239.021053 -225.045075 
L 235.817225 -232.878235 
L 232.613397 -229.540313 
L 229.409569 -225.264391 
L 226.205742 -228.322865 
L 223.001914 -224.4152 
L 219.798086 -222.7006 
L 216.594258 -225.635483 
L 213.390431 -222.689827 
L 210.186603 -216.224973 
L 206.982775 -215.905235 
L 203.778947 -213.311657 
L 200.57512 -211.405058 
L 197.371292 -208.607784 
L 194.167464 -205.528094 
L 190.963636 -191.991314 
L 187.759809 -193.168397 
L 184.555981 -193.705319 
L 181.352153 -186.566069 
L 178.148325 -180.004468 
L 174.944498 -174.939504 
L 171.74067 -168.637874 
L 168.536842 -165.764934 
L 165.333014 -162.397142 
L 162.129187 -163.408197 
L 158.925359 -165.370706 
L 155.721531 -153.320543 
L 152.517703 -158.856487 
L 149.313876 -160.015088 
L 146.110048 -154.991285 
L 142.90622 -151.295777 
L 139.702392 -151.143533 
L 136.498565 -149.511343 
L 133.294737 -156.545624 
L 130.090909 -156.732657 
L 126.887081 -153.743975 
L 123.683254 -154.038102 
L 120.479426 -158.354552 
L 117.275598 -157.021762 
L 114.07177 -154.418843 
L 110.867943 -157.543116 
L 107.664115 -153.372132 
L 104.460287 -154.420261 
L 101.256459 -154.563046 
L 98.052632 -157.481415 
L 94.848804 -157.061347 
L 91.644976 -159.961748 
L 88.441148 -158.472983 
L 85.237321 -159.031591 
L 82.033493 -157.849941 
L 78.829665 -160.237474 
L 75.625837 -158.077046 
L 72.42201 -158.349873 
L 69.218182 -161.024819 
z
" style="stroke: #add8e6; stroke-opacity: 0.5"/>
    </defs>
    <g clip-path="url(#pc6085fb791)">
     <use xlink:href="#m2bddb3c228" x="0" y="288" style="fill: #add8e6; fill-opacity: 0.5; stroke: #add8e6; stroke-opacity: 0.5"/>
    </g>
   </g>
   <g id="matplotlib.axis_1">
    <g id="xtick_1">
     <g id="line2d_1">
      <defs>
       <path id="ma65a137fd1" d="M 0 0 
L 0 3.5 
" style="stroke: #000000; stroke-width: 0.8"/>
      </defs>
      <g>
       <use xlink:href="#ma65a137fd1" x="69.218182" y="256.32" style="stroke: #000000; stroke-width: 0.8"/>
      </g>
     </g>
     <g id="text_1">
      <!-- 0 -->
      <g transform="translate(66.036932 270.918437) scale(0.1 -0.1)">
       <defs>
        <path id="DejaVuSans-30" d="M 2034 4250 
Q 1547 4250 1301 3770 
Q 1056 3291 1056 2328 
Q 1056 1369 1301 889 
Q 1547 409 2034 409 
Q 2525 409 2770 889 
Q 3016 1369 3016 2328 
Q 3016 3291 2770 3770 
Q 2525 4250 2034 4250 
z
M 2034 4750 
Q 2819 4750 3233 4129 
Q 3647 3509 3647 2328 
Q 3647 1150 3233 529 
Q 2819 -91 2034 -91 
Q 1250 -91 836 529 
Q 422 1150 422 2328 
Q 422 3509 836 4129 
Q 1250 4750 2034 4750 
z
" transform="scale(0.015625)"/>
       </defs>
       <use xlink:href="#DejaVuSans-30"/>
      </g>
     </g>
    </g>
    <g id="xtick_2">
     <g id="line2d_2">
      <g>
       <use xlink:href="#ma65a137fd1" x="123.683254" y="256.32" style="stroke: #000000; stroke-width: 0.8"/>
      </g>
     </g>
     <g id="text_2">
      <!-- 4 -->
      <g transform="translate(120.502004 270.918437) scale(0.1 -0.1)">
       <defs>
        <path id="DejaVuSans-34" d="M 2419 4116 
L 825 1625 
L 2419 1625 
L 2419 4116 
z
M 2253 4666 
L 3047 4666 
L 3047 1625 
L 3713 1625 
L 3713 1100 
L 3047 1100 
L 3047 0 
L 2419 0 
L 2419 1100 
L 313 1100 
L 313 1709 
L 2253 4666 
z
" transform="scale(0.015625)"/>
       </defs>
       <use xlink:href="#DejaVuSans-34"/>
      </g>
     </g>
    </g>
    <g id="xtick_3">
     <g id="line2d_3">
      <g>
       <use xlink:href="#ma65a137fd1" x="174.944498" y="256.32" style="stroke: #000000; stroke-width: 0.8"/>
      </g>
     </g>
     <g id="text_3">
      <!-- 8 -->
      <g transform="translate(171.763248 270.918437) scale(0.1 -0.1)">
       <defs>
        <path id="DejaVuSans-38" d="M 2034 2216 
Q 1584 2216 1326 1975 
Q 1069 1734 1069 1313 
Q 1069 891 1326 650 
Q 1584 409 2034 409 
Q 2484 409 2743 651 
Q 3003 894 3003 1313 
Q 3003 1734 2745 1975 
Q 2488 2216 2034 2216 
z
M 1403 2484 
Q 997 2584 770 2862 
Q 544 3141 544 3541 
Q 544 4100 942 4425 
Q 1341 4750 2034 4750 
Q 2731 4750 3128 4425 
Q 3525 4100 3525 3541 
Q 3525 3141 3298 2862 
Q 3072 2584 2669 2484 
Q 3125 2378 3379 2068 
Q 3634 1759 3634 1313 
Q 3634 634 3220 271 
Q 2806 -91 2034 -91 
Q 1263 -91 848 271 
Q 434 634 434 1313 
Q 434 1759 690 2068 
Q 947 2378 1403 2484 
z
M 1172 3481 
Q 1172 3119 1398 2916 
Q 1625 2713 2034 2713 
Q 2441 2713 2670 2916 
Q 2900 3119 2900 3481 
Q 2900 3844 2670 4047 
Q 2441 4250 2034 4250 
Q 1625 4250 1398 4047 
Q 1172 3844 1172 3481 
z
" transform="scale(0.015625)"/>
       </defs>
       <use xlink:href="#DejaVuSans-38"/>
      </g>
     </g>
    </g>
    <g id="xtick_4">
     <g id="line2d_4">
      <g>
       <use xlink:href="#ma65a137fd1" x="226.205742" y="256.32" style="stroke: #000000; stroke-width: 0.8"/>
      </g>
     </g>
     <g id="text_4">
      <!-- 12 -->
      <g transform="translate(219.843242 270.918437) scale(0.1 -0.1)">
       <defs>
        <path id="DejaVuSans-31" d="M 794 531 
L 1825 531 
L 1825 4091 
L 703 3866 
L 703 4441 
L 1819 4666 
L 2450 4666 
L 2450 531 
L 3481 531 
L 3481 0 
L 794 0 
L 794 531 
z
" transform="scale(0.015625)"/>
        <path id="DejaVuSans-32" d="M 1228 531 
L 3431 531 
L 3431 0 
L 469 0 
L 469 531 
Q 828 903 1448 1529 
Q 2069 2156 2228 2338 
Q 2531 2678 2651 2914 
Q 2772 3150 2772 3378 
Q 2772 3750 2511 3984 
Q 2250 4219 1831 4219 
Q 1534 4219 1204 4116 
Q 875 4013 500 3803 
L 500 4441 
Q 881 4594 1212 4672 
Q 1544 4750 1819 4750 
Q 2544 4750 2975 4387 
Q 3406 4025 3406 3419 
Q 3406 3131 3298 2873 
Q 3191 2616 2906 2266 
Q 2828 2175 2409 1742 
Q 1991 1309 1228 531 
z
" transform="scale(0.015625)"/>
       </defs>
       <use xlink:href="#DejaVuSans-31"/>
       <use xlink:href="#DejaVuSans-32" x="63.623047"/>
      </g>
     </g>
    </g>
    <g id="xtick_5">
     <g id="line2d_5">
      <g>
       <use xlink:href="#ma65a137fd1" x="277.466986" y="256.32" style="stroke: #000000; stroke-width: 0.8"/>
      </g>
     </g>
     <g id="text_5">
      <!-- 16 -->
      <g transform="translate(271.104486 270.918437) scale(0.1 -0.1)">
       <defs>
        <path id="DejaVuSans-36" d="M 2113 2584 
Q 1688 2584 1439 2293 
Q 1191 2003 1191 1497 
Q 1191 994 1439 701 
Q 1688 409 2113 409 
Q 2538 409 2786 701 
Q 3034 994 3034 1497 
Q 3034 2003 2786 2293 
Q 2538 2584 2113 2584 
z
M 3366 4563 
L 3366 3988 
Q 3128 4100 2886 4159 
Q 2644 4219 2406 4219 
Q 1781 4219 1451 3797 
Q 1122 3375 1075 2522 
Q 1259 2794 1537 2939 
Q 1816 3084 2150 3084 
Q 2853 3084 3261 2657 
Q 3669 2231 3669 1497 
Q 3669 778 3244 343 
Q 2819 -91 2113 -91 
Q 1303 -91 875 529 
Q 447 1150 447 2328 
Q 447 3434 972 4092 
Q 1497 4750 2381 4750 
Q 2619 4750 2861 4703 
Q 3103 4656 3366 4563 
z
" transform="scale(0.015625)"/>
       </defs>
       <use xlink:href="#DejaVuSans-31"/>
       <use xlink:href="#DejaVuSans-36" x="63.623047"/>
      </g>
     </g>
    </g>
    <g id="xtick_6">
     <g id="line2d_6">
      <g>
       <use xlink:href="#ma65a137fd1" x="328.72823" y="256.32" style="stroke: #000000; stroke-width: 0.8"/>
      </g>
     </g>
     <g id="text_6">
      <!-- 20 -->
      <g transform="translate(322.36573 270.918437) scale(0.1 -0.1)">
       <use xlink:href="#DejaVuSans-32"/>
       <use xlink:href="#DejaVuSans-30" x="63.623047"/>
      </g>
     </g>
    </g>
    <g id="text_7">
     <!-- Time -->
     <g transform="translate(209.166406 284.596563) scale(0.1 -0.1)">
      <defs>
       <path id="DejaVuSans-54" d="M -19 4666 
L 3928 4666 
L 3928 4134 
L 2272 4134 
L 2272 0 
L 1638 0 
L 1638 4134 
L -19 4134 
L -19 4666 
z
" transform="scale(0.015625)"/>
       <path id="DejaVuSans-69" d="M 603 3500 
L 1178 3500 
L 1178 0 
L 603 0 
L 603 3500 
z
M 603 4863 
L 1178 4863 
L 1178 4134 
L 603 4134 
L 603 4863 
z
" transform="scale(0.015625)"/>
       <path id="DejaVuSans-6d" d="M 3328 2828 
Q 3544 3216 3844 3400 
Q 4144 3584 4550 3584 
Q 5097 3584 5394 3201 
Q 5691 2819 5691 2113 
L 5691 0 
L 5113 0 
L 5113 2094 
Q 5113 2597 4934 2840 
Q 4756 3084 4391 3084 
Q 3944 3084 3684 2787 
Q 3425 2491 3425 1978 
L 3425 0 
L 2847 0 
L 2847 2094 
Q 2847 2600 2669 2842 
Q 2491 3084 2119 3084 
Q 1678 3084 1418 2786 
Q 1159 2488 1159 1978 
L 1159 0 
L 581 0 
L 581 3500 
L 1159 3500 
L 1159 2956 
Q 1356 3278 1631 3431 
Q 1906 3584 2284 3584 
Q 2666 3584 2933 3390 
Q 3200 3197 3328 2828 
z
" transform="scale(0.015625)"/>
       <path id="DejaVuSans-65" d="M 3597 1894 
L 3597 1613 
L 953 1613 
Q 991 1019 1311 708 
Q 1631 397 2203 397 
Q 2534 397 2845 478 
Q 3156 559 3463 722 
L 3463 178 
Q 3153 47 2828 -22 
Q 2503 -91 2169 -91 
Q 1331 -91 842 396 
Q 353 884 353 1716 
Q 353 2575 817 3079 
Q 1281 3584 2069 3584 
Q 2775 3584 3186 3129 
Q 3597 2675 3597 1894 
z
M 3022 2063 
Q 3016 2534 2758 2815 
Q 2500 3097 2075 3097 
Q 1594 3097 1305 2825 
Q 1016 2553 972 2059 
L 3022 2063 
z
" transform="scale(0.015625)"/>
      </defs>
      <use xlink:href="#DejaVuSans-54"/>
      <use xlink:href="#DejaVuSans-69" x="57.958984"/>
      <use xlink:href="#DejaVuSans-6d" x="85.742188"/>
      <use xlink:href="#DejaVuSans-65" x="183.154297"/>
     </g>
    </g>
   </g>
   <g id="matplotlib.axis_2">
    <g id="ytick_1">
     <g id="line2d_7">
      <defs>
       <path id="m335ab57462" d="M 0 0 
L -3.5 0 
" style="stroke: #000000; stroke-width: 0.8"/>
      </defs>
      <g>
       <use xlink:href="#m335ab57462" x="54" y="234.488616" style="stroke: #000000; stroke-width: 0.8"/>
      </g>
     </g>
     <g id="text_8">
      <!-- 250 -->
      <g transform="translate(27.9125 238.287835) scale(0.1 -0.1)">
       <defs>
        <path id="DejaVuSans-35" d="M 691 4666 
L 3169 4666 
L 3169 4134 
L 1269 4134 
L 1269 2991 
Q 1406 3038 1543 3061 
Q 1681 3084 1819 3084 
Q 2600 3084 3056 2656 
Q 3513 2228 3513 1497 
Q 3513 744 3044 326 
Q 2575 -91 1722 -91 
Q 1428 -91 1123 -41 
Q 819 9 494 109 
L 494 744 
Q 775 591 1075 516 
Q 1375 441 1709 441 
Q 2250 441 2565 725 
Q 2881 1009 2881 1497 
Q 2881 1984 2565 2268 
Q 2250 2553 1709 2553 
Q 1456 2553 1204 2497 
Q 953 2441 691 2322 
L 691 4666 
z
" transform="scale(0.015625)"/>
       </defs>
       <use xlink:href="#DejaVuSans-32"/>
       <use xlink:href="#DejaVuSans-35" x="63.623047"/>
       <use xlink:href="#DejaVuSans-30" x="127.246094"/>
      </g>
     </g>
    </g>
    <g id="ytick_2">
     <g id="line2d_8">
      <g>
       <use xlink:href="#m335ab57462" x="54" y="204.11856" style="stroke: #000000; stroke-width: 0.8"/>
      </g>
     </g>
     <g id="text_9">
      <!-- 500 -->
      <g transform="translate(27.9125 207.917778) scale(0.1 -0.1)">
       <use xlink:href="#DejaVuSans-35"/>
       <use xlink:href="#DejaVuSans-30" x="63.623047"/>
       <use xlink:href="#DejaVuSans-30" x="127.246094"/>
      </g>
     </g>
    </g>
    <g id="ytick_3">
     <g id="line2d_9">
      <g>
       <use xlink:href="#m335ab57462" x="54" y="173.748504" style="stroke: #000000; stroke-width: 0.8"/>
      </g>
     </g>
     <g id="text_10">
      <!-- 750 -->
      <g transform="translate(27.9125 177.547722) scale(0.1 -0.1)">
       <defs>
        <path id="DejaVuSans-37" d="M 525 4666 
L 3525 4666 
L 3525 4397 
L 1831 0 
L 1172 0 
L 2766 4134 
L 525 4134 
L 525 4666 
z
" transform="scale(0.015625)"/>
       </defs>
       <use xlink:href="#DejaVuSans-37"/>
       <use xlink:href="#DejaVuSans-35" x="63.623047"/>
       <use xlink:href="#DejaVuSans-30" x="127.246094"/>
      </g>
     </g>
    </g>
    <g id="ytick_4">
     <g id="line2d_10">
      <g>
       <use xlink:href="#m335ab57462" x="54" y="143.378447" style="stroke: #000000; stroke-width: 0.8"/>
      </g>
     </g>
     <g id="text_11">
      <!-- 1000 -->
      <g transform="translate(21.55 147.177666) scale(0.1 -0.1)">
       <use xlink:href="#DejaVuSans-31"/>
       <use xlink:href="#DejaVuSans-30" x="63.623047"/>
       <use xlink:href="#DejaVuSans-30" x="127.246094"/>
       <use xlink:href="#DejaVuSans-30" x="190.869141"/>
      </g>
     </g>
    </g>
    <g id="ytick_5">
     <g id="line2d_11">
      <g>
       <use xlink:href="#m335ab57462" x="54" y="113.008391" style="stroke: #000000; stroke-width: 0.8"/>
      </g>
     </g>
     <g id="text_12">
      <!-- 1250 -->
      <g transform="translate(21.55 116.80761) scale(0.1 -0.1)">
       <use xlink:href="#DejaVuSans-31"/>
       <use xlink:href="#DejaVuSans-32" x="63.623047"/>
       <use xlink:href="#DejaVuSans-35" x="127.246094"/>
       <use xlink:href="#DejaVuSans-30" x="190.869141"/>
      </g>
     </g>
    </g>
    <g id="ytick_6">
     <g id="line2d_12">
      <g>
       <use xlink:href="#m335ab57462" x="54" y="82.638335" style="stroke: #000000; stroke-width: 0.8"/>
      </g>
     </g>
     <g id="text_13">
      <!-- 1500 -->
      <g transform="translate(21.55 86.437554) scale(0.1 -0.1)">
       <use xlink:href="#DejaVuSans-31"/>
       <use xlink:href="#DejaVuSans-35" x="63.623047"/>
       <use xlink:href="#DejaVuSans-30" x="127.246094"/>
       <use xlink:href="#DejaVuSans-30" x="190.869141"/>
      </g>
     </g>
    </g>
    <g id="ytick_7">
     <g id="line2d_13">
      <g>
       <use xlink:href="#m335ab57462" x="54" y="52.268279" style="stroke: #000000; stroke-width: 0.8"/>
      </g>
     </g>
     <g id="text_14">
      <!-- 1750 -->
      <g transform="translate(21.55 56.067498) scale(0.1 -0.1)">
       <use xlink:href="#DejaVuSans-31"/>
       <use xlink:href="#DejaVuSans-37" x="63.623047"/>
       <use xlink:href="#DejaVuSans-35" x="127.246094"/>
       <use xlink:href="#DejaVuSans-30" x="190.869141"/>
      </g>
     </g>
    </g>
    <g id="text_15">
     <!-- Power (kW) -->
     <g transform="translate(15.470312 173.88375) rotate(-90) scale(0.1 -0.1)">
      <defs>
       <path id="DejaVuSans-50" d="M 1259 4147 
L 1259 2394 
L 2053 2394 
Q 2494 2394 2734 2622 
Q 2975 2850 2975 3272 
Q 2975 3691 2734 3919 
Q 2494 4147 2053 4147 
L 1259 4147 
z
M 628 4666 
L 2053 4666 
Q 2838 4666 3239 4311 
Q 3641 3956 3641 3272 
Q 3641 2581 3239 2228 
Q 2838 1875 2053 1875 
L 1259 1875 
L 1259 0 
L 628 0 
L 628 4666 
z
" transform="scale(0.015625)"/>
       <path id="DejaVuSans-6f" d="M 1959 3097 
Q 1497 3097 1228 2736 
Q 959 2375 959 1747 
Q 959 1119 1226 758 
Q 1494 397 1959 397 
Q 2419 397 2687 759 
Q 2956 1122 2956 1747 
Q 2956 2369 2687 2733 
Q 2419 3097 1959 3097 
z
M 1959 3584 
Q 2709 3584 3137 3096 
Q 3566 2609 3566 1747 
Q 3566 888 3137 398 
Q 2709 -91 1959 -91 
Q 1206 -91 779 398 
Q 353 888 353 1747 
Q 353 2609 779 3096 
Q 1206 3584 1959 3584 
z
" transform="scale(0.015625)"/>
       <path id="DejaVuSans-77" d="M 269 3500 
L 844 3500 
L 1563 769 
L 2278 3500 
L 2956 3500 
L 3675 769 
L 4391 3500 
L 4966 3500 
L 4050 0 
L 3372 0 
L 2619 2869 
L 1863 0 
L 1184 0 
L 269 3500 
z
" transform="scale(0.015625)"/>
       <path id="DejaVuSans-72" d="M 2631 2963 
Q 2534 3019 2420 3045 
Q 2306 3072 2169 3072 
Q 1681 3072 1420 2755 
Q 1159 2438 1159 1844 
L 1159 0 
L 581 0 
L 581 3500 
L 1159 3500 
L 1159 2956 
Q 1341 3275 1631 3429 
Q 1922 3584 2338 3584 
Q 2397 3584 2469 3576 
Q 2541 3569 2628 3553 
L 2631 2963 
z
" transform="scale(0.015625)"/>
       <path id="DejaVuSans-20" transform="scale(0.015625)"/>
       <path id="DejaVuSans-28" d="M 1984 4856 
Q 1566 4138 1362 3434 
Q 1159 2731 1159 2009 
Q 1159 1288 1364 580 
Q 1569 -128 1984 -844 
L 1484 -844 
Q 1016 -109 783 600 
Q 550 1309 550 2009 
Q 550 2706 781 3412 
Q 1013 4119 1484 4856 
L 1984 4856 
z
" transform="scale(0.015625)"/>
       <path id="DejaVuSans-6b" d="M 581 4863 
L 1159 4863 
L 1159 1991 
L 2875 3500 
L 3609 3500 
L 1753 1863 
L 3688 0 
L 2938 0 
L 1159 1709 
L 1159 0 
L 581 0 
L 581 4863 
z
" transform="scale(0.015625)"/>
       <path id="DejaVuSans-57" d="M 213 4666 
L 850 4666 
L 1831 722 
L 2809 4666 
L 3519 4666 
L 4500 722 
L 5478 4666 
L 6119 4666 
L 4947 0 
L 4153 0 
L 3169 4050 
L 2175 0 
L 1381 0 
L 213 4666 
z
" transform="scale(0.015625)"/>
       <path id="DejaVuSans-29" d="M 513 4856 
L 1013 4856 
Q 1481 4119 1714 3412 
Q 1947 2706 1947 2009 
Q 1947 1309 1714 600 
Q 1481 -109 1013 -844 
L 513 -844 
Q 928 -128 1133 580 
Q 1338 1288 1338 2009 
Q 1338 2731 1133 3434 
Q 928 4138 513 4856 
z
" transform="scale(0.015625)"/>
      </defs>
      <use xlink:href="#DejaVuSans-50"/>
      <use xlink:href="#DejaVuSans-6f" x="56.677734"/>
      <use xlink:href="#DejaVuSans-77" x="117.859375"/>
      <use xlink:href="#DejaVuSans-65" x="199.646484"/>
      <use xlink:href="#DejaVuSans-72" x="261.169922"/>
      <use xlink:href="#DejaVuSans-20" x="302.283203"/>
      <use xlink:href="#DejaVuSans-28" x="334.070312"/>
      <use xlink:href="#DejaVuSans-6b" x="373.083984"/>
      <use xlink:href="#DejaVuSans-57" x="430.994141"/>
      <use xlink:href="#DejaVuSans-29" x="529.871094"/>
     </g>
    </g>
   </g>
   <g id="line2d_14">
    <path d="M 69.218182 190.34581 
L 72.42201 191.399195 
L 75.625837 191.765292 
L 78.829665 192.216966 
L 82.033493 194.338928 
L 85.237321 195.851789 
L 88.441148 195.489163 
L 91.644976 194.877561 
L 94.848804 196.222427 
L 98.052632 195.662257 
L 101.256459 195.416784 
L 104.460287 195.469271 
L 107.664115 196.174628 
L 110.867943 197.180052 
L 114.07177 197.066983 
L 117.275598 197.249892 
L 120.479426 197.122965 
L 123.683254 196.785763 
L 126.887081 196.904985 
L 130.090909 195.601533 
L 133.294737 195.606658 
L 136.498565 194.873536 
L 139.702392 193.916837 
L 142.90622 192.038584 
L 146.110048 191.835408 
L 149.313876 189.936216 
L 152.517703 189.15264 
L 155.721531 187.278096 
L 158.925359 185.118428 
L 162.129187 182.182827 
L 165.333014 181.047428 
L 168.536842 179.080823 
L 171.74067 177.735219 
L 174.944498 176.512199 
L 178.148325 173.940469 
L 181.352153 171.670955 
L 184.555981 169.984764 
L 187.759809 167.795733 
L 190.963636 166.267568 
L 194.167464 162.522114 
L 197.371292 161.147718 
L 200.57512 159.816603 
L 203.778947 158.284507 
L 206.982775 157.122849 
L 210.186603 154.88499 
L 213.390431 152.702484 
L 216.594258 152.473568 
L 219.798086 151.952125 
L 223.001914 150.377061 
L 226.205742 150.638637 
L 229.409569 149.765783 
L 232.613397 148.167335 
L 235.817225 147.32652 
L 239.021053 146.994896 
L 242.22488 146.05828 
L 245.428708 145.757203 
L 248.632536 143.705789 
L 251.836364 143.324969 
L 255.040191 143.511154 
L 258.244019 143.641852 
L 261.447847 143.885163 
L 264.651675 142.910824 
L 267.855502 144.089457 
L 271.05933 144.690712 
L 274.263158 144.007336 
L 277.466986 145.980177 
L 280.670813 146.814123 
L 283.874641 146.824489 
L 287.078469 148.29883 
L 290.282297 152.280677 
L 293.486124 154.449904 
L 296.689952 155.253079 
L 299.89378 157.201762 
L 303.097608 159.749829 
L 306.301435 160.437545 
L 309.505263 162.792964 
L 312.709091 164.648044 
L 315.912919 164.525436 
L 319.116746 168.266859 
L 322.320574 171.012404 
L 325.524402 173.242303 
L 328.72823 174.906935 
L 331.932057 176.157546 
L 335.135885 177.662676 
L 338.339713 179.696825 
L 341.543541 180.342403 
L 344.747368 181.573345 
L 347.951196 183.634671 
L 351.155024 186.745074 
L 354.358852 187.719655 
L 357.562679 190.115503 
L 360.766507 190.769248 
L 363.970335 190.329397 
L 367.174163 190.043078 
L 370.37799 190.501705 
L 373.581818 189.831728 
" clip-path="url(#pc6085fb791)" style="fill: none; stroke: #0000ff; stroke-width: 2; stroke-linecap: square"/>
   </g>
   <g id="line2d_15">
    <path d="M 69.218182 212.13914 
L 72.42201 213.780793 
L 75.625837 212.826356 
L 78.829665 214.385461 
L 82.033493 216.85125 
L 85.237321 220.978858 
L 88.441148 218.289749 
L 91.644976 219.43633 
L 94.848804 222.181657 
L 98.052632 218.973555 
L 101.256459 219.597022 
L 104.460287 218.223812 
L 107.664115 216.985452 
L 110.867943 221.348403 
L 114.07177 220.778193 
L 117.275598 222.264077 
L 120.479426 218.956171 
L 123.683254 223.006957 
L 126.887081 220.703913 
L 130.090909 220.481567 
L 133.294737 221.806906 
L 136.498565 219.670779 
L 139.702392 218.085525 
L 142.90622 217.511491 
L 146.110048 218.508605 
L 149.313876 214.356727 
L 152.517703 214.065272 
L 155.721531 214.113597 
L 158.925359 213.118785 
L 162.129187 209.458979 
L 165.333014 207.860704 
L 168.536842 208.523596 
L 171.74067 206.394304 
L 174.944498 205.639112 
L 178.148325 203.998381 
L 181.352153 200.71022 
L 184.555981 200.086666 
L 187.759809 195.188405 
L 190.963636 198.165701 
L 194.167464 192.907182 
L 197.371292 190.922363 
L 200.57512 193.178253 
L 203.778947 192.950969 
L 206.982775 195.270225 
L 210.186603 192.381148 
L 213.390431 188.249694 
L 216.594258 186.212669 
L 219.798086 190.442288 
L 223.001914 187.991327 
L 226.205742 188.581266 
L 229.409569 187.051347 
L 232.613397 185.62854 
L 235.817225 185.962877 
L 239.021053 181.483154 
L 242.22488 185.424557 
L 245.428708 185.744676 
L 248.632536 183.93568 
L 251.836364 183.426266 
L 255.040191 183.999134 
L 258.244019 181.163666 
L 261.447847 182.8879 
L 264.651675 183.014956 
L 267.855502 184.391029 
L 271.05933 186.703386 
L 274.263158 184.33901 
L 277.466986 189.737007 
L 280.670813 185.748516 
L 283.874641 184.759065 
L 287.078469 187.268577 
L 290.282297 192.946796 
L 293.486124 196.303515 
L 296.689952 194.29788 
L 299.89378 195.95605 
L 303.097608 201.420227 
L 306.301435 197.249333 
L 309.505263 197.828714 
L 312.709091 200.729926 
L 315.912919 198.411858 
L 319.116746 200.379398 
L 322.320574 202.187429 
L 325.524402 206.092327 
L 328.72823 207.396125 
L 331.932057 206.024947 
L 335.135885 206.734153 
L 338.339713 207.29243 
L 341.543541 207.64487 
L 344.747368 210.288676 
L 347.951196 210.830041 
L 351.155024 211.634382 
L 354.358852 211.946321 
L 357.562679 213.649063 
L 360.766507 216.403247 
L 363.970335 213.361287 
L 367.174163 213.072997 
L 370.37799 214.041976 
L 373.581818 212.12692 
" clip-path="url(#pc6085fb791)" style="fill: none; stroke: #008000; stroke-width: 2; stroke-linecap: square"/>
   </g>
   <g id="line2d_16">
    <path d="M 69.218182 169.033552 
L 72.42201 172.015968 
L 75.625837 171.740203 
L 78.829665 171.160216 
L 82.033493 173.140598 
L 85.237321 173.561098 
L 88.441148 174.352806 
L 91.644976 172.074146 
L 94.848804 173.83835 
L 98.052632 173.61691 
L 101.256459 172.864147 
L 104.460287 174.906086 
L 107.664115 174.452799 
L 110.867943 175.750295 
L 114.07177 174.289612 
L 117.275598 176.570789 
L 120.479426 174.944375 
L 123.683254 174.477081 
L 126.887081 174.314066 
L 130.090909 172.875748 
L 133.294737 171.936398 
L 136.498565 172.66088 
L 139.702392 172.568487 
L 142.90622 170.045439 
L 146.110048 169.729043 
L 149.313876 167.850077 
L 152.517703 168.367708 
L 155.721531 165.323467 
L 158.925359 164.319241 
L 162.129187 158.010861 
L 165.333014 156.171766 
L 168.536842 155.854778 
L 171.74067 151.1872 
L 174.944498 151.733174 
L 178.148325 148.668255 
L 181.352153 143.731103 
L 184.555981 145.831735 
L 187.759809 142.677773 
L 190.963636 140.116063 
L 194.167464 136.904027 
L 197.371292 135.035005 
L 200.57512 130.618676 
L 203.778947 127.957056 
L 206.982775 126.519341 
L 210.186603 122.002094 
L 213.390431 117.936515 
L 216.594258 118.807741 
L 219.798086 119.82489 
L 223.001914 115.804183 
L 226.205742 117.270553 
L 229.409569 113.653894 
L 232.613397 112.90912 
L 235.817225 113.153314 
L 239.021053 111.085435 
L 242.22488 113.285833 
L 245.428708 110.677381 
L 248.632536 106.502504 
L 251.836364 111.744793 
L 255.040191 108.740089 
L 258.244019 108.801391 
L 261.447847 110.49765 
L 264.651675 109.074364 
L 267.855502 109.372537 
L 271.05933 108.474851 
L 274.263158 109.743151 
L 277.466986 111.307268 
L 280.670813 114.756411 
L 283.874641 112.802711 
L 287.078469 111.41077 
L 290.282297 114.030215 
L 293.486124 116.805661 
L 296.689952 120.876771 
L 299.89378 124.169873 
L 303.097608 127.31904 
L 306.301435 130.731129 
L 309.505263 136.222894 
L 312.709091 138.986967 
L 315.912919 138.283823 
L 319.116746 145.252504 
L 322.320574 148.032317 
L 325.524402 149.435317 
L 328.72823 150.843389 
L 331.932057 154.174542 
L 335.135885 155.217446 
L 338.339713 157.936041 
L 341.543541 159.074683 
L 344.747368 160.207707 
L 347.951196 163.606451 
L 351.155024 167.373728 
L 354.358852 168.213226 
L 357.562679 170.178296 
L 360.766507 170.733716 
L 363.970335 169.686929 
L 367.174163 170.65907 
L 370.37799 171.712698 
L 373.581818 168.897287 
" clip-path="url(#pc6085fb791)" style="fill: none; stroke: #ff0000; stroke-width: 2; stroke-linecap: square"/>
   </g>
   <g id="patch_3">
    <path d="M 54 256.32 
L 54 34.56 
" style="fill: none; stroke: #000000; stroke-width: 0.8; stroke-linejoin: miter; stroke-linecap: square"/>
   </g>
   <g id="patch_4">
    <path d="M 388.8 256.32 
L 388.8 34.56 
" style="fill: none; stroke: #000000; stroke-width: 0.8; stroke-linejoin: miter; stroke-linecap: square"/>
   </g>
   <g id="patch_5">
    <path d="M 54 256.32 
L 388.8 256.32 
" style="fill: none; stroke: #000000; stroke-width: 0.8; stroke-linejoin: miter; stroke-linecap: square"/>
   </g>
   <g id="patch_6">
    <path d="M 54 34.56 
L 388.8 34.56 
" style="fill: none; stroke: #000000; stroke-width: 0.8; stroke-linejoin: miter; stroke-linecap: square"/>
   </g>
   <g id="text_16">
    <!-- Office building power load -->
    <g transform="translate(142.671562 28.56) scale(0.12 -0.12)">
     <defs>
      <path id="DejaVuSans-4f" d="M 2522 4238 
Q 1834 4238 1429 3725 
Q 1025 3213 1025 2328 
Q 1025 1447 1429 934 
Q 1834 422 2522 422 
Q 3209 422 3611 934 
Q 4013 1447 4013 2328 
Q 4013 3213 3611 3725 
Q 3209 4238 2522 4238 
z
M 2522 4750 
Q 3503 4750 4090 4092 
Q 4678 3434 4678 2328 
Q 4678 1225 4090 567 
Q 3503 -91 2522 -91 
Q 1538 -91 948 565 
Q 359 1222 359 2328 
Q 359 3434 948 4092 
Q 1538 4750 2522 4750 
z
" transform="scale(0.015625)"/>
      <path id="DejaVuSans-66" d="M 2375 4863 
L 2375 4384 
L 1825 4384 
Q 1516 4384 1395 4259 
Q 1275 4134 1275 3809 
L 1275 3500 
L 2222 3500 
L 2222 3053 
L 1275 3053 
L 1275 0 
L 697 0 
L 697 3053 
L 147 3053 
L 147 3500 
L 697 3500 
L 697 3744 
Q 697 4328 969 4595 
Q 1241 4863 1831 4863 
L 2375 4863 
z
" transform="scale(0.015625)"/>
      <path id="DejaVuSans-63" d="M 3122 3366 
L 3122 2828 
Q 2878 2963 2633 3030 
Q 2388 3097 2138 3097 
Q 1578 3097 1268 2742 
Q 959 2388 959 1747 
Q 959 1106 1268 751 
Q 1578 397 2138 397 
Q 2388 397 2633 464 
Q 2878 531 3122 666 
L 3122 134 
Q 2881 22 2623 -34 
Q 2366 -91 2075 -91 
Q 1284 -91 818 406 
Q 353 903 353 1747 
Q 353 2603 823 3093 
Q 1294 3584 2113 3584 
Q 2378 3584 2631 3529 
Q 2884 3475 3122 3366 
z
" transform="scale(0.015625)"/>
      <path id="DejaVuSans-62" d="M 3116 1747 
Q 3116 2381 2855 2742 
Q 2594 3103 2138 3103 
Q 1681 3103 1420 2742 
Q 1159 2381 1159 1747 
Q 1159 1113 1420 752 
Q 1681 391 2138 391 
Q 2594 391 2855 752 
Q 3116 1113 3116 1747 
z
M 1159 2969 
Q 1341 3281 1617 3432 
Q 1894 3584 2278 3584 
Q 2916 3584 3314 3078 
Q 3713 2572 3713 1747 
Q 3713 922 3314 415 
Q 2916 -91 2278 -91 
Q 1894 -91 1617 61 
Q 1341 213 1159 525 
L 1159 0 
L 581 0 
L 581 4863 
L 1159 4863 
L 1159 2969 
z
" transform="scale(0.015625)"/>
      <path id="DejaVuSans-75" d="M 544 1381 
L 544 3500 
L 1119 3500 
L 1119 1403 
Q 1119 906 1312 657 
Q 1506 409 1894 409 
Q 2359 409 2629 706 
Q 2900 1003 2900 1516 
L 2900 3500 
L 3475 3500 
L 3475 0 
L 2900 0 
L 2900 538 
Q 2691 219 2414 64 
Q 2138 -91 1772 -91 
Q 1169 -91 856 284 
Q 544 659 544 1381 
z
M 1991 3584 
L 1991 3584 
z
" transform="scale(0.015625)"/>
      <path id="DejaVuSans-6c" d="M 603 4863 
L 1178 4863 
L 1178 0 
L 603 0 
L 603 4863 
z
" transform="scale(0.015625)"/>
      <path id="DejaVuSans-64" d="M 2906 2969 
L 2906 4863 
L 3481 4863 
L 3481 0 
L 2906 0 
L 2906 525 
Q 2725 213 2448 61 
Q 2172 -91 1784 -91 
Q 1150 -91 751 415 
Q 353 922 353 1747 
Q 353 2572 751 3078 
Q 1150 3584 1784 3584 
Q 2172 3584 2448 3432 
Q 2725 3281 2906 2969 
z
M 947 1747 
Q 947 1113 1208 752 
Q 1469 391 1925 391 
Q 2381 391 2643 752 
Q 2906 1113 2906 1747 
Q 2906 2381 2643 2742 
Q 2381 3103 1925 3103 
Q 1469 3103 1208 2742 
Q 947 2381 947 1747 
z
" transform="scale(0.015625)"/>
      <path id="DejaVuSans-6e" d="M 3513 2113 
L 3513 0 
L 2938 0 
L 2938 2094 
Q 2938 2591 2744 2837 
Q 2550 3084 2163 3084 
Q 1697 3084 1428 2787 
Q 1159 2491 1159 1978 
L 1159 0 
L 581 0 
L 581 3500 
L 1159 3500 
L 1159 2956 
Q 1366 3272 1645 3428 
Q 1925 3584 2291 3584 
Q 2894 3584 3203 3211 
Q 3513 2838 3513 2113 
z
" transform="scale(0.015625)"/>
      <path id="DejaVuSans-67" d="M 2906 1791 
Q 2906 2416 2648 2759 
Q 2391 3103 1925 3103 
Q 1463 3103 1205 2759 
Q 947 2416 947 1791 
Q 947 1169 1205 825 
Q 1463 481 1925 481 
Q 2391 481 2648 825 
Q 2906 1169 2906 1791 
z
M 3481 434 
Q 3481 -459 3084 -895 
Q 2688 -1331 1869 -1331 
Q 1566 -1331 1297 -1286 
Q 1028 -1241 775 -1147 
L 775 -588 
Q 1028 -725 1275 -790 
Q 1522 -856 1778 -856 
Q 2344 -856 2625 -561 
Q 2906 -266 2906 331 
L 2906 616 
Q 2728 306 2450 153 
Q 2172 0 1784 0 
Q 1141 0 747 490 
Q 353 981 353 1791 
Q 353 2603 747 3093 
Q 1141 3584 1784 3584 
Q 2172 3584 2450 3431 
Q 2728 3278 2906 2969 
L 2906 3500 
L 3481 3500 
L 3481 434 
z
" transform="scale(0.015625)"/>
      <path id="DejaVuSans-70" d="M 1159 525 
L 1159 -1331 
L 581 -1331 
L 581 3500 
L 1159 3500 
L 1159 2969 
Q 1341 3281 1617 3432 
Q 1894 3584 2278 3584 
Q 2916 3584 3314 3078 
Q 3713 2572 3713 1747 
Q 3713 922 3314 415 
Q 2916 -91 2278 -91 
Q 1894 -91 1617 61 
Q 1341 213 1159 525 
z
M 3116 1747 
Q 3116 2381 2855 2742 
Q 2594 3103 2138 3103 
Q 1681 3103 1420 2742 
Q 1159 2381 1159 1747 
Q 1159 1113 1420 752 
Q 1681 391 2138 391 
Q 2594 391 2855 752 
Q 3116 1113 3116 1747 
z
" transform="scale(0.015625)"/>
      <path id="DejaVuSans-61" d="M 2194 1759 
Q 1497 1759 1228 1600 
Q 959 1441 959 1056 
Q 959 750 1161 570 
Q 1363 391 1709 391 
Q 2188 391 2477 730 
Q 2766 1069 2766 1631 
L 2766 1759 
L 2194 1759 
z
M 3341 1997 
L 3341 0 
L 2766 0 
L 2766 531 
Q 2569 213 2275 61 
Q 1981 -91 1556 -91 
Q 1019 -91 701 211 
Q 384 513 384 1019 
Q 384 1609 779 1909 
Q 1175 2209 1959 2209 
L 2766 2209 
L 2766 2266 
Q 2766 2663 2505 2880 
Q 2244 3097 1772 3097 
Q 1472 3097 1187 3025 
Q 903 2953 641 2809 
L 641 3341 
Q 956 3463 1253 3523 
Q 1550 3584 1831 3584 
Q 2591 3584 2966 3190 
Q 3341 2797 3341 1997 
z
" transform="scale(0.015625)"/>
     </defs>
     <use xlink:href="#DejaVuSans-4f"/>
     <use xlink:href="#DejaVuSans-66" x="78.710938"/>
     <use xlink:href="#DejaVuSans-66" x="113.916016"/>
     <use xlink:href="#DejaVuSans-69" x="149.121094"/>
     <use xlink:href="#DejaVuSans-63" x="176.904297"/>
     <use xlink:href="#DejaVuSans-65" x="231.884766"/>
     <use xlink:href="#DejaVuSans-20" x="293.408203"/>
     <use xlink:href="#DejaVuSans-62" x="325.195312"/>
     <use xlink:href="#DejaVuSans-75" x="388.671875"/>
     <use xlink:href="#DejaVuSans-69" x="452.050781"/>
     <use xlink:href="#DejaVuSans-6c" x="479.833984"/>
     <use xlink:href="#DejaVuSans-64" x="507.617188"/>
     <use xlink:href="#DejaVuSans-69" x="571.09375"/>
     <use xlink:href="#DejaVuSans-6e" x="598.876953"/>
     <use xlink:href="#DejaVuSans-67" x="662.255859"/>
     <use xlink:href="#DejaVuSans-20" x="725.732422"/>
     <use xlink:href="#DejaVuSans-70" x="757.519531"/>
     <use xlink:href="#DejaVuSans-6f" x="820.996094"/>
     <use xlink:href="#DejaVuSans-77" x="882.177734"/>
     <use xlink:href="#DejaVuSans-65" x="963.964844"/>
     <use xlink:href="#DejaVuSans-72" x="1025.488281"/>
     <use xlink:href="#DejaVuSans-20" x="1066.601562"/>
     <use xlink:href="#DejaVuSans-6c" x="1098.388672"/>
     <use xlink:href="#DejaVuSans-6f" x="1126.171875"/>
     <use xlink:href="#DejaVuSans-61" x="1187.353516"/>
     <use xlink:href="#DejaVuSans-64" x="1248.632812"/>
    </g>
   </g>
   <g id="legend_1">
    <g id="patch_7">
     <path d="M 61 102.894375 
L 220.3 102.894375 
Q 222.3 102.894375 222.3 100.894375 
L 222.3 41.56 
Q 222.3 39.56 220.3 39.56 
L 61 39.56 
Q 59 39.56 59 41.56 
L 59 100.894375 
Q 59 102.894375 61 102.894375 
z
" style="fill: #ffffff; opacity: 0.8; stroke: #cccccc; stroke-linejoin: miter"/>
    </g>
    <g id="patch_8">
     <path d="M 63 52.76 
L 83 52.76 
L 83 45.76 
L 63 45.76 
z
" style="fill: #add8e6; fill-opacity: 0.5; stroke: #add8e6; stroke-opacity: 0.5; stroke-linejoin: miter"/>
    </g>
    <g id="text_17">
     <!-- Power Range (5$^{th}$ to 95$^{th}$) -->
     <g transform="translate(91 52.76) scale(0.1 -0.1)">
      <defs>
       <path id="DejaVuSans-52" d="M 2841 2188 
Q 3044 2119 3236 1894 
Q 3428 1669 3622 1275 
L 4263 0 
L 3584 0 
L 2988 1197 
Q 2756 1666 2539 1819 
Q 2322 1972 1947 1972 
L 1259 1972 
L 1259 0 
L 628 0 
L 628 4666 
L 2053 4666 
Q 2853 4666 3247 4331 
Q 3641 3997 3641 3322 
Q 3641 2881 3436 2590 
Q 3231 2300 2841 2188 
z
M 1259 4147 
L 1259 2491 
L 2053 2491 
Q 2509 2491 2742 2702 
Q 2975 2913 2975 3322 
Q 2975 3731 2742 3939 
Q 2509 4147 2053 4147 
L 1259 4147 
z
" transform="scale(0.015625)"/>
       <path id="DejaVuSans-Oblique-74" d="M 2706 3500 
L 2619 3053 
L 1472 3053 
L 1100 1153 
Q 1081 1047 1072 975 
Q 1063 903 1063 863 
Q 1063 663 1183 572 
Q 1303 481 1569 481 
L 2150 481 
L 2053 0 
L 1503 0 
Q 991 0 739 200 
Q 488 400 488 806 
Q 488 878 497 964 
Q 506 1050 525 1153 
L 897 3053 
L 409 3053 
L 500 3500 
L 978 3500 
L 1172 4494 
L 1747 4494 
L 1556 3500 
L 2706 3500 
z
" transform="scale(0.015625)"/>
       <path id="DejaVuSans-Oblique-68" d="M 3566 2113 
L 3156 0 
L 2578 0 
L 2988 2091 
Q 3016 2238 3031 2350 
Q 3047 2463 3047 2528 
Q 3047 2791 2881 2937 
Q 2716 3084 2419 3084 
Q 1956 3084 1617 2771 
Q 1278 2459 1178 1941 
L 800 0 
L 225 0 
L 1172 4863 
L 1747 4863 
L 1375 2950 
Q 1594 3244 1934 3414 
Q 2275 3584 2650 3584 
Q 3113 3584 3367 3334 
Q 3622 3084 3622 2631 
Q 3622 2519 3608 2391 
Q 3594 2263 3566 2113 
z
" transform="scale(0.015625)"/>
       <path id="DejaVuSans-74" d="M 1172 4494 
L 1172 3500 
L 2356 3500 
L 2356 3053 
L 1172 3053 
L 1172 1153 
Q 1172 725 1289 603 
Q 1406 481 1766 481 
L 2356 481 
L 2356 0 
L 1766 0 
Q 1100 0 847 248 
Q 594 497 594 1153 
L 594 3053 
L 172 3053 
L 172 3500 
L 594 3500 
L 594 4494 
L 1172 4494 
z
" transform="scale(0.015625)"/>
       <path id="DejaVuSans-39" d="M 703 97 
L 703 672 
Q 941 559 1184 500 
Q 1428 441 1663 441 
Q 2288 441 2617 861 
Q 2947 1281 2994 2138 
Q 2813 1869 2534 1725 
Q 2256 1581 1919 1581 
Q 1219 1581 811 2004 
Q 403 2428 403 3163 
Q 403 3881 828 4315 
Q 1253 4750 1959 4750 
Q 2769 4750 3195 4129 
Q 3622 3509 3622 2328 
Q 3622 1225 3098 567 
Q 2575 -91 1691 -91 
Q 1453 -91 1209 -44 
Q 966 3 703 97 
z
M 1959 2075 
Q 2384 2075 2632 2365 
Q 2881 2656 2881 3163 
Q 2881 3666 2632 3958 
Q 2384 4250 1959 4250 
Q 1534 4250 1286 3958 
Q 1038 3666 1038 3163 
Q 1038 2656 1286 2365 
Q 1534 2075 1959 2075 
z
" transform="scale(0.015625)"/>
      </defs>
      <use xlink:href="#DejaVuSans-50" transform="translate(0 0.529687)"/>
      <use xlink:href="#DejaVuSans-6f" transform="translate(60.302734 0.529687)"/>
      <use xlink:href="#DejaVuSans-77" transform="translate(121.484375 0.529687)"/>
      <use xlink:href="#DejaVuSans-65" transform="translate(203.271484 0.529687)"/>
      <use xlink:href="#DejaVuSans-72" transform="translate(264.794922 0.529687)"/>
      <use xlink:href="#DejaVuSans-20" transform="translate(305.908203 0.529687)"/>
      <use xlink:href="#DejaVuSans-52" transform="translate(337.695312 0.529687)"/>
      <use xlink:href="#DejaVuSans-61" transform="translate(407.177734 0.529687)"/>
      <use xlink:href="#DejaVuSans-6e" transform="translate(468.457031 0.529687)"/>
      <use xlink:href="#DejaVuSans-67" transform="translate(531.835938 0.529687)"/>
      <use xlink:href="#DejaVuSans-65" transform="translate(595.3125 0.529687)"/>
      <use xlink:href="#DejaVuSans-20" transform="translate(656.835938 0.529687)"/>
      <use xlink:href="#DejaVuSans-28" transform="translate(688.623047 0.529687)"/>
      <use xlink:href="#DejaVuSans-35" transform="translate(727.636719 0.529687)"/>
      <use xlink:href="#DejaVuSans-Oblique-74" transform="translate(792.216797 38.810937) scale(0.7)"/>
      <use xlink:href="#DejaVuSans-Oblique-68" transform="translate(819.663086 38.810937) scale(0.7)"/>
      <use xlink:href="#DejaVuSans-20" transform="translate(866.762695 0.529687)"/>
      <use xlink:href="#DejaVuSans-74" transform="translate(898.549805 0.529687)"/>
      <use xlink:href="#DejaVuSans-6f" transform="translate(937.758789 0.529687)"/>
      <use xlink:href="#DejaVuSans-20" transform="translate(998.94043 0.529687)"/>
      <use xlink:href="#DejaVuSans-39" transform="translate(1030.727539 0.529687)"/>
      <use xlink:href="#DejaVuSans-35" transform="translate(1094.350586 0.529687)"/>
      <use xlink:href="#DejaVuSans-Oblique-74" transform="translate(1158.930664 38.810937) scale(0.7)"/>
      <use xlink:href="#DejaVuSans-Oblique-68" transform="translate(1186.376953 38.810937) scale(0.7)"/>
      <use xlink:href="#DejaVuSans-29" transform="translate(1233.476562 0.529687)"/>
     </g>
    </g>
    <g id="line2d_17">
     <path d="M 63 63.958438 
L 73 63.958438 
L 83 63.958438 
" style="fill: none; stroke: #0000ff; stroke-width: 2; stroke-linecap: square"/>
    </g>
    <g id="text_18">
     <!-- Annual Average -->
     <g transform="translate(91 67.458438) scale(0.1 -0.1)">
      <defs>
       <path id="DejaVuSans-41" d="M 2188 4044 
L 1331 1722 
L 3047 1722 
L 2188 4044 
z
M 1831 4666 
L 2547 4666 
L 4325 0 
L 3669 0 
L 3244 1197 
L 1141 1197 
L 716 0 
L 50 0 
L 1831 4666 
z
" transform="scale(0.015625)"/>
       <path id="DejaVuSans-76" d="M 191 3500 
L 800 3500 
L 1894 563 
L 2988 3500 
L 3597 3500 
L 2284 0 
L 1503 0 
L 191 3500 
z
" transform="scale(0.015625)"/>
      </defs>
      <use xlink:href="#DejaVuSans-41"/>
      <use xlink:href="#DejaVuSans-6e" x="68.408203"/>
      <use xlink:href="#DejaVuSans-6e" x="131.787109"/>
      <use xlink:href="#DejaVuSans-75" x="195.166016"/>
      <use xlink:href="#DejaVuSans-61" x="258.544922"/>
      <use xlink:href="#DejaVuSans-6c" x="319.824219"/>
      <use xlink:href="#DejaVuSans-20" x="347.607422"/>
      <use xlink:href="#DejaVuSans-41" x="379.394531"/>
      <use xlink:href="#DejaVuSans-76" x="441.927734"/>
      <use xlink:href="#DejaVuSans-65" x="501.107422"/>
      <use xlink:href="#DejaVuSans-72" x="562.630859"/>
      <use xlink:href="#DejaVuSans-61" x="603.744141"/>
      <use xlink:href="#DejaVuSans-67" x="665.023438"/>
      <use xlink:href="#DejaVuSans-65" x="728.5"/>
     </g>
    </g>
    <g id="line2d_18">
     <path d="M 63 78.636563 
L 73 78.636563 
L 83 78.636563 
" style="fill: none; stroke: #008000; stroke-width: 2; stroke-linecap: square"/>
    </g>
    <g id="text_19">
     <!-- 25th -->
     <g transform="translate(91 82.136563) scale(0.1 -0.1)">
      <defs>
       <path id="DejaVuSans-68" d="M 3513 2113 
L 3513 0 
L 2938 0 
L 2938 2094 
Q 2938 2591 2744 2837 
Q 2550 3084 2163 3084 
Q 1697 3084 1428 2787 
Q 1159 2491 1159 1978 
L 1159 0 
L 581 0 
L 581 4863 
L 1159 4863 
L 1159 2956 
Q 1366 3272 1645 3428 
Q 1925 3584 2291 3584 
Q 2894 3584 3203 3211 
Q 3513 2838 3513 2113 
z
" transform="scale(0.015625)"/>
      </defs>
      <use xlink:href="#DejaVuSans-32"/>
      <use xlink:href="#DejaVuSans-35" x="63.623047"/>
      <use xlink:href="#DejaVuSans-74" x="127.246094"/>
      <use xlink:href="#DejaVuSans-68" x="166.455078"/>
     </g>
    </g>
    <g id="line2d_19">
     <path d="M 63 93.314688 
L 73 93.314688 
L 83 93.314688 
" style="fill: none; stroke: #ff0000; stroke-width: 2; stroke-linecap: square"/>
    </g>
    <g id="text_20">
     <!-- 75th -->
     <g transform="translate(91 96.814688) scale(0.1 -0.1)">
      <use xlink:href="#DejaVuSans-37"/>
      <use xlink:href="#DejaVuSans-35" x="63.623047"/>
      <use xlink:href="#DejaVuSans-74" x="127.246094"/>
      <use xlink:href="#DejaVuSans-68" x="166.455078"/>
     </g>
    </g>
   </g>
  </g>
 </g>
 <defs>
  <clipPath id="pc6085fb791">
   <rect x="54" y="34.56" width="334.8" height="221.76"/>
  </clipPath>
 </defs>
</svg>
