<?xml version="1.0" encoding="utf-8" standalone="no"?>
<!DOCTYPE svg PUBLIC "-//W3C//DTD SVG 1.1//EN"
  "http://www.w3.org/Graphics/SVG/1.1/DTD/svg11.dtd">
<svg xmlns:xlink="http://www.w3.org/1999/xlink" width="432pt" height="288pt" viewBox="0 0 432 288" xmlns="http://www.w3.org/2000/svg" version="1.1">
 <metadata>
  <rdf:RDF xmlns:dc="http://purl.org/dc/elements/1.1/" xmlns:cc="http://creativecommons.org/ns#" xmlns:rdf="http://www.w3.org/1999/02/22-rdf-syntax-ns#">
   <cc:Work>
    <dc:type rdf:resource="http://purl.org/dc/dcmitype/StillImage"/>
    <dc:date>2024-03-12T14:53:24.780859</dc:date>
    <dc:format>image/svg+xml</dc:format>
    <dc:creator>
     <cc:Agent>
      <dc:title>Matplotlib v3.7.1, https://matplotlib.org/</dc:title>
     </cc:Agent>
    </dc:creator>
   </cc:Work>
  </rdf:RDF>
 </metadata>
 <defs>
  <style type="text/css">*{stroke-linejoin: round; stroke-linecap: butt}</style>
 </defs>
 <g id="figure_1">
  <g id="patch_1">
   <path d="M 0 288 
L 432 288 
L 432 0 
L 0 0 
z
" style="fill: #ffffff"/>
  </g>
  <g id="axes_1">
   <g id="patch_2">
    <path d="M 54 256.32 
L 388.8 256.32 
L 388.8 34.56 
L 54 34.56 
z
" style="fill: #ffffff"/>
   </g>
   <g id="PolyCollection_1">
    <defs>
     <path id="m3399d081d1" d="M 69.218182 -148.450455 
L 69.218182 -62.639775 
L 72.410807 -49.158757 
L 75.603433 -41.76 
L 78.796058 -59.062591 
L 81.988684 -46.481887 
L 85.18131 -51.899973 
L 88.373935 -48.954318 
L 91.566561 -62.773896 
L 94.759186 -58.445012 
L 97.951812 -49.557478 
L 101.144437 -48.953303 
L 104.337063 -50.221157 
L 107.529688 -53.943478 
L 110.722314 -51.762375 
L 113.91494 -48.176222 
L 117.107565 -51.951022 
L 120.300191 -53.439375 
L 123.492816 -47.196068 
L 126.685442 -51.488132 
L 129.878067 -50.454039 
L 133.070693 -53.432708 
L 136.263319 -53.583617 
L 139.455944 -54.384395 
L 142.64857 -48.026849 
L 145.841195 -53.855004 
L 149.033821 -60.657772 
L 152.226446 -58.366627 
L 155.419072 -57.255018 
L 158.611697 -52.764656 
L 161.804323 -52.813459 
L 164.996949 -60.46263 
L 168.189574 -61.005113 
L 171.3822 -61.757774 
L 174.574825 -68.893054 
L 177.767451 -63.439382 
L 180.960076 -61.979854 
L 184.152702 -67.765691 
L 187.345327 -67.739374 
L 190.537953 -59.974532 
L 193.730579 -61.767794 
L 196.923204 -65.078321 
L 200.11583 -68.861023 
L 203.308455 -69.734828 
L 206.501081 -61.573859 
L 209.693706 -53.266799 
L 212.886332 -49.66393 
L 216.078957 -60.98558 
L 219.271583 -57.126711 
L 222.464209 -58.417102 
L 225.656834 -54.831534 
L 228.84946 -65.424652 
L 232.042085 -62.714279 
L 235.234711 -60.431982 
L 238.427336 -64.091122 
L 241.619962 -58.815319 
L 244.812587 -61.116041 
L 248.005213 -52.187239 
L 251.197839 -64.136025 
L 254.390464 -56.034937 
L 257.58309 -49.136885 
L 260.775715 -58.570872 
L 263.968341 -48.457274 
L 267.160966 -48.999169 
L 270.353592 -59.932952 
L 273.546217 -57.185015 
L 276.738843 -53.362383 
L 279.931469 -59.678787 
L 283.124094 -52.17229 
L 286.31672 -47.775818 
L 289.509345 -58.840203 
L 292.701971 -53.596366 
L 295.894596 -52.590695 
L 299.087222 -53.484866 
L 302.279847 -56.109554 
L 305.472473 -47.525907 
L 308.665099 -50.925609 
L 311.857724 -54.033294 
L 313.986141 -102.366082 
L 316.114558 -104.894389 
L 320.371392 -109.192394 
L 322.499809 -94.631326 
L 326.756643 -107.911809 
L 328.88506 -99.580098 
L 333.141894 -99.506367 
L 335.270312 -103.176524 
L 339.527146 -106.21662 
L 341.655563 -101.544019 
L 345.912397 -98.641126 
L 348.040814 -88.913131 
L 352.297648 -100.992014 
L 354.426065 -85.089211 
L 358.682899 -90.933792 
L 360.811316 -96.72172 
L 365.06815 -82.858556 
L 367.196567 -92.157693 
L 371.453401 -94.563741 
L 373.581818 -86.018474 
L 373.581818 -147.473454 
L 373.581818 -147.473454 
L 371.453401 -150.317467 
L 367.196567 -145.031456 
L 365.06815 -145.263712 
L 360.811316 -155.402369 
L 358.682899 -150.708211 
L 354.426065 -151.383614 
L 352.297648 -167.616303 
L 348.040814 -180.409967 
L 345.912397 -183.113714 
L 341.655563 -188.779256 
L 339.527146 -201.429029 
L 335.270312 -207.717277 
L 333.141894 -199.413017 
L 328.88506 -204.716599 
L 326.756643 -209.137645 
L 322.499809 -215.309409 
L 320.371392 -217.251897 
L 316.114558 -212.212843 
L 313.986141 -214.987537 
L 311.857724 -183.379601 
L 308.665099 -185.340033 
L 305.472473 -185.132491 
L 302.279847 -195.074548 
L 299.087222 -205.563226 
L 295.894596 -224.216494 
L 292.701971 -207.290156 
L 289.509345 -216.807236 
L 286.31672 -234.455011 
L 283.124094 -234.149369 
L 279.931469 -218.179299 
L 276.738843 -224.462623 
L 273.546217 -237.85541 
L 270.353592 -239.595286 
L 267.160966 -226.807898 
L 263.968341 -224.075475 
L 260.775715 -228.33297 
L 257.58309 -234.707192 
L 254.390464 -234.072922 
L 251.197839 -241.870118 
L 248.005213 -234.124152 
L 244.812587 -243.36 
L 241.619962 -239.619662 
L 238.427336 -240.738333 
L 235.234711 -237.702085 
L 232.042085 -232.517259 
L 228.84946 -230.237549 
L 225.656834 -236.834584 
L 222.464209 -233.193101 
L 219.271583 -236.560616 
L 216.078957 -237.742433 
L 212.886332 -240.52583 
L 209.693706 -235.667797 
L 206.501081 -236.461357 
L 203.308455 -229.893539 
L 200.11583 -230.135668 
L 196.923204 -229.581881 
L 193.730579 -228.523731 
L 190.537953 -224.138101 
L 187.345327 -223.131614 
L 184.152702 -223.522495 
L 180.960076 -220.406105 
L 177.767451 -213.716718 
L 174.574825 -214.026648 
L 171.3822 -209.942084 
L 168.189574 -205.465167 
L 164.996949 -189.466057 
L 161.804323 -195.861348 
L 158.611697 -190.099534 
L 155.419072 -165.671339 
L 152.226446 -167.726103 
L 149.033821 -156.217606 
L 145.841195 -159.213508 
L 142.64857 -138.641905 
L 139.455944 -133.735644 
L 136.263319 -133.693039 
L 133.070693 -136.689777 
L 129.878067 -132.504701 
L 126.685442 -134.099594 
L 123.492816 -136.597983 
L 120.300191 -134.852897 
L 117.107565 -131.341539 
L 113.91494 -131.302655 
L 110.722314 -129.385762 
L 107.529688 -137.845411 
L 104.337063 -135.361291 
L 101.144437 -134.288013 
L 97.951812 -134.990471 
L 94.759186 -138.673931 
L 91.566561 -137.236639 
L 88.373935 -138.525938 
L 85.18131 -140.258632 
L 81.988684 -142.694592 
L 78.796058 -140.973815 
L 75.603433 -145.214478 
L 72.410807 -140.703478 
L 69.218182 -148.450455 
z
" style="stroke: #add8e6; stroke-opacity: 0.5"/>
    </defs>
    <g clip-path="url(#p58f0f48552)">
     <use xlink:href="#m3399d081d1" x="0" y="288" style="fill: #add8e6; fill-opacity: 0.5; stroke: #add8e6; stroke-opacity: 0.5"/>
    </g>
   </g>
   <g id="matplotlib.axis_1">
    <g id="xtick_1">
     <g id="line2d_1">
      <defs>
       <path id="m58520ce8cb" d="M 0 0 
L 0 3.5 
" style="stroke: #000000; stroke-width: 0.8"/>
      </defs>
      <g>
       <use xlink:href="#m58520ce8cb" x="69.218182" y="256.32" style="stroke: #000000; stroke-width: 0.8"/>
      </g>
     </g>
     <g id="text_1">
      <!-- 0 -->
      <g transform="translate(66.036932 270.918437) scale(0.1 -0.1)">
       <defs>
        <path id="DejaVuSans-30" d="M 2034 4250 
Q 1547 4250 1301 3770 
Q 1056 3291 1056 2328 
Q 1056 1369 1301 889 
Q 1547 409 2034 409 
Q 2525 409 2770 889 
Q 3016 1369 3016 2328 
Q 3016 3291 2770 3770 
Q 2525 4250 2034 4250 
z
M 2034 4750 
Q 2819 4750 3233 4129 
Q 3647 3509 3647 2328 
Q 3647 1150 3233 529 
Q 2819 -91 2034 -91 
Q 1250 -91 836 529 
Q 422 1150 422 2328 
Q 422 3509 836 4129 
Q 1250 4750 2034 4750 
z
" transform="scale(0.015625)"/>
       </defs>
       <use xlink:href="#DejaVuSans-30"/>
      </g>
     </g>
    </g>
    <g id="xtick_2">
     <g id="line2d_2">
      <g>
       <use xlink:href="#m58520ce8cb" x="123.492816" y="256.32" style="stroke: #000000; stroke-width: 0.8"/>
      </g>
     </g>
     <g id="text_2">
      <!-- 4 -->
      <g transform="translate(120.311566 270.918437) scale(0.1 -0.1)">
       <defs>
        <path id="DejaVuSans-34" d="M 2419 4116 
L 825 1625 
L 2419 1625 
L 2419 4116 
z
M 2253 4666 
L 3047 4666 
L 3047 1625 
L 3713 1625 
L 3713 1100 
L 3047 1100 
L 3047 0 
L 2419 0 
L 2419 1100 
L 313 1100 
L 313 1709 
L 2253 4666 
z
" transform="scale(0.015625)"/>
       </defs>
       <use xlink:href="#DejaVuSans-34"/>
      </g>
     </g>
    </g>
    <g id="xtick_3">
     <g id="line2d_3">
      <g>
       <use xlink:href="#m58520ce8cb" x="174.574825" y="256.32" style="stroke: #000000; stroke-width: 0.8"/>
      </g>
     </g>
     <g id="text_3">
      <!-- 8 -->
      <g transform="translate(171.393575 270.918437) scale(0.1 -0.1)">
       <defs>
        <path id="DejaVuSans-38" d="M 2034 2216 
Q 1584 2216 1326 1975 
Q 1069 1734 1069 1313 
Q 1069 891 1326 650 
Q 1584 409 2034 409 
Q 2484 409 2743 651 
Q 3003 894 3003 1313 
Q 3003 1734 2745 1975 
Q 2488 2216 2034 2216 
z
M 1403 2484 
Q 997 2584 770 2862 
Q 544 3141 544 3541 
Q 544 4100 942 4425 
Q 1341 4750 2034 4750 
Q 2731 4750 3128 4425 
Q 3525 4100 3525 3541 
Q 3525 3141 3298 2862 
Q 3072 2584 2669 2484 
Q 3125 2378 3379 2068 
Q 3634 1759 3634 1313 
Q 3634 634 3220 271 
Q 2806 -91 2034 -91 
Q 1263 -91 848 271 
Q 434 634 434 1313 
Q 434 1759 690 2068 
Q 947 2378 1403 2484 
z
M 1172 3481 
Q 1172 3119 1398 2916 
Q 1625 2713 2034 2713 
Q 2441 2713 2670 2916 
Q 2900 3119 2900 3481 
Q 2900 3844 2670 4047 
Q 2441 4250 2034 4250 
Q 1625 4250 1398 4047 
Q 1172 3844 1172 3481 
z
" transform="scale(0.015625)"/>
       </defs>
       <use xlink:href="#DejaVuSans-38"/>
      </g>
     </g>
    </g>
    <g id="xtick_4">
     <g id="line2d_4">
      <g>
       <use xlink:href="#m58520ce8cb" x="225.656834" y="256.32" style="stroke: #000000; stroke-width: 0.8"/>
      </g>
     </g>
     <g id="text_4">
      <!-- 12 -->
      <g transform="translate(219.294334 270.918437) scale(0.1 -0.1)">
       <defs>
        <path id="DejaVuSans-31" d="M 794 531 
L 1825 531 
L 1825 4091 
L 703 3866 
L 703 4441 
L 1819 4666 
L 2450 4666 
L 2450 531 
L 3481 531 
L 3481 0 
L 794 0 
L 794 531 
z
" transform="scale(0.015625)"/>
        <path id="DejaVuSans-32" d="M 1228 531 
L 3431 531 
L 3431 0 
L 469 0 
L 469 531 
Q 828 903 1448 1529 
Q 2069 2156 2228 2338 
Q 2531 2678 2651 2914 
Q 2772 3150 2772 3378 
Q 2772 3750 2511 3984 
Q 2250 4219 1831 4219 
Q 1534 4219 1204 4116 
Q 875 4013 500 3803 
L 500 4441 
Q 881 4594 1212 4672 
Q 1544 4750 1819 4750 
Q 2544 4750 2975 4387 
Q 3406 4025 3406 3419 
Q 3406 3131 3298 2873 
Q 3191 2616 2906 2266 
Q 2828 2175 2409 1742 
Q 1991 1309 1228 531 
z
" transform="scale(0.015625)"/>
       </defs>
       <use xlink:href="#DejaVuSans-31"/>
       <use xlink:href="#DejaVuSans-32" x="63.623047"/>
      </g>
     </g>
    </g>
    <g id="xtick_5">
     <g id="line2d_5">
      <g>
       <use xlink:href="#m58520ce8cb" x="276.738843" y="256.32" style="stroke: #000000; stroke-width: 0.8"/>
      </g>
     </g>
     <g id="text_5">
      <!-- 16 -->
      <g transform="translate(270.376343 270.918437) scale(0.1 -0.1)">
       <defs>
        <path id="DejaVuSans-36" d="M 2113 2584 
Q 1688 2584 1439 2293 
Q 1191 2003 1191 1497 
Q 1191 994 1439 701 
Q 1688 409 2113 409 
Q 2538 409 2786 701 
Q 3034 994 3034 1497 
Q 3034 2003 2786 2293 
Q 2538 2584 2113 2584 
z
M 3366 4563 
L 3366 3988 
Q 3128 4100 2886 4159 
Q 2644 4219 2406 4219 
Q 1781 4219 1451 3797 
Q 1122 3375 1075 2522 
Q 1259 2794 1537 2939 
Q 1816 3084 2150 3084 
Q 2853 3084 3261 2657 
Q 3669 2231 3669 1497 
Q 3669 778 3244 343 
Q 2819 -91 2113 -91 
Q 1303 -91 875 529 
Q 447 1150 447 2328 
Q 447 3434 972 4092 
Q 1497 4750 2381 4750 
Q 2619 4750 2861 4703 
Q 3103 4656 3366 4563 
z
" transform="scale(0.015625)"/>
       </defs>
       <use xlink:href="#DejaVuSans-31"/>
       <use xlink:href="#DejaVuSans-36" x="63.623047"/>
      </g>
     </g>
    </g>
    <g id="xtick_6">
     <g id="line2d_6">
      <g>
       <use xlink:href="#m58520ce8cb" x="326.756643" y="256.32" style="stroke: #000000; stroke-width: 0.8"/>
      </g>
     </g>
     <g id="text_6">
      <!-- 20 -->
      <g transform="translate(320.394143 270.918437) scale(0.1 -0.1)">
       <use xlink:href="#DejaVuSans-32"/>
       <use xlink:href="#DejaVuSans-30" x="63.623047"/>
      </g>
     </g>
    </g>
    <g id="text_7">
     <!-- Time -->
     <g transform="translate(209.166406 284.596563) scale(0.1 -0.1)">
      <defs>
       <path id="DejaVuSans-54" d="M -19 4666 
L 3928 4666 
L 3928 4134 
L 2272 4134 
L 2272 0 
L 1638 0 
L 1638 4134 
L -19 4134 
L -19 4666 
z
" transform="scale(0.015625)"/>
       <path id="DejaVuSans-69" d="M 603 3500 
L 1178 3500 
L 1178 0 
L 603 0 
L 603 3500 
z
M 603 4863 
L 1178 4863 
L 1178 4134 
L 603 4134 
L 603 4863 
z
" transform="scale(0.015625)"/>
       <path id="DejaVuSans-6d" d="M 3328 2828 
Q 3544 3216 3844 3400 
Q 4144 3584 4550 3584 
Q 5097 3584 5394 3201 
Q 5691 2819 5691 2113 
L 5691 0 
L 5113 0 
L 5113 2094 
Q 5113 2597 4934 2840 
Q 4756 3084 4391 3084 
Q 3944 3084 3684 2787 
Q 3425 2491 3425 1978 
L 3425 0 
L 2847 0 
L 2847 2094 
Q 2847 2600 2669 2842 
Q 2491 3084 2119 3084 
Q 1678 3084 1418 2786 
Q 1159 2488 1159 1978 
L 1159 0 
L 581 0 
L 581 3500 
L 1159 3500 
L 1159 2956 
Q 1356 3278 1631 3431 
Q 1906 3584 2284 3584 
Q 2666 3584 2933 3390 
Q 3200 3197 3328 2828 
z
" transform="scale(0.015625)"/>
       <path id="DejaVuSans-65" d="M 3597 1894 
L 3597 1613 
L 953 1613 
Q 991 1019 1311 708 
Q 1631 397 2203 397 
Q 2534 397 2845 478 
Q 3156 559 3463 722 
L 3463 178 
Q 3153 47 2828 -22 
Q 2503 -91 2169 -91 
Q 1331 -91 842 396 
Q 353 884 353 1716 
Q 353 2575 817 3079 
Q 1281 3584 2069 3584 
Q 2775 3584 3186 3129 
Q 3597 2675 3597 1894 
z
M 3022 2063 
Q 3016 2534 2758 2815 
Q 2500 3097 2075 3097 
Q 1594 3097 1305 2825 
Q 1016 2553 972 2059 
L 3022 2063 
z
" transform="scale(0.015625)"/>
      </defs>
      <use xlink:href="#DejaVuSans-54"/>
      <use xlink:href="#DejaVuSans-69" x="57.958984"/>
      <use xlink:href="#DejaVuSans-6d" x="85.742188"/>
      <use xlink:href="#DejaVuSans-65" x="183.154297"/>
     </g>
    </g>
   </g>
   <g id="matplotlib.axis_2">
    <g id="ytick_1">
     <g id="line2d_7">
      <defs>
       <path id="m9b1279bb41" d="M 0 0 
L -3.5 0 
" style="stroke: #000000; stroke-width: 0.8"/>
      </defs>
      <g>
       <use xlink:href="#m9b1279bb41" x="54" y="237.113035" style="stroke: #000000; stroke-width: 0.8"/>
      </g>
     </g>
     <g id="text_8">
      <!-- 600 -->
      <g transform="translate(27.9125 240.912254) scale(0.1 -0.1)">
       <use xlink:href="#DejaVuSans-36"/>
       <use xlink:href="#DejaVuSans-30" x="63.623047"/>
       <use xlink:href="#DejaVuSans-30" x="127.246094"/>
      </g>
     </g>
    </g>
    <g id="ytick_2">
     <g id="line2d_8">
      <g>
       <use xlink:href="#m9b1279bb41" x="54" y="210.21381" style="stroke: #000000; stroke-width: 0.8"/>
      </g>
     </g>
     <g id="text_9">
      <!-- 800 -->
      <g transform="translate(27.9125 214.013028) scale(0.1 -0.1)">
       <use xlink:href="#DejaVuSans-38"/>
       <use xlink:href="#DejaVuSans-30" x="63.623047"/>
       <use xlink:href="#DejaVuSans-30" x="127.246094"/>
      </g>
     </g>
    </g>
    <g id="ytick_3">
     <g id="line2d_9">
      <g>
       <use xlink:href="#m9b1279bb41" x="54" y="183.314585" style="stroke: #000000; stroke-width: 0.8"/>
      </g>
     </g>
     <g id="text_10">
      <!-- 1000 -->
      <g transform="translate(21.55 187.113803) scale(0.1 -0.1)">
       <use xlink:href="#DejaVuSans-31"/>
       <use xlink:href="#DejaVuSans-30" x="63.623047"/>
       <use xlink:href="#DejaVuSans-30" x="127.246094"/>
       <use xlink:href="#DejaVuSans-30" x="190.869141"/>
      </g>
     </g>
    </g>
    <g id="ytick_4">
     <g id="line2d_10">
      <g>
       <use xlink:href="#m9b1279bb41" x="54" y="156.415359" style="stroke: #000000; stroke-width: 0.8"/>
      </g>
     </g>
     <g id="text_11">
      <!-- 1200 -->
      <g transform="translate(21.55 160.214578) scale(0.1 -0.1)">
       <use xlink:href="#DejaVuSans-31"/>
       <use xlink:href="#DejaVuSans-32" x="63.623047"/>
       <use xlink:href="#DejaVuSans-30" x="127.246094"/>
       <use xlink:href="#DejaVuSans-30" x="190.869141"/>
      </g>
     </g>
    </g>
    <g id="ytick_5">
     <g id="line2d_11">
      <g>
       <use xlink:href="#m9b1279bb41" x="54" y="129.516134" style="stroke: #000000; stroke-width: 0.8"/>
      </g>
     </g>
     <g id="text_12">
      <!-- 1400 -->
      <g transform="translate(21.55 133.315353) scale(0.1 -0.1)">
       <use xlink:href="#DejaVuSans-31"/>
       <use xlink:href="#DejaVuSans-34" x="63.623047"/>
       <use xlink:href="#DejaVuSans-30" x="127.246094"/>
       <use xlink:href="#DejaVuSans-30" x="190.869141"/>
      </g>
     </g>
    </g>
    <g id="ytick_6">
     <g id="line2d_12">
      <g>
       <use xlink:href="#m9b1279bb41" x="54" y="102.616909" style="stroke: #000000; stroke-width: 0.8"/>
      </g>
     </g>
     <g id="text_13">
      <!-- 1600 -->
      <g transform="translate(21.55 106.416128) scale(0.1 -0.1)">
       <use xlink:href="#DejaVuSans-31"/>
       <use xlink:href="#DejaVuSans-36" x="63.623047"/>
       <use xlink:href="#DejaVuSans-30" x="127.246094"/>
       <use xlink:href="#DejaVuSans-30" x="190.869141"/>
      </g>
     </g>
    </g>
    <g id="ytick_7">
     <g id="line2d_13">
      <g>
       <use xlink:href="#m9b1279bb41" x="54" y="75.717684" style="stroke: #000000; stroke-width: 0.8"/>
      </g>
     </g>
     <g id="text_14">
      <!-- 1800 -->
      <g transform="translate(21.55 79.516902) scale(0.1 -0.1)">
       <use xlink:href="#DejaVuSans-31"/>
       <use xlink:href="#DejaVuSans-38" x="63.623047"/>
       <use xlink:href="#DejaVuSans-30" x="127.246094"/>
       <use xlink:href="#DejaVuSans-30" x="190.869141"/>
      </g>
     </g>
    </g>
    <g id="ytick_8">
     <g id="line2d_14">
      <g>
       <use xlink:href="#m9b1279bb41" x="54" y="48.818458" style="stroke: #000000; stroke-width: 0.8"/>
      </g>
     </g>
     <g id="text_15">
      <!-- 2000 -->
      <g transform="translate(21.55 52.617677) scale(0.1 -0.1)">
       <use xlink:href="#DejaVuSans-32"/>
       <use xlink:href="#DejaVuSans-30" x="63.623047"/>
       <use xlink:href="#DejaVuSans-30" x="127.246094"/>
       <use xlink:href="#DejaVuSans-30" x="190.869141"/>
      </g>
     </g>
    </g>
    <g id="text_16">
     <!-- Power (kW) -->
     <g transform="translate(15.470312 173.88375) rotate(-90) scale(0.1 -0.1)">
      <defs>
       <path id="DejaVuSans-50" d="M 1259 4147 
L 1259 2394 
L 2053 2394 
Q 2494 2394 2734 2622 
Q 2975 2850 2975 3272 
Q 2975 3691 2734 3919 
Q 2494 4147 2053 4147 
L 1259 4147 
z
M 628 4666 
L 2053 4666 
Q 2838 4666 3239 4311 
Q 3641 3956 3641 3272 
Q 3641 2581 3239 2228 
Q 2838 1875 2053 1875 
L 1259 1875 
L 1259 0 
L 628 0 
L 628 4666 
z
" transform="scale(0.015625)"/>
       <path id="DejaVuSans-6f" d="M 1959 3097 
Q 1497 3097 1228 2736 
Q 959 2375 959 1747 
Q 959 1119 1226 758 
Q 1494 397 1959 397 
Q 2419 397 2687 759 
Q 2956 1122 2956 1747 
Q 2956 2369 2687 2733 
Q 2419 3097 1959 3097 
z
M 1959 3584 
Q 2709 3584 3137 3096 
Q 3566 2609 3566 1747 
Q 3566 888 3137 398 
Q 2709 -91 1959 -91 
Q 1206 -91 779 398 
Q 353 888 353 1747 
Q 353 2609 779 3096 
Q 1206 3584 1959 3584 
z
" transform="scale(0.015625)"/>
       <path id="DejaVuSans-77" d="M 269 3500 
L 844 3500 
L 1563 769 
L 2278 3500 
L 2956 3500 
L 3675 769 
L 4391 3500 
L 4966 3500 
L 4050 0 
L 3372 0 
L 2619 2869 
L 1863 0 
L 1184 0 
L 269 3500 
z
" transform="scale(0.015625)"/>
       <path id="DejaVuSans-72" d="M 2631 2963 
Q 2534 3019 2420 3045 
Q 2306 3072 2169 3072 
Q 1681 3072 1420 2755 
Q 1159 2438 1159 1844 
L 1159 0 
L 581 0 
L 581 3500 
L 1159 3500 
L 1159 2956 
Q 1341 3275 1631 3429 
Q 1922 3584 2338 3584 
Q 2397 3584 2469 3576 
Q 2541 3569 2628 3553 
L 2631 2963 
z
" transform="scale(0.015625)"/>
       <path id="DejaVuSans-20" transform="scale(0.015625)"/>
       <path id="DejaVuSans-28" d="M 1984 4856 
Q 1566 4138 1362 3434 
Q 1159 2731 1159 2009 
Q 1159 1288 1364 580 
Q 1569 -128 1984 -844 
L 1484 -844 
Q 1016 -109 783 600 
Q 550 1309 550 2009 
Q 550 2706 781 3412 
Q 1013 4119 1484 4856 
L 1984 4856 
z
" transform="scale(0.015625)"/>
       <path id="DejaVuSans-6b" d="M 581 4863 
L 1159 4863 
L 1159 1991 
L 2875 3500 
L 3609 3500 
L 1753 1863 
L 3688 0 
L 2938 0 
L 1159 1709 
L 1159 0 
L 581 0 
L 581 4863 
z
" transform="scale(0.015625)"/>
       <path id="DejaVuSans-57" d="M 213 4666 
L 850 4666 
L 1831 722 
L 2809 4666 
L 3519 4666 
L 4500 722 
L 5478 4666 
L 6119 4666 
L 4947 0 
L 4153 0 
L 3169 4050 
L 2175 0 
L 1381 0 
L 213 4666 
z
" transform="scale(0.015625)"/>
       <path id="DejaVuSans-29" d="M 513 4856 
L 1013 4856 
Q 1481 4119 1714 3412 
Q 1947 2706 1947 2009 
Q 1947 1309 1714 600 
Q 1481 -109 1013 -844 
L 513 -844 
Q 928 -128 1133 580 
Q 1338 1288 1338 2009 
Q 1338 2731 1133 3434 
Q 928 4138 513 4856 
z
" transform="scale(0.015625)"/>
      </defs>
      <use xlink:href="#DejaVuSans-50"/>
      <use xlink:href="#DejaVuSans-6f" x="56.677734"/>
      <use xlink:href="#DejaVuSans-77" x="117.859375"/>
      <use xlink:href="#DejaVuSans-65" x="199.646484"/>
      <use xlink:href="#DejaVuSans-72" x="261.169922"/>
      <use xlink:href="#DejaVuSans-20" x="302.283203"/>
      <use xlink:href="#DejaVuSans-28" x="334.070312"/>
      <use xlink:href="#DejaVuSans-6b" x="373.083984"/>
      <use xlink:href="#DejaVuSans-57" x="430.994141"/>
      <use xlink:href="#DejaVuSans-29" x="529.871094"/>
     </g>
    </g>
   </g>
   <g id="line2d_15">
    <path d="M 69.218182 186.651896 
L 72.410807 188.979666 
L 75.603433 190.533024 
L 78.796058 188.827555 
L 81.988684 189.761131 
L 85.18131 191.76341 
L 88.373935 191.767461 
L 91.566561 187.880803 
L 94.759186 185.922361 
L 97.951812 189.042645 
L 101.144437 192.083905 
L 104.337063 190.499577 
L 107.529688 189.032943 
L 110.722314 191.720455 
L 113.91494 191.963424 
L 117.107565 189.699213 
L 120.300191 186.489595 
L 123.492816 185.939173 
L 126.685442 189.738855 
L 129.878067 189.737749 
L 133.070693 190.033514 
L 136.263319 190.923673 
L 139.455944 189.835804 
L 142.64857 188.906374 
L 145.841195 180.090789 
L 149.033821 178.513608 
L 152.226446 175.35119 
L 155.419072 173.424892 
L 158.611697 166.457343 
L 161.804323 163.853196 
L 164.996949 166.267021 
L 168.189574 157.758536 
L 171.3822 156.287358 
L 174.574825 151.842556 
L 177.767451 148.950156 
L 180.960076 148.521856 
L 184.152702 147.69747 
L 187.345327 147.903629 
L 190.537953 147.169289 
L 193.730579 146.181796 
L 196.923204 143.051926 
L 200.11583 142.752283 
L 203.308455 140.134923 
L 206.501081 139.530185 
L 209.693706 142.548907 
L 212.886332 142.127168 
L 216.078957 138.757085 
L 219.271583 139.490923 
L 222.464209 140.182907 
L 225.656834 138.290947 
L 228.84946 137.934366 
L 232.042085 138.390914 
L 235.234711 137.687342 
L 238.427336 136.878696 
L 241.619962 136.549969 
L 244.812587 138.960675 
L 248.005213 136.953894 
L 251.197839 135.186819 
L 254.390464 137.806078 
L 257.58309 139.333524 
L 260.775715 139.897509 
L 263.968341 142.225489 
L 267.160966 142.615434 
L 270.353592 140.081963 
L 273.546217 137.612498 
L 276.738843 144.407396 
L 279.931469 144.512088 
L 283.124094 144.968095 
L 286.31672 145.968254 
L 289.509345 152.096082 
L 292.701971 154.516906 
L 295.894596 154.697535 
L 299.087222 157.801058 
L 302.279847 163.498546 
L 305.472473 168.319443 
L 308.665099 172.104575 
L 311.857724 173.184634 
L 313.986141 131.77365 
L 316.114558 134.596845 
L 320.371392 135.354085 
L 322.499809 138.184947 
L 326.756643 141.42309 
L 328.88506 139.023461 
L 333.141894 140.032106 
L 335.270312 139.349027 
L 339.527146 147.585838 
L 341.655563 152.141092 
L 345.912397 156.619698 
L 348.040814 159.597915 
L 352.297648 163.152611 
L 354.426065 172.130477 
L 358.682899 164.976914 
L 360.811316 161.836747 
L 365.06815 173.436865 
L 367.196567 168.812172 
L 371.453401 169.989945 
L 373.581818 174.0902 
" clip-path="url(#p58f0f48552)" style="fill: none; stroke: #0000ff; stroke-width: 2; stroke-linecap: square"/>
   </g>
   <g id="line2d_16">
    <path d="M 69.218182 204.228732 
L 72.410807 206.649662 
L 75.603433 209.070593 
L 78.796058 207.499785 
L 81.988684 206.851407 
L 85.18131 206.866537 
L 88.373935 207.476814 
L 91.566561 205.661116 
L 94.759186 203.220011 
L 97.951812 205.237453 
L 101.144437 207.476814 
L 104.337063 207.275947 
L 107.529688 205.993994 
L 110.722314 206.195738 
L 113.91494 206.397482 
L 117.107565 203.699153 
L 120.300191 201.11361 
L 123.492816 199.745688 
L 126.685442 204.652395 
L 129.878067 206.80097 
L 133.070693 206.949053 
L 136.263319 205.857816 
L 139.455944 204.344564 
L 142.64857 204.705857 
L 145.841195 199.149822 
L 149.033821 195.510817 
L 152.226446 191.569284 
L 155.419072 194.696319 
L 158.611697 186.990793 
L 161.804323 184.054313 
L 164.996949 188.916348 
L 168.189574 184.99192 
L 171.3822 182.161448 
L 174.574825 178.956496 
L 177.767451 177.245448 
L 180.960076 180.791101 
L 184.152702 180.76773 
L 187.345327 181.912463 
L 190.537953 180.797496 
L 193.730579 181.948704 
L 196.923204 180.964752 
L 200.11583 176.842552 
L 203.308455 175.999676 
L 206.501081 177.477452 
L 209.693706 175.734887 
L 212.886332 176.916036 
L 216.078957 174.491638 
L 219.271583 173.144996 
L 222.464209 177.702313 
L 225.656834 172.110577 
L 228.84946 172.091891 
L 232.042085 175.228005 
L 235.234711 175.024685 
L 238.427336 174.089828 
L 241.619962 176.741087 
L 244.812587 177.868332 
L 248.005213 172.172721 
L 251.197839 174.120429 
L 254.390464 179.485267 
L 257.58309 172.055576 
L 260.775715 175.104464 
L 263.968341 175.853906 
L 267.160966 176.081011 
L 270.353592 177.227794 
L 273.546217 173.667388 
L 276.738843 177.734676 
L 279.931469 178.359325 
L 283.124094 178.323321 
L 286.31672 179.724258 
L 289.509345 182.276918 
L 292.701971 185.219209 
L 295.894596 186.547238 
L 299.087222 184.999432 
L 302.279847 191.103149 
L 305.472473 197.74045 
L 308.665099 197.669412 
L 311.857724 199.951741 
L 313.986141 158.364942 
L 316.114558 158.060523 
L 320.371392 154.410256 
L 322.499809 155.862673 
L 326.756643 162.881031 
L 328.88506 155.320599 
L 333.141894 159.026418 
L 335.270312 165.84959 
L 339.527146 163.708972 
L 341.655563 168.974394 
L 345.912397 182.678051 
L 348.040814 174.380043 
L 352.297648 177.287324 
L 354.426065 186.976547 
L 358.682899 184.345962 
L 360.811316 175.506626 
L 365.06815 186.370744 
L 367.196567 182.066232 
L 371.453401 189.881358 
L 373.581818 184.015378 
" clip-path="url(#p58f0f48552)" style="fill: none; stroke: #008000; stroke-width: 2; stroke-linecap: square"/>
   </g>
   <g id="line2d_17">
    <path d="M 69.218182 169.347161 
L 72.410807 172.087745 
L 75.603433 172.51415 
L 78.796058 172.151407 
L 81.988684 174.847177 
L 85.18131 174.82249 
L 88.373935 176.158004 
L 91.566561 172.238631 
L 94.759186 169.326987 
L 97.951812 171.265653 
L 101.144437 174.689907 
L 104.337063 172.756639 
L 107.529688 171.079316 
L 110.722314 175.943332 
L 113.91494 173.674406 
L 117.107565 172.247655 
L 120.300191 169.735519 
L 123.492816 170.148675 
L 126.685442 171.981605 
L 129.878067 171.88378 
L 133.070693 171.705735 
L 136.263319 174.022623 
L 139.455944 173.563772 
L 142.64857 172.423761 
L 145.841195 162.876217 
L 149.033821 163.476406 
L 152.226446 160.542616 
L 155.419072 152.966722 
L 158.611697 146.093984 
L 161.804323 142.959022 
L 164.996949 142.252236 
L 168.189574 131.65126 
L 171.3822 128.630141 
L 174.574825 121.893825 
L 177.767451 118.971637 
L 180.960076 116.056434 
L 184.152702 115.903445 
L 187.345327 115.394041 
L 190.537953 115.511723 
L 193.730579 109.12987 
L 196.923204 104.572145 
L 200.11583 108.814607 
L 203.308455 102.378177 
L 206.501081 102.487805 
L 209.693706 107.154472 
L 212.886332 104.541504 
L 216.078957 101.881023 
L 219.271583 103.427248 
L 222.464209 100.631951 
L 225.656834 104.994801 
L 228.84946 105.96016 
L 232.042085 99.626388 
L 235.234711 98.592604 
L 238.427336 102.060431 
L 241.619962 94.122743 
L 244.812587 103.575474 
L 248.005213 102.622432 
L 251.197839 96.737411 
L 254.390464 100.876574 
L 257.58309 102.967608 
L 260.775715 104.033389 
L 263.968341 101.999319 
L 267.160966 105.954559 
L 270.353592 103.52764 
L 273.546217 98.984913 
L 276.738843 108.414653 
L 279.931469 106.618897 
L 283.124094 106.776875 
L 286.31672 108.568362 
L 289.509345 120.417543 
L 292.701971 122.997887 
L 295.894596 118.906071 
L 299.087222 125.026413 
L 302.279847 130.892702 
L 305.472473 141.546812 
L 308.665099 148.504717 
L 311.857724 148.391592 
L 313.986141 99.933623 
L 316.114558 115.881257 
L 320.371392 127.546723 
L 322.499809 127.996932 
L 326.756643 124.507027 
L 328.88506 122.162103 
L 333.141894 114.731571 
L 335.270312 121.998221 
L 339.527146 139.716748 
L 341.655563 142.327807 
L 345.912397 146.249199 
L 348.040814 153.494429 
L 352.297648 153.753253 
L 354.426065 155.042444 
L 358.682899 145.401884 
L 360.811316 148.316489 
L 365.06815 159.764421 
L 367.196567 156.778652 
L 371.453401 149.866991 
L 373.581818 166.121582 
" clip-path="url(#p58f0f48552)" style="fill: none; stroke: #ff0000; stroke-width: 2; stroke-linecap: square"/>
   </g>
   <g id="patch_3">
    <path d="M 54 256.32 
L 54 34.56 
" style="fill: none; stroke: #000000; stroke-width: 0.8; stroke-linejoin: miter; stroke-linecap: square"/>
   </g>
   <g id="patch_4">
    <path d="M 388.8 256.32 
L 388.8 34.56 
" style="fill: none; stroke: #000000; stroke-width: 0.8; stroke-linejoin: miter; stroke-linecap: square"/>
   </g>
   <g id="patch_5">
    <path d="M 54 256.32 
L 388.8 256.32 
" style="fill: none; stroke: #000000; stroke-width: 0.8; stroke-linejoin: miter; stroke-linecap: square"/>
   </g>
   <g id="patch_6">
    <path d="M 54 34.56 
L 388.8 34.56 
" style="fill: none; stroke: #000000; stroke-width: 0.8; stroke-linejoin: miter; stroke-linecap: square"/>
   </g>
   <g id="text_17">
    <!-- Office building power load -->
    <g transform="translate(142.671562 28.56) scale(0.12 -0.12)">
     <defs>
      <path id="DejaVuSans-4f" d="M 2522 4238 
Q 1834 4238 1429 3725 
Q 1025 3213 1025 2328 
Q 1025 1447 1429 934 
Q 1834 422 2522 422 
Q 3209 422 3611 934 
Q 4013 1447 4013 2328 
Q 4013 3213 3611 3725 
Q 3209 4238 2522 4238 
z
M 2522 4750 
Q 3503 4750 4090 4092 
Q 4678 3434 4678 2328 
Q 4678 1225 4090 567 
Q 3503 -91 2522 -91 
Q 1538 -91 948 565 
Q 359 1222 359 2328 
Q 359 3434 948 4092 
Q 1538 4750 2522 4750 
z
" transform="scale(0.015625)"/>
      <path id="DejaVuSans-66" d="M 2375 4863 
L 2375 4384 
L 1825 4384 
Q 1516 4384 1395 4259 
Q 1275 4134 1275 3809 
L 1275 3500 
L 2222 3500 
L 2222 3053 
L 1275 3053 
L 1275 0 
L 697 0 
L 697 3053 
L 147 3053 
L 147 3500 
L 697 3500 
L 697 3744 
Q 697 4328 969 4595 
Q 1241 4863 1831 4863 
L 2375 4863 
z
" transform="scale(0.015625)"/>
      <path id="DejaVuSans-63" d="M 3122 3366 
L 3122 2828 
Q 2878 2963 2633 3030 
Q 2388 3097 2138 3097 
Q 1578 3097 1268 2742 
Q 959 2388 959 1747 
Q 959 1106 1268 751 
Q 1578 397 2138 397 
Q 2388 397 2633 464 
Q 2878 531 3122 666 
L 3122 134 
Q 2881 22 2623 -34 
Q 2366 -91 2075 -91 
Q 1284 -91 818 406 
Q 353 903 353 1747 
Q 353 2603 823 3093 
Q 1294 3584 2113 3584 
Q 2378 3584 2631 3529 
Q 2884 3475 3122 3366 
z
" transform="scale(0.015625)"/>
      <path id="DejaVuSans-62" d="M 3116 1747 
Q 3116 2381 2855 2742 
Q 2594 3103 2138 3103 
Q 1681 3103 1420 2742 
Q 1159 2381 1159 1747 
Q 1159 1113 1420 752 
Q 1681 391 2138 391 
Q 2594 391 2855 752 
Q 3116 1113 3116 1747 
z
M 1159 2969 
Q 1341 3281 1617 3432 
Q 1894 3584 2278 3584 
Q 2916 3584 3314 3078 
Q 3713 2572 3713 1747 
Q 3713 922 3314 415 
Q 2916 -91 2278 -91 
Q 1894 -91 1617 61 
Q 1341 213 1159 525 
L 1159 0 
L 581 0 
L 581 4863 
L 1159 4863 
L 1159 2969 
z
" transform="scale(0.015625)"/>
      <path id="DejaVuSans-75" d="M 544 1381 
L 544 3500 
L 1119 3500 
L 1119 1403 
Q 1119 906 1312 657 
Q 1506 409 1894 409 
Q 2359 409 2629 706 
Q 2900 1003 2900 1516 
L 2900 3500 
L 3475 3500 
L 3475 0 
L 2900 0 
L 2900 538 
Q 2691 219 2414 64 
Q 2138 -91 1772 -91 
Q 1169 -91 856 284 
Q 544 659 544 1381 
z
M 1991 3584 
L 1991 3584 
z
" transform="scale(0.015625)"/>
      <path id="DejaVuSans-6c" d="M 603 4863 
L 1178 4863 
L 1178 0 
L 603 0 
L 603 4863 
z
" transform="scale(0.015625)"/>
      <path id="DejaVuSans-64" d="M 2906 2969 
L 2906 4863 
L 3481 4863 
L 3481 0 
L 2906 0 
L 2906 525 
Q 2725 213 2448 61 
Q 2172 -91 1784 -91 
Q 1150 -91 751 415 
Q 353 922 353 1747 
Q 353 2572 751 3078 
Q 1150 3584 1784 3584 
Q 2172 3584 2448 3432 
Q 2725 3281 2906 2969 
z
M 947 1747 
Q 947 1113 1208 752 
Q 1469 391 1925 391 
Q 2381 391 2643 752 
Q 2906 1113 2906 1747 
Q 2906 2381 2643 2742 
Q 2381 3103 1925 3103 
Q 1469 3103 1208 2742 
Q 947 2381 947 1747 
z
" transform="scale(0.015625)"/>
      <path id="DejaVuSans-6e" d="M 3513 2113 
L 3513 0 
L 2938 0 
L 2938 2094 
Q 2938 2591 2744 2837 
Q 2550 3084 2163 3084 
Q 1697 3084 1428 2787 
Q 1159 2491 1159 1978 
L 1159 0 
L 581 0 
L 581 3500 
L 1159 3500 
L 1159 2956 
Q 1366 3272 1645 3428 
Q 1925 3584 2291 3584 
Q 2894 3584 3203 3211 
Q 3513 2838 3513 2113 
z
" transform="scale(0.015625)"/>
      <path id="DejaVuSans-67" d="M 2906 1791 
Q 2906 2416 2648 2759 
Q 2391 3103 1925 3103 
Q 1463 3103 1205 2759 
Q 947 2416 947 1791 
Q 947 1169 1205 825 
Q 1463 481 1925 481 
Q 2391 481 2648 825 
Q 2906 1169 2906 1791 
z
M 3481 434 
Q 3481 -459 3084 -895 
Q 2688 -1331 1869 -1331 
Q 1566 -1331 1297 -1286 
Q 1028 -1241 775 -1147 
L 775 -588 
Q 1028 -725 1275 -790 
Q 1522 -856 1778 -856 
Q 2344 -856 2625 -561 
Q 2906 -266 2906 331 
L 2906 616 
Q 2728 306 2450 153 
Q 2172 0 1784 0 
Q 1141 0 747 490 
Q 353 981 353 1791 
Q 353 2603 747 3093 
Q 1141 3584 1784 3584 
Q 2172 3584 2450 3431 
Q 2728 3278 2906 2969 
L 2906 3500 
L 3481 3500 
L 3481 434 
z
" transform="scale(0.015625)"/>
      <path id="DejaVuSans-70" d="M 1159 525 
L 1159 -1331 
L 581 -1331 
L 581 3500 
L 1159 3500 
L 1159 2969 
Q 1341 3281 1617 3432 
Q 1894 3584 2278 3584 
Q 2916 3584 3314 3078 
Q 3713 2572 3713 1747 
Q 3713 922 3314 415 
Q 2916 -91 2278 -91 
Q 1894 -91 1617 61 
Q 1341 213 1159 525 
z
M 3116 1747 
Q 3116 2381 2855 2742 
Q 2594 3103 2138 3103 
Q 1681 3103 1420 2742 
Q 1159 2381 1159 1747 
Q 1159 1113 1420 752 
Q 1681 391 2138 391 
Q 2594 391 2855 752 
Q 3116 1113 3116 1747 
z
" transform="scale(0.015625)"/>
      <path id="DejaVuSans-61" d="M 2194 1759 
Q 1497 1759 1228 1600 
Q 959 1441 959 1056 
Q 959 750 1161 570 
Q 1363 391 1709 391 
Q 2188 391 2477 730 
Q 2766 1069 2766 1631 
L 2766 1759 
L 2194 1759 
z
M 3341 1997 
L 3341 0 
L 2766 0 
L 2766 531 
Q 2569 213 2275 61 
Q 1981 -91 1556 -91 
Q 1019 -91 701 211 
Q 384 513 384 1019 
Q 384 1609 779 1909 
Q 1175 2209 1959 2209 
L 2766 2209 
L 2766 2266 
Q 2766 2663 2505 2880 
Q 2244 3097 1772 3097 
Q 1472 3097 1187 3025 
Q 903 2953 641 2809 
L 641 3341 
Q 956 3463 1253 3523 
Q 1550 3584 1831 3584 
Q 2591 3584 2966 3190 
Q 3341 2797 3341 1997 
z
" transform="scale(0.015625)"/>
     </defs>
     <use xlink:href="#DejaVuSans-4f"/>
     <use xlink:href="#DejaVuSans-66" x="78.710938"/>
     <use xlink:href="#DejaVuSans-66" x="113.916016"/>
     <use xlink:href="#DejaVuSans-69" x="149.121094"/>
     <use xlink:href="#DejaVuSans-63" x="176.904297"/>
     <use xlink:href="#DejaVuSans-65" x="231.884766"/>
     <use xlink:href="#DejaVuSans-20" x="293.408203"/>
     <use xlink:href="#DejaVuSans-62" x="325.195312"/>
     <use xlink:href="#DejaVuSans-75" x="388.671875"/>
     <use xlink:href="#DejaVuSans-69" x="452.050781"/>
     <use xlink:href="#DejaVuSans-6c" x="479.833984"/>
     <use xlink:href="#DejaVuSans-64" x="507.617188"/>
     <use xlink:href="#DejaVuSans-69" x="571.09375"/>
     <use xlink:href="#DejaVuSans-6e" x="598.876953"/>
     <use xlink:href="#DejaVuSans-67" x="662.255859"/>
     <use xlink:href="#DejaVuSans-20" x="725.732422"/>
     <use xlink:href="#DejaVuSans-70" x="757.519531"/>
     <use xlink:href="#DejaVuSans-6f" x="820.996094"/>
     <use xlink:href="#DejaVuSans-77" x="882.177734"/>
     <use xlink:href="#DejaVuSans-65" x="963.964844"/>
     <use xlink:href="#DejaVuSans-72" x="1025.488281"/>
     <use xlink:href="#DejaVuSans-20" x="1066.601562"/>
     <use xlink:href="#DejaVuSans-6c" x="1098.388672"/>
     <use xlink:href="#DejaVuSans-6f" x="1126.171875"/>
     <use xlink:href="#DejaVuSans-61" x="1187.353516"/>
     <use xlink:href="#DejaVuSans-64" x="1248.632812"/>
    </g>
   </g>
   <g id="legend_1">
    <g id="patch_7">
     <path d="M 61 102.894375 
L 220.3 102.894375 
Q 222.3 102.894375 222.3 100.894375 
L 222.3 41.56 
Q 222.3 39.56 220.3 39.56 
L 61 39.56 
Q 59 39.56 59 41.56 
L 59 100.894375 
Q 59 102.894375 61 102.894375 
z
" style="fill: #ffffff; opacity: 0.8; stroke: #cccccc; stroke-linejoin: miter"/>
    </g>
    <g id="patch_8">
     <path d="M 63 52.76 
L 83 52.76 
L 83 45.76 
L 63 45.76 
z
" style="fill: #add8e6; fill-opacity: 0.5; stroke: #add8e6; stroke-opacity: 0.5; stroke-linejoin: miter"/>
    </g>
    <g id="text_18">
     <!-- Power Range (5$^{th}$ to 95$^{th}$) -->
     <g transform="translate(91 52.76) scale(0.1 -0.1)">
      <defs>
       <path id="DejaVuSans-52" d="M 2841 2188 
Q 3044 2119 3236 1894 
Q 3428 1669 3622 1275 
L 4263 0 
L 3584 0 
L 2988 1197 
Q 2756 1666 2539 1819 
Q 2322 1972 1947 1972 
L 1259 1972 
L 1259 0 
L 628 0 
L 628 4666 
L 2053 4666 
Q 2853 4666 3247 4331 
Q 3641 3997 3641 3322 
Q 3641 2881 3436 2590 
Q 3231 2300 2841 2188 
z
M 1259 4147 
L 1259 2491 
L 2053 2491 
Q 2509 2491 2742 2702 
Q 2975 2913 2975 3322 
Q 2975 3731 2742 3939 
Q 2509 4147 2053 4147 
L 1259 4147 
z
" transform="scale(0.015625)"/>
       <path id="DejaVuSans-35" d="M 691 4666 
L 3169 4666 
L 3169 4134 
L 1269 4134 
L 1269 2991 
Q 1406 3038 1543 3061 
Q 1681 3084 1819 3084 
Q 2600 3084 3056 2656 
Q 3513 2228 3513 1497 
Q 3513 744 3044 326 
Q 2575 -91 1722 -91 
Q 1428 -91 1123 -41 
Q 819 9 494 109 
L 494 744 
Q 775 591 1075 516 
Q 1375 441 1709 441 
Q 2250 441 2565 725 
Q 2881 1009 2881 1497 
Q 2881 1984 2565 2268 
Q 2250 2553 1709 2553 
Q 1456 2553 1204 2497 
Q 953 2441 691 2322 
L 691 4666 
z
" transform="scale(0.015625)"/>
       <path id="DejaVuSans-Oblique-74" d="M 2706 3500 
L 2619 3053 
L 1472 3053 
L 1100 1153 
Q 1081 1047 1072 975 
Q 1063 903 1063 863 
Q 1063 663 1183 572 
Q 1303 481 1569 481 
L 2150 481 
L 2053 0 
L 1503 0 
Q 991 0 739 200 
Q 488 400 488 806 
Q 488 878 497 964 
Q 506 1050 525 1153 
L 897 3053 
L 409 3053 
L 500 3500 
L 978 3500 
L 1172 4494 
L 1747 4494 
L 1556 3500 
L 2706 3500 
z
" transform="scale(0.015625)"/>
       <path id="DejaVuSans-Oblique-68" d="M 3566 2113 
L 3156 0 
L 2578 0 
L 2988 2091 
Q 3016 2238 3031 2350 
Q 3047 2463 3047 2528 
Q 3047 2791 2881 2937 
Q 2716 3084 2419 3084 
Q 1956 3084 1617 2771 
Q 1278 2459 1178 1941 
L 800 0 
L 225 0 
L 1172 4863 
L 1747 4863 
L 1375 2950 
Q 1594 3244 1934 3414 
Q 2275 3584 2650 3584 
Q 3113 3584 3367 3334 
Q 3622 3084 3622 2631 
Q 3622 2519 3608 2391 
Q 3594 2263 3566 2113 
z
" transform="scale(0.015625)"/>
       <path id="DejaVuSans-74" d="M 1172 4494 
L 1172 3500 
L 2356 3500 
L 2356 3053 
L 1172 3053 
L 1172 1153 
Q 1172 725 1289 603 
Q 1406 481 1766 481 
L 2356 481 
L 2356 0 
L 1766 0 
Q 1100 0 847 248 
Q 594 497 594 1153 
L 594 3053 
L 172 3053 
L 172 3500 
L 594 3500 
L 594 4494 
L 1172 4494 
z
" transform="scale(0.015625)"/>
       <path id="DejaVuSans-39" d="M 703 97 
L 703 672 
Q 941 559 1184 500 
Q 1428 441 1663 441 
Q 2288 441 2617 861 
Q 2947 1281 2994 2138 
Q 2813 1869 2534 1725 
Q 2256 1581 1919 1581 
Q 1219 1581 811 2004 
Q 403 2428 403 3163 
Q 403 3881 828 4315 
Q 1253 4750 1959 4750 
Q 2769 4750 3195 4129 
Q 3622 3509 3622 2328 
Q 3622 1225 3098 567 
Q 2575 -91 1691 -91 
Q 1453 -91 1209 -44 
Q 966 3 703 97 
z
M 1959 2075 
Q 2384 2075 2632 2365 
Q 2881 2656 2881 3163 
Q 2881 3666 2632 3958 
Q 2384 4250 1959 4250 
Q 1534 4250 1286 3958 
Q 1038 3666 1038 3163 
Q 1038 2656 1286 2365 
Q 1534 2075 1959 2075 
z
" transform="scale(0.015625)"/>
      </defs>
      <use xlink:href="#DejaVuSans-50" transform="translate(0 0.529687)"/>
      <use xlink:href="#DejaVuSans-6f" transform="translate(60.302734 0.529687)"/>
      <use xlink:href="#DejaVuSans-77" transform="translate(121.484375 0.529687)"/>
      <use xlink:href="#DejaVuSans-65" transform="translate(203.271484 0.529687)"/>
      <use xlink:href="#DejaVuSans-72" transform="translate(264.794922 0.529687)"/>
      <use xlink:href="#DejaVuSans-20" transform="translate(305.908203 0.529687)"/>
      <use xlink:href="#DejaVuSans-52" transform="translate(337.695312 0.529687)"/>
      <use xlink:href="#DejaVuSans-61" transform="translate(407.177734 0.529687)"/>
      <use xlink:href="#DejaVuSans-6e" transform="translate(468.457031 0.529687)"/>
      <use xlink:href="#DejaVuSans-67" transform="translate(531.835938 0.529687)"/>
      <use xlink:href="#DejaVuSans-65" transform="translate(595.3125 0.529687)"/>
      <use xlink:href="#DejaVuSans-20" transform="translate(656.835938 0.529687)"/>
      <use xlink:href="#DejaVuSans-28" transform="translate(688.623047 0.529687)"/>
      <use xlink:href="#DejaVuSans-35" transform="translate(727.636719 0.529687)"/>
      <use xlink:href="#DejaVuSans-Oblique-74" transform="translate(792.216797 38.810937) scale(0.7)"/>
      <use xlink:href="#DejaVuSans-Oblique-68" transform="translate(819.663086 38.810937) scale(0.7)"/>
      <use xlink:href="#DejaVuSans-20" transform="translate(866.762695 0.529687)"/>
      <use xlink:href="#DejaVuSans-74" transform="translate(898.549805 0.529687)"/>
      <use xlink:href="#DejaVuSans-6f" transform="translate(937.758789 0.529687)"/>
      <use xlink:href="#DejaVuSans-20" transform="translate(998.94043 0.529687)"/>
      <use xlink:href="#DejaVuSans-39" transform="translate(1030.727539 0.529687)"/>
      <use xlink:href="#DejaVuSans-35" transform="translate(1094.350586 0.529687)"/>
      <use xlink:href="#DejaVuSans-Oblique-74" transform="translate(1158.930664 38.810937) scale(0.7)"/>
      <use xlink:href="#DejaVuSans-Oblique-68" transform="translate(1186.376953 38.810937) scale(0.7)"/>
      <use xlink:href="#DejaVuSans-29" transform="translate(1233.476562 0.529687)"/>
     </g>
    </g>
    <g id="line2d_18">
     <path d="M 63 63.958438 
L 73 63.958438 
L 83 63.958438 
" style="fill: none; stroke: #0000ff; stroke-width: 2; stroke-linecap: square"/>
    </g>
    <g id="text_19">
     <!-- Annual Average -->
     <g transform="translate(91 67.458438) scale(0.1 -0.1)">
      <defs>
       <path id="DejaVuSans-41" d="M 2188 4044 
L 1331 1722 
L 3047 1722 
L 2188 4044 
z
M 1831 4666 
L 2547 4666 
L 4325 0 
L 3669 0 
L 3244 1197 
L 1141 1197 
L 716 0 
L 50 0 
L 1831 4666 
z
" transform="scale(0.015625)"/>
       <path id="DejaVuSans-76" d="M 191 3500 
L 800 3500 
L 1894 563 
L 2988 3500 
L 3597 3500 
L 2284 0 
L 1503 0 
L 191 3500 
z
" transform="scale(0.015625)"/>
      </defs>
      <use xlink:href="#DejaVuSans-41"/>
      <use xlink:href="#DejaVuSans-6e" x="68.408203"/>
      <use xlink:href="#DejaVuSans-6e" x="131.787109"/>
      <use xlink:href="#DejaVuSans-75" x="195.166016"/>
      <use xlink:href="#DejaVuSans-61" x="258.544922"/>
      <use xlink:href="#DejaVuSans-6c" x="319.824219"/>
      <use xlink:href="#DejaVuSans-20" x="347.607422"/>
      <use xlink:href="#DejaVuSans-41" x="379.394531"/>
      <use xlink:href="#DejaVuSans-76" x="441.927734"/>
      <use xlink:href="#DejaVuSans-65" x="501.107422"/>
      <use xlink:href="#DejaVuSans-72" x="562.630859"/>
      <use xlink:href="#DejaVuSans-61" x="603.744141"/>
      <use xlink:href="#DejaVuSans-67" x="665.023438"/>
      <use xlink:href="#DejaVuSans-65" x="728.5"/>
     </g>
    </g>
    <g id="line2d_19">
     <path d="M 63 78.636563 
L 73 78.636563 
L 83 78.636563 
" style="fill: none; stroke: #008000; stroke-width: 2; stroke-linecap: square"/>
    </g>
    <g id="text_20">
     <!-- 25th -->
     <g transform="translate(91 82.136563) scale(0.1 -0.1)">
      <defs>
       <path id="DejaVuSans-68" d="M 3513 2113 
L 3513 0 
L 2938 0 
L 2938 2094 
Q 2938 2591 2744 2837 
Q 2550 3084 2163 3084 
Q 1697 3084 1428 2787 
Q 1159 2491 1159 1978 
L 1159 0 
L 581 0 
L 581 4863 
L 1159 4863 
L 1159 2956 
Q 1366 3272 1645 3428 
Q 1925 3584 2291 3584 
Q 2894 3584 3203 3211 
Q 3513 2838 3513 2113 
z
" transform="scale(0.015625)"/>
      </defs>
      <use xlink:href="#DejaVuSans-32"/>
      <use xlink:href="#DejaVuSans-35" x="63.623047"/>
      <use xlink:href="#DejaVuSans-74" x="127.246094"/>
      <use xlink:href="#DejaVuSans-68" x="166.455078"/>
     </g>
    </g>
    <g id="line2d_20">
     <path d="M 63 93.314688 
L 73 93.314688 
L 83 93.314688 
" style="fill: none; stroke: #ff0000; stroke-width: 2; stroke-linecap: square"/>
    </g>
    <g id="text_21">
     <!-- 75th -->
     <g transform="translate(91 96.814688) scale(0.1 -0.1)">
      <defs>
       <path id="DejaVuSans-37" d="M 525 4666 
L 3525 4666 
L 3525 4397 
L 1831 0 
L 1172 0 
L 2766 4134 
L 525 4134 
L 525 4666 
z
" transform="scale(0.015625)"/>
      </defs>
      <use xlink:href="#DejaVuSans-37"/>
      <use xlink:href="#DejaVuSans-35" x="63.623047"/>
      <use xlink:href="#DejaVuSans-74" x="127.246094"/>
      <use xlink:href="#DejaVuSans-68" x="166.455078"/>
     </g>
    </g>
   </g>
  </g>
 </g>
 <defs>
  <clipPath id="p58f0f48552">
   <rect x="54" y="34.56" width="334.8" height="221.76"/>
  </clipPath>
 </defs>
</svg>
