<?xml version="1.0" encoding="utf-8" standalone="no"?>
<!DOCTYPE svg PUBLIC "-//W3C//DTD SVG 1.1//EN"
  "http://www.w3.org/Graphics/SVG/1.1/DTD/svg11.dtd">
<svg xmlns:xlink="http://www.w3.org/1999/xlink" width="432pt" height="288pt" viewBox="0 0 432 288" xmlns="http://www.w3.org/2000/svg" version="1.1">
 <metadata>
  <rdf:RDF xmlns:dc="http://purl.org/dc/elements/1.1/" xmlns:cc="http://creativecommons.org/ns#" xmlns:rdf="http://www.w3.org/1999/02/22-rdf-syntax-ns#">
   <cc:Work>
    <dc:type rdf:resource="http://purl.org/dc/dcmitype/StillImage"/>
    <dc:date>2024-03-12T14:53:39.510945</dc:date>
    <dc:format>image/svg+xml</dc:format>
    <dc:creator>
     <cc:Agent>
      <dc:title>Matplotlib v3.7.1, https://matplotlib.org/</dc:title>
     </cc:Agent>
    </dc:creator>
   </cc:Work>
  </rdf:RDF>
 </metadata>
 <defs>
  <style type="text/css">*{stroke-linejoin: round; stroke-linecap: butt}</style>
 </defs>
 <g id="figure_1">
  <g id="patch_1">
   <path d="M 0 288 
L 432 288 
L 432 0 
L 0 0 
z
" style="fill: #ffffff"/>
  </g>
  <g id="axes_1">
   <g id="patch_2">
    <path d="M 54 256.32 
L 388.8 256.32 
L 388.8 34.56 
L 54 34.56 
z
" style="fill: #ffffff"/>
   </g>
   <g id="PolyCollection_1">
    <defs>
     <path id="mecbb6a1f9d" d="M 69.218182 -195.59867 
L 69.218182 -42.471288 
L 72.42201 -41.76 
L 75.625837 -45.21179 
L 78.829665 -43.538069 
L 82.033493 -42.72107 
L 85.237321 -42.555103 
L 88.441148 -46.304343 
L 91.644976 -47.192266 
L 94.848804 -49.198998 
L 98.052632 -46.017944 
L 101.256459 -42.809188 
L 104.460287 -47.137426 
L 107.664115 -44.694328 
L 110.867943 -42.879049 
L 114.07177 -47.773475 
L 117.275598 -47.993513 
L 120.479426 -47.161914 
L 123.683254 -45.472293 
L 126.887081 -45.270172 
L 130.090909 -46.921438 
L 133.294737 -45.861661 
L 136.498565 -45.668449 
L 139.702392 -46.315808 
L 142.90622 -48.298368 
L 146.110048 -47.723953 
L 149.313876 -49.225065 
L 152.517703 -50.636699 
L 155.721531 -53.941683 
L 158.925359 -54.299784 
L 162.129187 -55.698124 
L 165.333014 -52.400907 
L 168.536842 -53.920493 
L 171.74067 -51.56376 
L 174.944498 -52.919303 
L 178.148325 -53.344324 
L 181.352153 -56.447417 
L 184.555981 -53.09496 
L 187.759809 -52.653802 
L 190.963636 -52.8399 
L 194.167464 -49.635682 
L 197.371292 -52.811865 
L 200.57512 -51.882647 
L 203.778947 -49.437342 
L 206.982775 -50.879671 
L 210.186603 -50.503395 
L 213.390431 -48.249274 
L 216.594258 -47.201057 
L 219.798086 -46.77568 
L 223.001914 -47.457019 
L 226.205742 -46.826376 
L 229.409569 -49.111564 
L 232.613397 -47.406951 
L 235.817225 -47.689235 
L 239.021053 -47.335915 
L 242.22488 -47.944773 
L 245.428708 -47.507767 
L 248.632536 -47.238119 
L 251.836364 -46.238811 
L 255.040191 -47.594444 
L 258.244019 -47.059691 
L 261.447847 -48.926271 
L 264.651675 -49.335216 
L 267.855502 -47.701267 
L 271.05933 -46.854756 
L 274.263158 -47.290503 
L 277.466986 -48.829633 
L 280.670813 -44.959547 
L 283.874641 -48.046864 
L 287.078469 -48.163601 
L 290.282297 -44.07141 
L 293.486124 -43.587971 
L 296.689952 -47.026985 
L 299.89378 -48.808945 
L 303.097608 -49.830965 
L 306.301435 -49.064256 
L 309.505263 -46.181217 
L 312.709091 -42.51283 
L 315.912919 -43.059398 
L 319.116746 -44.450052 
L 322.320574 -43.835378 
L 325.524402 -43.401132 
L 328.72823 -44.276065 
L 331.932057 -47.975012 
L 335.135885 -47.28935 
L 338.339713 -47.686481 
L 341.543541 -45.745885 
L 344.747368 -46.476929 
L 347.951196 -47.039885 
L 351.155024 -43.731024 
L 354.358852 -45.152495 
L 357.562679 -45.221985 
L 360.766507 -43.581511 
L 363.970335 -43.108078 
L 367.174163 -43.042068 
L 370.37799 -42.571224 
L 373.581818 -43.462709 
L 373.581818 -191.943945 
L 373.581818 -191.943945 
L 370.37799 -195.075941 
L 367.174163 -192.228936 
L 363.970335 -193.698766 
L 360.766507 -195.127709 
L 357.562679 -197.257855 
L 354.358852 -198.617791 
L 351.155024 -195.298712 
L 347.951196 -203.284878 
L 344.747368 -203.043467 
L 341.543541 -201.43035 
L 338.339713 -201.787341 
L 335.135885 -204.43614 
L 331.932057 -204.629153 
L 328.72823 -211.089432 
L 325.524402 -214.483366 
L 322.320574 -220.284294 
L 319.116746 -221.049631 
L 315.912919 -227.739951 
L 312.709091 -227.727121 
L 309.505263 -224.197067 
L 306.301435 -230.603274 
L 303.097608 -233.383479 
L 299.89378 -233.368058 
L 296.689952 -236.252305 
L 293.486124 -240.109696 
L 290.282297 -242.4909 
L 287.078469 -241.593952 
L 283.874641 -242.822113 
L 280.670813 -242.911435 
L 277.466986 -241.865327 
L 274.263158 -243.36 
L 271.05933 -237.01064 
L 267.855502 -236.453121 
L 264.651675 -238.918514 
L 261.447847 -237.9493 
L 258.244019 -238.091408 
L 255.040191 -233.37759 
L 251.836364 -235.623396 
L 248.632536 -227.199906 
L 245.428708 -230.804184 
L 242.22488 -227.4963 
L 239.021053 -231.374178 
L 235.817225 -232.299265 
L 232.613397 -228.859028 
L 229.409569 -227.313106 
L 226.205742 -225.364797 
L 223.001914 -220.763173 
L 219.798086 -222.683035 
L 216.594258 -217.632536 
L 213.390431 -219.882547 
L 210.186603 -213.516865 
L 206.982775 -211.532552 
L 203.778947 -208.571904 
L 200.57512 -208.856698 
L 197.371292 -206.496226 
L 194.167464 -203.860938 
L 190.963636 -201.208291 
L 187.759809 -203.358787 
L 184.555981 -199.018036 
L 181.352153 -187.400447 
L 178.148325 -185.417451 
L 174.944498 -184.808535 
L 171.74067 -184.293128 
L 168.536842 -182.757134 
L 165.333014 -181.781422 
L 162.129187 -182.060743 
L 158.925359 -184.02959 
L 155.721531 -177.709619 
L 152.517703 -180.605539 
L 149.313876 -179.335813 
L 146.110048 -178.336107 
L 142.90622 -176.754041 
L 139.702392 -176.556054 
L 136.498565 -178.417425 
L 133.294737 -178.942573 
L 130.090909 -177.128988 
L 126.887081 -177.719755 
L 123.683254 -177.52457 
L 120.479426 -178.811558 
L 117.275598 -174.084598 
L 114.07177 -177.978073 
L 110.867943 -179.411491 
L 107.664115 -177.946597 
L 104.460287 -179.835524 
L 101.256459 -180.142212 
L 98.052632 -181.116583 
L 94.848804 -180.857754 
L 91.644976 -180.564141 
L 88.441148 -184.155703 
L 85.237321 -179.627758 
L 82.033493 -181.302232 
L 78.829665 -183.822804 
L 75.625837 -189.336928 
L 72.42201 -185.419374 
L 69.218182 -195.59867 
z
" style="stroke: #add8e6; stroke-opacity: 0.5"/>
    </defs>
    <g clip-path="url(#p857edee51c)">
     <use xlink:href="#mecbb6a1f9d" x="0" y="288" style="fill: #add8e6; fill-opacity: 0.5; stroke: #add8e6; stroke-opacity: 0.5"/>
    </g>
   </g>
   <g id="matplotlib.axis_1">
    <g id="xtick_1">
     <g id="line2d_1">
      <defs>
       <path id="m993388bf0a" d="M 0 0 
L 0 3.5 
" style="stroke: #000000; stroke-width: 0.8"/>
      </defs>
      <g>
       <use xlink:href="#m993388bf0a" x="69.218182" y="256.32" style="stroke: #000000; stroke-width: 0.8"/>
      </g>
     </g>
     <g id="text_1">
      <!-- 0 -->
      <g transform="translate(66.036932 270.918437) scale(0.1 -0.1)">
       <defs>
        <path id="DejaVuSans-30" d="M 2034 4250 
Q 1547 4250 1301 3770 
Q 1056 3291 1056 2328 
Q 1056 1369 1301 889 
Q 1547 409 2034 409 
Q 2525 409 2770 889 
Q 3016 1369 3016 2328 
Q 3016 3291 2770 3770 
Q 2525 4250 2034 4250 
z
M 2034 4750 
Q 2819 4750 3233 4129 
Q 3647 3509 3647 2328 
Q 3647 1150 3233 529 
Q 2819 -91 2034 -91 
Q 1250 -91 836 529 
Q 422 1150 422 2328 
Q 422 3509 836 4129 
Q 1250 4750 2034 4750 
z
" transform="scale(0.015625)"/>
       </defs>
       <use xlink:href="#DejaVuSans-30"/>
      </g>
     </g>
    </g>
    <g id="xtick_2">
     <g id="line2d_2">
      <g>
       <use xlink:href="#m993388bf0a" x="123.683254" y="256.32" style="stroke: #000000; stroke-width: 0.8"/>
      </g>
     </g>
     <g id="text_2">
      <!-- 4 -->
      <g transform="translate(120.502004 270.918437) scale(0.1 -0.1)">
       <defs>
        <path id="DejaVuSans-34" d="M 2419 4116 
L 825 1625 
L 2419 1625 
L 2419 4116 
z
M 2253 4666 
L 3047 4666 
L 3047 1625 
L 3713 1625 
L 3713 1100 
L 3047 1100 
L 3047 0 
L 2419 0 
L 2419 1100 
L 313 1100 
L 313 1709 
L 2253 4666 
z
" transform="scale(0.015625)"/>
       </defs>
       <use xlink:href="#DejaVuSans-34"/>
      </g>
     </g>
    </g>
    <g id="xtick_3">
     <g id="line2d_3">
      <g>
       <use xlink:href="#m993388bf0a" x="174.944498" y="256.32" style="stroke: #000000; stroke-width: 0.8"/>
      </g>
     </g>
     <g id="text_3">
      <!-- 8 -->
      <g transform="translate(171.763248 270.918437) scale(0.1 -0.1)">
       <defs>
        <path id="DejaVuSans-38" d="M 2034 2216 
Q 1584 2216 1326 1975 
Q 1069 1734 1069 1313 
Q 1069 891 1326 650 
Q 1584 409 2034 409 
Q 2484 409 2743 651 
Q 3003 894 3003 1313 
Q 3003 1734 2745 1975 
Q 2488 2216 2034 2216 
z
M 1403 2484 
Q 997 2584 770 2862 
Q 544 3141 544 3541 
Q 544 4100 942 4425 
Q 1341 4750 2034 4750 
Q 2731 4750 3128 4425 
Q 3525 4100 3525 3541 
Q 3525 3141 3298 2862 
Q 3072 2584 2669 2484 
Q 3125 2378 3379 2068 
Q 3634 1759 3634 1313 
Q 3634 634 3220 271 
Q 2806 -91 2034 -91 
Q 1263 -91 848 271 
Q 434 634 434 1313 
Q 434 1759 690 2068 
Q 947 2378 1403 2484 
z
M 1172 3481 
Q 1172 3119 1398 2916 
Q 1625 2713 2034 2713 
Q 2441 2713 2670 2916 
Q 2900 3119 2900 3481 
Q 2900 3844 2670 4047 
Q 2441 4250 2034 4250 
Q 1625 4250 1398 4047 
Q 1172 3844 1172 3481 
z
" transform="scale(0.015625)"/>
       </defs>
       <use xlink:href="#DejaVuSans-38"/>
      </g>
     </g>
    </g>
    <g id="xtick_4">
     <g id="line2d_4">
      <g>
       <use xlink:href="#m993388bf0a" x="226.205742" y="256.32" style="stroke: #000000; stroke-width: 0.8"/>
      </g>
     </g>
     <g id="text_4">
      <!-- 12 -->
      <g transform="translate(219.843242 270.918437) scale(0.1 -0.1)">
       <defs>
        <path id="DejaVuSans-31" d="M 794 531 
L 1825 531 
L 1825 4091 
L 703 3866 
L 703 4441 
L 1819 4666 
L 2450 4666 
L 2450 531 
L 3481 531 
L 3481 0 
L 794 0 
L 794 531 
z
" transform="scale(0.015625)"/>
        <path id="DejaVuSans-32" d="M 1228 531 
L 3431 531 
L 3431 0 
L 469 0 
L 469 531 
Q 828 903 1448 1529 
Q 2069 2156 2228 2338 
Q 2531 2678 2651 2914 
Q 2772 3150 2772 3378 
Q 2772 3750 2511 3984 
Q 2250 4219 1831 4219 
Q 1534 4219 1204 4116 
Q 875 4013 500 3803 
L 500 4441 
Q 881 4594 1212 4672 
Q 1544 4750 1819 4750 
Q 2544 4750 2975 4387 
Q 3406 4025 3406 3419 
Q 3406 3131 3298 2873 
Q 3191 2616 2906 2266 
Q 2828 2175 2409 1742 
Q 1991 1309 1228 531 
z
" transform="scale(0.015625)"/>
       </defs>
       <use xlink:href="#DejaVuSans-31"/>
       <use xlink:href="#DejaVuSans-32" x="63.623047"/>
      </g>
     </g>
    </g>
    <g id="xtick_5">
     <g id="line2d_5">
      <g>
       <use xlink:href="#m993388bf0a" x="277.466986" y="256.32" style="stroke: #000000; stroke-width: 0.8"/>
      </g>
     </g>
     <g id="text_5">
      <!-- 16 -->
      <g transform="translate(271.104486 270.918437) scale(0.1 -0.1)">
       <defs>
        <path id="DejaVuSans-36" d="M 2113 2584 
Q 1688 2584 1439 2293 
Q 1191 2003 1191 1497 
Q 1191 994 1439 701 
Q 1688 409 2113 409 
Q 2538 409 2786 701 
Q 3034 994 3034 1497 
Q 3034 2003 2786 2293 
Q 2538 2584 2113 2584 
z
M 3366 4563 
L 3366 3988 
Q 3128 4100 2886 4159 
Q 2644 4219 2406 4219 
Q 1781 4219 1451 3797 
Q 1122 3375 1075 2522 
Q 1259 2794 1537 2939 
Q 1816 3084 2150 3084 
Q 2853 3084 3261 2657 
Q 3669 2231 3669 1497 
Q 3669 778 3244 343 
Q 2819 -91 2113 -91 
Q 1303 -91 875 529 
Q 447 1150 447 2328 
Q 447 3434 972 4092 
Q 1497 4750 2381 4750 
Q 2619 4750 2861 4703 
Q 3103 4656 3366 4563 
z
" transform="scale(0.015625)"/>
       </defs>
       <use xlink:href="#DejaVuSans-31"/>
       <use xlink:href="#DejaVuSans-36" x="63.623047"/>
      </g>
     </g>
    </g>
    <g id="xtick_6">
     <g id="line2d_6">
      <g>
       <use xlink:href="#m993388bf0a" x="328.72823" y="256.32" style="stroke: #000000; stroke-width: 0.8"/>
      </g>
     </g>
     <g id="text_6">
      <!-- 20 -->
      <g transform="translate(322.36573 270.918437) scale(0.1 -0.1)">
       <use xlink:href="#DejaVuSans-32"/>
       <use xlink:href="#DejaVuSans-30" x="63.623047"/>
      </g>
     </g>
    </g>
    <g id="text_7">
     <!-- Time -->
     <g transform="translate(209.166406 284.596563) scale(0.1 -0.1)">
      <defs>
       <path id="DejaVuSans-54" d="M -19 4666 
L 3928 4666 
L 3928 4134 
L 2272 4134 
L 2272 0 
L 1638 0 
L 1638 4134 
L -19 4134 
L -19 4666 
z
" transform="scale(0.015625)"/>
       <path id="DejaVuSans-69" d="M 603 3500 
L 1178 3500 
L 1178 0 
L 603 0 
L 603 3500 
z
M 603 4863 
L 1178 4863 
L 1178 4134 
L 603 4134 
L 603 4863 
z
" transform="scale(0.015625)"/>
       <path id="DejaVuSans-6d" d="M 3328 2828 
Q 3544 3216 3844 3400 
Q 4144 3584 4550 3584 
Q 5097 3584 5394 3201 
Q 5691 2819 5691 2113 
L 5691 0 
L 5113 0 
L 5113 2094 
Q 5113 2597 4934 2840 
Q 4756 3084 4391 3084 
Q 3944 3084 3684 2787 
Q 3425 2491 3425 1978 
L 3425 0 
L 2847 0 
L 2847 2094 
Q 2847 2600 2669 2842 
Q 2491 3084 2119 3084 
Q 1678 3084 1418 2786 
Q 1159 2488 1159 1978 
L 1159 0 
L 581 0 
L 581 3500 
L 1159 3500 
L 1159 2956 
Q 1356 3278 1631 3431 
Q 1906 3584 2284 3584 
Q 2666 3584 2933 3390 
Q 3200 3197 3328 2828 
z
" transform="scale(0.015625)"/>
       <path id="DejaVuSans-65" d="M 3597 1894 
L 3597 1613 
L 953 1613 
Q 991 1019 1311 708 
Q 1631 397 2203 397 
Q 2534 397 2845 478 
Q 3156 559 3463 722 
L 3463 178 
Q 3153 47 2828 -22 
Q 2503 -91 2169 -91 
Q 1331 -91 842 396 
Q 353 884 353 1716 
Q 353 2575 817 3079 
Q 1281 3584 2069 3584 
Q 2775 3584 3186 3129 
Q 3597 2675 3597 1894 
z
M 3022 2063 
Q 3016 2534 2758 2815 
Q 2500 3097 2075 3097 
Q 1594 3097 1305 2825 
Q 1016 2553 972 2059 
L 3022 2063 
z
" transform="scale(0.015625)"/>
      </defs>
      <use xlink:href="#DejaVuSans-54"/>
      <use xlink:href="#DejaVuSans-69" x="57.958984"/>
      <use xlink:href="#DejaVuSans-6d" x="85.742188"/>
      <use xlink:href="#DejaVuSans-65" x="183.154297"/>
     </g>
    </g>
   </g>
   <g id="matplotlib.axis_2">
    <g id="ytick_1">
     <g id="line2d_7">
      <defs>
       <path id="m6755ce9dd8" d="M 0 0 
L -3.5 0 
" style="stroke: #000000; stroke-width: 0.8"/>
      </defs>
      <g>
       <use xlink:href="#m6755ce9dd8" x="54" y="237.276767" style="stroke: #000000; stroke-width: 0.8"/>
      </g>
     </g>
     <g id="text_8">
      <!-- 200 -->
      <g transform="translate(27.9125 241.075985) scale(0.1 -0.1)">
       <use xlink:href="#DejaVuSans-32"/>
       <use xlink:href="#DejaVuSans-30" x="63.623047"/>
       <use xlink:href="#DejaVuSans-30" x="127.246094"/>
      </g>
     </g>
    </g>
    <g id="ytick_2">
     <g id="line2d_8">
      <g>
       <use xlink:href="#m6755ce9dd8" x="54" y="211.765149" style="stroke: #000000; stroke-width: 0.8"/>
      </g>
     </g>
     <g id="text_9">
      <!-- 400 -->
      <g transform="translate(27.9125 215.564368) scale(0.1 -0.1)">
       <use xlink:href="#DejaVuSans-34"/>
       <use xlink:href="#DejaVuSans-30" x="63.623047"/>
       <use xlink:href="#DejaVuSans-30" x="127.246094"/>
      </g>
     </g>
    </g>
    <g id="ytick_3">
     <g id="line2d_9">
      <g>
       <use xlink:href="#m6755ce9dd8" x="54" y="186.253532" style="stroke: #000000; stroke-width: 0.8"/>
      </g>
     </g>
     <g id="text_10">
      <!-- 600 -->
      <g transform="translate(27.9125 190.052751) scale(0.1 -0.1)">
       <use xlink:href="#DejaVuSans-36"/>
       <use xlink:href="#DejaVuSans-30" x="63.623047"/>
       <use xlink:href="#DejaVuSans-30" x="127.246094"/>
      </g>
     </g>
    </g>
    <g id="ytick_4">
     <g id="line2d_10">
      <g>
       <use xlink:href="#m6755ce9dd8" x="54" y="160.741915" style="stroke: #000000; stroke-width: 0.8"/>
      </g>
     </g>
     <g id="text_11">
      <!-- 800 -->
      <g transform="translate(27.9125 164.541134) scale(0.1 -0.1)">
       <use xlink:href="#DejaVuSans-38"/>
       <use xlink:href="#DejaVuSans-30" x="63.623047"/>
       <use xlink:href="#DejaVuSans-30" x="127.246094"/>
      </g>
     </g>
    </g>
    <g id="ytick_5">
     <g id="line2d_11">
      <g>
       <use xlink:href="#m6755ce9dd8" x="54" y="135.230298" style="stroke: #000000; stroke-width: 0.8"/>
      </g>
     </g>
     <g id="text_12">
      <!-- 1000 -->
      <g transform="translate(21.55 139.029517) scale(0.1 -0.1)">
       <use xlink:href="#DejaVuSans-31"/>
       <use xlink:href="#DejaVuSans-30" x="63.623047"/>
       <use xlink:href="#DejaVuSans-30" x="127.246094"/>
       <use xlink:href="#DejaVuSans-30" x="190.869141"/>
      </g>
     </g>
    </g>
    <g id="ytick_6">
     <g id="line2d_12">
      <g>
       <use xlink:href="#m6755ce9dd8" x="54" y="109.718681" style="stroke: #000000; stroke-width: 0.8"/>
      </g>
     </g>
     <g id="text_13">
      <!-- 1200 -->
      <g transform="translate(21.55 113.517899) scale(0.1 -0.1)">
       <use xlink:href="#DejaVuSans-31"/>
       <use xlink:href="#DejaVuSans-32" x="63.623047"/>
       <use xlink:href="#DejaVuSans-30" x="127.246094"/>
       <use xlink:href="#DejaVuSans-30" x="190.869141"/>
      </g>
     </g>
    </g>
    <g id="ytick_7">
     <g id="line2d_13">
      <g>
       <use xlink:href="#m6755ce9dd8" x="54" y="84.207063" style="stroke: #000000; stroke-width: 0.8"/>
      </g>
     </g>
     <g id="text_14">
      <!-- 1400 -->
      <g transform="translate(21.55 88.006282) scale(0.1 -0.1)">
       <use xlink:href="#DejaVuSans-31"/>
       <use xlink:href="#DejaVuSans-34" x="63.623047"/>
       <use xlink:href="#DejaVuSans-30" x="127.246094"/>
       <use xlink:href="#DejaVuSans-30" x="190.869141"/>
      </g>
     </g>
    </g>
    <g id="ytick_8">
     <g id="line2d_14">
      <g>
       <use xlink:href="#m6755ce9dd8" x="54" y="58.695446" style="stroke: #000000; stroke-width: 0.8"/>
      </g>
     </g>
     <g id="text_15">
      <!-- 1600 -->
      <g transform="translate(21.55 62.494665) scale(0.1 -0.1)">
       <use xlink:href="#DejaVuSans-31"/>
       <use xlink:href="#DejaVuSans-36" x="63.623047"/>
       <use xlink:href="#DejaVuSans-30" x="127.246094"/>
       <use xlink:href="#DejaVuSans-30" x="190.869141"/>
      </g>
     </g>
    </g>
    <g id="text_16">
     <!-- Power (kW) -->
     <g transform="translate(15.470312 173.88375) rotate(-90) scale(0.1 -0.1)">
      <defs>
       <path id="DejaVuSans-50" d="M 1259 4147 
L 1259 2394 
L 2053 2394 
Q 2494 2394 2734 2622 
Q 2975 2850 2975 3272 
Q 2975 3691 2734 3919 
Q 2494 4147 2053 4147 
L 1259 4147 
z
M 628 4666 
L 2053 4666 
Q 2838 4666 3239 4311 
Q 3641 3956 3641 3272 
Q 3641 2581 3239 2228 
Q 2838 1875 2053 1875 
L 1259 1875 
L 1259 0 
L 628 0 
L 628 4666 
z
" transform="scale(0.015625)"/>
       <path id="DejaVuSans-6f" d="M 1959 3097 
Q 1497 3097 1228 2736 
Q 959 2375 959 1747 
Q 959 1119 1226 758 
Q 1494 397 1959 397 
Q 2419 397 2687 759 
Q 2956 1122 2956 1747 
Q 2956 2369 2687 2733 
Q 2419 3097 1959 3097 
z
M 1959 3584 
Q 2709 3584 3137 3096 
Q 3566 2609 3566 1747 
Q 3566 888 3137 398 
Q 2709 -91 1959 -91 
Q 1206 -91 779 398 
Q 353 888 353 1747 
Q 353 2609 779 3096 
Q 1206 3584 1959 3584 
z
" transform="scale(0.015625)"/>
       <path id="DejaVuSans-77" d="M 269 3500 
L 844 3500 
L 1563 769 
L 2278 3500 
L 2956 3500 
L 3675 769 
L 4391 3500 
L 4966 3500 
L 4050 0 
L 3372 0 
L 2619 2869 
L 1863 0 
L 1184 0 
L 269 3500 
z
" transform="scale(0.015625)"/>
       <path id="DejaVuSans-72" d="M 2631 2963 
Q 2534 3019 2420 3045 
Q 2306 3072 2169 3072 
Q 1681 3072 1420 2755 
Q 1159 2438 1159 1844 
L 1159 0 
L 581 0 
L 581 3500 
L 1159 3500 
L 1159 2956 
Q 1341 3275 1631 3429 
Q 1922 3584 2338 3584 
Q 2397 3584 2469 3576 
Q 2541 3569 2628 3553 
L 2631 2963 
z
" transform="scale(0.015625)"/>
       <path id="DejaVuSans-20" transform="scale(0.015625)"/>
       <path id="DejaVuSans-28" d="M 1984 4856 
Q 1566 4138 1362 3434 
Q 1159 2731 1159 2009 
Q 1159 1288 1364 580 
Q 1569 -128 1984 -844 
L 1484 -844 
Q 1016 -109 783 600 
Q 550 1309 550 2009 
Q 550 2706 781 3412 
Q 1013 4119 1484 4856 
L 1984 4856 
z
" transform="scale(0.015625)"/>
       <path id="DejaVuSans-6b" d="M 581 4863 
L 1159 4863 
L 1159 1991 
L 2875 3500 
L 3609 3500 
L 1753 1863 
L 3688 0 
L 2938 0 
L 1159 1709 
L 1159 0 
L 581 0 
L 581 4863 
z
" transform="scale(0.015625)"/>
       <path id="DejaVuSans-57" d="M 213 4666 
L 850 4666 
L 1831 722 
L 2809 4666 
L 3519 4666 
L 4500 722 
L 5478 4666 
L 6119 4666 
L 4947 0 
L 4153 0 
L 3169 4050 
L 2175 0 
L 1381 0 
L 213 4666 
z
" transform="scale(0.015625)"/>
       <path id="DejaVuSans-29" d="M 513 4856 
L 1013 4856 
Q 1481 4119 1714 3412 
Q 1947 2706 1947 2009 
Q 1947 1309 1714 600 
Q 1481 -109 1013 -844 
L 513 -844 
Q 928 -128 1133 580 
Q 1338 1288 1338 2009 
Q 1338 2731 1133 3434 
Q 928 4138 513 4856 
z
" transform="scale(0.015625)"/>
      </defs>
      <use xlink:href="#DejaVuSans-50"/>
      <use xlink:href="#DejaVuSans-6f" x="56.677734"/>
      <use xlink:href="#DejaVuSans-77" x="117.859375"/>
      <use xlink:href="#DejaVuSans-65" x="199.646484"/>
      <use xlink:href="#DejaVuSans-72" x="261.169922"/>
      <use xlink:href="#DejaVuSans-20" x="302.283203"/>
      <use xlink:href="#DejaVuSans-28" x="334.070312"/>
      <use xlink:href="#DejaVuSans-6b" x="373.083984"/>
      <use xlink:href="#DejaVuSans-57" x="430.994141"/>
      <use xlink:href="#DejaVuSans-29" x="529.871094"/>
     </g>
    </g>
   </g>
   <g id="line2d_15">
    <path d="M 69.218182 160.241717 
L 72.42201 161.664352 
L 75.625837 161.738355 
L 78.829665 161.68682 
L 82.033493 163.811508 
L 85.237321 163.500368 
L 88.441148 163.213305 
L 91.644976 163.43244 
L 94.848804 163.354725 
L 98.052632 163.9611 
L 101.256459 164.069054 
L 104.460287 164.692311 
L 107.664115 164.683959 
L 110.867943 164.720327 
L 114.07177 165.627642 
L 117.275598 165.619078 
L 120.479426 165.575675 
L 123.683254 166.540777 
L 126.887081 166.511854 
L 130.090909 165.742309 
L 133.294737 165.178082 
L 136.498565 165.071942 
L 139.702392 165.887762 
L 142.90622 165.736304 
L 146.110048 164.682826 
L 149.313876 163.84269 
L 152.517703 163.10034 
L 155.721531 162.419352 
L 158.925359 161.91486 
L 162.129187 160.209748 
L 165.333014 161.359862 
L 168.536842 160.602458 
L 171.74067 160.330718 
L 174.944498 159.418718 
L 178.148325 159.047215 
L 181.352153 157.883045 
L 184.555981 157.503836 
L 187.759809 157.474677 
L 190.963636 156.802045 
L 194.167464 156.042626 
L 197.371292 154.773925 
L 200.57512 154.580998 
L 203.778947 153.269167 
L 206.982775 152.390221 
L 210.186603 151.233577 
L 213.390431 151.17937 
L 216.594258 151.246022 
L 219.798086 150.067072 
L 223.001914 149.096187 
L 226.205742 149.253627 
L 229.409569 147.6552 
L 232.613397 147.03217 
L 235.817225 145.153285 
L 239.021053 146.242425 
L 242.22488 146.725801 
L 245.428708 146.132078 
L 248.632536 145.045303 
L 251.836364 144.782099 
L 255.040191 143.676884 
L 258.244019 143.806251 
L 261.447847 142.276718 
L 264.651675 141.668908 
L 267.855502 141.437196 
L 271.05933 141.121505 
L 274.263158 139.529555 
L 277.466986 140.453984 
L 280.670813 139.616159 
L 283.874641 139.217321 
L 287.078469 139.695292 
L 290.282297 138.530861 
L 293.486124 140.004572 
L 296.689952 141.211238 
L 299.89378 142.61864 
L 303.097608 144.575002 
L 306.301435 144.645441 
L 309.505263 146.488465 
L 312.709091 148.214738 
L 315.912919 149.660727 
L 319.116746 150.534879 
L 322.320574 151.911065 
L 325.524402 152.541936 
L 328.72823 154.333122 
L 331.932057 155.307415 
L 335.135885 155.53431 
L 338.339713 155.704238 
L 341.543541 156.858649 
L 344.747368 156.689187 
L 347.951196 157.03798 
L 351.155024 157.513589 
L 354.358852 158.60077 
L 357.562679 159.4215 
L 360.766507 160.368507 
L 363.970335 160.043739 
L 367.174163 160.109673 
L 370.37799 159.10198 
L 373.581818 160.003818 
" clip-path="url(#p857edee51c)" style="fill: none; stroke: #0000ff; stroke-width: 2; stroke-linecap: square"/>
   </g>
   <g id="line2d_16">
    <path d="M 69.218182 175.331462 
L 72.42201 175.627241 
L 75.625837 173.720071 
L 78.829665 174.058271 
L 82.033493 180.461518 
L 85.237321 177.77905 
L 88.441148 176.698084 
L 91.644976 177.259232 
L 94.848804 174.929985 
L 98.052632 179.073159 
L 101.256459 177.068506 
L 104.460287 180.894213 
L 107.664115 178.043114 
L 110.867943 181.583765 
L 114.07177 180.956186 
L 117.275598 181.151191 
L 120.479426 182.879718 
L 123.683254 184.978111 
L 126.887081 184.401012 
L 130.090909 184.477851 
L 133.294737 180.249181 
L 136.498565 181.945767 
L 139.702392 182.183744 
L 142.90622 181.075851 
L 146.110048 180.767452 
L 149.313876 180.1854 
L 152.517703 176.094488 
L 155.721531 177.113711 
L 158.925359 178.08371 
L 162.129187 173.953849 
L 165.333014 182.018165 
L 168.536842 177.398635 
L 171.74067 177.273401 
L 174.944498 177.004607 
L 178.148325 178.795042 
L 181.352153 172.895377 
L 184.555981 173.311357 
L 187.759809 175.259538 
L 190.963636 178.580363 
L 194.167464 180.1375 
L 197.371292 178.781387 
L 200.57512 178.959555 
L 203.778947 177.655054 
L 206.982775 179.006833 
L 210.186603 177.044425 
L 213.390431 176.369749 
L 216.594258 180.261402 
L 219.798086 178.270313 
L 223.001914 178.735179 
L 226.205742 179.982089 
L 229.409569 176.575323 
L 232.613397 177.313832 
L 235.817225 176.76537 
L 239.021053 179.967411 
L 242.22488 182.041678 
L 245.428708 182.272075 
L 248.632536 183.999754 
L 251.836364 182.981905 
L 255.040191 182.967943 
L 258.244019 182.12434 
L 261.447847 182.268415 
L 264.651675 183.017753 
L 267.855502 179.203121 
L 271.05933 181.848643 
L 274.263158 174.730963 
L 277.466986 175.913058 
L 280.670813 175.307324 
L 283.874641 174.566415 
L 287.078469 173.69276 
L 290.282297 170.403746 
L 293.486124 170.299205 
L 296.689952 169.711035 
L 299.89378 167.694013 
L 303.097608 171.390444 
L 306.301435 171.166037 
L 309.505263 171.6476 
L 312.709091 172.755511 
L 315.912919 174.601367 
L 319.116746 168.597183 
L 322.320574 169.081987 
L 325.524402 167.9541 
L 328.72823 168.882747 
L 331.932057 170.876977 
L 335.135885 168.560542 
L 338.339713 172.065988 
L 341.543541 173.661955 
L 344.747368 171.450018 
L 347.951196 170.004492 
L 351.155024 170.168267 
L 354.358852 173.622123 
L 357.562679 173.367736 
L 360.766507 173.004659 
L 363.970335 173.924854 
L 367.174163 173.528646 
L 370.37799 171.434198 
L 373.581818 173.31114 
" clip-path="url(#p857edee51c)" style="fill: none; stroke: #008000; stroke-width: 2; stroke-linecap: square"/>
   </g>
   <g id="line2d_17">
    <path d="M 69.218182 144.178129 
L 72.42201 144.199847 
L 75.625837 144.795868 
L 78.829665 145.31281 
L 82.033493 145.16907 
L 85.237321 146.080833 
L 88.441148 146.319657 
L 91.644976 147.156381 
L 94.848804 146.594034 
L 98.052632 146.838084 
L 101.256459 146.796827 
L 104.460287 147.308462 
L 107.664115 146.20855 
L 110.867943 147.641979 
L 114.07177 147.061401 
L 117.275598 147.338361 
L 120.479426 148.052214 
L 123.683254 146.987366 
L 126.887081 147.237943 
L 130.090909 146.699231 
L 133.294737 147.603215 
L 136.498565 146.911596 
L 139.702392 147.466636 
L 142.90622 146.577284 
L 146.110048 145.407958 
L 149.313876 144.141762 
L 152.517703 145.320246 
L 155.721531 144.58232 
L 158.925359 143.662986 
L 162.129187 143.338703 
L 165.333014 142.585616 
L 168.536842 141.45667 
L 171.74067 142.523767 
L 174.944498 139.971854 
L 178.148325 138.644998 
L 181.352153 139.005765 
L 184.555981 139.43273 
L 187.759809 140.138569 
L 190.963636 137.615785 
L 194.167464 134.347886 
L 197.371292 134.610748 
L 200.57512 133.380801 
L 203.778947 129.404561 
L 206.982775 130.083603 
L 210.186603 124.343674 
L 213.390431 125.296259 
L 216.594258 120.957305 
L 219.798086 120.674064 
L 223.001914 116.6316 
L 226.205742 114.848987 
L 229.409569 115.154668 
L 232.613397 108.522035 
L 235.817225 109.896606 
L 239.021053 106.687694 
L 242.22488 101.444203 
L 245.428708 102.293737 
L 248.632536 101.530085 
L 251.836364 96.665073 
L 255.040191 94.18931 
L 258.244019 95.200747 
L 261.447847 93.42306 
L 264.651675 94.768281 
L 267.855502 94.856807 
L 271.05933 93.588566 
L 274.263158 92.295309 
L 277.466986 94.642622 
L 280.670813 92.640149 
L 283.874641 92.118787 
L 287.078469 93.501245 
L 290.282297 92.846193 
L 293.486124 94.210623 
L 296.689952 98.793616 
L 299.89378 100.437391 
L 303.097608 104.824702 
L 306.301435 109.967419 
L 309.505263 116.888895 
L 312.709091 125.022553 
L 315.912919 131.439697 
L 319.116746 134.621911 
L 322.320574 137.481735 
L 325.524402 137.592916 
L 328.72823 138.024617 
L 331.932057 138.780489 
L 335.135885 138.873676 
L 338.339713 138.87969 
L 341.543541 140.386235 
L 344.747368 140.275114 
L 347.951196 140.990608 
L 351.155024 142.051011 
L 354.358852 142.623128 
L 357.562679 144.044058 
L 360.766507 144.641033 
L 363.970335 144.631329 
L 367.174163 144.36885 
L 370.37799 143.79766 
L 373.581818 144.691919 
" clip-path="url(#p857edee51c)" style="fill: none; stroke: #ff0000; stroke-width: 2; stroke-linecap: square"/>
   </g>
   <g id="patch_3">
    <path d="M 54 256.32 
L 54 34.56 
" style="fill: none; stroke: #000000; stroke-width: 0.8; stroke-linejoin: miter; stroke-linecap: square"/>
   </g>
   <g id="patch_4">
    <path d="M 388.8 256.32 
L 388.8 34.56 
" style="fill: none; stroke: #000000; stroke-width: 0.8; stroke-linejoin: miter; stroke-linecap: square"/>
   </g>
   <g id="patch_5">
    <path d="M 54 256.32 
L 388.8 256.32 
" style="fill: none; stroke: #000000; stroke-width: 0.8; stroke-linejoin: miter; stroke-linecap: square"/>
   </g>
   <g id="patch_6">
    <path d="M 54 34.56 
L 388.8 34.56 
" style="fill: none; stroke: #000000; stroke-width: 0.8; stroke-linejoin: miter; stroke-linecap: square"/>
   </g>
   <g id="text_17">
    <!-- Office building power load -->
    <g transform="translate(142.671562 28.56) scale(0.12 -0.12)">
     <defs>
      <path id="DejaVuSans-4f" d="M 2522 4238 
Q 1834 4238 1429 3725 
Q 1025 3213 1025 2328 
Q 1025 1447 1429 934 
Q 1834 422 2522 422 
Q 3209 422 3611 934 
Q 4013 1447 4013 2328 
Q 4013 3213 3611 3725 
Q 3209 4238 2522 4238 
z
M 2522 4750 
Q 3503 4750 4090 4092 
Q 4678 3434 4678 2328 
Q 4678 1225 4090 567 
Q 3503 -91 2522 -91 
Q 1538 -91 948 565 
Q 359 1222 359 2328 
Q 359 3434 948 4092 
Q 1538 4750 2522 4750 
z
" transform="scale(0.015625)"/>
      <path id="DejaVuSans-66" d="M 2375 4863 
L 2375 4384 
L 1825 4384 
Q 1516 4384 1395 4259 
Q 1275 4134 1275 3809 
L 1275 3500 
L 2222 3500 
L 2222 3053 
L 1275 3053 
L 1275 0 
L 697 0 
L 697 3053 
L 147 3053 
L 147 3500 
L 697 3500 
L 697 3744 
Q 697 4328 969 4595 
Q 1241 4863 1831 4863 
L 2375 4863 
z
" transform="scale(0.015625)"/>
      <path id="DejaVuSans-63" d="M 3122 3366 
L 3122 2828 
Q 2878 2963 2633 3030 
Q 2388 3097 2138 3097 
Q 1578 3097 1268 2742 
Q 959 2388 959 1747 
Q 959 1106 1268 751 
Q 1578 397 2138 397 
Q 2388 397 2633 464 
Q 2878 531 3122 666 
L 3122 134 
Q 2881 22 2623 -34 
Q 2366 -91 2075 -91 
Q 1284 -91 818 406 
Q 353 903 353 1747 
Q 353 2603 823 3093 
Q 1294 3584 2113 3584 
Q 2378 3584 2631 3529 
Q 2884 3475 3122 3366 
z
" transform="scale(0.015625)"/>
      <path id="DejaVuSans-62" d="M 3116 1747 
Q 3116 2381 2855 2742 
Q 2594 3103 2138 3103 
Q 1681 3103 1420 2742 
Q 1159 2381 1159 1747 
Q 1159 1113 1420 752 
Q 1681 391 2138 391 
Q 2594 391 2855 752 
Q 3116 1113 3116 1747 
z
M 1159 2969 
Q 1341 3281 1617 3432 
Q 1894 3584 2278 3584 
Q 2916 3584 3314 3078 
Q 3713 2572 3713 1747 
Q 3713 922 3314 415 
Q 2916 -91 2278 -91 
Q 1894 -91 1617 61 
Q 1341 213 1159 525 
L 1159 0 
L 581 0 
L 581 4863 
L 1159 4863 
L 1159 2969 
z
" transform="scale(0.015625)"/>
      <path id="DejaVuSans-75" d="M 544 1381 
L 544 3500 
L 1119 3500 
L 1119 1403 
Q 1119 906 1312 657 
Q 1506 409 1894 409 
Q 2359 409 2629 706 
Q 2900 1003 2900 1516 
L 2900 3500 
L 3475 3500 
L 3475 0 
L 2900 0 
L 2900 538 
Q 2691 219 2414 64 
Q 2138 -91 1772 -91 
Q 1169 -91 856 284 
Q 544 659 544 1381 
z
M 1991 3584 
L 1991 3584 
z
" transform="scale(0.015625)"/>
      <path id="DejaVuSans-6c" d="M 603 4863 
L 1178 4863 
L 1178 0 
L 603 0 
L 603 4863 
z
" transform="scale(0.015625)"/>
      <path id="DejaVuSans-64" d="M 2906 2969 
L 2906 4863 
L 3481 4863 
L 3481 0 
L 2906 0 
L 2906 525 
Q 2725 213 2448 61 
Q 2172 -91 1784 -91 
Q 1150 -91 751 415 
Q 353 922 353 1747 
Q 353 2572 751 3078 
Q 1150 3584 1784 3584 
Q 2172 3584 2448 3432 
Q 2725 3281 2906 2969 
z
M 947 1747 
Q 947 1113 1208 752 
Q 1469 391 1925 391 
Q 2381 391 2643 752 
Q 2906 1113 2906 1747 
Q 2906 2381 2643 2742 
Q 2381 3103 1925 3103 
Q 1469 3103 1208 2742 
Q 947 2381 947 1747 
z
" transform="scale(0.015625)"/>
      <path id="DejaVuSans-6e" d="M 3513 2113 
L 3513 0 
L 2938 0 
L 2938 2094 
Q 2938 2591 2744 2837 
Q 2550 3084 2163 3084 
Q 1697 3084 1428 2787 
Q 1159 2491 1159 1978 
L 1159 0 
L 581 0 
L 581 3500 
L 1159 3500 
L 1159 2956 
Q 1366 3272 1645 3428 
Q 1925 3584 2291 3584 
Q 2894 3584 3203 3211 
Q 3513 2838 3513 2113 
z
" transform="scale(0.015625)"/>
      <path id="DejaVuSans-67" d="M 2906 1791 
Q 2906 2416 2648 2759 
Q 2391 3103 1925 3103 
Q 1463 3103 1205 2759 
Q 947 2416 947 1791 
Q 947 1169 1205 825 
Q 1463 481 1925 481 
Q 2391 481 2648 825 
Q 2906 1169 2906 1791 
z
M 3481 434 
Q 3481 -459 3084 -895 
Q 2688 -1331 1869 -1331 
Q 1566 -1331 1297 -1286 
Q 1028 -1241 775 -1147 
L 775 -588 
Q 1028 -725 1275 -790 
Q 1522 -856 1778 -856 
Q 2344 -856 2625 -561 
Q 2906 -266 2906 331 
L 2906 616 
Q 2728 306 2450 153 
Q 2172 0 1784 0 
Q 1141 0 747 490 
Q 353 981 353 1791 
Q 353 2603 747 3093 
Q 1141 3584 1784 3584 
Q 2172 3584 2450 3431 
Q 2728 3278 2906 2969 
L 2906 3500 
L 3481 3500 
L 3481 434 
z
" transform="scale(0.015625)"/>
      <path id="DejaVuSans-70" d="M 1159 525 
L 1159 -1331 
L 581 -1331 
L 581 3500 
L 1159 3500 
L 1159 2969 
Q 1341 3281 1617 3432 
Q 1894 3584 2278 3584 
Q 2916 3584 3314 3078 
Q 3713 2572 3713 1747 
Q 3713 922 3314 415 
Q 2916 -91 2278 -91 
Q 1894 -91 1617 61 
Q 1341 213 1159 525 
z
M 3116 1747 
Q 3116 2381 2855 2742 
Q 2594 3103 2138 3103 
Q 1681 3103 1420 2742 
Q 1159 2381 1159 1747 
Q 1159 1113 1420 752 
Q 1681 391 2138 391 
Q 2594 391 2855 752 
Q 3116 1113 3116 1747 
z
" transform="scale(0.015625)"/>
      <path id="DejaVuSans-61" d="M 2194 1759 
Q 1497 1759 1228 1600 
Q 959 1441 959 1056 
Q 959 750 1161 570 
Q 1363 391 1709 391 
Q 2188 391 2477 730 
Q 2766 1069 2766 1631 
L 2766 1759 
L 2194 1759 
z
M 3341 1997 
L 3341 0 
L 2766 0 
L 2766 531 
Q 2569 213 2275 61 
Q 1981 -91 1556 -91 
Q 1019 -91 701 211 
Q 384 513 384 1019 
Q 384 1609 779 1909 
Q 1175 2209 1959 2209 
L 2766 2209 
L 2766 2266 
Q 2766 2663 2505 2880 
Q 2244 3097 1772 3097 
Q 1472 3097 1187 3025 
Q 903 2953 641 2809 
L 641 3341 
Q 956 3463 1253 3523 
Q 1550 3584 1831 3584 
Q 2591 3584 2966 3190 
Q 3341 2797 3341 1997 
z
" transform="scale(0.015625)"/>
     </defs>
     <use xlink:href="#DejaVuSans-4f"/>
     <use xlink:href="#DejaVuSans-66" x="78.710938"/>
     <use xlink:href="#DejaVuSans-66" x="113.916016"/>
     <use xlink:href="#DejaVuSans-69" x="149.121094"/>
     <use xlink:href="#DejaVuSans-63" x="176.904297"/>
     <use xlink:href="#DejaVuSans-65" x="231.884766"/>
     <use xlink:href="#DejaVuSans-20" x="293.408203"/>
     <use xlink:href="#DejaVuSans-62" x="325.195312"/>
     <use xlink:href="#DejaVuSans-75" x="388.671875"/>
     <use xlink:href="#DejaVuSans-69" x="452.050781"/>
     <use xlink:href="#DejaVuSans-6c" x="479.833984"/>
     <use xlink:href="#DejaVuSans-64" x="507.617188"/>
     <use xlink:href="#DejaVuSans-69" x="571.09375"/>
     <use xlink:href="#DejaVuSans-6e" x="598.876953"/>
     <use xlink:href="#DejaVuSans-67" x="662.255859"/>
     <use xlink:href="#DejaVuSans-20" x="725.732422"/>
     <use xlink:href="#DejaVuSans-70" x="757.519531"/>
     <use xlink:href="#DejaVuSans-6f" x="820.996094"/>
     <use xlink:href="#DejaVuSans-77" x="882.177734"/>
     <use xlink:href="#DejaVuSans-65" x="963.964844"/>
     <use xlink:href="#DejaVuSans-72" x="1025.488281"/>
     <use xlink:href="#DejaVuSans-20" x="1066.601562"/>
     <use xlink:href="#DejaVuSans-6c" x="1098.388672"/>
     <use xlink:href="#DejaVuSans-6f" x="1126.171875"/>
     <use xlink:href="#DejaVuSans-61" x="1187.353516"/>
     <use xlink:href="#DejaVuSans-64" x="1248.632812"/>
    </g>
   </g>
   <g id="legend_1">
    <g id="patch_7">
     <path d="M 61 102.894375 
L 220.3 102.894375 
Q 222.3 102.894375 222.3 100.894375 
L 222.3 41.56 
Q 222.3 39.56 220.3 39.56 
L 61 39.56 
Q 59 39.56 59 41.56 
L 59 100.894375 
Q 59 102.894375 61 102.894375 
z
" style="fill: #ffffff; opacity: 0.8; stroke: #cccccc; stroke-linejoin: miter"/>
    </g>
    <g id="patch_8">
     <path d="M 63 52.76 
L 83 52.76 
L 83 45.76 
L 63 45.76 
z
" style="fill: #add8e6; fill-opacity: 0.5; stroke: #add8e6; stroke-opacity: 0.5; stroke-linejoin: miter"/>
    </g>
    <g id="text_18">
     <!-- Power Range (5$^{th}$ to 95$^{th}$) -->
     <g transform="translate(91 52.76) scale(0.1 -0.1)">
      <defs>
       <path id="DejaVuSans-52" d="M 2841 2188 
Q 3044 2119 3236 1894 
Q 3428 1669 3622 1275 
L 4263 0 
L 3584 0 
L 2988 1197 
Q 2756 1666 2539 1819 
Q 2322 1972 1947 1972 
L 1259 1972 
L 1259 0 
L 628 0 
L 628 4666 
L 2053 4666 
Q 2853 4666 3247 4331 
Q 3641 3997 3641 3322 
Q 3641 2881 3436 2590 
Q 3231 2300 2841 2188 
z
M 1259 4147 
L 1259 2491 
L 2053 2491 
Q 2509 2491 2742 2702 
Q 2975 2913 2975 3322 
Q 2975 3731 2742 3939 
Q 2509 4147 2053 4147 
L 1259 4147 
z
" transform="scale(0.015625)"/>
       <path id="DejaVuSans-35" d="M 691 4666 
L 3169 4666 
L 3169 4134 
L 1269 4134 
L 1269 2991 
Q 1406 3038 1543 3061 
Q 1681 3084 1819 3084 
Q 2600 3084 3056 2656 
Q 3513 2228 3513 1497 
Q 3513 744 3044 326 
Q 2575 -91 1722 -91 
Q 1428 -91 1123 -41 
Q 819 9 494 109 
L 494 744 
Q 775 591 1075 516 
Q 1375 441 1709 441 
Q 2250 441 2565 725 
Q 2881 1009 2881 1497 
Q 2881 1984 2565 2268 
Q 2250 2553 1709 2553 
Q 1456 2553 1204 2497 
Q 953 2441 691 2322 
L 691 4666 
z
" transform="scale(0.015625)"/>
       <path id="DejaVuSans-Oblique-74" d="M 2706 3500 
L 2619 3053 
L 1472 3053 
L 1100 1153 
Q 1081 1047 1072 975 
Q 1063 903 1063 863 
Q 1063 663 1183 572 
Q 1303 481 1569 481 
L 2150 481 
L 2053 0 
L 1503 0 
Q 991 0 739 200 
Q 488 400 488 806 
Q 488 878 497 964 
Q 506 1050 525 1153 
L 897 3053 
L 409 3053 
L 500 3500 
L 978 3500 
L 1172 4494 
L 1747 4494 
L 1556 3500 
L 2706 3500 
z
" transform="scale(0.015625)"/>
       <path id="DejaVuSans-Oblique-68" d="M 3566 2113 
L 3156 0 
L 2578 0 
L 2988 2091 
Q 3016 2238 3031 2350 
Q 3047 2463 3047 2528 
Q 3047 2791 2881 2937 
Q 2716 3084 2419 3084 
Q 1956 3084 1617 2771 
Q 1278 2459 1178 1941 
L 800 0 
L 225 0 
L 1172 4863 
L 1747 4863 
L 1375 2950 
Q 1594 3244 1934 3414 
Q 2275 3584 2650 3584 
Q 3113 3584 3367 3334 
Q 3622 3084 3622 2631 
Q 3622 2519 3608 2391 
Q 3594 2263 3566 2113 
z
" transform="scale(0.015625)"/>
       <path id="DejaVuSans-74" d="M 1172 4494 
L 1172 3500 
L 2356 3500 
L 2356 3053 
L 1172 3053 
L 1172 1153 
Q 1172 725 1289 603 
Q 1406 481 1766 481 
L 2356 481 
L 2356 0 
L 1766 0 
Q 1100 0 847 248 
Q 594 497 594 1153 
L 594 3053 
L 172 3053 
L 172 3500 
L 594 3500 
L 594 4494 
L 1172 4494 
z
" transform="scale(0.015625)"/>
       <path id="DejaVuSans-39" d="M 703 97 
L 703 672 
Q 941 559 1184 500 
Q 1428 441 1663 441 
Q 2288 441 2617 861 
Q 2947 1281 2994 2138 
Q 2813 1869 2534 1725 
Q 2256 1581 1919 1581 
Q 1219 1581 811 2004 
Q 403 2428 403 3163 
Q 403 3881 828 4315 
Q 1253 4750 1959 4750 
Q 2769 4750 3195 4129 
Q 3622 3509 3622 2328 
Q 3622 1225 3098 567 
Q 2575 -91 1691 -91 
Q 1453 -91 1209 -44 
Q 966 3 703 97 
z
M 1959 2075 
Q 2384 2075 2632 2365 
Q 2881 2656 2881 3163 
Q 2881 3666 2632 3958 
Q 2384 4250 1959 4250 
Q 1534 4250 1286 3958 
Q 1038 3666 1038 3163 
Q 1038 2656 1286 2365 
Q 1534 2075 1959 2075 
z
" transform="scale(0.015625)"/>
      </defs>
      <use xlink:href="#DejaVuSans-50" transform="translate(0 0.529687)"/>
      <use xlink:href="#DejaVuSans-6f" transform="translate(60.302734 0.529687)"/>
      <use xlink:href="#DejaVuSans-77" transform="translate(121.484375 0.529687)"/>
      <use xlink:href="#DejaVuSans-65" transform="translate(203.271484 0.529687)"/>
      <use xlink:href="#DejaVuSans-72" transform="translate(264.794922 0.529687)"/>
      <use xlink:href="#DejaVuSans-20" transform="translate(305.908203 0.529687)"/>
      <use xlink:href="#DejaVuSans-52" transform="translate(337.695312 0.529687)"/>
      <use xlink:href="#DejaVuSans-61" transform="translate(407.177734 0.529687)"/>
      <use xlink:href="#DejaVuSans-6e" transform="translate(468.457031 0.529687)"/>
      <use xlink:href="#DejaVuSans-67" transform="translate(531.835938 0.529687)"/>
      <use xlink:href="#DejaVuSans-65" transform="translate(595.3125 0.529687)"/>
      <use xlink:href="#DejaVuSans-20" transform="translate(656.835938 0.529687)"/>
      <use xlink:href="#DejaVuSans-28" transform="translate(688.623047 0.529687)"/>
      <use xlink:href="#DejaVuSans-35" transform="translate(727.636719 0.529687)"/>
      <use xlink:href="#DejaVuSans-Oblique-74" transform="translate(792.216797 38.810937) scale(0.7)"/>
      <use xlink:href="#DejaVuSans-Oblique-68" transform="translate(819.663086 38.810937) scale(0.7)"/>
      <use xlink:href="#DejaVuSans-20" transform="translate(866.762695 0.529687)"/>
      <use xlink:href="#DejaVuSans-74" transform="translate(898.549805 0.529687)"/>
      <use xlink:href="#DejaVuSans-6f" transform="translate(937.758789 0.529687)"/>
      <use xlink:href="#DejaVuSans-20" transform="translate(998.94043 0.529687)"/>
      <use xlink:href="#DejaVuSans-39" transform="translate(1030.727539 0.529687)"/>
      <use xlink:href="#DejaVuSans-35" transform="translate(1094.350586 0.529687)"/>
      <use xlink:href="#DejaVuSans-Oblique-74" transform="translate(1158.930664 38.810937) scale(0.7)"/>
      <use xlink:href="#DejaVuSans-Oblique-68" transform="translate(1186.376953 38.810937) scale(0.7)"/>
      <use xlink:href="#DejaVuSans-29" transform="translate(1233.476562 0.529687)"/>
     </g>
    </g>
    <g id="line2d_18">
     <path d="M 63 63.958438 
L 73 63.958438 
L 83 63.958438 
" style="fill: none; stroke: #0000ff; stroke-width: 2; stroke-linecap: square"/>
    </g>
    <g id="text_19">
     <!-- Annual Average -->
     <g transform="translate(91 67.458438) scale(0.1 -0.1)">
      <defs>
       <path id="DejaVuSans-41" d="M 2188 4044 
L 1331 1722 
L 3047 1722 
L 2188 4044 
z
M 1831 4666 
L 2547 4666 
L 4325 0 
L 3669 0 
L 3244 1197 
L 1141 1197 
L 716 0 
L 50 0 
L 1831 4666 
z
" transform="scale(0.015625)"/>
       <path id="DejaVuSans-76" d="M 191 3500 
L 800 3500 
L 1894 563 
L 2988 3500 
L 3597 3500 
L 2284 0 
L 1503 0 
L 191 3500 
z
" transform="scale(0.015625)"/>
      </defs>
      <use xlink:href="#DejaVuSans-41"/>
      <use xlink:href="#DejaVuSans-6e" x="68.408203"/>
      <use xlink:href="#DejaVuSans-6e" x="131.787109"/>
      <use xlink:href="#DejaVuSans-75" x="195.166016"/>
      <use xlink:href="#DejaVuSans-61" x="258.544922"/>
      <use xlink:href="#DejaVuSans-6c" x="319.824219"/>
      <use xlink:href="#DejaVuSans-20" x="347.607422"/>
      <use xlink:href="#DejaVuSans-41" x="379.394531"/>
      <use xlink:href="#DejaVuSans-76" x="441.927734"/>
      <use xlink:href="#DejaVuSans-65" x="501.107422"/>
      <use xlink:href="#DejaVuSans-72" x="562.630859"/>
      <use xlink:href="#DejaVuSans-61" x="603.744141"/>
      <use xlink:href="#DejaVuSans-67" x="665.023438"/>
      <use xlink:href="#DejaVuSans-65" x="728.5"/>
     </g>
    </g>
    <g id="line2d_19">
     <path d="M 63 78.636563 
L 73 78.636563 
L 83 78.636563 
" style="fill: none; stroke: #008000; stroke-width: 2; stroke-linecap: square"/>
    </g>
    <g id="text_20">
     <!-- 25th -->
     <g transform="translate(91 82.136563) scale(0.1 -0.1)">
      <defs>
       <path id="DejaVuSans-68" d="M 3513 2113 
L 3513 0 
L 2938 0 
L 2938 2094 
Q 2938 2591 2744 2837 
Q 2550 3084 2163 3084 
Q 1697 3084 1428 2787 
Q 1159 2491 1159 1978 
L 1159 0 
L 581 0 
L 581 4863 
L 1159 4863 
L 1159 2956 
Q 1366 3272 1645 3428 
Q 1925 3584 2291 3584 
Q 2894 3584 3203 3211 
Q 3513 2838 3513 2113 
z
" transform="scale(0.015625)"/>
      </defs>
      <use xlink:href="#DejaVuSans-32"/>
      <use xlink:href="#DejaVuSans-35" x="63.623047"/>
      <use xlink:href="#DejaVuSans-74" x="127.246094"/>
      <use xlink:href="#DejaVuSans-68" x="166.455078"/>
     </g>
    </g>
    <g id="line2d_20">
     <path d="M 63 93.314688 
L 73 93.314688 
L 83 93.314688 
" style="fill: none; stroke: #ff0000; stroke-width: 2; stroke-linecap: square"/>
    </g>
    <g id="text_21">
     <!-- 75th -->
     <g transform="translate(91 96.814688) scale(0.1 -0.1)">
      <defs>
       <path id="DejaVuSans-37" d="M 525 4666 
L 3525 4666 
L 3525 4397 
L 1831 0 
L 1172 0 
L 2766 4134 
L 525 4134 
L 525 4666 
z
" transform="scale(0.015625)"/>
      </defs>
      <use xlink:href="#DejaVuSans-37"/>
      <use xlink:href="#DejaVuSans-35" x="63.623047"/>
      <use xlink:href="#DejaVuSans-74" x="127.246094"/>
      <use xlink:href="#DejaVuSans-68" x="166.455078"/>
     </g>
    </g>
   </g>
  </g>
 </g>
 <defs>
  <clipPath id="p857edee51c">
   <rect x="54" y="34.56" width="334.8" height="221.76"/>
  </clipPath>
 </defs>
</svg>
