<?xml version="1.0" encoding="utf-8" standalone="no"?>
<!DOCTYPE svg PUBLIC "-//W3C//DTD SVG 1.1//EN"
  "http://www.w3.org/Graphics/SVG/1.1/DTD/svg11.dtd">
<svg xmlns:xlink="http://www.w3.org/1999/xlink" width="416.825pt" height="336.5765pt" viewBox="0 0 416.825 336.5765" xmlns="http://www.w3.org/2000/svg" version="1.1">
 <metadata>
  <rdf:RDF xmlns:dc="http://purl.org/dc/elements/1.1/" xmlns:cc="http://creativecommons.org/ns#" xmlns:rdf="http://www.w3.org/1999/02/22-rdf-syntax-ns#">
   <cc:Work>
    <dc:type rdf:resource="http://purl.org/dc/dcmitype/StillImage"/>
    <dc:date>2024-05-27T20:14:01.491068</dc:date>
    <dc:format>image/svg+xml</dc:format>
    <dc:creator>
     <cc:Agent>
      <dc:title>Matplotlib v3.7.1, https://matplotlib.org/</dc:title>
     </cc:Agent>
    </dc:creator>
   </cc:Work>
  </rdf:RDF>
 </metadata>
 <defs>
  <style type="text/css">*{stroke-linejoin: round; stroke-linecap: butt}</style>
 </defs>
 <g id="figure_1">
  <g id="patch_1">
   <path d="M 0 336.5765 
L 416.825 336.5765 
L 416.825 0 
L 0 0 
z
" style="fill: #ffffff"/>
  </g>
  <g id="axes_1">
   <g id="patch_2">
    <path d="M 50.14375 244.078125 
L 384.94375 244.078125 
L 384.94375 22.318125 
L 50.14375 22.318125 
z
" style="fill: #ffffff"/>
   </g>
   <g id="matplotlib.axis_1">
    <g id="xtick_1">
     <g id="line2d_1">
      <defs>
       <path id="mbee0746827" d="M 0 0 
L 0 3.5 
" style="stroke: #000000; stroke-width: 0.8"/>
      </defs>
      <g>
       <use xlink:href="#mbee0746827" x="51.330571" y="244.078125" style="stroke: #000000; stroke-width: 0.8"/>
      </g>
     </g>
     <g id="text_1">
      <!-- −10 -->
      <g transform="translate(40.778227 258.676563) scale(0.1 -0.1)">
       <defs>
        <path id="DejaVuSans-2212" d="M 678 2272 
L 4684 2272 
L 4684 1741 
L 678 1741 
L 678 2272 
z
" transform="scale(0.015625)"/>
        <path id="DejaVuSans-31" d="M 794 531 
L 1825 531 
L 1825 4091 
L 703 3866 
L 703 4441 
L 1819 4666 
L 2450 4666 
L 2450 531 
L 3481 531 
L 3481 0 
L 794 0 
L 794 531 
z
" transform="scale(0.015625)"/>
        <path id="DejaVuSans-30" d="M 2034 4250 
Q 1547 4250 1301 3770 
Q 1056 3291 1056 2328 
Q 1056 1369 1301 889 
Q 1547 409 2034 409 
Q 2525 409 2770 889 
Q 3016 1369 3016 2328 
Q 3016 3291 2770 3770 
Q 2525 4250 2034 4250 
z
M 2034 4750 
Q 2819 4750 3233 4129 
Q 3647 3509 3647 2328 
Q 3647 1150 3233 529 
Q 2819 -91 2034 -91 
Q 1250 -91 836 529 
Q 422 1150 422 2328 
Q 422 3509 836 4129 
Q 1250 4750 2034 4750 
z
" transform="scale(0.015625)"/>
       </defs>
       <use xlink:href="#DejaVuSans-2212"/>
       <use xlink:href="#DejaVuSans-31" x="83.789062"/>
       <use xlink:href="#DejaVuSans-30" x="147.412109"/>
      </g>
     </g>
    </g>
    <g id="xtick_2">
     <g id="line2d_2">
      <g>
       <use xlink:href="#mbee0746827" x="90.119659" y="244.078125" style="stroke: #000000; stroke-width: 0.8"/>
      </g>
     </g>
     <g id="text_2">
      <!-- 0 -->
      <g transform="translate(86.938409 258.676563) scale(0.1 -0.1)">
       <use xlink:href="#DejaVuSans-30"/>
      </g>
     </g>
    </g>
    <g id="xtick_3">
     <g id="line2d_3">
      <g>
       <use xlink:href="#mbee0746827" x="128.908746" y="244.078125" style="stroke: #000000; stroke-width: 0.8"/>
      </g>
     </g>
     <g id="text_3">
      <!-- 10 -->
      <g transform="translate(122.546246 258.676563) scale(0.1 -0.1)">
       <use xlink:href="#DejaVuSans-31"/>
       <use xlink:href="#DejaVuSans-30" x="63.623047"/>
      </g>
     </g>
    </g>
    <g id="xtick_4">
     <g id="line2d_4">
      <g>
       <use xlink:href="#mbee0746827" x="167.697833" y="244.078125" style="stroke: #000000; stroke-width: 0.8"/>
      </g>
     </g>
     <g id="text_4">
      <!-- 20 -->
      <g transform="translate(161.335333 258.676563) scale(0.1 -0.1)">
       <defs>
        <path id="DejaVuSans-32" d="M 1228 531 
L 3431 531 
L 3431 0 
L 469 0 
L 469 531 
Q 828 903 1448 1529 
Q 2069 2156 2228 2338 
Q 2531 2678 2651 2914 
Q 2772 3150 2772 3378 
Q 2772 3750 2511 3984 
Q 2250 4219 1831 4219 
Q 1534 4219 1204 4116 
Q 875 4013 500 3803 
L 500 4441 
Q 881 4594 1212 4672 
Q 1544 4750 1819 4750 
Q 2544 4750 2975 4387 
Q 3406 4025 3406 3419 
Q 3406 3131 3298 2873 
Q 3191 2616 2906 2266 
Q 2828 2175 2409 1742 
Q 1991 1309 1228 531 
z
" transform="scale(0.015625)"/>
       </defs>
       <use xlink:href="#DejaVuSans-32"/>
       <use xlink:href="#DejaVuSans-30" x="63.623047"/>
      </g>
     </g>
    </g>
    <g id="xtick_5">
     <g id="line2d_5">
      <g>
       <use xlink:href="#mbee0746827" x="206.486921" y="244.078125" style="stroke: #000000; stroke-width: 0.8"/>
      </g>
     </g>
     <g id="text_5">
      <!-- 30 -->
      <g transform="translate(200.124421 258.676563) scale(0.1 -0.1)">
       <defs>
        <path id="DejaVuSans-33" d="M 2597 2516 
Q 3050 2419 3304 2112 
Q 3559 1806 3559 1356 
Q 3559 666 3084 287 
Q 2609 -91 1734 -91 
Q 1441 -91 1130 -33 
Q 819 25 488 141 
L 488 750 
Q 750 597 1062 519 
Q 1375 441 1716 441 
Q 2309 441 2620 675 
Q 2931 909 2931 1356 
Q 2931 1769 2642 2001 
Q 2353 2234 1838 2234 
L 1294 2234 
L 1294 2753 
L 1863 2753 
Q 2328 2753 2575 2939 
Q 2822 3125 2822 3475 
Q 2822 3834 2567 4026 
Q 2313 4219 1838 4219 
Q 1578 4219 1281 4162 
Q 984 4106 628 3988 
L 628 4550 
Q 988 4650 1302 4700 
Q 1616 4750 1894 4750 
Q 2613 4750 3031 4423 
Q 3450 4097 3450 3541 
Q 3450 3153 3228 2886 
Q 3006 2619 2597 2516 
z
" transform="scale(0.015625)"/>
       </defs>
       <use xlink:href="#DejaVuSans-33"/>
       <use xlink:href="#DejaVuSans-30" x="63.623047"/>
      </g>
     </g>
    </g>
    <g id="xtick_6">
     <g id="line2d_6">
      <g>
       <use xlink:href="#mbee0746827" x="245.276008" y="244.078125" style="stroke: #000000; stroke-width: 0.8"/>
      </g>
     </g>
     <g id="text_6">
      <!-- 40 -->
      <g transform="translate(238.913508 258.676563) scale(0.1 -0.1)">
       <defs>
        <path id="DejaVuSans-34" d="M 2419 4116 
L 825 1625 
L 2419 1625 
L 2419 4116 
z
M 2253 4666 
L 3047 4666 
L 3047 1625 
L 3713 1625 
L 3713 1100 
L 3047 1100 
L 3047 0 
L 2419 0 
L 2419 1100 
L 313 1100 
L 313 1709 
L 2253 4666 
z
" transform="scale(0.015625)"/>
       </defs>
       <use xlink:href="#DejaVuSans-34"/>
       <use xlink:href="#DejaVuSans-30" x="63.623047"/>
      </g>
     </g>
    </g>
    <g id="xtick_7">
     <g id="line2d_7">
      <g>
       <use xlink:href="#mbee0746827" x="284.065095" y="244.078125" style="stroke: #000000; stroke-width: 0.8"/>
      </g>
     </g>
     <g id="text_7">
      <!-- 50 -->
      <g transform="translate(277.702595 258.676563) scale(0.1 -0.1)">
       <defs>
        <path id="DejaVuSans-35" d="M 691 4666 
L 3169 4666 
L 3169 4134 
L 1269 4134 
L 1269 2991 
Q 1406 3038 1543 3061 
Q 1681 3084 1819 3084 
Q 2600 3084 3056 2656 
Q 3513 2228 3513 1497 
Q 3513 744 3044 326 
Q 2575 -91 1722 -91 
Q 1428 -91 1123 -41 
Q 819 9 494 109 
L 494 744 
Q 775 591 1075 516 
Q 1375 441 1709 441 
Q 2250 441 2565 725 
Q 2881 1009 2881 1497 
Q 2881 1984 2565 2268 
Q 2250 2553 1709 2553 
Q 1456 2553 1204 2497 
Q 953 2441 691 2322 
L 691 4666 
z
" transform="scale(0.015625)"/>
       </defs>
       <use xlink:href="#DejaVuSans-35"/>
       <use xlink:href="#DejaVuSans-30" x="63.623047"/>
      </g>
     </g>
    </g>
    <g id="xtick_8">
     <g id="line2d_8">
      <g>
       <use xlink:href="#mbee0746827" x="322.854183" y="244.078125" style="stroke: #000000; stroke-width: 0.8"/>
      </g>
     </g>
     <g id="text_8">
      <!-- 60 -->
      <g transform="translate(316.491683 258.676563) scale(0.1 -0.1)">
       <defs>
        <path id="DejaVuSans-36" d="M 2113 2584 
Q 1688 2584 1439 2293 
Q 1191 2003 1191 1497 
Q 1191 994 1439 701 
Q 1688 409 2113 409 
Q 2538 409 2786 701 
Q 3034 994 3034 1497 
Q 3034 2003 2786 2293 
Q 2538 2584 2113 2584 
z
M 3366 4563 
L 3366 3988 
Q 3128 4100 2886 4159 
Q 2644 4219 2406 4219 
Q 1781 4219 1451 3797 
Q 1122 3375 1075 2522 
Q 1259 2794 1537 2939 
Q 1816 3084 2150 3084 
Q 2853 3084 3261 2657 
Q 3669 2231 3669 1497 
Q 3669 778 3244 343 
Q 2819 -91 2113 -91 
Q 1303 -91 875 529 
Q 447 1150 447 2328 
Q 447 3434 972 4092 
Q 1497 4750 2381 4750 
Q 2619 4750 2861 4703 
Q 3103 4656 3366 4563 
z
" transform="scale(0.015625)"/>
       </defs>
       <use xlink:href="#DejaVuSans-36"/>
       <use xlink:href="#DejaVuSans-30" x="63.623047"/>
      </g>
     </g>
    </g>
    <g id="xtick_9">
     <g id="line2d_9">
      <g>
       <use xlink:href="#mbee0746827" x="361.64327" y="244.078125" style="stroke: #000000; stroke-width: 0.8"/>
      </g>
     </g>
     <g id="text_9">
      <!-- 70 -->
      <g transform="translate(355.28077 258.676563) scale(0.1 -0.1)">
       <defs>
        <path id="DejaVuSans-37" d="M 525 4666 
L 3525 4666 
L 3525 4397 
L 1831 0 
L 1172 0 
L 2766 4134 
L 525 4134 
L 525 4666 
z
" transform="scale(0.015625)"/>
       </defs>
       <use xlink:href="#DejaVuSans-37"/>
       <use xlink:href="#DejaVuSans-30" x="63.623047"/>
      </g>
     </g>
    </g>
    <g id="text_10">
     <!-- kWh -->
     <g transform="translate(206.535938 272.354688) scale(0.1 -0.1)">
      <defs>
       <path id="DejaVuSans-6b" d="M 581 4863 
L 1159 4863 
L 1159 1991 
L 2875 3500 
L 3609 3500 
L 1753 1863 
L 3688 0 
L 2938 0 
L 1159 1709 
L 1159 0 
L 581 0 
L 581 4863 
z
" transform="scale(0.015625)"/>
       <path id="DejaVuSans-57" d="M 213 4666 
L 850 4666 
L 1831 722 
L 2809 4666 
L 3519 4666 
L 4500 722 
L 5478 4666 
L 6119 4666 
L 4947 0 
L 4153 0 
L 3169 4050 
L 2175 0 
L 1381 0 
L 213 4666 
z
" transform="scale(0.015625)"/>
       <path id="DejaVuSans-68" d="M 3513 2113 
L 3513 0 
L 2938 0 
L 2938 2094 
Q 2938 2591 2744 2837 
Q 2550 3084 2163 3084 
Q 1697 3084 1428 2787 
Q 1159 2491 1159 1978 
L 1159 0 
L 581 0 
L 581 4863 
L 1159 4863 
L 1159 2956 
Q 1366 3272 1645 3428 
Q 1925 3584 2291 3584 
Q 2894 3584 3203 3211 
Q 3513 2838 3513 2113 
z
" transform="scale(0.015625)"/>
      </defs>
      <use xlink:href="#DejaVuSans-6b"/>
      <use xlink:href="#DejaVuSans-57" x="57.910156"/>
      <use xlink:href="#DejaVuSans-68" x="156.787109"/>
     </g>
    </g>
   </g>
   <g id="matplotlib.axis_2">
    <g id="ytick_1">
     <g id="line2d_10">
      <defs>
       <path id="me61b07e7d5" d="M 0 0 
L -3.5 0 
" style="stroke: #000000; stroke-width: 0.8"/>
      </defs>
      <g>
       <use xlink:href="#me61b07e7d5" x="50.14375" y="244.078125" style="stroke: #000000; stroke-width: 0.8"/>
      </g>
     </g>
     <g id="text_11">
      <!-- 0.00 -->
      <g transform="translate(20.878125 247.877344) scale(0.1 -0.1)">
       <defs>
        <path id="DejaVuSans-2e" d="M 684 794 
L 1344 794 
L 1344 0 
L 684 0 
L 684 794 
z
" transform="scale(0.015625)"/>
       </defs>
       <use xlink:href="#DejaVuSans-30"/>
       <use xlink:href="#DejaVuSans-2e" x="63.623047"/>
       <use xlink:href="#DejaVuSans-30" x="95.410156"/>
       <use xlink:href="#DejaVuSans-30" x="159.033203"/>
      </g>
     </g>
    </g>
    <g id="ytick_2">
     <g id="line2d_11">
      <g>
       <use xlink:href="#me61b07e7d5" x="50.14375" y="214.593049" style="stroke: #000000; stroke-width: 0.8"/>
      </g>
     </g>
     <g id="text_12">
      <!-- 0.01 -->
      <g transform="translate(20.878125 218.392267) scale(0.1 -0.1)">
       <use xlink:href="#DejaVuSans-30"/>
       <use xlink:href="#DejaVuSans-2e" x="63.623047"/>
       <use xlink:href="#DejaVuSans-30" x="95.410156"/>
       <use xlink:href="#DejaVuSans-31" x="159.033203"/>
      </g>
     </g>
    </g>
    <g id="ytick_3">
     <g id="line2d_12">
      <g>
       <use xlink:href="#me61b07e7d5" x="50.14375" y="185.107972" style="stroke: #000000; stroke-width: 0.8"/>
      </g>
     </g>
     <g id="text_13">
      <!-- 0.02 -->
      <g transform="translate(20.878125 188.907191) scale(0.1 -0.1)">
       <use xlink:href="#DejaVuSans-30"/>
       <use xlink:href="#DejaVuSans-2e" x="63.623047"/>
       <use xlink:href="#DejaVuSans-30" x="95.410156"/>
       <use xlink:href="#DejaVuSans-32" x="159.033203"/>
      </g>
     </g>
    </g>
    <g id="ytick_4">
     <g id="line2d_13">
      <g>
       <use xlink:href="#me61b07e7d5" x="50.14375" y="155.622896" style="stroke: #000000; stroke-width: 0.8"/>
      </g>
     </g>
     <g id="text_14">
      <!-- 0.03 -->
      <g transform="translate(20.878125 159.422115) scale(0.1 -0.1)">
       <use xlink:href="#DejaVuSans-30"/>
       <use xlink:href="#DejaVuSans-2e" x="63.623047"/>
       <use xlink:href="#DejaVuSans-30" x="95.410156"/>
       <use xlink:href="#DejaVuSans-33" x="159.033203"/>
      </g>
     </g>
    </g>
    <g id="ytick_5">
     <g id="line2d_14">
      <g>
       <use xlink:href="#me61b07e7d5" x="50.14375" y="126.137819" style="stroke: #000000; stroke-width: 0.8"/>
      </g>
     </g>
     <g id="text_15">
      <!-- 0.04 -->
      <g transform="translate(20.878125 129.937038) scale(0.1 -0.1)">
       <use xlink:href="#DejaVuSans-30"/>
       <use xlink:href="#DejaVuSans-2e" x="63.623047"/>
       <use xlink:href="#DejaVuSans-30" x="95.410156"/>
       <use xlink:href="#DejaVuSans-34" x="159.033203"/>
      </g>
     </g>
    </g>
    <g id="ytick_6">
     <g id="line2d_15">
      <g>
       <use xlink:href="#me61b07e7d5" x="50.14375" y="96.652743" style="stroke: #000000; stroke-width: 0.8"/>
      </g>
     </g>
     <g id="text_16">
      <!-- 0.05 -->
      <g transform="translate(20.878125 100.451962) scale(0.1 -0.1)">
       <use xlink:href="#DejaVuSans-30"/>
       <use xlink:href="#DejaVuSans-2e" x="63.623047"/>
       <use xlink:href="#DejaVuSans-30" x="95.410156"/>
       <use xlink:href="#DejaVuSans-35" x="159.033203"/>
      </g>
     </g>
    </g>
    <g id="ytick_7">
     <g id="line2d_16">
      <g>
       <use xlink:href="#me61b07e7d5" x="50.14375" y="67.167667" style="stroke: #000000; stroke-width: 0.8"/>
      </g>
     </g>
     <g id="text_17">
      <!-- 0.06 -->
      <g transform="translate(20.878125 70.966885) scale(0.1 -0.1)">
       <use xlink:href="#DejaVuSans-30"/>
       <use xlink:href="#DejaVuSans-2e" x="63.623047"/>
       <use xlink:href="#DejaVuSans-30" x="95.410156"/>
       <use xlink:href="#DejaVuSans-36" x="159.033203"/>
      </g>
     </g>
    </g>
    <g id="ytick_8">
     <g id="line2d_17">
      <g>
       <use xlink:href="#me61b07e7d5" x="50.14375" y="37.68259" style="stroke: #000000; stroke-width: 0.8"/>
      </g>
     </g>
     <g id="text_18">
      <!-- 0.07 -->
      <g transform="translate(20.878125 41.481809) scale(0.1 -0.1)">
       <use xlink:href="#DejaVuSans-30"/>
       <use xlink:href="#DejaVuSans-2e" x="63.623047"/>
       <use xlink:href="#DejaVuSans-30" x="95.410156"/>
       <use xlink:href="#DejaVuSans-37" x="159.033203"/>
      </g>
     </g>
    </g>
    <g id="text_19">
     <!-- Density -->
     <g transform="translate(14.798438 152.206719) rotate(-90) scale(0.1 -0.1)">
      <defs>
       <path id="DejaVuSans-44" d="M 1259 4147 
L 1259 519 
L 2022 519 
Q 2988 519 3436 956 
Q 3884 1394 3884 2338 
Q 3884 3275 3436 3711 
Q 2988 4147 2022 4147 
L 1259 4147 
z
M 628 4666 
L 1925 4666 
Q 3281 4666 3915 4102 
Q 4550 3538 4550 2338 
Q 4550 1131 3912 565 
Q 3275 0 1925 0 
L 628 0 
L 628 4666 
z
" transform="scale(0.015625)"/>
       <path id="DejaVuSans-65" d="M 3597 1894 
L 3597 1613 
L 953 1613 
Q 991 1019 1311 708 
Q 1631 397 2203 397 
Q 2534 397 2845 478 
Q 3156 559 3463 722 
L 3463 178 
Q 3153 47 2828 -22 
Q 2503 -91 2169 -91 
Q 1331 -91 842 396 
Q 353 884 353 1716 
Q 353 2575 817 3079 
Q 1281 3584 2069 3584 
Q 2775 3584 3186 3129 
Q 3597 2675 3597 1894 
z
M 3022 2063 
Q 3016 2534 2758 2815 
Q 2500 3097 2075 3097 
Q 1594 3097 1305 2825 
Q 1016 2553 972 2059 
L 3022 2063 
z
" transform="scale(0.015625)"/>
       <path id="DejaVuSans-6e" d="M 3513 2113 
L 3513 0 
L 2938 0 
L 2938 2094 
Q 2938 2591 2744 2837 
Q 2550 3084 2163 3084 
Q 1697 3084 1428 2787 
Q 1159 2491 1159 1978 
L 1159 0 
L 581 0 
L 581 3500 
L 1159 3500 
L 1159 2956 
Q 1366 3272 1645 3428 
Q 1925 3584 2291 3584 
Q 2894 3584 3203 3211 
Q 3513 2838 3513 2113 
z
" transform="scale(0.015625)"/>
       <path id="DejaVuSans-73" d="M 2834 3397 
L 2834 2853 
Q 2591 2978 2328 3040 
Q 2066 3103 1784 3103 
Q 1356 3103 1142 2972 
Q 928 2841 928 2578 
Q 928 2378 1081 2264 
Q 1234 2150 1697 2047 
L 1894 2003 
Q 2506 1872 2764 1633 
Q 3022 1394 3022 966 
Q 3022 478 2636 193 
Q 2250 -91 1575 -91 
Q 1294 -91 989 -36 
Q 684 19 347 128 
L 347 722 
Q 666 556 975 473 
Q 1284 391 1588 391 
Q 1994 391 2212 530 
Q 2431 669 2431 922 
Q 2431 1156 2273 1281 
Q 2116 1406 1581 1522 
L 1381 1569 
Q 847 1681 609 1914 
Q 372 2147 372 2553 
Q 372 3047 722 3315 
Q 1072 3584 1716 3584 
Q 2034 3584 2315 3537 
Q 2597 3491 2834 3397 
z
" transform="scale(0.015625)"/>
       <path id="DejaVuSans-69" d="M 603 3500 
L 1178 3500 
L 1178 0 
L 603 0 
L 603 3500 
z
M 603 4863 
L 1178 4863 
L 1178 4134 
L 603 4134 
L 603 4863 
z
" transform="scale(0.015625)"/>
       <path id="DejaVuSans-74" d="M 1172 4494 
L 1172 3500 
L 2356 3500 
L 2356 3053 
L 1172 3053 
L 1172 1153 
Q 1172 725 1289 603 
Q 1406 481 1766 481 
L 2356 481 
L 2356 0 
L 1766 0 
Q 1100 0 847 248 
Q 594 497 594 1153 
L 594 3053 
L 172 3053 
L 172 3500 
L 594 3500 
L 594 4494 
L 1172 4494 
z
" transform="scale(0.015625)"/>
       <path id="DejaVuSans-79" d="M 2059 -325 
Q 1816 -950 1584 -1140 
Q 1353 -1331 966 -1331 
L 506 -1331 
L 506 -850 
L 844 -850 
Q 1081 -850 1212 -737 
Q 1344 -625 1503 -206 
L 1606 56 
L 191 3500 
L 800 3500 
L 1894 763 
L 2988 3500 
L 3597 3500 
L 2059 -325 
z
" transform="scale(0.015625)"/>
      </defs>
      <use xlink:href="#DejaVuSans-44"/>
      <use xlink:href="#DejaVuSans-65" x="77.001953"/>
      <use xlink:href="#DejaVuSans-6e" x="138.525391"/>
      <use xlink:href="#DejaVuSans-73" x="201.904297"/>
      <use xlink:href="#DejaVuSans-69" x="254.003906"/>
      <use xlink:href="#DejaVuSans-74" x="281.787109"/>
      <use xlink:href="#DejaVuSans-79" x="320.996094"/>
     </g>
    </g>
   </g>
   <g id="line2d_18">
    <path d="M 65.361932 243.956279 
L 68.420863 243.7298 
L 71.479794 243.186391 
L 73.009259 242.708291 
L 74.538725 242.029353 
L 76.06819 241.093535 
L 77.597656 239.841251 
L 79.127121 238.213783 
L 80.656587 236.158646 
L 82.186052 233.635122 
L 83.715518 230.618825 
L 85.244983 227.104053 
L 86.774449 223.102833 
L 88.303914 218.640055 
L 89.83338 213.744888 
L 91.362845 208.439619 
L 92.892311 202.727999 
L 94.421776 196.585772 
L 95.951242 189.956221 
L 97.480708 182.753062 
L 99.010173 174.87189 
L 100.539639 166.209826 
L 102.069104 156.691269 
L 103.59857 146.296081 
L 106.657501 123.221064 
L 111.245897 86.870603 
L 112.775363 75.955293 
L 114.304828 66.445437 
L 115.834294 58.774171 
L 117.363759 53.275621 
L 118.893225 50.148026 
L 120.42269 49.432043 
L 121.952156 51.007777 
L 123.481621 54.61126 
L 125.011087 59.868078 
L 126.540552 66.339074 
L 129.599483 81.145311 
L 132.658414 96.033152 
L 135.717345 109.431022 
L 138.776276 121.22573 
L 143.364673 137.410549 
L 149.482535 158.455492 
L 152.541466 168.264785 
L 154.070931 172.747356 
L 155.600397 176.865498 
L 157.129862 180.579434 
L 158.659328 183.872432 
L 160.188793 186.751695 
L 161.718259 189.246402 
L 163.247724 191.40325 
L 164.77719 193.280184 
L 167.836121 196.439826 
L 170.895052 199.15741 
L 175.483448 202.9237 
L 180.071845 206.455457 
L 184.660242 209.724862 
L 190.778104 213.795911 
L 195.3665 216.644366 
L 199.954897 219.214291 
L 204.543293 221.445415 
L 207.602224 222.73266 
L 210.661155 223.835243 
L 213.720086 224.707169 
L 216.779017 225.296886 
L 219.837948 225.586087 
L 222.896879 225.623279 
L 235.132603 225.376849 
L 239.721 225.670655 
L 242.779931 226.117017 
L 245.838862 226.86787 
L 248.897793 227.964007 
L 251.956724 229.350163 
L 259.604052 233.117504 
L 262.662983 234.391255 
L 265.721914 235.444171 
L 268.780845 236.281478 
L 271.839776 236.923951 
L 276.428172 237.58881 
L 290.193362 239.145191 
L 307.017482 241.840411 
L 313.135344 242.458834 
L 322.312137 243.146182 
L 331.48893 243.613601 
L 340.665724 243.804333 
L 369.725568 244.075904 
L 369.725568 244.075904 
" clip-path="url(#p8fd6b4ed87)" style="fill: none; stroke: #1f77b4; stroke-width: 1.5; stroke-linecap: square"/>
   </g>
   <g id="line2d_19">
    <path d="M 72.734462 243.89805 
L 74.19911 243.713142 
L 75.663758 243.374546 
L 77.128406 242.787787 
L 78.593054 241.825924 
L 80.057702 240.335028 
L 81.52235 238.151033 
L 82.986998 235.128944 
L 84.451646 231.180677 
L 85.916294 226.312189 
L 87.380942 220.64643 
L 94.704181 189.644329 
L 97.633477 178.576623 
L 99.098125 172.4861 
L 100.562773 165.370186 
L 102.027421 156.801589 
L 103.492069 146.545421 
L 104.956717 134.651712 
L 110.815308 82.385619 
L 112.279956 72.615962 
L 113.744604 65.768772 
L 115.209252 62.159752 
L 116.6739 61.718793 
L 118.138548 64.029059 
L 119.603196 68.420974 
L 121.067844 74.091246 
L 123.99714 86.056555 
L 125.461787 91.002239 
L 126.926435 94.637179 
L 128.391083 96.753159 
L 129.855731 97.361427 
L 131.320379 96.685219 
L 132.785027 95.131837 
L 134.249675 93.242643 
L 135.714323 91.62415 
L 137.178971 90.868921 
L 138.643619 91.478551 
L 140.108267 93.801257 
L 141.572915 97.993738 
L 143.037562 104.011979 
L 144.50221 111.630236 
L 145.966858 120.482627 
L 151.82545 159.128778 
L 153.290098 167.575869 
L 154.754746 175.005648 
L 156.219394 181.321552 
L 157.684042 186.516204 
L 159.14869 190.658206 
L 160.613337 193.875988 
L 162.077985 196.33919 
L 163.542633 198.238106 
L 165.007281 199.762486 
L 178.189113 211.625852 
L 181.118408 213.782173 
L 184.047704 215.625134 
L 186.977 217.259975 
L 189.906296 218.648168 
L 192.835592 219.687395 
L 195.764888 220.387639 
L 200.158831 221.080065 
L 203.088127 221.392376 
L 206.017423 221.534447 
L 213.340663 221.581675 
L 216.269958 221.920604 
L 229.45179 224.123783 
L 235.310381 225.082304 
L 239.704325 225.451124 
L 242.633621 225.797183 
L 244.098269 226.159402 
L 245.562917 226.701474 
L 247.027565 227.42882 
L 249.956861 229.299146 
L 252.886156 231.284379 
L 254.350804 232.150983 
L 255.815452 232.876671 
L 257.2801 233.451287 
L 260.209396 234.22461 
L 268.997283 235.969756 
L 273.391227 236.860814 
L 276.320523 237.237342 
L 286.573058 238.28346 
L 292.43165 239.296204 
L 301.219538 240.82754 
L 307.078129 241.616716 
L 312.936721 242.168257 
L 326.118552 243.084967 
L 333.441792 243.338054 
L 342.229679 243.681285 
L 351.017567 243.991407 
L 361.270102 244.074968 
L 364.199398 244.077294 
L 364.199398 244.077294 
" clip-path="url(#p8fd6b4ed87)" style="fill: none; stroke: #ff7f0e; stroke-width: 1.5; stroke-linecap: square"/>
   </g>
   <g id="line2d_20">
    <path d="M 74.252738 243.891784 
L 75.702205 243.680141 
L 77.151672 243.276002 
L 78.601139 242.55208 
L 80.050605 241.336451 
L 81.500072 239.424296 
L 82.949539 236.609437 
L 84.399006 232.735737 
L 85.848473 227.758681 
L 87.29794 221.797103 
L 93.095807 195.640643 
L 94.545274 190.538929 
L 95.994741 186.244425 
L 98.893674 178.418432 
L 100.343141 173.617229 
L 101.792608 167.34769 
L 103.242075 159.140361 
L 104.691542 148.812627 
L 106.141009 136.532059 
L 111.938876 82.046834 
L 113.388343 71.81849 
L 114.83781 64.508175 
L 116.287276 60.413394 
L 117.736743 59.503419 
L 119.18621 61.463535 
L 120.635677 65.759315 
L 122.085144 71.700412 
L 124.984077 85.327557 
L 126.433544 91.400164 
L 127.883011 96.062301 
L 129.332478 98.896644 
L 130.781945 99.806936 
L 132.231412 99.052784 
L 133.680878 97.213312 
L 135.130345 95.079396 
L 136.579812 93.498622 
L 138.029279 93.214046 
L 139.478746 94.739325 
L 140.928213 98.298218 
L 142.377679 103.832999 
L 143.827146 111.064844 
L 145.276613 119.578178 
L 152.523947 165.843534 
L 153.973414 173.413729 
L 155.422881 179.9347 
L 156.872348 185.341408 
L 158.321815 189.641662 
L 159.771281 192.912634 
L 161.220748 195.291754 
L 162.670215 196.961632 
L 164.119682 198.130323 
L 167.018616 199.79038 
L 168.468082 200.627342 
L 169.917549 201.619136 
L 171.367016 202.803284 
L 174.26595 205.618975 
L 177.164883 208.505471 
L 180.063817 210.924319 
L 182.962751 212.849113 
L 190.210085 217.144289 
L 193.109019 218.475063 
L 196.007952 219.355203 
L 198.906886 219.930556 
L 201.80582 220.340099 
L 204.704753 220.523796 
L 207.603687 220.373366 
L 213.401554 219.693193 
L 216.300488 219.765624 
L 219.199422 220.197607 
L 227.896223 221.952543 
L 235.143557 223.806056 
L 238.04249 224.140756 
L 240.941424 224.266915 
L 242.390891 224.432448 
L 243.840358 224.783559 
L 245.289825 225.37847 
L 246.739291 226.22628 
L 249.638225 228.451211 
L 252.537159 230.690935 
L 253.986626 231.571796 
L 255.436092 232.227596 
L 256.885559 232.662579 
L 258.335026 232.916927 
L 265.58236 233.678895 
L 269.930761 234.772644 
L 272.829694 235.40836 
L 275.728628 235.762907 
L 282.975962 236.349541 
L 285.874896 236.85368 
L 290.223296 237.87219 
L 298.920097 240.046185 
L 303.268498 240.867164 
L 307.616898 241.448395 
L 325.0105 243.182869 
L 329.358901 243.367535 
L 339.505169 243.676857 
L 348.20197 243.990278 
L 358.348238 244.074269 
L 362.696638 244.077624 
L 362.696638 244.077624 
" clip-path="url(#p8fd6b4ed87)" style="fill: none; stroke: #2ca02c; stroke-width: 1.5; stroke-linecap: square"/>
   </g>
   <g id="line2d_21">
    <path d="M 76.320416 243.894298 
L 77.749024 243.648802 
L 79.177632 243.14527 
L 80.60624 242.191508 
L 82.034848 240.524771 
L 83.463457 237.840559 
L 84.892065 233.862235 
L 86.320673 228.444457 
L 87.749281 221.677737 
L 92.035106 198.150314 
L 93.463714 191.398184 
L 94.892322 185.869735 
L 96.32093 181.408654 
L 99.178147 173.246915 
L 100.606755 167.851354 
L 102.035363 160.468711 
L 103.463971 150.510536 
L 104.892579 137.754582 
L 106.321188 122.470333 
L 110.607012 71.927095 
L 112.03562 58.469554 
L 113.464229 48.857858 
L 114.892837 43.610621 
L 116.321445 42.627876 
L 117.750053 45.348781 
L 119.178661 50.978122 
L 120.607269 58.66939 
L 126.321702 93.86208 
L 127.75031 99.81792 
L 129.178919 103.351369 
L 130.607527 104.271023 
L 132.036135 102.7977 
L 133.464743 99.559334 
L 136.32196 91.683209 
L 137.750568 89.155791 
L 139.179176 88.717033 
L 140.607784 90.836342 
L 142.036392 95.611212 
L 143.465 102.79934 
L 144.893609 111.89989 
L 147.750825 133.200538 
L 150.608041 154.441577 
L 152.03665 163.896936 
L 153.465258 172.234826 
L 154.893866 179.327519 
L 156.322474 185.11982 
L 157.751082 189.624317 
L 159.179691 192.929235 
L 160.608299 195.203606 
L 162.036907 196.68688 
L 163.465515 197.66018 
L 166.322731 199.169854 
L 167.75134 200.126854 
L 169.179948 201.369106 
L 170.608556 202.903923 
L 173.465772 206.552891 
L 176.322989 210.218042 
L 179.180205 213.289688 
L 182.037422 215.86338 
L 187.751854 220.69471 
L 189.180462 221.705141 
L 190.609071 222.516369 
L 192.037679 223.095754 
L 193.466287 223.450347 
L 194.894895 223.62424 
L 199.18072 223.703959 
L 203.466544 223.747295 
L 206.323761 223.505174 
L 212.038193 222.423793 
L 213.466802 222.379544 
L 214.89541 222.549105 
L 216.324018 222.931126 
L 222.038451 225.115611 
L 223.467059 225.424646 
L 226.324275 225.678457 
L 229.181492 225.842253 
L 232.038708 226.249057 
L 234.895924 226.741644 
L 236.324533 226.872845 
L 237.753141 226.862909 
L 240.610357 226.486775 
L 242.038965 226.295355 
L 243.467574 226.278216 
L 244.896182 226.554768 
L 246.32479 227.183107 
L 247.753398 228.137878 
L 253.467831 232.793837 
L 254.896439 233.57422 
L 256.325047 234.105054 
L 257.753655 234.417351 
L 260.610872 234.643432 
L 263.468088 234.837929 
L 266.325305 235.379724 
L 272.039737 236.919004 
L 274.896954 237.422726 
L 279.182778 237.900406 
L 289.183036 238.950426 
L 293.46886 239.67269 
L 302.040509 241.193308 
L 306.326334 241.788804 
L 310.612158 242.117113 
L 319.183807 242.539754 
L 329.184065 243.237313 
L 343.470147 243.748827 
L 350.613188 244.005194 
L 360.613445 244.077125 
L 360.613445 244.077125 
" clip-path="url(#p8fd6b4ed87)" style="fill: none; stroke: #d62728; stroke-width: 1.5; stroke-linecap: square"/>
   </g>
   <g id="line2d_22">
    <path d="M 76.999462 243.884334 
L 78.421245 243.609526 
L 79.843029 243.030199 
L 81.264812 241.909866 
L 82.686596 239.924722 
L 84.10838 236.706385 
L 85.530163 231.941103 
L 86.951947 225.511349 
L 88.37373 217.627365 
L 91.217298 200.099073 
L 92.639081 192.194172 
L 94.060865 185.781898 
L 95.482648 181.011619 
L 96.904432 177.512132 
L 98.326216 174.516498 
L 99.747999 171.073825 
L 101.169783 166.248343 
L 102.591566 159.259142 
L 104.01335 149.58303 
L 105.435134 137.065884 
L 106.856917 122.046486 
L 111.122268 73.281008 
L 112.544052 60.926814 
L 113.965835 52.588 
L 115.387619 48.59546 
L 116.809403 48.624857 
L 118.231186 51.926649 
L 119.65297 57.60743 
L 121.074753 64.825537 
L 125.340104 88.503338 
L 126.761888 94.719219 
L 128.183671 98.96901 
L 129.605455 100.824174 
L 131.027239 100.216626 
L 132.449022 97.509345 
L 136.714373 85.495237 
L 138.136157 83.615018 
L 139.55794 84.135659 
L 140.979724 87.397778 
L 142.401507 93.399666 
L 143.823291 101.835527 
L 145.245075 112.159558 
L 150.932209 158.366302 
L 152.353993 168.240582 
L 153.775776 176.796421 
L 155.19756 183.94239 
L 156.619343 189.673648 
L 158.041127 194.062965 
L 159.462911 197.260691 
L 160.884694 199.487216 
L 162.306478 201.009671 
L 163.728261 202.106941 
L 166.571829 203.989994 
L 167.993612 205.105848 
L 169.415396 206.430917 
L 172.258963 209.547062 
L 175.10253 212.595127 
L 176.524314 213.845898 
L 177.946098 214.868234 
L 180.789665 216.409683 
L 185.055016 218.553608 
L 187.898583 220.1225 
L 189.320366 220.804997 
L 190.74215 221.334919 
L 192.163934 221.6821 
L 193.585717 221.856974 
L 196.429284 221.88128 
L 200.694635 221.70459 
L 203.538202 221.342792 
L 206.38177 220.589977 
L 209.225337 219.681895 
L 210.64712 219.336231 
L 212.068904 219.158901 
L 213.490688 219.20059 
L 214.912471 219.477078 
L 216.334255 219.960562 
L 222.021389 222.380416 
L 224.864957 223.053318 
L 227.708524 223.601169 
L 230.552091 224.472921 
L 234.817442 226.135665 
L 236.239225 226.47789 
L 237.661009 226.592234 
L 239.082793 226.476361 
L 241.92636 225.921364 
L 243.348143 225.806435 
L 244.769927 226.018415 
L 246.191711 226.640058 
L 247.613494 227.648994 
L 253.300629 232.725524 
L 254.722412 233.567411 
L 256.144196 234.124071 
L 257.565979 234.422626 
L 258.987763 234.523846 
L 263.253114 234.545206 
L 264.674897 234.740875 
L 266.096681 235.092 
L 271.783815 236.94084 
L 273.205599 237.177713 
L 276.049166 237.283362 
L 280.314517 237.251018 
L 283.158084 237.546002 
L 287.423435 238.370845 
L 293.11057 239.435766 
L 301.641271 240.92344 
L 305.906622 241.779726 
L 308.750189 242.166997 
L 313.01554 242.398002 
L 320.124458 242.685003 
L 327.233376 243.024393 
L 337.185861 243.116364 
L 348.56013 244.005219 
L 357.090832 244.07653 
L 359.934399 244.07783 
L 359.934399 244.07783 
" clip-path="url(#p8fd6b4ed87)" style="fill: none; stroke: #9467bd; stroke-width: 1.5; stroke-linecap: square"/>
   </g>
   <g id="line2d_23">
    <path d="M 77.61125 243.898011 
L 79.026885 243.627545 
L 80.44252 243.041914 
L 81.858155 241.886413 
L 83.27379 239.811664 
L 84.689425 236.42729 
L 86.10506 231.422432 
L 87.520695 224.730521 
L 88.93633 216.667469 
L 91.7676 199.528422 
L 93.183235 192.293895 
L 94.59887 186.752421 
L 96.014505 182.857704 
L 98.845775 177.458635 
L 100.26141 174.118457 
L 101.677045 169.12792 
L 103.09268 161.72149 
L 104.508315 151.351583 
L 105.92395 137.838108 
L 107.339585 121.55764 
L 110.170855 85.442263 
L 111.58649 69.084491 
L 113.002125 56.130634 
L 114.417759 47.631296 
L 115.833394 43.876074 
L 117.249029 44.49453 
L 118.664664 48.715229 
L 120.080299 55.62098 
L 121.495934 64.288759 
L 124.327204 83.261349 
L 125.742839 91.723489 
L 127.158474 98.355519 
L 128.574109 102.52743 
L 129.989744 103.947199 
L 131.405379 102.743575 
L 132.821014 99.474751 
L 135.652284 90.566678 
L 137.067919 87.115595 
L 138.483554 85.58732 
L 139.899189 86.557844 
L 141.314824 90.252841 
L 142.730459 96.572205 
L 144.146094 105.140843 
L 145.561729 115.373345 
L 151.224269 159.250728 
L 152.639904 168.376726 
L 154.055539 176.268591 
L 155.471174 182.861784 
L 156.886809 188.143603 
L 158.302444 192.162172 
L 159.718079 195.04382 
L 161.133714 196.992152 
L 162.549349 198.261183 
L 163.964984 199.115308 
L 166.796254 200.494925 
L 168.211889 201.358638 
L 169.627524 202.468136 
L 171.043159 203.837746 
L 176.705698 210.11546 
L 178.121333 211.322952 
L 180.952603 213.214969 
L 183.783873 215.071305 
L 188.030778 218.343222 
L 189.446413 219.228085 
L 190.862048 219.832841 
L 192.277683 220.129967 
L 193.693318 220.172879 
L 197.940223 219.998336 
L 199.355858 220.167362 
L 205.018398 221.312375 
L 206.434033 221.35577 
L 209.265303 221.069164 
L 212.096573 220.758464 
L 213.512208 220.824298 
L 214.927843 221.119444 
L 216.343478 221.634923 
L 220.590383 223.578559 
L 222.006018 223.98902 
L 223.421653 224.196226 
L 229.084193 224.41866 
L 230.499828 224.7282 
L 233.331098 225.694729 
L 234.746733 226.189186 
L 236.162367 226.554869 
L 237.578002 226.709786 
L 238.993637 226.626434 
L 243.240542 225.85296 
L 244.656177 225.980525 
L 246.071812 226.519507 
L 247.487447 227.454081 
L 253.149987 232.264721 
L 254.565622 233.082843 
L 255.981257 233.657394 
L 257.396892 234.011957 
L 260.228162 234.261425 
L 263.059432 234.407052 
L 264.475067 234.632992 
L 265.890702 235.004518 
L 271.553242 236.940039 
L 272.968877 237.206633 
L 275.800147 237.359981 
L 280.047052 237.279282 
L 282.878322 237.485247 
L 285.709592 237.972423 
L 297.034671 240.282092 
L 305.528481 241.633442 
L 309.775386 242.041769 
L 319.684831 242.670624 
L 326.763006 243.151447 
L 332.425546 243.257962 
L 336.672451 243.3455 
L 352.244436 244.04927 
L 359.32261 244.077364 
L 359.32261 244.077364 
" clip-path="url(#p8fd6b4ed87)" style="fill: none; stroke: #8c564b; stroke-width: 1.5; stroke-linecap: square"/>
   </g>
   <g id="line2d_24">
    <path d="M 78.38111 243.890013 
L 79.789007 243.585389 
L 81.196905 242.902115 
L 82.604803 241.519439 
L 84.0127 238.999643 
L 85.420598 234.873754 
L 86.828496 228.822637 
L 88.236393 220.906662 
L 92.460086 194.038072 
L 93.867984 187.727581 
L 95.275882 183.689518 
L 96.68378 181.430249 
L 98.091677 179.91231 
L 99.499575 177.902315 
L 100.907473 174.23151 
L 102.31537 167.889442 
L 103.723268 158.054358 
L 105.131166 144.229495 
L 106.539063 126.543087 
L 110.762757 65.775911 
L 112.170654 51.310029 
L 113.578552 43.161025 
L 114.98645 41.544245 
L 116.394347 45.338406 
L 117.802245 52.684331 
L 122.025938 79.92987 
L 123.433836 87.921046 
L 124.841733 94.751773 
L 126.249631 100.089366 
L 127.657529 103.546214 
L 129.065427 104.788677 
L 130.473324 103.687881 
L 131.881222 100.449102 
L 133.28912 95.667442 
L 134.697017 90.271405 
L 136.104915 85.354698 
L 137.512813 81.954767 
L 138.92071 80.86979 
L 140.328608 82.575499 
L 141.736506 87.228639 
L 143.144404 94.694163 
L 144.552301 104.556013 
L 147.368097 128.582061 
L 150.183892 152.732094 
L 151.59179 163.250416 
L 152.999687 172.337557 
L 154.407585 179.901423 
L 155.815483 185.918938 
L 157.223381 190.417146 
L 158.631278 193.498548 
L 160.039176 195.365142 
L 161.447074 196.30829 
L 162.854971 196.665933 
L 165.670767 196.914985 
L 167.078664 197.325179 
L 168.486562 198.156868 
L 169.89446 199.479584 
L 171.302357 201.263798 
L 176.933948 209.560061 
L 178.341846 210.989881 
L 179.749744 212.051599 
L 182.565539 213.579654 
L 183.973437 214.352272 
L 185.381334 215.269702 
L 191.012925 219.435612 
L 192.420823 220.014053 
L 193.828721 220.301235 
L 198.052414 220.5703 
L 199.460311 220.846735 
L 205.091902 222.488985 
L 206.4998 222.669599 
L 207.907698 222.68125 
L 210.723493 222.31161 
L 212.131391 222.093766 
L 213.539288 222.008856 
L 214.947186 222.152187 
L 216.355084 222.550449 
L 221.986675 224.833319 
L 223.394572 225.065295 
L 229.026163 225.386561 
L 230.434061 225.68283 
L 233.249856 226.582901 
L 234.657754 227.050708 
L 236.065651 227.40033 
L 237.473549 227.535497 
L 238.881447 227.404741 
L 243.10514 226.265586 
L 244.513038 226.2923 
L 245.920935 226.806061 
L 247.328833 227.795998 
L 252.960424 232.965228 
L 254.368322 233.799836 
L 255.776219 234.377317 
L 257.184117 234.734242 
L 258.592015 234.918009 
L 264.223605 235.274982 
L 267.039401 236.002913 
L 269.855196 236.870035 
L 271.263094 237.176541 
L 272.670992 237.348993 
L 275.486787 237.364083 
L 279.71048 237.244488 
L 282.526275 237.475965 
L 285.342071 237.977124 
L 299.421048 240.841171 
L 306.460536 241.777809 
L 310.684229 242.061246 
L 316.31582 242.412614 
L 326.171104 243.368168 
L 330.394797 243.49218 
L 336.026388 243.574423 
L 348.697467 244.025642 
L 358.552751 244.07757 
L 358.552751 244.07757 
" clip-path="url(#p8fd6b4ed87)" style="fill: none; stroke: #e377c2; stroke-width: 1.5; stroke-linecap: square"/>
   </g>
   <g id="line2d_25">
    <path d="M 79.062385 243.883977 
L 80.463436 243.545637 
L 81.864486 242.75925 
L 83.265537 241.126563 
L 84.666588 238.104977 
L 86.067639 233.134188 
L 87.468689 225.892187 
L 88.86974 216.595525 
L 91.671841 195.99849 
L 93.072892 187.56563 
L 94.473943 181.700747 
L 95.874994 178.322239 
L 97.276044 176.548732 
L 98.677095 175.148059 
L 100.078146 172.960603 
L 101.479196 169.03937 
L 102.880247 162.542447 
L 104.281298 152.643316 
L 105.682348 138.704613 
L 107.083399 120.720969 
L 111.286551 58.514835 
L 112.687602 43.760654 
L 114.088653 35.305862 
L 115.489703 33.13445 
L 116.890754 36.0153 
L 118.291805 42.246257 
L 119.692856 50.356908 
L 125.297058 86.621281 
L 126.698109 93.52217 
L 128.09916 98.067118 
L 129.50021 99.77884 
L 130.901261 98.622123 
L 132.302312 95.070005 
L 135.104413 84.815695 
L 136.505464 80.595709 
L 137.906515 78.407757 
L 139.307565 78.867736 
L 140.708616 82.211249 
L 142.109667 88.391408 
L 143.510718 97.141454 
L 144.911768 107.966467 
L 150.515971 156.791045 
L 151.917022 167.229883 
L 153.318072 176.403439 
L 154.719123 184.207253 
L 156.120174 190.526448 
L 157.521225 195.289955 
L 158.922275 198.554906 
L 160.323326 200.542928 
L 161.724377 201.60155 
L 163.125427 202.120788 
L 165.927529 202.872506 
L 167.32858 203.555551 
L 168.72963 204.595647 
L 170.130681 206.005235 
L 172.932782 209.600239 
L 174.333833 211.46759 
L 175.734884 213.140718 
L 177.135934 214.496525 
L 178.536985 215.507291 
L 179.938036 216.24206 
L 184.141188 218.082064 
L 186.943289 219.733003 
L 188.34434 220.577682 
L 189.745391 221.290583 
L 191.146442 221.780955 
L 192.547492 222.017239 
L 195.349594 221.967738 
L 198.151695 221.960556 
L 203.755898 222.624291 
L 205.156949 222.565036 
L 207.95905 222.130235 
L 210.761151 221.707015 
L 212.162202 221.711026 
L 213.563253 221.963583 
L 214.964304 222.490866 
L 220.568506 225.425349 
L 221.969557 225.689645 
L 223.370608 225.692245 
L 226.172709 225.406295 
L 227.57376 225.391618 
L 228.974811 225.571734 
L 230.375861 225.950735 
L 233.177963 227.096014 
L 234.579013 227.690508 
L 235.980064 228.157613 
L 237.381115 228.389687 
L 238.782166 228.316523 
L 240.183216 227.952982 
L 242.985318 226.984367 
L 244.386368 226.866674 
L 245.787419 227.247015 
L 247.18847 228.13256 
L 249.990571 230.749687 
L 251.391622 232.061744 
L 252.792673 233.19911 
L 254.193723 234.128182 
L 255.594774 234.849563 
L 256.995825 235.363283 
L 258.396875 235.668109 
L 259.797926 235.785529 
L 264.001078 235.80334 
L 265.402129 236.003449 
L 268.20423 236.811453 
L 271.006332 237.691712 
L 272.407382 237.980052 
L 273.808433 238.130356 
L 276.610535 238.110736 
L 279.412636 238.002501 
L 282.214737 238.171218 
L 285.016839 238.660617 
L 290.621042 239.739527 
L 297.626295 240.907463 
L 308.834701 242.365419 
L 321.444157 242.993188 
L 328.449411 243.465358 
L 334.053614 243.49529 
L 339.657816 243.611846 
L 350.866222 244.035683 
L 357.871475 244.077213 
L 357.871475 244.077213 
" clip-path="url(#p8fd6b4ed87)" style="fill: none; stroke: #7f7f7f; stroke-width: 1.5; stroke-linecap: square"/>
   </g>
   <g id="line2d_26">
    <path d="M 78.817699 243.887161 
L 80.221208 243.562841 
L 81.624718 242.818418 
L 83.028228 241.286597 
L 84.431738 238.466574 
L 85.835248 233.834326 
L 87.238758 227.069366 
L 88.642268 218.329012 
L 91.449287 198.614724 
L 92.852797 190.333913 
L 94.256307 184.468898 
L 95.659817 181.076593 
L 97.063327 179.402044 
L 98.466837 178.241346 
L 99.870347 176.348057 
L 101.273856 172.629811 
L 102.677366 166.119222 
L 104.080876 155.929084 
L 105.484386 141.423524 
L 106.887896 122.638737 
L 111.098425 57.676244 
L 112.501935 42.563285 
L 113.905445 34.46026 
L 115.308955 33.490101 
L 116.712465 38.346286 
L 118.115975 47.024023 
L 123.730014 89.507558 
L 125.133524 98.050648 
L 126.537034 104.587216 
L 127.940544 108.563522 
L 129.344054 109.632577 
L 130.747564 107.800111 
L 132.151073 103.508314 
L 136.361603 86.012556 
L 137.765113 82.692899 
L 139.168623 82.175736 
L 140.572133 84.79499 
L 141.975643 90.49975 
L 143.379152 98.931883 
L 144.782662 109.481671 
L 150.396702 156.605981 
L 151.800212 166.424764 
L 153.203721 174.936746 
L 154.607231 182.10726 
L 156.010741 187.903137 
L 157.414251 192.308995 
L 158.817761 195.383665 
L 160.221271 197.294784 
L 161.624781 198.30359 
L 163.028291 198.716672 
L 165.83531 198.94171 
L 167.23882 199.257746 
L 168.64233 199.961391 
L 170.04584 201.150472 
L 171.44935 202.819356 
L 177.063389 210.857364 
L 178.466899 212.232666 
L 179.870409 213.252931 
L 184.080939 215.635029 
L 186.887958 217.755317 
L 189.694978 219.996778 
L 191.098488 220.859054 
L 192.501998 221.452927 
L 193.905508 221.803146 
L 200.923057 222.672037 
L 202.326567 222.768793 
L 203.730077 222.753022 
L 206.537096 222.399557 
L 212.151136 221.162516 
L 213.554646 221.07138 
L 214.958156 221.240657 
L 216.361665 221.695072 
L 220.572195 223.79878 
L 221.975705 224.25421 
L 223.379215 224.446148 
L 226.186235 224.289076 
L 227.589744 224.185605 
L 228.993254 224.218869 
L 230.396764 224.446658 
L 231.800274 224.867208 
L 236.010804 226.495843 
L 237.414313 226.747617 
L 238.817823 226.682723 
L 240.221333 226.32053 
L 243.028353 225.409198 
L 244.431863 225.384144 
L 245.835373 225.907783 
L 247.238883 226.97657 
L 252.852922 232.587175 
L 254.256432 233.449436 
L 255.659942 234.013484 
L 257.063452 234.318397 
L 258.466961 234.416467 
L 262.677491 234.307355 
L 264.081001 234.471354 
L 265.484511 234.83587 
L 271.09855 236.959345 
L 272.50206 237.19641 
L 273.90557 237.25654 
L 280.923119 237.020358 
L 283.730139 237.374349 
L 292.151198 238.949866 
L 297.765238 240.112961 
L 310.396827 242.132525 
L 314.607356 242.427589 
L 323.028415 242.910033 
L 328.642455 243.260531 
L 339.870534 243.538079 
L 346.888083 243.907545 
L 353.905632 244.062698 
L 358.116162 244.076846 
L 358.116162 244.076846 
" clip-path="url(#p8fd6b4ed87)" style="fill: none; stroke: #bcbd22; stroke-width: 1.5; stroke-linecap: square"/>
   </g>
   <g id="line2d_27">
    <path d="M 78.934258 243.884244 
L 80.336596 243.550034 
L 81.738934 242.777146 
L 83.141273 241.177934 
L 84.543611 238.223857 
L 85.94595 233.366848 
L 87.348288 226.288095 
L 88.750626 217.196908 
L 91.555303 197.146046 
L 92.957642 189.143379 
L 94.35998 183.927219 
L 95.762319 181.471862 
L 97.164657 180.84844 
L 98.566995 180.654653 
L 99.969334 179.499497 
L 101.371672 176.261167 
L 102.774011 170.084731 
L 104.176349 160.316838 
L 105.578688 146.599939 
L 106.981026 129.169038 
L 111.188041 70.321546 
L 112.59038 56.515489 
L 113.992718 48.680806 
L 115.395056 46.891971 
L 116.797395 50.071119 
L 118.199733 56.596737 
L 119.602072 64.947393 
L 123.809087 92.069163 
L 125.211425 99.927725 
L 126.613764 106.112698 
L 128.016102 109.859353 
L 129.418441 110.568433 
L 130.820779 108.040612 
L 132.223117 102.655268 
L 136.430133 81.362489 
L 137.832471 77.481369 
L 139.23481 76.934335 
L 140.637148 79.930431 
L 142.039486 86.222036 
L 143.441825 95.267616 
L 144.844163 106.333627 
L 149.051179 143.071452 
L 150.453517 154.117824 
L 151.855855 163.983001 
L 153.258194 172.619562 
L 154.660532 180.001378 
L 156.062871 186.057946 
L 157.465209 190.71593 
L 158.867547 193.989589 
L 160.269886 196.037481 
L 161.672224 197.146764 
L 163.074563 197.666125 
L 165.87924 198.235704 
L 167.281578 198.784773 
L 168.683916 199.720111 
L 170.086255 201.09426 
L 171.488593 202.8599 
L 175.695608 208.749917 
L 177.097947 210.243621 
L 178.500285 211.35001 
L 179.902624 212.150929 
L 182.707301 213.497496 
L 184.109639 214.354066 
L 185.511977 215.424657 
L 189.718993 218.98883 
L 191.121331 219.747288 
L 192.52367 220.107779 
L 193.926008 220.121917 
L 196.730685 219.785799 
L 198.133023 219.791538 
L 199.535362 220.020202 
L 203.742377 221.226291 
L 205.144715 221.412834 
L 206.547054 221.381262 
L 207.949392 221.139881 
L 212.156407 219.895192 
L 213.558746 219.709612 
L 214.961084 219.822358 
L 216.363423 220.248757 
L 221.972776 222.780339 
L 223.375115 222.984127 
L 226.179792 222.882709 
L 227.58213 222.819885 
L 228.984468 222.899836 
L 230.386807 223.176759 
L 231.789145 223.641769 
L 234.593822 224.818463 
L 235.996161 225.276418 
L 237.398499 225.468089 
L 238.800837 225.315353 
L 240.203176 224.848322 
L 241.605514 224.236715 
L 243.007853 223.764304 
L 244.410191 223.734461 
L 245.812529 224.341727 
L 247.214868 225.580098 
L 251.421883 230.671746 
L 252.824222 231.985479 
L 254.22656 232.92623 
L 255.628898 233.516082 
L 257.031237 233.804332 
L 258.433575 233.851178 
L 262.64059 233.493265 
L 264.042929 233.610512 
L 265.445267 233.985375 
L 266.847606 234.594961 
L 269.652283 236.084198 
L 271.054621 236.697016 
L 272.456959 237.099616 
L 273.859298 237.278248 
L 276.663975 237.169525 
L 279.468652 236.946992 
L 282.273328 237.01244 
L 285.078005 237.400521 
L 289.28502 238.282335 
L 299.101389 240.622769 
L 307.51542 241.74353 
L 311.722435 242.012426 
L 317.331789 242.372011 
L 328.550496 243.288729 
L 338.366865 243.432153 
L 345.378557 243.883744 
L 352.390249 244.059 
L 357.999603 244.077465 
L 357.999603 244.077465 
" clip-path="url(#p8fd6b4ed87)" style="fill: none; stroke: #17becf; stroke-width: 1.5; stroke-linecap: square"/>
   </g>
   <g id="line2d_28">
    <path d="M 79.65999 243.89041 
L 81.055034 243.538818 
L 82.450079 242.691803 
L 83.845123 240.887982 
L 85.240168 237.501434 
L 86.635213 231.917386 
L 88.030257 223.873903 
L 92.215391 193.493719 
L 93.610436 186.560874 
L 95.00548 182.873379 
L 96.400525 181.778338 
L 97.79557 181.801311 
L 99.190614 181.343238 
L 100.585659 179.162437 
L 101.980704 174.394834 
L 103.375748 166.29772 
L 104.770793 154.125193 
L 106.165838 137.408026 
L 107.560882 116.549496 
L 110.350971 70.781564 
L 111.746016 52.441648 
L 113.141061 41.007049 
L 114.536105 37.389382 
L 115.93115 40.561478 
L 117.326195 48.290348 
L 122.906373 87.842669 
L 124.301418 95.641607 
L 125.696462 101.499694 
L 127.091507 104.812238 
L 128.486552 105.187629 
L 129.881596 102.598835 
L 131.276641 97.424392 
L 132.671685 90.428089 
L 135.461775 75.509105 
L 136.856819 70.087936 
L 138.251864 67.383727 
L 139.646909 67.963815 
L 141.041953 72.066364 
L 142.436998 79.676743 
L 143.832043 90.48922 
L 145.227087 103.788983 
L 149.412221 146.847621 
L 150.807266 158.901317 
L 152.20231 169.200137 
L 153.597355 177.860938 
L 154.9924 184.997038 
L 156.387444 190.633345 
L 157.782489 194.780577 
L 159.177533 197.547179 
L 160.572578 199.177936 
L 161.967623 200.001572 
L 163.362667 200.345592 
L 166.152757 200.629751 
L 167.547801 200.971635 
L 168.942846 201.6733 
L 170.337891 202.85309 
L 171.732935 204.530433 
L 175.918069 210.7976 
L 177.313114 212.415703 
L 178.708158 213.523234 
L 180.103203 214.17478 
L 184.288337 215.34778 
L 185.683381 216.10941 
L 187.078426 217.16135 
L 189.868515 219.586778 
L 191.26356 220.545953 
L 192.658605 221.13376 
L 194.053649 221.360726 
L 196.843739 221.387117 
L 198.238783 221.567625 
L 199.633828 221.970009 
L 203.818962 223.592936 
L 205.214006 223.923192 
L 206.609051 224.084674 
L 208.004096 224.084358 
L 210.794185 223.67624 
L 213.584274 223.184508 
L 214.979319 223.180734 
L 216.374363 223.41976 
L 220.559497 224.734887 
L 221.954542 224.925839 
L 223.349586 224.893303 
L 227.53472 224.397151 
L 228.929765 224.480425 
L 230.32481 224.780547 
L 231.719854 225.273374 
L 235.904988 227.071707 
L 237.300033 227.363179 
L 238.695077 227.307467 
L 240.090122 226.900142 
L 242.880211 225.728587 
L 244.275256 225.55762 
L 245.670301 225.989159 
L 247.065345 227.037453 
L 252.645524 232.787794 
L 254.040568 233.696459 
L 255.435613 234.327204 
L 256.830658 234.699877 
L 258.225702 234.833197 
L 261.015792 234.615536 
L 262.410836 234.493508 
L 263.805881 234.53554 
L 265.200925 234.812943 
L 266.59597 235.309575 
L 269.386059 236.545105 
L 270.781104 237.040391 
L 272.176149 237.359482 
L 273.571193 237.509681 
L 281.941461 237.769494 
L 287.521639 238.569552 
L 291.706773 239.310298 
L 297.286952 240.488932 
L 308.447309 242.076994 
L 312.632443 242.230409 
L 316.817577 242.376179 
L 322.397755 242.876003 
L 327.977934 243.34776 
L 332.163068 243.355911 
L 336.348202 243.394628 
L 347.508559 244.000386 
L 355.878826 244.076444 
L 357.273871 244.077498 
L 357.273871 244.077498 
" clip-path="url(#p8fd6b4ed87)" style="fill: none; stroke: #1f77b4; stroke-width: 1.5; stroke-linecap: square"/>
   </g>
   <g id="line2d_29">
    <path d="M 79.551052 243.888083 
L 80.947192 243.536765 
L 82.343331 242.695867 
L 83.739471 240.912998 
L 85.13561 237.573267 
L 86.53175 232.065186 
L 87.927889 224.106071 
L 89.324028 214.100597 
L 90.720168 203.273983 
L 92.116307 193.35965 
L 93.512447 185.89526 
L 94.908586 181.51379 
L 96.304726 179.690794 
L 97.700865 179.09524 
L 99.097005 178.238727 
L 100.493144 175.934893 
L 101.889284 171.320001 
L 103.285423 163.604449 
L 104.681563 151.952946 
L 106.077702 135.767069 
L 107.473842 115.290979 
L 110.266121 69.254859 
L 111.66226 50.154728 
L 113.0584 37.661135 
L 114.454539 32.878111 
L 115.850679 34.959746 
L 117.246818 41.785627 
L 118.642958 51.059311 
L 122.831376 81.09094 
L 124.227515 90.374799 
L 125.623655 98.595707 
L 127.019794 105.064061 
L 128.415934 109.12029 
L 129.812073 110.340162 
L 131.208213 108.676312 
L 132.604352 104.542777 
L 136.792771 87.666883 
L 138.18891 84.655218 
L 139.58505 84.425817 
L 140.981189 87.277045 
L 142.377329 93.198973 
L 143.773468 101.918622 
L 145.169608 112.863085 
L 149.358026 149.790399 
L 150.754166 160.637526 
L 152.150305 170.089534 
L 153.546445 178.132425 
L 154.942584 184.783811 
L 156.338723 190.023733 
L 157.734863 193.846637 
L 159.131002 196.348955 
L 160.527142 197.764029 
L 161.923281 198.42303 
L 166.1117 199.182776 
L 167.507839 199.846944 
L 168.903979 200.94151 
L 170.300118 202.481559 
L 171.696258 204.38734 
L 174.488537 208.53713 
L 175.884676 210.315239 
L 177.280816 211.674828 
L 178.676955 212.608292 
L 184.261513 215.216475 
L 185.657653 216.27953 
L 188.449931 218.674371 
L 189.846071 219.664758 
L 191.24221 220.320631 
L 192.63835 220.602627 
L 194.034489 220.588633 
L 196.826768 220.35916 
L 198.222908 220.452673 
L 201.015187 221.132563 
L 202.411326 221.505525 
L 203.807466 221.756586 
L 205.203605 221.842124 
L 206.599745 221.766143 
L 209.392024 221.234083 
L 212.184303 220.536858 
L 213.580442 220.369942 
L 214.976582 220.468205 
L 216.372721 220.868459 
L 219.165 222.261565 
L 220.561139 222.949521 
L 221.957279 223.444402 
L 223.353418 223.694019 
L 226.145697 223.667706 
L 227.541837 223.615251 
L 228.937976 223.68383 
L 230.334116 223.936673 
L 231.730255 224.380722 
L 235.918674 226.068003 
L 237.314813 226.283445 
L 238.710953 226.107307 
L 240.107092 225.537921 
L 242.899371 224.026531 
L 244.295511 223.771036 
L 245.69165 224.232661 
L 247.08779 225.435228 
L 249.880069 229.045618 
L 251.276208 230.785906 
L 252.672348 232.198267 
L 254.068487 233.241512 
L 255.464626 233.946224 
L 256.860766 234.352945 
L 258.256905 234.49714 
L 261.049184 234.257577 
L 262.445324 234.108175 
L 263.841463 234.121991 
L 265.237603 234.38538 
L 266.633742 234.898564 
L 270.822161 236.886919 
L 272.2183 237.292211 
L 273.61444 237.471428 
L 275.010579 237.456823 
L 280.595137 237.008986 
L 283.387416 237.28098 
L 287.575834 238.131659 
L 293.160392 239.466253 
L 295.952671 240.128787 
L 298.74495 240.571973 
L 304.329508 241.293268 
L 308.517927 241.863397 
L 312.706345 242.140603 
L 318.290903 242.471609 
L 329.460019 243.451174 
L 337.836856 243.449054 
L 349.005972 243.985892 
L 355.986669 244.075062 
L 357.382808 244.076986 
L 357.382808 244.076986 
" clip-path="url(#p8fd6b4ed87)" style="fill: none; stroke: #ff7f0e; stroke-width: 1.5; stroke-linecap: square"/>
   </g>
   <g id="patch_3">
    <path d="M 50.14375 244.078125 
L 50.14375 22.318125 
" style="fill: none; stroke: #000000; stroke-width: 0.8; stroke-linejoin: miter; stroke-linecap: square"/>
   </g>
   <g id="patch_4">
    <path d="M 384.94375 244.078125 
L 384.94375 22.318125 
" style="fill: none; stroke: #000000; stroke-width: 0.8; stroke-linejoin: miter; stroke-linecap: square"/>
   </g>
   <g id="patch_5">
    <path d="M 50.14375 244.078125 
L 384.94375 244.078125 
" style="fill: none; stroke: #000000; stroke-width: 0.8; stroke-linejoin: miter; stroke-linecap: square"/>
   </g>
   <g id="patch_6">
    <path d="M 50.14375 22.318125 
L 384.94375 22.318125 
" style="fill: none; stroke: #000000; stroke-width: 0.8; stroke-linejoin: miter; stroke-linecap: square"/>
   </g>
   <g id="text_20">
    <!-- (c) KDEs of EV charging energy demand -->
    <g transform="translate(97.201563 16.318125) scale(0.12 -0.12)">
     <defs>
      <path id="DejaVuSans-28" d="M 1984 4856 
Q 1566 4138 1362 3434 
Q 1159 2731 1159 2009 
Q 1159 1288 1364 580 
Q 1569 -128 1984 -844 
L 1484 -844 
Q 1016 -109 783 600 
Q 550 1309 550 2009 
Q 550 2706 781 3412 
Q 1013 4119 1484 4856 
L 1984 4856 
z
" transform="scale(0.015625)"/>
      <path id="DejaVuSans-63" d="M 3122 3366 
L 3122 2828 
Q 2878 2963 2633 3030 
Q 2388 3097 2138 3097 
Q 1578 3097 1268 2742 
Q 959 2388 959 1747 
Q 959 1106 1268 751 
Q 1578 397 2138 397 
Q 2388 397 2633 464 
Q 2878 531 3122 666 
L 3122 134 
Q 2881 22 2623 -34 
Q 2366 -91 2075 -91 
Q 1284 -91 818 406 
Q 353 903 353 1747 
Q 353 2603 823 3093 
Q 1294 3584 2113 3584 
Q 2378 3584 2631 3529 
Q 2884 3475 3122 3366 
z
" transform="scale(0.015625)"/>
      <path id="DejaVuSans-29" d="M 513 4856 
L 1013 4856 
Q 1481 4119 1714 3412 
Q 1947 2706 1947 2009 
Q 1947 1309 1714 600 
Q 1481 -109 1013 -844 
L 513 -844 
Q 928 -128 1133 580 
Q 1338 1288 1338 2009 
Q 1338 2731 1133 3434 
Q 928 4138 513 4856 
z
" transform="scale(0.015625)"/>
      <path id="DejaVuSans-20" transform="scale(0.015625)"/>
      <path id="DejaVuSans-4b" d="M 628 4666 
L 1259 4666 
L 1259 2694 
L 3353 4666 
L 4166 4666 
L 1850 2491 
L 4331 0 
L 3500 0 
L 1259 2247 
L 1259 0 
L 628 0 
L 628 4666 
z
" transform="scale(0.015625)"/>
      <path id="DejaVuSans-45" d="M 628 4666 
L 3578 4666 
L 3578 4134 
L 1259 4134 
L 1259 2753 
L 3481 2753 
L 3481 2222 
L 1259 2222 
L 1259 531 
L 3634 531 
L 3634 0 
L 628 0 
L 628 4666 
z
" transform="scale(0.015625)"/>
      <path id="DejaVuSans-6f" d="M 1959 3097 
Q 1497 3097 1228 2736 
Q 959 2375 959 1747 
Q 959 1119 1226 758 
Q 1494 397 1959 397 
Q 2419 397 2687 759 
Q 2956 1122 2956 1747 
Q 2956 2369 2687 2733 
Q 2419 3097 1959 3097 
z
M 1959 3584 
Q 2709 3584 3137 3096 
Q 3566 2609 3566 1747 
Q 3566 888 3137 398 
Q 2709 -91 1959 -91 
Q 1206 -91 779 398 
Q 353 888 353 1747 
Q 353 2609 779 3096 
Q 1206 3584 1959 3584 
z
" transform="scale(0.015625)"/>
      <path id="DejaVuSans-66" d="M 2375 4863 
L 2375 4384 
L 1825 4384 
Q 1516 4384 1395 4259 
Q 1275 4134 1275 3809 
L 1275 3500 
L 2222 3500 
L 2222 3053 
L 1275 3053 
L 1275 0 
L 697 0 
L 697 3053 
L 147 3053 
L 147 3500 
L 697 3500 
L 697 3744 
Q 697 4328 969 4595 
Q 1241 4863 1831 4863 
L 2375 4863 
z
" transform="scale(0.015625)"/>
      <path id="DejaVuSans-56" d="M 1831 0 
L 50 4666 
L 709 4666 
L 2188 738 
L 3669 4666 
L 4325 4666 
L 2547 0 
L 1831 0 
z
" transform="scale(0.015625)"/>
      <path id="DejaVuSans-61" d="M 2194 1759 
Q 1497 1759 1228 1600 
Q 959 1441 959 1056 
Q 959 750 1161 570 
Q 1363 391 1709 391 
Q 2188 391 2477 730 
Q 2766 1069 2766 1631 
L 2766 1759 
L 2194 1759 
z
M 3341 1997 
L 3341 0 
L 2766 0 
L 2766 531 
Q 2569 213 2275 61 
Q 1981 -91 1556 -91 
Q 1019 -91 701 211 
Q 384 513 384 1019 
Q 384 1609 779 1909 
Q 1175 2209 1959 2209 
L 2766 2209 
L 2766 2266 
Q 2766 2663 2505 2880 
Q 2244 3097 1772 3097 
Q 1472 3097 1187 3025 
Q 903 2953 641 2809 
L 641 3341 
Q 956 3463 1253 3523 
Q 1550 3584 1831 3584 
Q 2591 3584 2966 3190 
Q 3341 2797 3341 1997 
z
" transform="scale(0.015625)"/>
      <path id="DejaVuSans-72" d="M 2631 2963 
Q 2534 3019 2420 3045 
Q 2306 3072 2169 3072 
Q 1681 3072 1420 2755 
Q 1159 2438 1159 1844 
L 1159 0 
L 581 0 
L 581 3500 
L 1159 3500 
L 1159 2956 
Q 1341 3275 1631 3429 
Q 1922 3584 2338 3584 
Q 2397 3584 2469 3576 
Q 2541 3569 2628 3553 
L 2631 2963 
z
" transform="scale(0.015625)"/>
      <path id="DejaVuSans-67" d="M 2906 1791 
Q 2906 2416 2648 2759 
Q 2391 3103 1925 3103 
Q 1463 3103 1205 2759 
Q 947 2416 947 1791 
Q 947 1169 1205 825 
Q 1463 481 1925 481 
Q 2391 481 2648 825 
Q 2906 1169 2906 1791 
z
M 3481 434 
Q 3481 -459 3084 -895 
Q 2688 -1331 1869 -1331 
Q 1566 -1331 1297 -1286 
Q 1028 -1241 775 -1147 
L 775 -588 
Q 1028 -725 1275 -790 
Q 1522 -856 1778 -856 
Q 2344 -856 2625 -561 
Q 2906 -266 2906 331 
L 2906 616 
Q 2728 306 2450 153 
Q 2172 0 1784 0 
Q 1141 0 747 490 
Q 353 981 353 1791 
Q 353 2603 747 3093 
Q 1141 3584 1784 3584 
Q 2172 3584 2450 3431 
Q 2728 3278 2906 2969 
L 2906 3500 
L 3481 3500 
L 3481 434 
z
" transform="scale(0.015625)"/>
      <path id="DejaVuSans-64" d="M 2906 2969 
L 2906 4863 
L 3481 4863 
L 3481 0 
L 2906 0 
L 2906 525 
Q 2725 213 2448 61 
Q 2172 -91 1784 -91 
Q 1150 -91 751 415 
Q 353 922 353 1747 
Q 353 2572 751 3078 
Q 1150 3584 1784 3584 
Q 2172 3584 2448 3432 
Q 2725 3281 2906 2969 
z
M 947 1747 
Q 947 1113 1208 752 
Q 1469 391 1925 391 
Q 2381 391 2643 752 
Q 2906 1113 2906 1747 
Q 2906 2381 2643 2742 
Q 2381 3103 1925 3103 
Q 1469 3103 1208 2742 
Q 947 2381 947 1747 
z
" transform="scale(0.015625)"/>
      <path id="DejaVuSans-6d" d="M 3328 2828 
Q 3544 3216 3844 3400 
Q 4144 3584 4550 3584 
Q 5097 3584 5394 3201 
Q 5691 2819 5691 2113 
L 5691 0 
L 5113 0 
L 5113 2094 
Q 5113 2597 4934 2840 
Q 4756 3084 4391 3084 
Q 3944 3084 3684 2787 
Q 3425 2491 3425 1978 
L 3425 0 
L 2847 0 
L 2847 2094 
Q 2847 2600 2669 2842 
Q 2491 3084 2119 3084 
Q 1678 3084 1418 2786 
Q 1159 2488 1159 1978 
L 1159 0 
L 581 0 
L 581 3500 
L 1159 3500 
L 1159 2956 
Q 1356 3278 1631 3431 
Q 1906 3584 2284 3584 
Q 2666 3584 2933 3390 
Q 3200 3197 3328 2828 
z
" transform="scale(0.015625)"/>
     </defs>
     <use xlink:href="#DejaVuSans-28"/>
     <use xlink:href="#DejaVuSans-63" x="39.013672"/>
     <use xlink:href="#DejaVuSans-29" x="93.994141"/>
     <use xlink:href="#DejaVuSans-20" x="133.007812"/>
     <use xlink:href="#DejaVuSans-4b" x="164.794922"/>
     <use xlink:href="#DejaVuSans-44" x="230.371094"/>
     <use xlink:href="#DejaVuSans-45" x="307.373047"/>
     <use xlink:href="#DejaVuSans-73" x="370.556641"/>
     <use xlink:href="#DejaVuSans-20" x="422.65625"/>
     <use xlink:href="#DejaVuSans-6f" x="454.443359"/>
     <use xlink:href="#DejaVuSans-66" x="515.625"/>
     <use xlink:href="#DejaVuSans-20" x="550.830078"/>
     <use xlink:href="#DejaVuSans-45" x="582.617188"/>
     <use xlink:href="#DejaVuSans-56" x="645.800781"/>
     <use xlink:href="#DejaVuSans-20" x="714.208984"/>
     <use xlink:href="#DejaVuSans-63" x="745.996094"/>
     <use xlink:href="#DejaVuSans-68" x="800.976562"/>
     <use xlink:href="#DejaVuSans-61" x="864.355469"/>
     <use xlink:href="#DejaVuSans-72" x="925.634766"/>
     <use xlink:href="#DejaVuSans-67" x="964.998047"/>
     <use xlink:href="#DejaVuSans-69" x="1028.474609"/>
     <use xlink:href="#DejaVuSans-6e" x="1056.257812"/>
     <use xlink:href="#DejaVuSans-67" x="1119.636719"/>
     <use xlink:href="#DejaVuSans-20" x="1183.113281"/>
     <use xlink:href="#DejaVuSans-65" x="1214.900391"/>
     <use xlink:href="#DejaVuSans-6e" x="1276.423828"/>
     <use xlink:href="#DejaVuSans-65" x="1339.802734"/>
     <use xlink:href="#DejaVuSans-72" x="1401.326172"/>
     <use xlink:href="#DejaVuSans-67" x="1440.689453"/>
     <use xlink:href="#DejaVuSans-79" x="1504.166016"/>
     <use xlink:href="#DejaVuSans-20" x="1563.345703"/>
     <use xlink:href="#DejaVuSans-64" x="1595.132812"/>
     <use xlink:href="#DejaVuSans-65" x="1658.609375"/>
     <use xlink:href="#DejaVuSans-6d" x="1720.132812"/>
     <use xlink:href="#DejaVuSans-61" x="1817.544922"/>
     <use xlink:href="#DejaVuSans-6e" x="1878.824219"/>
     <use xlink:href="#DejaVuSans-64" x="1942.203125"/>
    </g>
   </g>
   <g id="legend_1">
    <g id="patch_7">
     <path d="M 29.4625 331.3765 
L 409.625 331.3765 
Q 411.625 331.3765 411.625 329.3765 
L 411.625 286.342125 
Q 411.625 284.342125 409.625 284.342125 
L 29.4625 284.342125 
Q 27.4625 284.342125 27.4625 286.342125 
L 27.4625 329.3765 
Q 27.4625 331.3765 29.4625 331.3765 
z
" style="fill: #4c4c4c; opacity: 0.5; stroke: #4c4c4c; stroke-linejoin: miter"/>
    </g>
    <g id="patch_8">
     <path d="M 27.4625 329.3765 
L 407.625 329.3765 
Q 409.625 329.3765 409.625 327.3765 
L 409.625 284.342125 
Q 409.625 282.342125 407.625 282.342125 
L 27.4625 282.342125 
Q 25.4625 282.342125 25.4625 284.342125 
L 25.4625 327.3765 
Q 25.4625 329.3765 27.4625 329.3765 
z
" style="fill: #ffffff; stroke: #cccccc; stroke-linejoin: miter"/>
    </g>
    <g id="text_21">
     <!-- Number of charging piles -->
     <g transform="translate(154.38125 293.940562) scale(0.1 -0.1)">
      <defs>
       <path id="DejaVuSans-4e" d="M 628 4666 
L 1478 4666 
L 3547 763 
L 3547 4666 
L 4159 4666 
L 4159 0 
L 3309 0 
L 1241 3903 
L 1241 0 
L 628 0 
L 628 4666 
z
" transform="scale(0.015625)"/>
       <path id="DejaVuSans-75" d="M 544 1381 
L 544 3500 
L 1119 3500 
L 1119 1403 
Q 1119 906 1312 657 
Q 1506 409 1894 409 
Q 2359 409 2629 706 
Q 2900 1003 2900 1516 
L 2900 3500 
L 3475 3500 
L 3475 0 
L 2900 0 
L 2900 538 
Q 2691 219 2414 64 
Q 2138 -91 1772 -91 
Q 1169 -91 856 284 
Q 544 659 544 1381 
z
M 1991 3584 
L 1991 3584 
z
" transform="scale(0.015625)"/>
       <path id="DejaVuSans-62" d="M 3116 1747 
Q 3116 2381 2855 2742 
Q 2594 3103 2138 3103 
Q 1681 3103 1420 2742 
Q 1159 2381 1159 1747 
Q 1159 1113 1420 752 
Q 1681 391 2138 391 
Q 2594 391 2855 752 
Q 3116 1113 3116 1747 
z
M 1159 2969 
Q 1341 3281 1617 3432 
Q 1894 3584 2278 3584 
Q 2916 3584 3314 3078 
Q 3713 2572 3713 1747 
Q 3713 922 3314 415 
Q 2916 -91 2278 -91 
Q 1894 -91 1617 61 
Q 1341 213 1159 525 
L 1159 0 
L 581 0 
L 581 4863 
L 1159 4863 
L 1159 2969 
z
" transform="scale(0.015625)"/>
       <path id="DejaVuSans-70" d="M 1159 525 
L 1159 -1331 
L 581 -1331 
L 581 3500 
L 1159 3500 
L 1159 2969 
Q 1341 3281 1617 3432 
Q 1894 3584 2278 3584 
Q 2916 3584 3314 3078 
Q 3713 2572 3713 1747 
Q 3713 922 3314 415 
Q 2916 -91 2278 -91 
Q 1894 -91 1617 61 
Q 1341 213 1159 525 
z
M 3116 1747 
Q 3116 2381 2855 2742 
Q 2594 3103 2138 3103 
Q 1681 3103 1420 2742 
Q 1159 2381 1159 1747 
Q 1159 1113 1420 752 
Q 1681 391 2138 391 
Q 2594 391 2855 752 
Q 3116 1113 3116 1747 
z
" transform="scale(0.015625)"/>
       <path id="DejaVuSans-6c" d="M 603 4863 
L 1178 4863 
L 1178 0 
L 603 0 
L 603 4863 
z
" transform="scale(0.015625)"/>
      </defs>
      <use xlink:href="#DejaVuSans-4e"/>
      <use xlink:href="#DejaVuSans-75" x="74.804688"/>
      <use xlink:href="#DejaVuSans-6d" x="138.183594"/>
      <use xlink:href="#DejaVuSans-62" x="235.595703"/>
      <use xlink:href="#DejaVuSans-65" x="299.072266"/>
      <use xlink:href="#DejaVuSans-72" x="360.595703"/>
      <use xlink:href="#DejaVuSans-20" x="401.708984"/>
      <use xlink:href="#DejaVuSans-6f" x="433.496094"/>
      <use xlink:href="#DejaVuSans-66" x="494.677734"/>
      <use xlink:href="#DejaVuSans-20" x="529.882812"/>
      <use xlink:href="#DejaVuSans-63" x="561.669922"/>
      <use xlink:href="#DejaVuSans-68" x="616.650391"/>
      <use xlink:href="#DejaVuSans-61" x="680.029297"/>
      <use xlink:href="#DejaVuSans-72" x="741.308594"/>
      <use xlink:href="#DejaVuSans-67" x="780.671875"/>
      <use xlink:href="#DejaVuSans-69" x="844.148438"/>
      <use xlink:href="#DejaVuSans-6e" x="871.931641"/>
      <use xlink:href="#DejaVuSans-67" x="935.310547"/>
      <use xlink:href="#DejaVuSans-20" x="998.787109"/>
      <use xlink:href="#DejaVuSans-70" x="1030.574219"/>
      <use xlink:href="#DejaVuSans-69" x="1094.050781"/>
      <use xlink:href="#DejaVuSans-6c" x="1121.833984"/>
      <use xlink:href="#DejaVuSans-65" x="1149.617188"/>
      <use xlink:href="#DejaVuSans-73" x="1211.140625"/>
     </g>
    </g>
    <g id="line2d_30">
     <path d="M 29.4625 305.118688 
L 39.4625 305.118688 
L 49.4625 305.118688 
" style="fill: none; stroke: #1f77b4; stroke-width: 1.5; stroke-linecap: square"/>
    </g>
    <g id="text_22">
     <!-- 10 -->
     <g transform="translate(57.4625 308.618688) scale(0.1 -0.1)">
      <use xlink:href="#DejaVuSans-31"/>
      <use xlink:href="#DejaVuSans-30" x="63.623047"/>
     </g>
    </g>
    <g id="line2d_31">
     <path d="M 29.4625 319.796812 
L 39.4625 319.796812 
L 49.4625 319.796812 
" style="fill: none; stroke: #ff7f0e; stroke-width: 1.5; stroke-linecap: square"/>
    </g>
    <g id="text_23">
     <!-- 50 -->
     <g transform="translate(57.4625 323.296812) scale(0.1 -0.1)">
      <use xlink:href="#DejaVuSans-35"/>
      <use xlink:href="#DejaVuSans-30" x="63.623047"/>
     </g>
    </g>
    <g id="line2d_32">
     <path d="M 90.1875 305.118688 
L 100.1875 305.118688 
L 110.1875 305.118688 
" style="fill: none; stroke: #2ca02c; stroke-width: 1.5; stroke-linecap: square"/>
    </g>
    <g id="text_24">
     <!-- 90 -->
     <g transform="translate(118.1875 308.618688) scale(0.1 -0.1)">
      <defs>
       <path id="DejaVuSans-39" d="M 703 97 
L 703 672 
Q 941 559 1184 500 
Q 1428 441 1663 441 
Q 2288 441 2617 861 
Q 2947 1281 2994 2138 
Q 2813 1869 2534 1725 
Q 2256 1581 1919 1581 
Q 1219 1581 811 2004 
Q 403 2428 403 3163 
Q 403 3881 828 4315 
Q 1253 4750 1959 4750 
Q 2769 4750 3195 4129 
Q 3622 3509 3622 2328 
Q 3622 1225 3098 567 
Q 2575 -91 1691 -91 
Q 1453 -91 1209 -44 
Q 966 3 703 97 
z
M 1959 2075 
Q 2384 2075 2632 2365 
Q 2881 2656 2881 3163 
Q 2881 3666 2632 3958 
Q 2384 4250 1959 4250 
Q 1534 4250 1286 3958 
Q 1038 3666 1038 3163 
Q 1038 2656 1286 2365 
Q 1534 2075 1959 2075 
z
" transform="scale(0.015625)"/>
      </defs>
      <use xlink:href="#DejaVuSans-39"/>
      <use xlink:href="#DejaVuSans-30" x="63.623047"/>
     </g>
    </g>
    <g id="line2d_33">
     <path d="M 90.1875 319.796812 
L 100.1875 319.796812 
L 110.1875 319.796812 
" style="fill: none; stroke: #d62728; stroke-width: 1.5; stroke-linecap: square"/>
    </g>
    <g id="text_25">
     <!-- 130 -->
     <g transform="translate(118.1875 323.296812) scale(0.1 -0.1)">
      <use xlink:href="#DejaVuSans-31"/>
      <use xlink:href="#DejaVuSans-33" x="63.623047"/>
      <use xlink:href="#DejaVuSans-30" x="127.246094"/>
     </g>
    </g>
    <g id="line2d_34">
     <path d="M 157.275 305.118688 
L 167.275 305.118688 
L 177.275 305.118688 
" style="fill: none; stroke: #9467bd; stroke-width: 1.5; stroke-linecap: square"/>
    </g>
    <g id="text_26">
     <!-- 170 -->
     <g transform="translate(185.275 308.618688) scale(0.1 -0.1)">
      <use xlink:href="#DejaVuSans-31"/>
      <use xlink:href="#DejaVuSans-37" x="63.623047"/>
      <use xlink:href="#DejaVuSans-30" x="127.246094"/>
     </g>
    </g>
    <g id="line2d_35">
     <path d="M 157.275 319.796812 
L 167.275 319.796812 
L 177.275 319.796812 
" style="fill: none; stroke: #8c564b; stroke-width: 1.5; stroke-linecap: square"/>
    </g>
    <g id="text_27">
     <!-- 210 -->
     <g transform="translate(185.275 323.296812) scale(0.1 -0.1)">
      <use xlink:href="#DejaVuSans-32"/>
      <use xlink:href="#DejaVuSans-31" x="63.623047"/>
      <use xlink:href="#DejaVuSans-30" x="127.246094"/>
     </g>
    </g>
    <g id="line2d_36">
     <path d="M 224.3625 305.118688 
L 234.3625 305.118688 
L 244.3625 305.118688 
" style="fill: none; stroke: #e377c2; stroke-width: 1.5; stroke-linecap: square"/>
    </g>
    <g id="text_28">
     <!-- 250 -->
     <g transform="translate(252.3625 308.618688) scale(0.1 -0.1)">
      <use xlink:href="#DejaVuSans-32"/>
      <use xlink:href="#DejaVuSans-35" x="63.623047"/>
      <use xlink:href="#DejaVuSans-30" x="127.246094"/>
     </g>
    </g>
    <g id="line2d_37">
     <path d="M 224.3625 319.796812 
L 234.3625 319.796812 
L 244.3625 319.796812 
" style="fill: none; stroke: #7f7f7f; stroke-width: 1.5; stroke-linecap: square"/>
    </g>
    <g id="text_29">
     <!-- 290 -->
     <g transform="translate(252.3625 323.296812) scale(0.1 -0.1)">
      <use xlink:href="#DejaVuSans-32"/>
      <use xlink:href="#DejaVuSans-39" x="63.623047"/>
      <use xlink:href="#DejaVuSans-30" x="127.246094"/>
     </g>
    </g>
    <g id="line2d_38">
     <path d="M 291.45 305.118688 
L 301.45 305.118688 
L 311.45 305.118688 
" style="fill: none; stroke: #bcbd22; stroke-width: 1.5; stroke-linecap: square"/>
    </g>
    <g id="text_30">
     <!-- 330 -->
     <g transform="translate(319.45 308.618688) scale(0.1 -0.1)">
      <use xlink:href="#DejaVuSans-33"/>
      <use xlink:href="#DejaVuSans-33" x="63.623047"/>
      <use xlink:href="#DejaVuSans-30" x="127.246094"/>
     </g>
    </g>
    <g id="line2d_39">
     <path d="M 291.45 319.796812 
L 301.45 319.796812 
L 311.45 319.796812 
" style="fill: none; stroke: #17becf; stroke-width: 1.5; stroke-linecap: square"/>
    </g>
    <g id="text_31">
     <!-- 370 -->
     <g transform="translate(319.45 323.296812) scale(0.1 -0.1)">
      <use xlink:href="#DejaVuSans-33"/>
      <use xlink:href="#DejaVuSans-37" x="63.623047"/>
      <use xlink:href="#DejaVuSans-30" x="127.246094"/>
     </g>
    </g>
    <g id="line2d_40">
     <path d="M 358.5375 305.118688 
L 368.5375 305.118688 
L 378.5375 305.118688 
" style="fill: none; stroke: #1f77b4; stroke-width: 1.5; stroke-linecap: square"/>
    </g>
    <g id="text_32">
     <!-- 410 -->
     <g transform="translate(386.5375 308.618688) scale(0.1 -0.1)">
      <use xlink:href="#DejaVuSans-34"/>
      <use xlink:href="#DejaVuSans-31" x="63.623047"/>
      <use xlink:href="#DejaVuSans-30" x="127.246094"/>
     </g>
    </g>
    <g id="line2d_41">
     <path d="M 358.5375 319.796812 
L 368.5375 319.796812 
L 378.5375 319.796812 
" style="fill: none; stroke: #ff7f0e; stroke-width: 1.5; stroke-linecap: square"/>
    </g>
    <g id="text_33">
     <!-- 450 -->
     <g transform="translate(386.5375 323.296812) scale(0.1 -0.1)">
      <use xlink:href="#DejaVuSans-34"/>
      <use xlink:href="#DejaVuSans-35" x="63.623047"/>
      <use xlink:href="#DejaVuSans-30" x="127.246094"/>
     </g>
    </g>
   </g>
  </g>
 </g>
 <defs>
  <clipPath id="p8fd6b4ed87">
   <rect x="50.14375" y="22.318125" width="334.8" height="221.76"/>
  </clipPath>
 </defs>
</svg>
