<?xml version="1.0" encoding="utf-8" standalone="no"?>
<!DOCTYPE svg PUBLIC "-//W3C//DTD SVG 1.1//EN"
  "http://www.w3.org/Graphics/SVG/1.1/DTD/svg11.dtd">
<svg xmlns:xlink="http://www.w3.org/1999/xlink" width="399.151136pt" height="281.634375pt" viewBox="0 0 399.151136 281.634375" xmlns="http://www.w3.org/2000/svg" version="1.1">
 <metadata>
  <rdf:RDF xmlns:dc="http://purl.org/dc/elements/1.1/" xmlns:cc="http://creativecommons.org/ns#" xmlns:rdf="http://www.w3.org/1999/02/22-rdf-syntax-ns#">
   <cc:Work>
    <dc:type rdf:resource="http://purl.org/dc/dcmitype/StillImage"/>
    <dc:date>2024-05-27T20:13:46.002792</dc:date>
    <dc:format>image/svg+xml</dc:format>
    <dc:creator>
     <cc:Agent>
      <dc:title>Matplotlib v3.7.1, https://matplotlib.org/</dc:title>
     </cc:Agent>
    </dc:creator>
   </cc:Work>
  </rdf:RDF>
 </metadata>
 <defs>
  <style type="text/css">*{stroke-linejoin: round; stroke-linecap: butt}</style>
 </defs>
 <g id="figure_1">
  <g id="patch_1">
   <path d="M 0 281.634375 
L 399.151136 281.634375 
L 399.151136 0 
L 0 0 
z
" style="fill: #ffffff"/>
  </g>
  <g id="axes_1">
   <g id="patch_2">
    <path d="M 50.14375 244.078125 
L 384.94375 244.078125 
L 384.94375 22.318125 
L 50.14375 22.318125 
z
" style="fill: #ffffff"/>
   </g>
   <g id="matplotlib.axis_1">
    <g id="xtick_1">
     <g id="line2d_1">
      <defs>
       <path id="m613b9ace6f" d="M 0 0 
L 0 3.5 
" style="stroke: #000000; stroke-width: 0.8"/>
      </defs>
      <g>
       <use xlink:href="#m613b9ace6f" x="65.361932" y="244.078125" style="stroke: #000000; stroke-width: 0.8"/>
      </g>
     </g>
     <g id="text_1">
      <!-- 0 -->
      <g transform="translate(62.180682 258.676562) scale(0.1 -0.1)">
       <defs>
        <path id="DejaVuSans-30" d="M 2034 4250 
Q 1547 4250 1301 3770 
Q 1056 3291 1056 2328 
Q 1056 1369 1301 889 
Q 1547 409 2034 409 
Q 2525 409 2770 889 
Q 3016 1369 3016 2328 
Q 3016 3291 2770 3770 
Q 2525 4250 2034 4250 
z
M 2034 4750 
Q 2819 4750 3233 4129 
Q 3647 3509 3647 2328 
Q 3647 1150 3233 529 
Q 2819 -91 2034 -91 
Q 1250 -91 836 529 
Q 422 1150 422 2328 
Q 422 3509 836 4129 
Q 1250 4750 2034 4750 
z
" transform="scale(0.015625)"/>
       </defs>
       <use xlink:href="#DejaVuSans-30"/>
      </g>
     </g>
    </g>
    <g id="xtick_2">
     <g id="line2d_2">
      <g>
       <use xlink:href="#m613b9ace6f" x="128.771023" y="244.078125" style="stroke: #000000; stroke-width: 0.8"/>
      </g>
     </g>
     <g id="text_2">
      <!-- 20 -->
      <g transform="translate(122.408523 258.676562) scale(0.1 -0.1)">
       <defs>
        <path id="DejaVuSans-32" d="M 1228 531 
L 3431 531 
L 3431 0 
L 469 0 
L 469 531 
Q 828 903 1448 1529 
Q 2069 2156 2228 2338 
Q 2531 2678 2651 2914 
Q 2772 3150 2772 3378 
Q 2772 3750 2511 3984 
Q 2250 4219 1831 4219 
Q 1534 4219 1204 4116 
Q 875 4013 500 3803 
L 500 4441 
Q 881 4594 1212 4672 
Q 1544 4750 1819 4750 
Q 2544 4750 2975 4387 
Q 3406 4025 3406 3419 
Q 3406 3131 3298 2873 
Q 3191 2616 2906 2266 
Q 2828 2175 2409 1742 
Q 1991 1309 1228 531 
z
" transform="scale(0.015625)"/>
       </defs>
       <use xlink:href="#DejaVuSans-32"/>
       <use xlink:href="#DejaVuSans-30" x="63.623047"/>
      </g>
     </g>
    </g>
    <g id="xtick_3">
     <g id="line2d_3">
      <g>
       <use xlink:href="#m613b9ace6f" x="192.180114" y="244.078125" style="stroke: #000000; stroke-width: 0.8"/>
      </g>
     </g>
     <g id="text_3">
      <!-- 40 -->
      <g transform="translate(185.817614 258.676562) scale(0.1 -0.1)">
       <defs>
        <path id="DejaVuSans-34" d="M 2419 4116 
L 825 1625 
L 2419 1625 
L 2419 4116 
z
M 2253 4666 
L 3047 4666 
L 3047 1625 
L 3713 1625 
L 3713 1100 
L 3047 1100 
L 3047 0 
L 2419 0 
L 2419 1100 
L 313 1100 
L 313 1709 
L 2253 4666 
z
" transform="scale(0.015625)"/>
       </defs>
       <use xlink:href="#DejaVuSans-34"/>
       <use xlink:href="#DejaVuSans-30" x="63.623047"/>
      </g>
     </g>
    </g>
    <g id="xtick_4">
     <g id="line2d_4">
      <g>
       <use xlink:href="#m613b9ace6f" x="255.589205" y="244.078125" style="stroke: #000000; stroke-width: 0.8"/>
      </g>
     </g>
     <g id="text_4">
      <!-- 60 -->
      <g transform="translate(249.226705 258.676562) scale(0.1 -0.1)">
       <defs>
        <path id="DejaVuSans-36" d="M 2113 2584 
Q 1688 2584 1439 2293 
Q 1191 2003 1191 1497 
Q 1191 994 1439 701 
Q 1688 409 2113 409 
Q 2538 409 2786 701 
Q 3034 994 3034 1497 
Q 3034 2003 2786 2293 
Q 2538 2584 2113 2584 
z
M 3366 4563 
L 3366 3988 
Q 3128 4100 2886 4159 
Q 2644 4219 2406 4219 
Q 1781 4219 1451 3797 
Q 1122 3375 1075 2522 
Q 1259 2794 1537 2939 
Q 1816 3084 2150 3084 
Q 2853 3084 3261 2657 
Q 3669 2231 3669 1497 
Q 3669 778 3244 343 
Q 2819 -91 2113 -91 
Q 1303 -91 875 529 
Q 447 1150 447 2328 
Q 447 3434 972 4092 
Q 1497 4750 2381 4750 
Q 2619 4750 2861 4703 
Q 3103 4656 3366 4563 
z
" transform="scale(0.015625)"/>
       </defs>
       <use xlink:href="#DejaVuSans-36"/>
       <use xlink:href="#DejaVuSans-30" x="63.623047"/>
      </g>
     </g>
    </g>
    <g id="xtick_5">
     <g id="line2d_5">
      <g>
       <use xlink:href="#m613b9ace6f" x="318.998295" y="244.078125" style="stroke: #000000; stroke-width: 0.8"/>
      </g>
     </g>
     <g id="text_5">
      <!-- 80 -->
      <g transform="translate(312.635795 258.676562) scale(0.1 -0.1)">
       <defs>
        <path id="DejaVuSans-38" d="M 2034 2216 
Q 1584 2216 1326 1975 
Q 1069 1734 1069 1313 
Q 1069 891 1326 650 
Q 1584 409 2034 409 
Q 2484 409 2743 651 
Q 3003 894 3003 1313 
Q 3003 1734 2745 1975 
Q 2488 2216 2034 2216 
z
M 1403 2484 
Q 997 2584 770 2862 
Q 544 3141 544 3541 
Q 544 4100 942 4425 
Q 1341 4750 2034 4750 
Q 2731 4750 3128 4425 
Q 3525 4100 3525 3541 
Q 3525 3141 3298 2862 
Q 3072 2584 2669 2484 
Q 3125 2378 3379 2068 
Q 3634 1759 3634 1313 
Q 3634 634 3220 271 
Q 2806 -91 2034 -91 
Q 1263 -91 848 271 
Q 434 634 434 1313 
Q 434 1759 690 2068 
Q 947 2378 1403 2484 
z
M 1172 3481 
Q 1172 3119 1398 2916 
Q 1625 2713 2034 2713 
Q 2441 2713 2670 2916 
Q 2900 3119 2900 3481 
Q 2900 3844 2670 4047 
Q 2441 4250 2034 4250 
Q 1625 4250 1398 4047 
Q 1172 3844 1172 3481 
z
" transform="scale(0.015625)"/>
       </defs>
       <use xlink:href="#DejaVuSans-38"/>
       <use xlink:href="#DejaVuSans-30" x="63.623047"/>
      </g>
     </g>
    </g>
    <g id="xtick_6">
     <g id="line2d_6">
      <g>
       <use xlink:href="#m613b9ace6f" x="382.407386" y="244.078125" style="stroke: #000000; stroke-width: 0.8"/>
      </g>
     </g>
     <g id="text_6">
      <!-- 100 -->
      <g transform="translate(372.863636 258.676562) scale(0.1 -0.1)">
       <defs>
        <path id="DejaVuSans-31" d="M 794 531 
L 1825 531 
L 1825 4091 
L 703 3866 
L 703 4441 
L 1819 4666 
L 2450 4666 
L 2450 531 
L 3481 531 
L 3481 0 
L 794 0 
L 794 531 
z
" transform="scale(0.015625)"/>
       </defs>
       <use xlink:href="#DejaVuSans-31"/>
       <use xlink:href="#DejaVuSans-30" x="63.623047"/>
       <use xlink:href="#DejaVuSans-30" x="127.246094"/>
      </g>
     </g>
    </g>
    <g id="text_7">
     <!-- Timeslots -->
     <g transform="translate(193.692188 272.354687) scale(0.1 -0.1)">
      <defs>
       <path id="DejaVuSans-54" d="M -19 4666 
L 3928 4666 
L 3928 4134 
L 2272 4134 
L 2272 0 
L 1638 0 
L 1638 4134 
L -19 4134 
L -19 4666 
z
" transform="scale(0.015625)"/>
       <path id="DejaVuSans-69" d="M 603 3500 
L 1178 3500 
L 1178 0 
L 603 0 
L 603 3500 
z
M 603 4863 
L 1178 4863 
L 1178 4134 
L 603 4134 
L 603 4863 
z
" transform="scale(0.015625)"/>
       <path id="DejaVuSans-6d" d="M 3328 2828 
Q 3544 3216 3844 3400 
Q 4144 3584 4550 3584 
Q 5097 3584 5394 3201 
Q 5691 2819 5691 2113 
L 5691 0 
L 5113 0 
L 5113 2094 
Q 5113 2597 4934 2840 
Q 4756 3084 4391 3084 
Q 3944 3084 3684 2787 
Q 3425 2491 3425 1978 
L 3425 0 
L 2847 0 
L 2847 2094 
Q 2847 2600 2669 2842 
Q 2491 3084 2119 3084 
Q 1678 3084 1418 2786 
Q 1159 2488 1159 1978 
L 1159 0 
L 581 0 
L 581 3500 
L 1159 3500 
L 1159 2956 
Q 1356 3278 1631 3431 
Q 1906 3584 2284 3584 
Q 2666 3584 2933 3390 
Q 3200 3197 3328 2828 
z
" transform="scale(0.015625)"/>
       <path id="DejaVuSans-65" d="M 3597 1894 
L 3597 1613 
L 953 1613 
Q 991 1019 1311 708 
Q 1631 397 2203 397 
Q 2534 397 2845 478 
Q 3156 559 3463 722 
L 3463 178 
Q 3153 47 2828 -22 
Q 2503 -91 2169 -91 
Q 1331 -91 842 396 
Q 353 884 353 1716 
Q 353 2575 817 3079 
Q 1281 3584 2069 3584 
Q 2775 3584 3186 3129 
Q 3597 2675 3597 1894 
z
M 3022 2063 
Q 3016 2534 2758 2815 
Q 2500 3097 2075 3097 
Q 1594 3097 1305 2825 
Q 1016 2553 972 2059 
L 3022 2063 
z
" transform="scale(0.015625)"/>
       <path id="DejaVuSans-73" d="M 2834 3397 
L 2834 2853 
Q 2591 2978 2328 3040 
Q 2066 3103 1784 3103 
Q 1356 3103 1142 2972 
Q 928 2841 928 2578 
Q 928 2378 1081 2264 
Q 1234 2150 1697 2047 
L 1894 2003 
Q 2506 1872 2764 1633 
Q 3022 1394 3022 966 
Q 3022 478 2636 193 
Q 2250 -91 1575 -91 
Q 1294 -91 989 -36 
Q 684 19 347 128 
L 347 722 
Q 666 556 975 473 
Q 1284 391 1588 391 
Q 1994 391 2212 530 
Q 2431 669 2431 922 
Q 2431 1156 2273 1281 
Q 2116 1406 1581 1522 
L 1381 1569 
Q 847 1681 609 1914 
Q 372 2147 372 2553 
Q 372 3047 722 3315 
Q 1072 3584 1716 3584 
Q 2034 3584 2315 3537 
Q 2597 3491 2834 3397 
z
" transform="scale(0.015625)"/>
       <path id="DejaVuSans-6c" d="M 603 4863 
L 1178 4863 
L 1178 0 
L 603 0 
L 603 4863 
z
" transform="scale(0.015625)"/>
       <path id="DejaVuSans-6f" d="M 1959 3097 
Q 1497 3097 1228 2736 
Q 959 2375 959 1747 
Q 959 1119 1226 758 
Q 1494 397 1959 397 
Q 2419 397 2687 759 
Q 2956 1122 2956 1747 
Q 2956 2369 2687 2733 
Q 2419 3097 1959 3097 
z
M 1959 3584 
Q 2709 3584 3137 3096 
Q 3566 2609 3566 1747 
Q 3566 888 3137 398 
Q 2709 -91 1959 -91 
Q 1206 -91 779 398 
Q 353 888 353 1747 
Q 353 2609 779 3096 
Q 1206 3584 1959 3584 
z
" transform="scale(0.015625)"/>
       <path id="DejaVuSans-74" d="M 1172 4494 
L 1172 3500 
L 2356 3500 
L 2356 3053 
L 1172 3053 
L 1172 1153 
Q 1172 725 1289 603 
Q 1406 481 1766 481 
L 2356 481 
L 2356 0 
L 1766 0 
Q 1100 0 847 248 
Q 594 497 594 1153 
L 594 3053 
L 172 3053 
L 172 3500 
L 594 3500 
L 594 4494 
L 1172 4494 
z
" transform="scale(0.015625)"/>
      </defs>
      <use xlink:href="#DejaVuSans-54"/>
      <use xlink:href="#DejaVuSans-69" x="57.958984"/>
      <use xlink:href="#DejaVuSans-6d" x="85.742188"/>
      <use xlink:href="#DejaVuSans-65" x="183.154297"/>
      <use xlink:href="#DejaVuSans-73" x="244.677734"/>
      <use xlink:href="#DejaVuSans-6c" x="296.777344"/>
      <use xlink:href="#DejaVuSans-6f" x="324.560547"/>
      <use xlink:href="#DejaVuSans-74" x="385.742188"/>
      <use xlink:href="#DejaVuSans-73" x="424.951172"/>
     </g>
    </g>
   </g>
   <g id="matplotlib.axis_2">
    <g id="ytick_1">
     <g id="line2d_7">
      <defs>
       <path id="m9c778b8f73" d="M 0 0 
L -3.5 0 
" style="stroke: #000000; stroke-width: 0.8"/>
      </defs>
      <g>
       <use xlink:href="#m9c778b8f73" x="50.14375" y="244.078125" style="stroke: #000000; stroke-width: 0.8"/>
      </g>
     </g>
     <g id="text_8">
      <!-- 0.00 -->
      <g transform="translate(20.878125 247.877344) scale(0.1 -0.1)">
       <defs>
        <path id="DejaVuSans-2e" d="M 684 794 
L 1344 794 
L 1344 0 
L 684 0 
L 684 794 
z
" transform="scale(0.015625)"/>
       </defs>
       <use xlink:href="#DejaVuSans-30"/>
       <use xlink:href="#DejaVuSans-2e" x="63.623047"/>
       <use xlink:href="#DejaVuSans-30" x="95.410156"/>
       <use xlink:href="#DejaVuSans-30" x="159.033203"/>
      </g>
     </g>
    </g>
    <g id="ytick_2">
     <g id="line2d_8">
      <g>
       <use xlink:href="#m9c778b8f73" x="50.14375" y="198.45688" style="stroke: #000000; stroke-width: 0.8"/>
      </g>
     </g>
     <g id="text_9">
      <!-- 0.02 -->
      <g transform="translate(20.878125 202.256099) scale(0.1 -0.1)">
       <use xlink:href="#DejaVuSans-30"/>
       <use xlink:href="#DejaVuSans-2e" x="63.623047"/>
       <use xlink:href="#DejaVuSans-30" x="95.410156"/>
       <use xlink:href="#DejaVuSans-32" x="159.033203"/>
      </g>
     </g>
    </g>
    <g id="ytick_3">
     <g id="line2d_9">
      <g>
       <use xlink:href="#m9c778b8f73" x="50.14375" y="152.835636" style="stroke: #000000; stroke-width: 0.8"/>
      </g>
     </g>
     <g id="text_10">
      <!-- 0.04 -->
      <g transform="translate(20.878125 156.634855) scale(0.1 -0.1)">
       <use xlink:href="#DejaVuSans-30"/>
       <use xlink:href="#DejaVuSans-2e" x="63.623047"/>
       <use xlink:href="#DejaVuSans-30" x="95.410156"/>
       <use xlink:href="#DejaVuSans-34" x="159.033203"/>
      </g>
     </g>
    </g>
    <g id="ytick_4">
     <g id="line2d_10">
      <g>
       <use xlink:href="#m9c778b8f73" x="50.14375" y="107.214391" style="stroke: #000000; stroke-width: 0.8"/>
      </g>
     </g>
     <g id="text_11">
      <!-- 0.06 -->
      <g transform="translate(20.878125 111.01361) scale(0.1 -0.1)">
       <use xlink:href="#DejaVuSans-30"/>
       <use xlink:href="#DejaVuSans-2e" x="63.623047"/>
       <use xlink:href="#DejaVuSans-30" x="95.410156"/>
       <use xlink:href="#DejaVuSans-36" x="159.033203"/>
      </g>
     </g>
    </g>
    <g id="ytick_5">
     <g id="line2d_11">
      <g>
       <use xlink:href="#m9c778b8f73" x="50.14375" y="61.593147" style="stroke: #000000; stroke-width: 0.8"/>
      </g>
     </g>
     <g id="text_12">
      <!-- 0.08 -->
      <g transform="translate(20.878125 65.392366) scale(0.1 -0.1)">
       <use xlink:href="#DejaVuSans-30"/>
       <use xlink:href="#DejaVuSans-2e" x="63.623047"/>
       <use xlink:href="#DejaVuSans-30" x="95.410156"/>
       <use xlink:href="#DejaVuSans-38" x="159.033203"/>
      </g>
     </g>
    </g>
    <g id="text_13">
     <!-- Density -->
     <g transform="translate(14.798438 152.206719) rotate(-90) scale(0.1 -0.1)">
      <defs>
       <path id="DejaVuSans-44" d="M 1259 4147 
L 1259 519 
L 2022 519 
Q 2988 519 3436 956 
Q 3884 1394 3884 2338 
Q 3884 3275 3436 3711 
Q 2988 4147 2022 4147 
L 1259 4147 
z
M 628 4666 
L 1925 4666 
Q 3281 4666 3915 4102 
Q 4550 3538 4550 2338 
Q 4550 1131 3912 565 
Q 3275 0 1925 0 
L 628 0 
L 628 4666 
z
" transform="scale(0.015625)"/>
       <path id="DejaVuSans-6e" d="M 3513 2113 
L 3513 0 
L 2938 0 
L 2938 2094 
Q 2938 2591 2744 2837 
Q 2550 3084 2163 3084 
Q 1697 3084 1428 2787 
Q 1159 2491 1159 1978 
L 1159 0 
L 581 0 
L 581 3500 
L 1159 3500 
L 1159 2956 
Q 1366 3272 1645 3428 
Q 1925 3584 2291 3584 
Q 2894 3584 3203 3211 
Q 3513 2838 3513 2113 
z
" transform="scale(0.015625)"/>
       <path id="DejaVuSans-79" d="M 2059 -325 
Q 1816 -950 1584 -1140 
Q 1353 -1331 966 -1331 
L 506 -1331 
L 506 -850 
L 844 -850 
Q 1081 -850 1212 -737 
Q 1344 -625 1503 -206 
L 1606 56 
L 191 3500 
L 800 3500 
L 1894 763 
L 2988 3500 
L 3597 3500 
L 2059 -325 
z
" transform="scale(0.015625)"/>
      </defs>
      <use xlink:href="#DejaVuSans-44"/>
      <use xlink:href="#DejaVuSans-65" x="77.001953"/>
      <use xlink:href="#DejaVuSans-6e" x="138.525391"/>
      <use xlink:href="#DejaVuSans-73" x="201.904297"/>
      <use xlink:href="#DejaVuSans-69" x="254.003906"/>
      <use xlink:href="#DejaVuSans-74" x="281.787109"/>
      <use xlink:href="#DejaVuSans-79" x="320.996094"/>
     </g>
    </g>
   </g>
   <g id="line2d_12">
    <path d="M 103.176677 244.068726 
L 109.481384 243.95794 
L 113.264208 243.650347 
L 115.78609 243.168971 
L 117.047032 242.784526 
L 118.307973 242.26425 
L 119.568914 241.568954 
L 120.829856 240.65064 
L 122.090797 239.451498 
L 123.351738 237.903437 
L 124.61268 235.928562 
L 125.873621 233.441039 
L 127.134562 230.350717 
L 128.395504 226.568661 
L 129.656445 222.014414 
L 130.917386 216.624339 
L 132.178328 210.35996 
L 133.439269 203.214832 
L 134.700211 195.218391 
L 137.222093 176.960945 
L 139.743976 156.404055 
L 143.5268 123.251625 
L 148.570565 78.513885 
L 151.092448 58.516282 
L 152.353389 50.182438 
L 153.614331 43.564183 
L 154.875272 39.14629 
L 156.136213 37.373461 
L 157.397155 38.589915 
L 158.658096 42.984913 
L 159.919037 50.554179 
L 161.179979 61.084601 
L 162.44092 74.16541 
L 164.962803 105.58247 
L 168.745627 155.43302 
L 170.006568 170.302447 
L 171.26751 183.60368 
L 172.528451 195.139838 
L 173.789392 204.851672 
L 175.050334 212.794483 
L 176.311275 219.108925 
L 177.572216 223.990496 
L 178.833158 227.6615 
L 180.094099 230.347896 
L 181.35504 232.26214 
L 182.615982 233.592002 
L 183.876923 234.494659 
L 185.137864 235.09494 
L 186.398806 235.486558 
L 188.920688 235.882906 
L 191.442571 235.951116 
L 193.964454 235.720423 
L 196.486337 235.106887 
L 197.747278 234.623397 
L 199.008219 234.008649 
L 200.269161 233.258403 
L 202.791043 231.367938 
L 205.312926 229.064913 
L 210.356691 224.277703 
L 211.617633 223.2894 
L 212.878574 222.461949 
L 214.139515 221.821151 
L 215.400457 221.382068 
L 216.661398 221.148673 
L 217.922339 221.114766 
L 219.183281 221.265924 
L 220.444222 221.582065 
L 221.705163 222.04013 
L 224.227046 223.288288 
L 226.748929 224.837016 
L 234.314577 229.772615 
L 236.83646 230.952658 
L 238.097401 231.354256 
L 239.358342 231.606795 
L 240.619284 231.6991 
L 241.880225 231.626458 
L 243.141166 231.391243 
L 244.402108 231.003068 
L 246.92399 229.840296 
L 250.706814 227.543475 
L 253.228697 226.040391 
L 255.75058 224.887563 
L 257.011521 224.519061 
L 258.272463 224.320862 
L 259.533404 224.30909 
L 260.794345 224.492758 
L 262.055287 224.87328 
L 263.316228 225.444333 
L 264.577169 226.192086 
L 267.099052 228.128961 
L 269.620935 230.455786 
L 274.6647 235.198765 
L 277.186583 237.164027 
L 279.708465 238.708656 
L 282.230348 239.851364 
L 284.752231 240.682489 
L 288.535055 241.584019 
L 293.57882 242.500326 
L 298.622586 243.164541 
L 302.40541 243.44726 
L 307.449175 243.581269 
L 332.668002 243.841933 
L 347.799298 244.062891 
L 354.104005 244.076433 
L 354.104005 244.076433 
" clip-path="url(#p4e9cc2da55)" style="fill: none; stroke: #1f77b4; stroke-width: 1.5; stroke-linecap: square"/>
   </g>
   <g id="line2d_13">
    <path d="M 65.361932 243.922257 
L 77.597656 243.979515 
L 94.421776 244.011856 
L 100.539639 243.820341 
L 105.128035 243.402796 
L 109.716432 242.680506 
L 112.775363 241.992992 
L 114.304828 241.529467 
L 115.834294 240.923948 
L 117.363759 240.105717 
L 118.893225 238.985216 
L 120.42269 237.455951 
L 121.952156 235.397105 
L 123.481621 232.676997 
L 125.011087 229.158421 
L 126.540552 224.707295 
L 128.070018 219.205456 
L 129.599483 212.566586 
L 131.128949 204.752063 
L 132.658414 195.782014 
L 134.18788 185.737341 
L 137.246811 162.991323 
L 140.305742 137.885213 
L 146.423604 86.709476 
L 147.953069 75.260777 
L 149.482535 65.248994 
L 151.012 57.340391 
L 152.541466 52.274412 
L 154.070931 50.766626 
L 155.600397 53.378677 
L 157.129862 60.38295 
L 158.659328 71.658601 
L 160.188793 86.652869 
L 161.718259 104.426419 
L 166.306655 162.164149 
L 167.836121 179.07105 
L 169.365586 193.538569 
L 170.895052 205.315876 
L 172.424517 214.456211 
L 173.953983 221.231616 
L 175.483448 226.036763 
L 177.012914 229.303664 
L 178.54238 231.439514 
L 180.071845 232.790377 
L 181.601311 233.626878 
L 183.130776 234.145153 
L 186.189707 234.69988 
L 189.248638 234.958951 
L 192.307569 234.977009 
L 193.837035 234.857001 
L 195.3665 234.62085 
L 196.895966 234.245172 
L 198.425431 233.708984 
L 199.954897 232.996847 
L 201.484362 232.102746 
L 203.013828 231.034294 
L 206.072759 228.492462 
L 209.13169 225.785312 
L 210.661155 224.555147 
L 212.190621 223.507882 
L 213.720086 222.703589 
L 215.249552 222.180865 
L 216.779017 221.953185 
L 218.308483 222.00932 
L 219.837948 222.317187 
L 221.367414 222.829758 
L 224.426345 224.24383 
L 229.014741 226.500793 
L 230.544207 227.103813 
L 232.073672 227.580196 
L 233.603138 227.914698 
L 235.132603 228.102718 
L 236.662069 228.148933 
L 238.191534 228.065178 
L 241.250465 227.576747 
L 244.309396 226.791664 
L 253.486189 224.103224 
L 256.54512 223.478669 
L 259.604052 223.144767 
L 261.133517 223.120708 
L 262.662983 223.216067 
L 264.192448 223.45229 
L 265.721914 223.850479 
L 267.251379 224.426902 
L 268.780845 225.18782 
L 270.31031 226.125167 
L 273.369241 228.417274 
L 279.487103 233.385433 
L 282.546034 235.44586 
L 285.604965 237.097914 
L 288.663896 238.397019 
L 291.722827 239.410186 
L 294.781758 240.18458 
L 297.840689 240.754525 
L 302.429086 241.303996 
L 310.076413 241.817421 
L 320.782672 242.398003 
L 326.900534 242.418946 
L 334.547861 242.380636 
L 342.195189 242.659999 
L 355.960379 243.28552 
L 365.137172 243.784489 
L 369.725568 243.92917 
L 369.725568 243.92917 
" clip-path="url(#p4e9cc2da55)" style="fill: none; stroke: #ff7f0e; stroke-width: 1.5; stroke-linecap: square"/>
   </g>
   <g id="line2d_14">
    <path d="M 65.361932 244.006364 
L 76.06819 244.04322 
L 91.362845 244.062709 
L 100.539639 243.94119 
L 105.128035 243.646835 
L 109.716432 243.054695 
L 117.363759 241.877182 
L 118.893225 241.473133 
L 120.42269 240.855916 
L 121.952156 239.910557 
L 123.481621 238.497937 
L 125.011087 236.4525 
L 126.540552 233.581286 
L 128.070018 229.668925 
L 129.599483 224.492317 
L 131.128949 217.844849 
L 132.658414 209.565225 
L 134.18788 199.563788 
L 135.717345 187.841164 
L 137.246811 174.498229 
L 138.776276 159.73859 
L 141.835207 127.260946 
L 146.423604 77.836987 
L 147.953069 63.302177 
L 149.482535 50.786814 
L 151.012 41.032231 
L 152.541466 34.82035 
L 154.070931 32.878044 
L 155.600397 35.733575 
L 157.129862 43.563508 
L 158.659328 56.083461 
L 160.188793 72.529091 
L 161.718259 91.745831 
L 166.306655 152.590632 
L 167.836121 170.196564 
L 169.365586 185.376635 
L 170.895052 197.973456 
L 172.424517 208.069435 
L 173.953983 215.899602 
L 175.483448 221.778968 
L 177.012914 226.051123 
L 178.54238 229.054382 
L 180.071845 231.098996 
L 181.601311 232.451534 
L 183.130776 233.326083 
L 184.660242 233.882858 
L 186.189707 234.233222 
L 189.248638 234.566973 
L 192.307569 234.560357 
L 193.837035 234.420024 
L 195.3665 234.165812 
L 196.895966 233.778191 
L 198.425431 233.238338 
L 199.954897 232.529279 
L 201.484362 231.638215 
L 203.013828 230.561428 
L 206.072759 227.922482 
L 210.661155 223.623204 
L 212.190621 222.44603 
L 213.720086 221.537073 
L 215.249552 220.94717 
L 216.779017 220.692851 
L 218.308483 220.756058 
L 219.837948 221.091325 
L 221.367414 221.638692 
L 224.426345 223.138872 
L 232.073672 227.397914 
L 233.603138 228.026271 
L 235.132603 228.493338 
L 236.662069 228.787098 
L 238.191534 228.914441 
L 239.721 228.897104 
L 242.779931 228.546927 
L 245.838862 227.943528 
L 255.015655 225.778681 
L 256.54512 225.615299 
L 258.074586 225.578225 
L 259.604052 225.669519 
L 262.662983 226.195677 
L 265.721914 227.124342 
L 268.780845 228.486777 
L 271.839776 230.304853 
L 281.016569 236.514683 
L 284.0755 238.157034 
L 287.134431 239.459297 
L 290.193362 240.444447 
L 293.252293 241.183789 
L 297.840689 241.990975 
L 302.429086 242.540842 
L 307.017482 242.882389 
L 323.841603 243.653364 
L 329.959465 243.75605 
L 345.25412 243.799351 
L 352.901448 243.857041 
L 363.607706 243.909885 
L 369.725568 244.000441 
L 369.725568 244.000441 
" clip-path="url(#p4e9cc2da55)" style="fill: none; stroke: #2ca02c; stroke-width: 1.5; stroke-linecap: square"/>
   </g>
   <g id="line2d_15">
    <path d="M 65.361932 243.944511 
L 74.538725 243.934265 
L 95.951242 243.997234 
L 102.069104 243.747036 
L 105.128035 243.463002 
L 108.186966 243.002347 
L 111.245897 242.324059 
L 114.304828 241.334728 
L 115.834294 240.6423 
L 117.363759 239.73951 
L 118.893225 238.546073 
L 120.42269 236.968089 
L 121.952156 234.900554 
L 123.481621 232.22835 
L 125.011087 228.826891 
L 126.540552 224.565561 
L 128.070018 219.317515 
L 129.599483 212.976953 
L 131.128949 205.480042 
L 132.658414 196.82101 
L 134.18788 187.054781 
L 135.717345 176.283927 
L 138.776276 152.257624 
L 143.364673 112.493024 
L 146.423604 86.650086 
L 147.953069 75.224348 
L 149.482535 65.546428 
L 151.012 58.22861 
L 152.541466 53.871708 
L 154.070931 52.996437 
L 155.600397 55.953994 
L 157.129862 62.834345 
L 158.659328 73.402506 
L 160.188793 87.091821 
L 161.718259 103.066532 
L 166.306655 154.928797 
L 167.836121 170.68241 
L 169.365586 184.720892 
L 170.895052 196.79096 
L 172.424517 206.813097 
L 173.953983 214.844812 
L 175.483448 221.047623 
L 177.012914 225.656423 
L 178.54238 228.94798 
L 180.071845 231.20852 
L 181.601311 232.704316 
L 183.130776 233.660529 
L 184.660242 234.251383 
L 186.189707 234.601032 
L 189.248638 234.872915 
L 192.307569 234.802352 
L 195.3665 234.430028 
L 196.895966 234.093471 
L 198.425431 233.624232 
L 199.954897 232.999738 
L 201.484362 232.207216 
L 203.013828 231.249893 
L 206.072759 228.952629 
L 209.13169 226.506075 
L 210.661155 225.396625 
L 212.190621 224.449717 
L 213.720086 223.715127 
L 215.249552 223.22486 
L 216.779017 222.991374 
L 218.308483 223.008062 
L 219.837948 223.251585 
L 221.367414 223.6855 
L 224.426345 224.938934 
L 229.014741 227.049285 
L 232.073672 228.1337 
L 233.603138 228.497408 
L 235.132603 228.721827 
L 236.662069 228.800812 
L 238.191534 228.737915 
L 241.250465 228.259644 
L 255.015655 225.09199 
L 258.074586 224.657032 
L 261.133517 224.463545 
L 262.662983 224.500315 
L 264.192448 224.660068 
L 265.721914 224.969867 
L 267.251379 225.450266 
L 268.780845 226.108686 
L 270.31031 226.935294 
L 273.369241 228.971224 
L 279.487103 233.412343 
L 282.546034 235.378294 
L 285.604965 237.08024 
L 288.663896 238.479039 
L 291.722827 239.554485 
L 294.781758 240.34281 
L 297.840689 240.915185 
L 302.429086 241.50529 
L 311.605879 242.317132 
L 316.194275 242.540607 
L 322.312137 242.588003 
L 334.547861 242.568485 
L 340.665724 242.877887 
L 346.783586 243.152108 
L 359.01931 243.586531 
L 369.725568 243.911716 
L 369.725568 243.911716 
" clip-path="url(#p4e9cc2da55)" style="fill: none; stroke: #d62728; stroke-width: 1.5; stroke-linecap: square"/>
   </g>
   <g id="line2d_16">
    <path d="M 65.361932 243.912167 
L 74.538725 243.918157 
L 89.83338 243.998763 
L 95.951242 243.834057 
L 100.539639 243.46306 
L 103.59857 243.054986 
L 106.657501 242.461568 
L 109.716432 241.572866 
L 111.245897 240.969548 
L 112.775363 240.227212 
L 114.304828 239.312923 
L 115.834294 238.183174 
L 117.363759 236.7805 
L 118.893225 235.03127 
L 120.42269 232.845597 
L 121.952156 230.11984 
L 123.481621 226.741549 
L 125.011087 222.596563 
L 126.540552 217.578453 
L 128.070018 211.601144 
L 129.599483 204.614705 
L 131.128949 196.621483 
L 132.658414 187.686556 
L 135.717345 167.543007 
L 144.894138 102.726475 
L 146.423604 93.516313 
L 147.953069 85.502787 
L 149.482535 79.063787 
L 151.012 74.609876 
L 152.541466 72.551936 
L 154.070931 73.248234 
L 155.600397 76.935728 
L 157.129862 83.660301 
L 158.659328 93.227728 
L 160.188793 105.196477 
L 163.247724 133.647148 
L 166.306655 163.120025 
L 167.836121 176.658938 
L 169.365586 188.852717 
L 170.895052 199.47953 
L 172.424517 208.439748 
L 173.953983 215.734148 
L 175.483448 221.449607 
L 177.012914 225.746632 
L 178.54238 228.841098 
L 180.071845 230.977504 
L 181.601311 232.397929 
L 183.130776 233.314649 
L 184.660242 233.893135 
L 186.189707 234.247717 
L 187.719173 234.447639 
L 190.778104 234.50598 
L 193.837035 234.160807 
L 196.895966 233.402532 
L 198.425431 232.855067 
L 199.954897 232.183755 
L 201.484362 231.380883 
L 204.543293 229.396186 
L 209.13169 226.008031 
L 210.661155 225.023331 
L 212.190621 224.218876 
L 213.720086 223.632403 
L 215.249552 223.275936 
L 216.779017 223.138663 
L 218.308483 223.193554 
L 219.837948 223.404576 
L 222.896879 224.137987 
L 229.014741 225.868521 
L 232.073672 226.479921 
L 235.132603 226.803164 
L 236.662069 226.828502 
L 238.191534 226.738122 
L 239.721 226.514205 
L 241.250465 226.150618 
L 244.309396 225.082202 
L 248.897793 223.351899 
L 251.956724 222.631996 
L 255.015655 222.333936 
L 258.074586 222.345974 
L 261.133517 222.603532 
L 264.192448 223.116657 
L 267.251379 223.982682 
L 268.780845 224.59813 
L 270.31031 225.352427 
L 273.369241 227.234913 
L 284.0755 234.701374 
L 287.134431 236.457385 
L 290.193362 237.908919 
L 293.252293 239.05964 
L 296.311224 239.94178 
L 299.370155 240.581638 
L 302.429086 241.005452 
L 307.017482 241.373009 
L 322.312137 242.243812 
L 328.429999 242.356905 
L 339.136258 242.394991 
L 345.25412 242.735016 
L 359.01931 243.551702 
L 368.196103 243.86556 
L 369.725568 243.901861 
L 369.725568 243.901861 
" clip-path="url(#p4e9cc2da55)" style="fill: none; stroke: #9467bd; stroke-width: 1.5; stroke-linecap: square"/>
   </g>
   <g id="line2d_17">
    <path d="M 65.361932 243.95309 
L 73.009259 243.967256 
L 88.303914 244.046163 
L 95.951242 243.907432 
L 100.539639 243.645168 
L 105.128035 243.176667 
L 108.186966 242.671811 
L 111.245897 241.936043 
L 114.304828 240.864916 
L 115.834294 240.130441 
L 117.363759 239.194528 
L 118.893225 237.985362 
L 120.42269 236.415862 
L 121.952156 234.384649 
L 123.481621 231.77725 
L 125.011087 228.468532 
L 126.540552 224.328299 
L 128.070018 219.232338 
L 129.599483 213.079538 
L 131.128949 205.811304 
L 132.658414 197.424647 
L 134.18788 187.970444 
L 135.717345 177.53631 
L 138.776276 154.149235 
L 141.835207 128.311854 
L 144.894138 102.061288 
L 146.423604 89.839642 
L 147.953069 78.907904 
L 149.482535 69.777868 
L 151.012 62.923857 
L 152.541466 58.778742 
L 154.070931 57.727571 
L 155.600397 60.071378 
L 157.129862 65.954508 
L 158.659328 75.281041 
L 160.188793 87.664757 
L 161.718259 102.446744 
L 167.836121 168.349818 
L 169.365586 182.689403 
L 170.895052 195.17863 
L 172.424517 205.636334 
L 173.953983 214.050268 
L 175.483448 220.552535 
L 177.012914 225.382088 
L 178.54238 228.837902 
L 180.071845 231.231752 
L 181.601311 232.850102 
L 183.130776 233.930419 
L 184.660242 234.651468 
L 186.189707 235.133795 
L 187.719173 235.44642 
L 189.248638 235.61747 
L 190.778104 235.64766 
L 192.307569 235.525312 
L 193.837035 235.240327 
L 195.3665 234.793599 
L 196.895966 234.198991 
L 199.954897 232.649757 
L 203.013828 230.712345 
L 206.072759 228.454554 
L 209.13169 226.126946 
L 210.661155 225.081797 
L 212.190621 224.193314 
L 213.720086 223.500147 
L 215.249552 223.02074 
L 216.779017 222.756667 
L 218.308483 222.698424 
L 219.837948 222.83033 
L 221.367414 223.13285 
L 222.896879 223.582322 
L 225.95581 224.79727 
L 230.544207 226.80272 
L 233.603138 227.815595 
L 235.132603 228.144755 
L 236.662069 228.330603 
L 238.191534 228.36032 
L 239.721 228.231916 
L 241.250465 227.959428 
L 244.309396 227.115752 
L 248.897793 225.719078 
L 251.956724 225.005944 
L 256.54512 224.246549 
L 259.604052 223.898565 
L 261.133517 223.82953 
L 262.662983 223.880443 
L 264.192448 224.087915 
L 265.721914 224.479937 
L 267.251379 225.071433 
L 268.780845 225.860549 
L 270.31031 226.825863 
L 273.369241 229.108277 
L 277.957638 232.602637 
L 281.016569 234.582058 
L 284.0755 236.228184 
L 287.134431 237.587687 
L 290.193362 238.730786 
L 293.252293 239.709207 
L 296.311224 240.514757 
L 299.370155 241.115951 
L 302.429086 241.509478 
L 307.017482 241.810297 
L 320.782672 242.342986 
L 339.136258 242.4658 
L 346.783586 242.75701 
L 363.607706 243.693699 
L 369.725568 243.928892 
L 369.725568 243.928892 
" clip-path="url(#p4e9cc2da55)" style="fill: none; stroke: #8c564b; stroke-width: 1.5; stroke-linecap: square"/>
   </g>
   <g id="line2d_18">
    <path d="M 65.361932 243.955001 
L 77.597656 243.955627 
L 92.892311 243.981059 
L 97.480708 243.788131 
L 102.069104 243.320986 
L 108.186966 242.374124 
L 112.775363 241.44333 
L 114.304828 240.990569 
L 115.834294 240.367348 
L 117.363759 239.474794 
L 118.893225 238.190916 
L 120.42269 236.38001 
L 121.952156 233.906057 
L 123.481621 230.646379 
L 125.011087 226.500602 
L 126.540552 221.391973 
L 128.070018 215.263189 
L 129.599483 208.073405 
L 131.128949 199.802084 
L 132.658414 190.458647 
L 134.18788 180.090844 
L 137.246811 156.675773 
L 144.894138 93.195855 
L 146.423604 82.859987 
L 147.953069 74.401234 
L 149.482535 68.158013 
L 151.012 64.386925 
L 152.541466 63.300507 
L 154.070931 65.088853 
L 155.600397 69.897088 
L 157.129862 77.759577 
L 158.659328 88.52068 
L 160.188793 101.783468 
L 163.247724 133.121614 
L 166.306655 165.382898 
L 167.836121 179.985365 
L 169.365586 192.889904 
L 170.895052 203.836713 
L 172.424517 212.748331 
L 173.953983 219.698121 
L 175.483448 224.874995 
L 177.012914 228.546321 
L 178.54238 231.018624 
L 180.071845 232.598599 
L 181.601311 233.560552 
L 183.130776 234.126209 
L 184.660242 234.458208 
L 187.719173 234.801858 
L 190.778104 234.933839 
L 193.837035 234.75534 
L 195.3665 234.483699 
L 196.895966 234.065334 
L 198.425431 233.491318 
L 199.954897 232.759327 
L 201.484362 231.874394 
L 204.543293 229.725283 
L 209.13169 226.227703 
L 210.661155 225.212433 
L 212.190621 224.34749 
L 213.720086 223.659631 
L 215.249552 223.164849 
L 216.779017 222.868751 
L 218.308483 222.765593 
L 219.837948 222.838696 
L 221.367414 223.06447 
L 224.426345 223.879912 
L 227.485276 225.035066 
L 230.544207 226.249403 
L 232.073672 226.743283 
L 233.603138 227.092706 
L 235.132603 227.268874 
L 236.662069 227.267847 
L 238.191534 227.108122 
L 241.250465 226.45823 
L 250.427258 224.098466 
L 255.015655 223.103679 
L 258.074586 222.720575 
L 259.604052 222.673974 
L 261.133517 222.74198 
L 262.662983 222.931542 
L 264.192448 223.245943 
L 265.721914 223.687365 
L 267.251379 224.259465 
L 268.780845 224.968072 
L 270.31031 225.818617 
L 273.369241 227.932589 
L 277.957638 231.743357 
L 281.016569 234.163712 
L 282.546034 235.19809 
L 284.0755 236.083807 
L 285.604965 236.823538 
L 288.663896 237.963719 
L 293.252293 239.268969 
L 296.311224 239.986829 
L 299.370155 240.529728 
L 303.958551 241.062074 
L 313.135344 241.791503 
L 320.782672 242.163635 
L 326.900534 242.243467 
L 336.077327 242.352401 
L 349.842517 242.850068 
L 369.725568 243.905046 
L 369.725568 243.905046 
" clip-path="url(#p4e9cc2da55)" style="fill: none; stroke: #e377c2; stroke-width: 1.5; stroke-linecap: square"/>
   </g>
   <g id="line2d_19">
    <path d="M 65.361932 243.853873 
L 71.479794 243.81246 
L 94.421776 243.983213 
L 99.010173 243.80181 
L 103.59857 243.399667 
L 106.657501 242.981611 
L 109.716432 242.351616 
L 111.245897 241.900342 
L 112.775363 241.314753 
L 114.304828 240.553228 
L 115.834294 239.563292 
L 117.363759 238.276369 
L 118.893225 236.603241 
L 120.42269 234.433954 
L 121.952156 231.644749 
L 123.481621 228.110983 
L 125.011087 223.721512 
L 126.540552 218.390294 
L 128.070018 212.065294 
L 129.599483 204.738529 
L 131.128949 196.458555 
L 134.18788 177.549006 
L 138.776276 146.037605 
L 143.364673 114.068229 
L 144.894138 103.95877 
L 146.423604 94.59424 
L 147.953069 86.403699 
L 149.482535 79.87037 
L 151.012 75.472539 
L 152.541466 73.616059 
L 154.070931 74.571235 
L 155.600397 78.427747 
L 157.129862 85.077951 
L 158.659328 94.231136 
L 160.188793 105.452754 
L 161.718259 118.217217 
L 169.365586 186.254819 
L 170.895052 197.474122 
L 172.424517 207.119028 
L 173.953983 215.047604 
L 175.483448 221.252302 
L 177.012914 225.85898 
L 178.54238 229.098925 
L 180.071845 231.260594 
L 181.601311 232.636499 
L 183.130776 233.480877 
L 184.660242 233.986963 
L 186.189707 234.283848 
L 189.248638 234.510768 
L 192.307569 234.369025 
L 193.837035 234.143195 
L 195.3665 233.792803 
L 196.895966 233.305414 
L 198.425431 232.677734 
L 201.484362 231.044127 
L 204.543293 229.066317 
L 209.13169 226.03397 
L 212.190621 224.372839 
L 213.720086 223.741587 
L 215.249552 223.275358 
L 216.779017 222.990384 
L 218.308483 222.892852 
L 219.837948 222.976758 
L 221.367414 223.224243 
L 224.426345 224.095346 
L 232.073672 226.802579 
L 233.603138 227.157027 
L 235.132603 227.381286 
L 236.662069 227.457053 
L 238.191534 227.377707 
L 239.721 227.151946 
L 242.779931 226.368661 
L 250.427258 223.83783 
L 255.015655 222.378273 
L 258.074586 221.7186 
L 259.604052 221.571807 
L 261.133517 221.574503 
L 262.662983 221.736292 
L 264.192448 222.059222 
L 265.721914 222.539661 
L 267.251379 223.169997 
L 268.780845 223.940079 
L 271.839776 225.850389 
L 274.898707 228.139382 
L 281.016569 232.903203 
L 284.0755 234.918745 
L 287.134431 236.580617 
L 290.193362 237.909509 
L 293.252293 238.949981 
L 296.311224 239.748755 
L 299.370155 240.347616 
L 303.958551 240.944154 
L 308.546948 241.260261 
L 323.841603 241.856297 
L 340.665724 242.211362 
L 369.725568 243.86604 
L 369.725568 243.86604 
" clip-path="url(#p4e9cc2da55)" style="fill: none; stroke: #7f7f7f; stroke-width: 1.5; stroke-linecap: square"/>
   </g>
   <g id="line2d_20">
    <path d="M 65.361932 243.930347 
L 73.009259 243.91644 
L 94.421776 243.995236 
L 99.010173 243.802317 
L 105.128035 243.288494 
L 109.716432 242.667552 
L 112.775363 241.955773 
L 114.304828 241.412295 
L 115.834294 240.668518 
L 117.363759 239.646918 
L 118.893225 238.250212 
L 120.42269 236.361529 
L 121.952156 233.851843 
L 123.481621 230.595339 
L 125.011087 226.48605 
L 126.540552 221.446155 
L 128.070018 215.422878 
L 129.599483 208.381805 
L 131.128949 200.3078 
L 132.658414 191.215389 
L 134.18788 181.157667 
L 137.246811 158.516978 
L 140.305742 133.333653 
L 144.894138 94.93029 
L 146.423604 83.683611 
L 147.953069 74.114534 
L 149.482535 66.731028 
L 151.012 61.960039 
L 152.541466 60.123332 
L 154.070931 61.418585 
L 155.600397 65.904141 
L 157.129862 73.489063 
L 158.659328 83.927094 
L 160.188793 96.812713 
L 161.718259 111.585857 
L 167.836121 175.248419 
L 169.365586 188.905096 
L 170.895052 200.697214 
L 172.424517 210.43096 
L 173.953983 218.090074 
L 175.483448 223.821902 
L 177.012914 227.900484 
L 178.54238 230.669355 
L 180.071845 232.4779 
L 181.601311 233.629218 
L 183.130776 234.351936 
L 184.660242 234.797785 
L 186.189707 235.057141 
L 189.248638 235.195504 
L 192.307569 234.942617 
L 193.837035 234.66629 
L 195.3665 234.270854 
L 196.895966 233.743229 
L 198.425431 233.081796 
L 201.484362 231.414206 
L 204.543293 229.413623 
L 210.661155 225.09062 
L 212.190621 224.202679 
L 213.720086 223.506518 
L 215.249552 223.040794 
L 216.779017 222.822809 
L 218.308483 222.847344 
L 219.837948 223.088628 
L 221.367414 223.505634 
L 224.426345 224.673035 
L 229.014741 226.608874 
L 232.073672 227.623417 
L 233.603138 227.96963 
L 235.132603 228.191328 
L 236.662069 228.28938 
L 239.721 228.157303 
L 242.779931 227.677641 
L 245.838862 226.943493 
L 256.54512 223.910971 
L 259.604052 223.368666 
L 261.133517 223.247195 
L 262.662983 223.273206 
L 264.192448 223.485776 
L 265.721914 223.915784 
L 267.251379 224.575044 
L 268.780845 225.448868 
L 271.839776 227.656233 
L 276.428172 231.220333 
L 279.487103 233.331243 
L 282.546034 235.174762 
L 285.604965 236.763858 
L 288.663896 238.097896 
L 291.722827 239.180385 
L 294.781758 240.022723 
L 297.840689 240.651357 
L 300.89962 241.096468 
L 305.488017 241.490519 
L 322.312137 242.404851 
L 334.547861 242.448672 
L 340.665724 242.527564 
L 354.430913 243.274597 
L 365.137172 243.78932 
L 369.725568 243.936558 
L 369.725568 243.936558 
" clip-path="url(#p4e9cc2da55)" style="fill: none; stroke: #bcbd22; stroke-width: 1.5; stroke-linecap: square"/>
   </g>
   <g id="line2d_21">
    <path d="M 65.361932 243.985936 
L 77.597656 244.017831 
L 94.421776 244.022366 
L 100.539639 243.82129 
L 106.657501 243.373107 
L 109.716432 242.953644 
L 112.775363 242.203291 
L 114.304828 241.639054 
L 115.834294 240.901121 
L 117.363759 239.936486 
L 118.893225 238.67061 
L 120.42269 237.004512 
L 121.952156 234.821249 
L 123.481621 232.002834 
L 125.011087 228.448647 
L 126.540552 224.081107 
L 128.070018 218.83325 
L 129.599483 212.631418 
L 131.128949 205.395769 
L 132.658414 197.067293 
L 134.18788 187.64228 
L 135.717345 177.182504 
L 138.776276 153.570202 
L 141.835207 127.121378 
L 146.423604 86.657746 
L 147.953069 75.061359 
L 149.482535 65.515159 
L 151.012 58.621034 
L 152.541466 54.851742 
L 154.070931 54.514244 
L 155.600397 57.73028 
L 157.129862 64.428528 
L 158.659328 74.343049 
L 160.188793 87.018859 
L 161.718259 101.83457 
L 169.365586 182.331348 
L 170.895052 195.341959 
L 172.424517 206.354483 
L 173.953983 215.215326 
L 175.483448 221.950039 
L 177.012914 226.765933 
L 178.54238 230.006852 
L 180.071845 232.07289 
L 181.601311 233.338763 
L 183.130776 234.101057 
L 184.660242 234.563796 
L 187.719173 235.033179 
L 190.778104 235.177884 
L 193.837035 234.986128 
L 195.3665 234.69845 
L 196.895966 234.24392 
L 198.425431 233.607459 
L 199.954897 232.79253 
L 203.013828 230.722182 
L 210.661155 224.852865 
L 212.190621 223.944456 
L 213.720086 223.229747 
L 215.249552 222.741377 
L 216.779017 222.503257 
L 218.308483 222.523947 
L 219.837948 222.78808 
L 221.367414 223.253131 
L 224.426345 224.52723 
L 227.485276 225.846052 
L 230.544207 226.914538 
L 233.603138 227.602489 
L 235.132603 227.77912 
L 238.191534 227.805449 
L 241.250465 227.477737 
L 244.309396 226.894362 
L 255.015655 224.468788 
L 258.074586 224.12048 
L 259.604052 224.09446 
L 261.133517 224.199802 
L 262.662983 224.446134 
L 264.192448 224.828983 
L 267.251379 225.962147 
L 270.31031 227.556299 
L 273.369241 229.568757 
L 281.016569 234.978757 
L 284.0755 236.709721 
L 287.134431 238.085153 
L 290.193362 239.214011 
L 293.252293 240.172143 
L 296.311224 240.934694 
L 299.370155 241.473347 
L 303.958551 241.949294 
L 311.605879 242.428583 
L 323.841603 242.858079 
L 340.665724 243.093267 
L 348.313051 243.312526 
L 355.960379 243.532558 
L 366.666637 243.874852 
L 369.725568 243.92839 
L 369.725568 243.92839 
" clip-path="url(#p4e9cc2da55)" style="fill: none; stroke: #17becf; stroke-width: 1.5; stroke-linecap: square"/>
   </g>
   <g id="line2d_22">
    <path d="M 65.361932 243.904399 
L 73.009259 243.827025 
L 97.480708 243.971455 
L 102.069104 243.769556 
L 106.657501 243.389926 
L 109.716432 243.005376 
L 112.775363 242.403346 
L 114.304828 241.9476 
L 115.834294 241.312915 
L 117.363759 240.40585 
L 118.893225 239.097878 
L 120.42269 237.231804 
L 121.952156 234.644082 
L 123.481621 231.199515 
L 125.011087 226.823035 
L 126.540552 221.509359 
L 128.070018 215.302425 
L 129.599483 208.256519 
L 131.128949 200.403859 
L 132.658414 191.74742 
L 134.18788 182.278136 
L 135.717345 172.00006 
L 138.776276 149.201487 
L 146.423604 88.110649 
L 147.953069 78.404389 
L 149.482535 70.770408 
L 151.012 65.650755 
L 152.541466 63.377229 
L 154.070931 64.160898 
L 155.600397 68.076766 
L 157.129862 75.040835 
L 158.659328 84.793666 
L 160.188793 96.908292 
L 161.718259 110.828982 
L 169.365586 185.919897 
L 170.895052 198.150731 
L 172.424517 208.483926 
L 173.953983 216.771054 
L 175.483448 223.059907 
L 177.012914 227.574311 
L 178.54238 230.65014 
L 180.071845 232.653537 
L 181.601311 233.91271 
L 183.130776 234.681924 
L 184.660242 235.137488 
L 186.189707 235.392904 
L 189.248638 235.553743 
L 192.307569 235.405803 
L 193.837035 235.20193 
L 195.3665 234.880377 
L 196.895966 234.419661 
L 198.425431 233.810589 
L 199.954897 233.05876 
L 203.013828 231.197869 
L 207.602224 227.884028 
L 210.661155 225.734029 
L 212.190621 224.804634 
L 213.720086 224.024702 
L 215.249552 223.427343 
L 216.779017 223.038268 
L 218.308483 222.871458 
L 219.837948 222.925111 
L 221.367414 223.181018 
L 222.896879 223.608096 
L 225.95581 224.813355 
L 230.544207 226.741928 
L 232.073672 227.209661 
L 233.603138 227.540272 
L 235.132603 227.734902 
L 236.662069 227.803684 
L 238.191534 227.752833 
L 239.721 227.580252 
L 241.250465 227.281964 
L 244.309396 226.344061 
L 250.427258 224.034984 
L 253.486189 223.222042 
L 256.54512 222.755298 
L 259.604052 222.60397 
L 261.133517 222.673691 
L 262.662983 222.87269 
L 264.192448 223.223668 
L 265.721914 223.739303 
L 267.251379 224.419329 
L 268.780845 225.251125 
L 271.839776 227.272211 
L 281.016569 233.926468 
L 284.0755 235.715164 
L 287.134431 237.177498 
L 290.193362 238.347967 
L 293.252293 239.277712 
L 296.311224 240.006385 
L 299.370155 240.552515 
L 302.429086 240.917247 
L 308.546948 241.30986 
L 316.194275 241.688683 
L 322.312137 241.657513 
L 328.429999 241.666524 
L 342.195189 242.009296 
L 351.371982 242.714775 
L 368.196103 243.826909 
L 369.725568 243.880394 
L 369.725568 243.880394 
" clip-path="url(#p4e9cc2da55)" style="fill: none; stroke: #1f77b4; stroke-width: 1.5; stroke-linecap: square"/>
   </g>
   <g id="line2d_23">
    <path d="M 65.361932 243.960572 
L 74.538725 243.881483 
L 92.892311 244.026011 
L 97.480708 243.888382 
L 102.069104 243.499642 
L 108.186966 242.692426 
L 111.245897 242.087201 
L 112.775363 241.652189 
L 114.304828 241.077078 
L 115.834294 240.307741 
L 117.363759 239.270704 
L 118.893225 237.867826 
L 120.42269 235.976945 
L 121.952156 233.463845 
L 123.481621 230.205016 
L 125.011087 226.110692 
L 126.540552 221.133409 
L 128.070018 215.256401 
L 129.599483 208.472916 
L 131.128949 200.775211 
L 132.658414 192.160448 
L 134.18788 182.641724 
L 135.717345 172.248801 
L 138.776276 149.016423 
L 146.423604 85.902697 
L 147.953069 76.1065 
L 149.482535 68.585047 
L 151.012 63.738025 
L 152.541466 61.821879 
L 154.070931 62.961894 
L 155.600397 67.163776 
L 157.129862 74.312139 
L 158.659328 84.15893 
L 160.188793 96.317502 
L 161.718259 110.278417 
L 164.77719 141.204094 
L 167.836121 172.002191 
L 169.365586 185.899606 
L 170.895052 198.147226 
L 172.424517 208.419787 
L 173.953983 216.583768 
L 175.483448 222.715546 
L 177.012914 227.071121 
L 178.54238 230.015195 
L 180.071845 231.934738 
L 181.601311 233.166539 
L 183.130776 233.959139 
L 184.660242 234.472036 
L 186.189707 234.798795 
L 189.248638 235.092472 
L 192.307569 235.049859 
L 193.837035 234.893288 
L 195.3665 234.613873 
L 196.895966 234.183203 
L 198.425431 233.581604 
L 199.954897 232.804955 
L 203.013828 230.801186 
L 209.13169 226.251903 
L 210.661155 225.28572 
L 212.190621 224.461836 
L 213.720086 223.814074 
L 215.249552 223.375408 
L 216.779017 223.167665 
L 218.308483 223.191052 
L 219.837948 223.422274 
L 221.367414 223.822395 
L 224.426345 224.954667 
L 229.014741 226.826087 
L 230.544207 227.319316 
L 232.073672 227.69513 
L 233.603138 227.948137 
L 236.662069 228.129217 
L 239.721 227.951526 
L 242.779931 227.430215 
L 245.838862 226.588689 
L 255.015655 223.609864 
L 258.074586 223.053897 
L 259.604052 222.913106 
L 261.133517 222.893396 
L 262.662983 223.027796 
L 264.192448 223.345779 
L 265.721914 223.862064 
L 267.251379 224.57157 
L 268.780845 225.451737 
L 271.839776 227.584541 
L 279.487103 233.337014 
L 282.546034 235.267181 
L 285.604965 236.901696 
L 288.663896 238.246246 
L 291.722827 239.295101 
L 294.781758 240.050386 
L 297.840689 240.567818 
L 302.429086 241.077902 
L 311.605879 241.827316 
L 317.723741 242.123703 
L 333.018396 242.466688 
L 340.665724 242.487824 
L 348.313051 242.874945 
L 369.725568 243.931061 
L 369.725568 243.931061 
" clip-path="url(#p4e9cc2da55)" style="fill: none; stroke: #ff7f0e; stroke-width: 1.5; stroke-linecap: square"/>
   </g>
   <g id="patch_3">
    <path d="M 50.14375 244.078125 
L 50.14375 22.318125 
" style="fill: none; stroke: #000000; stroke-width: 0.8; stroke-linejoin: miter; stroke-linecap: square"/>
   </g>
   <g id="patch_4">
    <path d="M 384.94375 244.078125 
L 384.94375 22.318125 
" style="fill: none; stroke: #000000; stroke-width: 0.8; stroke-linejoin: miter; stroke-linecap: square"/>
   </g>
   <g id="patch_5">
    <path d="M 50.14375 244.078125 
L 384.94375 244.078125 
" style="fill: none; stroke: #000000; stroke-width: 0.8; stroke-linejoin: miter; stroke-linecap: square"/>
   </g>
   <g id="patch_6">
    <path d="M 50.14375 22.318125 
L 384.94375 22.318125 
" style="fill: none; stroke: #000000; stroke-width: 0.8; stroke-linejoin: miter; stroke-linecap: square"/>
   </g>
   <g id="text_14">
    <!-- (a) KDEs of EV arrival time -->
    <g transform="translate(137.877813 16.318125) scale(0.12 -0.12)">
     <defs>
      <path id="DejaVuSans-28" d="M 1984 4856 
Q 1566 4138 1362 3434 
Q 1159 2731 1159 2009 
Q 1159 1288 1364 580 
Q 1569 -128 1984 -844 
L 1484 -844 
Q 1016 -109 783 600 
Q 550 1309 550 2009 
Q 550 2706 781 3412 
Q 1013 4119 1484 4856 
L 1984 4856 
z
" transform="scale(0.015625)"/>
      <path id="DejaVuSans-61" d="M 2194 1759 
Q 1497 1759 1228 1600 
Q 959 1441 959 1056 
Q 959 750 1161 570 
Q 1363 391 1709 391 
Q 2188 391 2477 730 
Q 2766 1069 2766 1631 
L 2766 1759 
L 2194 1759 
z
M 3341 1997 
L 3341 0 
L 2766 0 
L 2766 531 
Q 2569 213 2275 61 
Q 1981 -91 1556 -91 
Q 1019 -91 701 211 
Q 384 513 384 1019 
Q 384 1609 779 1909 
Q 1175 2209 1959 2209 
L 2766 2209 
L 2766 2266 
Q 2766 2663 2505 2880 
Q 2244 3097 1772 3097 
Q 1472 3097 1187 3025 
Q 903 2953 641 2809 
L 641 3341 
Q 956 3463 1253 3523 
Q 1550 3584 1831 3584 
Q 2591 3584 2966 3190 
Q 3341 2797 3341 1997 
z
" transform="scale(0.015625)"/>
      <path id="DejaVuSans-29" d="M 513 4856 
L 1013 4856 
Q 1481 4119 1714 3412 
Q 1947 2706 1947 2009 
Q 1947 1309 1714 600 
Q 1481 -109 1013 -844 
L 513 -844 
Q 928 -128 1133 580 
Q 1338 1288 1338 2009 
Q 1338 2731 1133 3434 
Q 928 4138 513 4856 
z
" transform="scale(0.015625)"/>
      <path id="DejaVuSans-20" transform="scale(0.015625)"/>
      <path id="DejaVuSans-4b" d="M 628 4666 
L 1259 4666 
L 1259 2694 
L 3353 4666 
L 4166 4666 
L 1850 2491 
L 4331 0 
L 3500 0 
L 1259 2247 
L 1259 0 
L 628 0 
L 628 4666 
z
" transform="scale(0.015625)"/>
      <path id="DejaVuSans-45" d="M 628 4666 
L 3578 4666 
L 3578 4134 
L 1259 4134 
L 1259 2753 
L 3481 2753 
L 3481 2222 
L 1259 2222 
L 1259 531 
L 3634 531 
L 3634 0 
L 628 0 
L 628 4666 
z
" transform="scale(0.015625)"/>
      <path id="DejaVuSans-66" d="M 2375 4863 
L 2375 4384 
L 1825 4384 
Q 1516 4384 1395 4259 
Q 1275 4134 1275 3809 
L 1275 3500 
L 2222 3500 
L 2222 3053 
L 1275 3053 
L 1275 0 
L 697 0 
L 697 3053 
L 147 3053 
L 147 3500 
L 697 3500 
L 697 3744 
Q 697 4328 969 4595 
Q 1241 4863 1831 4863 
L 2375 4863 
z
" transform="scale(0.015625)"/>
      <path id="DejaVuSans-56" d="M 1831 0 
L 50 4666 
L 709 4666 
L 2188 738 
L 3669 4666 
L 4325 4666 
L 2547 0 
L 1831 0 
z
" transform="scale(0.015625)"/>
      <path id="DejaVuSans-72" d="M 2631 2963 
Q 2534 3019 2420 3045 
Q 2306 3072 2169 3072 
Q 1681 3072 1420 2755 
Q 1159 2438 1159 1844 
L 1159 0 
L 581 0 
L 581 3500 
L 1159 3500 
L 1159 2956 
Q 1341 3275 1631 3429 
Q 1922 3584 2338 3584 
Q 2397 3584 2469 3576 
Q 2541 3569 2628 3553 
L 2631 2963 
z
" transform="scale(0.015625)"/>
      <path id="DejaVuSans-76" d="M 191 3500 
L 800 3500 
L 1894 563 
L 2988 3500 
L 3597 3500 
L 2284 0 
L 1503 0 
L 191 3500 
z
" transform="scale(0.015625)"/>
     </defs>
     <use xlink:href="#DejaVuSans-28"/>
     <use xlink:href="#DejaVuSans-61" x="39.013672"/>
     <use xlink:href="#DejaVuSans-29" x="100.292969"/>
     <use xlink:href="#DejaVuSans-20" x="139.306641"/>
     <use xlink:href="#DejaVuSans-4b" x="171.09375"/>
     <use xlink:href="#DejaVuSans-44" x="236.669922"/>
     <use xlink:href="#DejaVuSans-45" x="313.671875"/>
     <use xlink:href="#DejaVuSans-73" x="376.855469"/>
     <use xlink:href="#DejaVuSans-20" x="428.955078"/>
     <use xlink:href="#DejaVuSans-6f" x="460.742188"/>
     <use xlink:href="#DejaVuSans-66" x="521.923828"/>
     <use xlink:href="#DejaVuSans-20" x="557.128906"/>
     <use xlink:href="#DejaVuSans-45" x="588.916016"/>
     <use xlink:href="#DejaVuSans-56" x="652.099609"/>
     <use xlink:href="#DejaVuSans-20" x="720.507812"/>
     <use xlink:href="#DejaVuSans-61" x="752.294922"/>
     <use xlink:href="#DejaVuSans-72" x="813.574219"/>
     <use xlink:href="#DejaVuSans-72" x="852.9375"/>
     <use xlink:href="#DejaVuSans-69" x="894.050781"/>
     <use xlink:href="#DejaVuSans-76" x="921.833984"/>
     <use xlink:href="#DejaVuSans-61" x="981.013672"/>
     <use xlink:href="#DejaVuSans-6c" x="1042.292969"/>
     <use xlink:href="#DejaVuSans-20" x="1070.076172"/>
     <use xlink:href="#DejaVuSans-74" x="1101.863281"/>
     <use xlink:href="#DejaVuSans-69" x="1141.072266"/>
     <use xlink:href="#DejaVuSans-6d" x="1168.855469"/>
     <use xlink:href="#DejaVuSans-65" x="1266.267578"/>
    </g>
   </g>
  </g>
 </g>
 <defs>
  <clipPath id="p4e9cc2da55">
   <rect x="50.14375" y="22.318125" width="334.8" height="221.76"/>
  </clipPath>
 </defs>
</svg>
