<?xml version="1.0" encoding="utf-8" standalone="no"?>
<!DOCTYPE svg PUBLIC "-//W3C//DTD SVG 1.1//EN"
  "http://www.w3.org/Graphics/SVG/1.1/DTD/svg11.dtd">
<svg xmlns:xlink="http://www.w3.org/1999/xlink" width="392.14375pt" height="281.634375pt" viewBox="0 0 392.14375 281.634375" xmlns="http://www.w3.org/2000/svg" version="1.1">
 <metadata>
  <rdf:RDF xmlns:dc="http://purl.org/dc/elements/1.1/" xmlns:cc="http://creativecommons.org/ns#" xmlns:rdf="http://www.w3.org/1999/02/22-rdf-syntax-ns#">
   <cc:Work>
    <dc:type rdf:resource="http://purl.org/dc/dcmitype/StillImage"/>
    <dc:date>2024-05-27T20:13:53.627786</dc:date>
    <dc:format>image/svg+xml</dc:format>
    <dc:creator>
     <cc:Agent>
      <dc:title>Matplotlib v3.7.1, https://matplotlib.org/</dc:title>
     </cc:Agent>
    </dc:creator>
   </cc:Work>
  </rdf:RDF>
 </metadata>
 <defs>
  <style type="text/css">*{stroke-linejoin: round; stroke-linecap: butt}</style>
 </defs>
 <g id="figure_1">
  <g id="patch_1">
   <path d="M 0 281.634375 
L 392.14375 281.634375 
L 392.14375 0 
L 0 0 
z
" style="fill: #ffffff"/>
  </g>
  <g id="axes_1">
   <g id="patch_2">
    <path d="M 50.14375 244.078125 
L 384.94375 244.078125 
L 384.94375 22.318125 
L 50.14375 22.318125 
z
" style="fill: #ffffff"/>
   </g>
   <g id="matplotlib.axis_1">
    <g id="xtick_1">
     <g id="line2d_1">
      <defs>
       <path id="mc4ede6d67c" d="M 0 0 
L 0 3.5 
" style="stroke: #000000; stroke-width: 0.8"/>
      </defs>
      <g>
       <use xlink:href="#mc4ede6d67c" x="65.361932" y="244.078125" style="stroke: #000000; stroke-width: 0.8"/>
      </g>
     </g>
     <g id="text_1">
      <!-- 0 -->
      <g transform="translate(62.180682 258.676562) scale(0.1 -0.1)">
       <defs>
        <path id="DejaVuSans-30" d="M 2034 4250 
Q 1547 4250 1301 3770 
Q 1056 3291 1056 2328 
Q 1056 1369 1301 889 
Q 1547 409 2034 409 
Q 2525 409 2770 889 
Q 3016 1369 3016 2328 
Q 3016 3291 2770 3770 
Q 2525 4250 2034 4250 
z
M 2034 4750 
Q 2819 4750 3233 4129 
Q 3647 3509 3647 2328 
Q 3647 1150 3233 529 
Q 2819 -91 2034 -91 
Q 1250 -91 836 529 
Q 422 1150 422 2328 
Q 422 3509 836 4129 
Q 1250 4750 2034 4750 
z
" transform="scale(0.015625)"/>
       </defs>
       <use xlink:href="#DejaVuSans-30"/>
      </g>
     </g>
    </g>
    <g id="xtick_2">
     <g id="line2d_2">
      <g>
       <use xlink:href="#mc4ede6d67c" x="116.089205" y="244.078125" style="stroke: #000000; stroke-width: 0.8"/>
      </g>
     </g>
     <g id="text_2">
      <!-- 20 -->
      <g transform="translate(109.726705 258.676562) scale(0.1 -0.1)">
       <defs>
        <path id="DejaVuSans-32" d="M 1228 531 
L 3431 531 
L 3431 0 
L 469 0 
L 469 531 
Q 828 903 1448 1529 
Q 2069 2156 2228 2338 
Q 2531 2678 2651 2914 
Q 2772 3150 2772 3378 
Q 2772 3750 2511 3984 
Q 2250 4219 1831 4219 
Q 1534 4219 1204 4116 
Q 875 4013 500 3803 
L 500 4441 
Q 881 4594 1212 4672 
Q 1544 4750 1819 4750 
Q 2544 4750 2975 4387 
Q 3406 4025 3406 3419 
Q 3406 3131 3298 2873 
Q 3191 2616 2906 2266 
Q 2828 2175 2409 1742 
Q 1991 1309 1228 531 
z
" transform="scale(0.015625)"/>
       </defs>
       <use xlink:href="#DejaVuSans-32"/>
       <use xlink:href="#DejaVuSans-30" x="63.623047"/>
      </g>
     </g>
    </g>
    <g id="xtick_3">
     <g id="line2d_3">
      <g>
       <use xlink:href="#mc4ede6d67c" x="166.816477" y="244.078125" style="stroke: #000000; stroke-width: 0.8"/>
      </g>
     </g>
     <g id="text_3">
      <!-- 40 -->
      <g transform="translate(160.453977 258.676562) scale(0.1 -0.1)">
       <defs>
        <path id="DejaVuSans-34" d="M 2419 4116 
L 825 1625 
L 2419 1625 
L 2419 4116 
z
M 2253 4666 
L 3047 4666 
L 3047 1625 
L 3713 1625 
L 3713 1100 
L 3047 1100 
L 3047 0 
L 2419 0 
L 2419 1100 
L 313 1100 
L 313 1709 
L 2253 4666 
z
" transform="scale(0.015625)"/>
       </defs>
       <use xlink:href="#DejaVuSans-34"/>
       <use xlink:href="#DejaVuSans-30" x="63.623047"/>
      </g>
     </g>
    </g>
    <g id="xtick_4">
     <g id="line2d_4">
      <g>
       <use xlink:href="#mc4ede6d67c" x="217.54375" y="244.078125" style="stroke: #000000; stroke-width: 0.8"/>
      </g>
     </g>
     <g id="text_4">
      <!-- 60 -->
      <g transform="translate(211.18125 258.676562) scale(0.1 -0.1)">
       <defs>
        <path id="DejaVuSans-36" d="M 2113 2584 
Q 1688 2584 1439 2293 
Q 1191 2003 1191 1497 
Q 1191 994 1439 701 
Q 1688 409 2113 409 
Q 2538 409 2786 701 
Q 3034 994 3034 1497 
Q 3034 2003 2786 2293 
Q 2538 2584 2113 2584 
z
M 3366 4563 
L 3366 3988 
Q 3128 4100 2886 4159 
Q 2644 4219 2406 4219 
Q 1781 4219 1451 3797 
Q 1122 3375 1075 2522 
Q 1259 2794 1537 2939 
Q 1816 3084 2150 3084 
Q 2853 3084 3261 2657 
Q 3669 2231 3669 1497 
Q 3669 778 3244 343 
Q 2819 -91 2113 -91 
Q 1303 -91 875 529 
Q 447 1150 447 2328 
Q 447 3434 972 4092 
Q 1497 4750 2381 4750 
Q 2619 4750 2861 4703 
Q 3103 4656 3366 4563 
z
" transform="scale(0.015625)"/>
       </defs>
       <use xlink:href="#DejaVuSans-36"/>
       <use xlink:href="#DejaVuSans-30" x="63.623047"/>
      </g>
     </g>
    </g>
    <g id="xtick_5">
     <g id="line2d_5">
      <g>
       <use xlink:href="#mc4ede6d67c" x="268.271023" y="244.078125" style="stroke: #000000; stroke-width: 0.8"/>
      </g>
     </g>
     <g id="text_5">
      <!-- 80 -->
      <g transform="translate(261.908523 258.676562) scale(0.1 -0.1)">
       <defs>
        <path id="DejaVuSans-38" d="M 2034 2216 
Q 1584 2216 1326 1975 
Q 1069 1734 1069 1313 
Q 1069 891 1326 650 
Q 1584 409 2034 409 
Q 2484 409 2743 651 
Q 3003 894 3003 1313 
Q 3003 1734 2745 1975 
Q 2488 2216 2034 2216 
z
M 1403 2484 
Q 997 2584 770 2862 
Q 544 3141 544 3541 
Q 544 4100 942 4425 
Q 1341 4750 2034 4750 
Q 2731 4750 3128 4425 
Q 3525 4100 3525 3541 
Q 3525 3141 3298 2862 
Q 3072 2584 2669 2484 
Q 3125 2378 3379 2068 
Q 3634 1759 3634 1313 
Q 3634 634 3220 271 
Q 2806 -91 2034 -91 
Q 1263 -91 848 271 
Q 434 634 434 1313 
Q 434 1759 690 2068 
Q 947 2378 1403 2484 
z
M 1172 3481 
Q 1172 3119 1398 2916 
Q 1625 2713 2034 2713 
Q 2441 2713 2670 2916 
Q 2900 3119 2900 3481 
Q 2900 3844 2670 4047 
Q 2441 4250 2034 4250 
Q 1625 4250 1398 4047 
Q 1172 3844 1172 3481 
z
" transform="scale(0.015625)"/>
       </defs>
       <use xlink:href="#DejaVuSans-38"/>
       <use xlink:href="#DejaVuSans-30" x="63.623047"/>
      </g>
     </g>
    </g>
    <g id="xtick_6">
     <g id="line2d_6">
      <g>
       <use xlink:href="#mc4ede6d67c" x="318.998295" y="244.078125" style="stroke: #000000; stroke-width: 0.8"/>
      </g>
     </g>
     <g id="text_6">
      <!-- 100 -->
      <g transform="translate(309.454545 258.676562) scale(0.1 -0.1)">
       <defs>
        <path id="DejaVuSans-31" d="M 794 531 
L 1825 531 
L 1825 4091 
L 703 3866 
L 703 4441 
L 1819 4666 
L 2450 4666 
L 2450 531 
L 3481 531 
L 3481 0 
L 794 0 
L 794 531 
z
" transform="scale(0.015625)"/>
       </defs>
       <use xlink:href="#DejaVuSans-31"/>
       <use xlink:href="#DejaVuSans-30" x="63.623047"/>
       <use xlink:href="#DejaVuSans-30" x="127.246094"/>
      </g>
     </g>
    </g>
    <g id="xtick_7">
     <g id="line2d_7">
      <g>
       <use xlink:href="#mc4ede6d67c" x="369.725568" y="244.078125" style="stroke: #000000; stroke-width: 0.8"/>
      </g>
     </g>
     <g id="text_7">
      <!-- 120 -->
      <g transform="translate(360.181818 258.676562) scale(0.1 -0.1)">
       <use xlink:href="#DejaVuSans-31"/>
       <use xlink:href="#DejaVuSans-32" x="63.623047"/>
       <use xlink:href="#DejaVuSans-30" x="127.246094"/>
      </g>
     </g>
    </g>
    <g id="text_8">
     <!-- Timeslots -->
     <g transform="translate(193.692188 272.354687) scale(0.1 -0.1)">
      <defs>
       <path id="DejaVuSans-54" d="M -19 4666 
L 3928 4666 
L 3928 4134 
L 2272 4134 
L 2272 0 
L 1638 0 
L 1638 4134 
L -19 4134 
L -19 4666 
z
" transform="scale(0.015625)"/>
       <path id="DejaVuSans-69" d="M 603 3500 
L 1178 3500 
L 1178 0 
L 603 0 
L 603 3500 
z
M 603 4863 
L 1178 4863 
L 1178 4134 
L 603 4134 
L 603 4863 
z
" transform="scale(0.015625)"/>
       <path id="DejaVuSans-6d" d="M 3328 2828 
Q 3544 3216 3844 3400 
Q 4144 3584 4550 3584 
Q 5097 3584 5394 3201 
Q 5691 2819 5691 2113 
L 5691 0 
L 5113 0 
L 5113 2094 
Q 5113 2597 4934 2840 
Q 4756 3084 4391 3084 
Q 3944 3084 3684 2787 
Q 3425 2491 3425 1978 
L 3425 0 
L 2847 0 
L 2847 2094 
Q 2847 2600 2669 2842 
Q 2491 3084 2119 3084 
Q 1678 3084 1418 2786 
Q 1159 2488 1159 1978 
L 1159 0 
L 581 0 
L 581 3500 
L 1159 3500 
L 1159 2956 
Q 1356 3278 1631 3431 
Q 1906 3584 2284 3584 
Q 2666 3584 2933 3390 
Q 3200 3197 3328 2828 
z
" transform="scale(0.015625)"/>
       <path id="DejaVuSans-65" d="M 3597 1894 
L 3597 1613 
L 953 1613 
Q 991 1019 1311 708 
Q 1631 397 2203 397 
Q 2534 397 2845 478 
Q 3156 559 3463 722 
L 3463 178 
Q 3153 47 2828 -22 
Q 2503 -91 2169 -91 
Q 1331 -91 842 396 
Q 353 884 353 1716 
Q 353 2575 817 3079 
Q 1281 3584 2069 3584 
Q 2775 3584 3186 3129 
Q 3597 2675 3597 1894 
z
M 3022 2063 
Q 3016 2534 2758 2815 
Q 2500 3097 2075 3097 
Q 1594 3097 1305 2825 
Q 1016 2553 972 2059 
L 3022 2063 
z
" transform="scale(0.015625)"/>
       <path id="DejaVuSans-73" d="M 2834 3397 
L 2834 2853 
Q 2591 2978 2328 3040 
Q 2066 3103 1784 3103 
Q 1356 3103 1142 2972 
Q 928 2841 928 2578 
Q 928 2378 1081 2264 
Q 1234 2150 1697 2047 
L 1894 2003 
Q 2506 1872 2764 1633 
Q 3022 1394 3022 966 
Q 3022 478 2636 193 
Q 2250 -91 1575 -91 
Q 1294 -91 989 -36 
Q 684 19 347 128 
L 347 722 
Q 666 556 975 473 
Q 1284 391 1588 391 
Q 1994 391 2212 530 
Q 2431 669 2431 922 
Q 2431 1156 2273 1281 
Q 2116 1406 1581 1522 
L 1381 1569 
Q 847 1681 609 1914 
Q 372 2147 372 2553 
Q 372 3047 722 3315 
Q 1072 3584 1716 3584 
Q 2034 3584 2315 3537 
Q 2597 3491 2834 3397 
z
" transform="scale(0.015625)"/>
       <path id="DejaVuSans-6c" d="M 603 4863 
L 1178 4863 
L 1178 0 
L 603 0 
L 603 4863 
z
" transform="scale(0.015625)"/>
       <path id="DejaVuSans-6f" d="M 1959 3097 
Q 1497 3097 1228 2736 
Q 959 2375 959 1747 
Q 959 1119 1226 758 
Q 1494 397 1959 397 
Q 2419 397 2687 759 
Q 2956 1122 2956 1747 
Q 2956 2369 2687 2733 
Q 2419 3097 1959 3097 
z
M 1959 3584 
Q 2709 3584 3137 3096 
Q 3566 2609 3566 1747 
Q 3566 888 3137 398 
Q 2709 -91 1959 -91 
Q 1206 -91 779 398 
Q 353 888 353 1747 
Q 353 2609 779 3096 
Q 1206 3584 1959 3584 
z
" transform="scale(0.015625)"/>
       <path id="DejaVuSans-74" d="M 1172 4494 
L 1172 3500 
L 2356 3500 
L 2356 3053 
L 1172 3053 
L 1172 1153 
Q 1172 725 1289 603 
Q 1406 481 1766 481 
L 2356 481 
L 2356 0 
L 1766 0 
Q 1100 0 847 248 
Q 594 497 594 1153 
L 594 3053 
L 172 3053 
L 172 3500 
L 594 3500 
L 594 4494 
L 1172 4494 
z
" transform="scale(0.015625)"/>
      </defs>
      <use xlink:href="#DejaVuSans-54"/>
      <use xlink:href="#DejaVuSans-69" x="57.958984"/>
      <use xlink:href="#DejaVuSans-6d" x="85.742188"/>
      <use xlink:href="#DejaVuSans-65" x="183.154297"/>
      <use xlink:href="#DejaVuSans-73" x="244.677734"/>
      <use xlink:href="#DejaVuSans-6c" x="296.777344"/>
      <use xlink:href="#DejaVuSans-6f" x="324.560547"/>
      <use xlink:href="#DejaVuSans-74" x="385.742188"/>
      <use xlink:href="#DejaVuSans-73" x="424.951172"/>
     </g>
    </g>
   </g>
   <g id="matplotlib.axis_2">
    <g id="ytick_1">
     <g id="line2d_8">
      <defs>
       <path id="md261682180" d="M 0 0 
L -3.5 0 
" style="stroke: #000000; stroke-width: 0.8"/>
      </defs>
      <g>
       <use xlink:href="#md261682180" x="50.14375" y="244.078125" style="stroke: #000000; stroke-width: 0.8"/>
      </g>
     </g>
     <g id="text_9">
      <!-- 0.00 -->
      <g transform="translate(20.878125 247.877344) scale(0.1 -0.1)">
       <defs>
        <path id="DejaVuSans-2e" d="M 684 794 
L 1344 794 
L 1344 0 
L 684 0 
L 684 794 
z
" transform="scale(0.015625)"/>
       </defs>
       <use xlink:href="#DejaVuSans-30"/>
       <use xlink:href="#DejaVuSans-2e" x="63.623047"/>
       <use xlink:href="#DejaVuSans-30" x="95.410156"/>
       <use xlink:href="#DejaVuSans-30" x="159.033203"/>
      </g>
     </g>
    </g>
    <g id="ytick_2">
     <g id="line2d_9">
      <g>
       <use xlink:href="#md261682180" x="50.14375" y="213.546027" style="stroke: #000000; stroke-width: 0.8"/>
      </g>
     </g>
     <g id="text_10">
      <!-- 0.01 -->
      <g transform="translate(20.878125 217.345246) scale(0.1 -0.1)">
       <use xlink:href="#DejaVuSans-30"/>
       <use xlink:href="#DejaVuSans-2e" x="63.623047"/>
       <use xlink:href="#DejaVuSans-30" x="95.410156"/>
       <use xlink:href="#DejaVuSans-31" x="159.033203"/>
      </g>
     </g>
    </g>
    <g id="ytick_3">
     <g id="line2d_10">
      <g>
       <use xlink:href="#md261682180" x="50.14375" y="183.01393" style="stroke: #000000; stroke-width: 0.8"/>
      </g>
     </g>
     <g id="text_11">
      <!-- 0.02 -->
      <g transform="translate(20.878125 186.813149) scale(0.1 -0.1)">
       <use xlink:href="#DejaVuSans-30"/>
       <use xlink:href="#DejaVuSans-2e" x="63.623047"/>
       <use xlink:href="#DejaVuSans-30" x="95.410156"/>
       <use xlink:href="#DejaVuSans-32" x="159.033203"/>
      </g>
     </g>
    </g>
    <g id="ytick_4">
     <g id="line2d_11">
      <g>
       <use xlink:href="#md261682180" x="50.14375" y="152.481832" style="stroke: #000000; stroke-width: 0.8"/>
      </g>
     </g>
     <g id="text_12">
      <!-- 0.03 -->
      <g transform="translate(20.878125 156.281051) scale(0.1 -0.1)">
       <defs>
        <path id="DejaVuSans-33" d="M 2597 2516 
Q 3050 2419 3304 2112 
Q 3559 1806 3559 1356 
Q 3559 666 3084 287 
Q 2609 -91 1734 -91 
Q 1441 -91 1130 -33 
Q 819 25 488 141 
L 488 750 
Q 750 597 1062 519 
Q 1375 441 1716 441 
Q 2309 441 2620 675 
Q 2931 909 2931 1356 
Q 2931 1769 2642 2001 
Q 2353 2234 1838 2234 
L 1294 2234 
L 1294 2753 
L 1863 2753 
Q 2328 2753 2575 2939 
Q 2822 3125 2822 3475 
Q 2822 3834 2567 4026 
Q 2313 4219 1838 4219 
Q 1578 4219 1281 4162 
Q 984 4106 628 3988 
L 628 4550 
Q 988 4650 1302 4700 
Q 1616 4750 1894 4750 
Q 2613 4750 3031 4423 
Q 3450 4097 3450 3541 
Q 3450 3153 3228 2886 
Q 3006 2619 2597 2516 
z
" transform="scale(0.015625)"/>
       </defs>
       <use xlink:href="#DejaVuSans-30"/>
       <use xlink:href="#DejaVuSans-2e" x="63.623047"/>
       <use xlink:href="#DejaVuSans-30" x="95.410156"/>
       <use xlink:href="#DejaVuSans-33" x="159.033203"/>
      </g>
     </g>
    </g>
    <g id="ytick_5">
     <g id="line2d_12">
      <g>
       <use xlink:href="#md261682180" x="50.14375" y="121.949735" style="stroke: #000000; stroke-width: 0.8"/>
      </g>
     </g>
     <g id="text_13">
      <!-- 0.04 -->
      <g transform="translate(20.878125 125.748953) scale(0.1 -0.1)">
       <use xlink:href="#DejaVuSans-30"/>
       <use xlink:href="#DejaVuSans-2e" x="63.623047"/>
       <use xlink:href="#DejaVuSans-30" x="95.410156"/>
       <use xlink:href="#DejaVuSans-34" x="159.033203"/>
      </g>
     </g>
    </g>
    <g id="ytick_6">
     <g id="line2d_13">
      <g>
       <use xlink:href="#md261682180" x="50.14375" y="91.417637" style="stroke: #000000; stroke-width: 0.8"/>
      </g>
     </g>
     <g id="text_14">
      <!-- 0.05 -->
      <g transform="translate(20.878125 95.216856) scale(0.1 -0.1)">
       <defs>
        <path id="DejaVuSans-35" d="M 691 4666 
L 3169 4666 
L 3169 4134 
L 1269 4134 
L 1269 2991 
Q 1406 3038 1543 3061 
Q 1681 3084 1819 3084 
Q 2600 3084 3056 2656 
Q 3513 2228 3513 1497 
Q 3513 744 3044 326 
Q 2575 -91 1722 -91 
Q 1428 -91 1123 -41 
Q 819 9 494 109 
L 494 744 
Q 775 591 1075 516 
Q 1375 441 1709 441 
Q 2250 441 2565 725 
Q 2881 1009 2881 1497 
Q 2881 1984 2565 2268 
Q 2250 2553 1709 2553 
Q 1456 2553 1204 2497 
Q 953 2441 691 2322 
L 691 4666 
z
" transform="scale(0.015625)"/>
       </defs>
       <use xlink:href="#DejaVuSans-30"/>
       <use xlink:href="#DejaVuSans-2e" x="63.623047"/>
       <use xlink:href="#DejaVuSans-30" x="95.410156"/>
       <use xlink:href="#DejaVuSans-35" x="159.033203"/>
      </g>
     </g>
    </g>
    <g id="ytick_7">
     <g id="line2d_14">
      <g>
       <use xlink:href="#md261682180" x="50.14375" y="60.885539" style="stroke: #000000; stroke-width: 0.8"/>
      </g>
     </g>
     <g id="text_15">
      <!-- 0.06 -->
      <g transform="translate(20.878125 64.684758) scale(0.1 -0.1)">
       <use xlink:href="#DejaVuSans-30"/>
       <use xlink:href="#DejaVuSans-2e" x="63.623047"/>
       <use xlink:href="#DejaVuSans-30" x="95.410156"/>
       <use xlink:href="#DejaVuSans-36" x="159.033203"/>
      </g>
     </g>
    </g>
    <g id="ytick_8">
     <g id="line2d_15">
      <g>
       <use xlink:href="#md261682180" x="50.14375" y="30.353442" style="stroke: #000000; stroke-width: 0.8"/>
      </g>
     </g>
     <g id="text_16">
      <!-- 0.07 -->
      <g transform="translate(20.878125 34.152661) scale(0.1 -0.1)">
       <defs>
        <path id="DejaVuSans-37" d="M 525 4666 
L 3525 4666 
L 3525 4397 
L 1831 0 
L 1172 0 
L 2766 4134 
L 525 4134 
L 525 4666 
z
" transform="scale(0.015625)"/>
       </defs>
       <use xlink:href="#DejaVuSans-30"/>
       <use xlink:href="#DejaVuSans-2e" x="63.623047"/>
       <use xlink:href="#DejaVuSans-30" x="95.410156"/>
       <use xlink:href="#DejaVuSans-37" x="159.033203"/>
      </g>
     </g>
    </g>
    <g id="text_17">
     <!-- Density -->
     <g transform="translate(14.798438 152.206719) rotate(-90) scale(0.1 -0.1)">
      <defs>
       <path id="DejaVuSans-44" d="M 1259 4147 
L 1259 519 
L 2022 519 
Q 2988 519 3436 956 
Q 3884 1394 3884 2338 
Q 3884 3275 3436 3711 
Q 2988 4147 2022 4147 
L 1259 4147 
z
M 628 4666 
L 1925 4666 
Q 3281 4666 3915 4102 
Q 4550 3538 4550 2338 
Q 4550 1131 3912 565 
Q 3275 0 1925 0 
L 628 0 
L 628 4666 
z
" transform="scale(0.015625)"/>
       <path id="DejaVuSans-6e" d="M 3513 2113 
L 3513 0 
L 2938 0 
L 2938 2094 
Q 2938 2591 2744 2837 
Q 2550 3084 2163 3084 
Q 1697 3084 1428 2787 
Q 1159 2491 1159 1978 
L 1159 0 
L 581 0 
L 581 3500 
L 1159 3500 
L 1159 2956 
Q 1366 3272 1645 3428 
Q 1925 3584 2291 3584 
Q 2894 3584 3203 3211 
Q 3513 2838 3513 2113 
z
" transform="scale(0.015625)"/>
       <path id="DejaVuSans-79" d="M 2059 -325 
Q 1816 -950 1584 -1140 
Q 1353 -1331 966 -1331 
L 506 -1331 
L 506 -850 
L 844 -850 
Q 1081 -850 1212 -737 
Q 1344 -625 1503 -206 
L 1606 56 
L 191 3500 
L 800 3500 
L 1894 763 
L 2988 3500 
L 3597 3500 
L 2059 -325 
z
" transform="scale(0.015625)"/>
      </defs>
      <use xlink:href="#DejaVuSans-44"/>
      <use xlink:href="#DejaVuSans-65" x="77.001953"/>
      <use xlink:href="#DejaVuSans-6e" x="138.525391"/>
      <use xlink:href="#DejaVuSans-73" x="201.904297"/>
      <use xlink:href="#DejaVuSans-69" x="254.003906"/>
      <use xlink:href="#DejaVuSans-74" x="281.787109"/>
      <use xlink:href="#DejaVuSans-79" x="320.996094"/>
     </g>
    </g>
   </g>
   <g id="line2d_16">
    <path d="M 132.543804 244.071755 
L 138.503144 243.927592 
L 142.078749 243.569282 
L 145.654353 242.946984 
L 155.189299 240.935947 
L 162.340508 239.139225 
L 164.724244 238.453922 
L 165.916112 237.994128 
L 167.10798 237.379751 
L 168.299849 236.540158 
L 169.491717 235.401522 
L 170.683585 233.895931 
L 171.875453 231.973464 
L 173.067321 229.617066 
L 174.259189 226.858466 
L 179.026662 214.588838 
L 180.21853 212.302067 
L 181.410398 210.74839 
L 182.602266 210.021747 
L 183.794135 210.10919 
L 184.986003 210.897602 
L 186.177871 212.20242 
L 192.137212 220.054467 
L 194.520948 222.307602 
L 195.712816 223.231387 
L 196.904684 223.991208 
L 198.096553 224.521817 
L 199.288421 224.735218 
L 200.480289 224.541331 
L 201.672157 223.868548 
L 202.864025 222.676888 
L 204.055893 220.959804 
L 205.247762 218.734633 
L 206.43963 216.024877 
L 207.631498 212.839062 
L 208.823366 209.151174 
L 210.015234 204.887147 
L 211.207102 199.921602 
L 212.398971 194.088964 
L 213.590839 187.212255 
L 214.782707 179.149503 
L 215.974575 169.850728 
L 218.358311 148.087933 
L 221.933916 113.166906 
L 224.317652 92.843437 
L 226.701389 75.415021 
L 229.085125 59.422505 
L 231.468861 44.969533 
L 232.660729 39.152103 
L 233.852598 34.955177 
L 235.044466 32.878124 
L 236.236334 33.297926 
L 237.428202 36.401633 
L 238.62007 42.155818 
L 239.811938 50.317391 
L 241.003807 60.481711 
L 243.387543 84.829816 
L 248.155015 137.369867 
L 250.538752 160.545473 
L 251.73062 170.52395 
L 252.922488 179.227425 
L 254.114356 186.619087 
L 255.306224 192.771494 
L 256.498093 197.853936 
L 257.689961 202.099148 
L 260.073697 209.064595 
L 263.649302 218.23159 
L 266.033038 223.948523 
L 268.416774 228.889497 
L 269.608642 230.960824 
L 270.800511 232.759195 
L 271.992379 234.307172 
L 273.184247 235.638321 
L 275.567983 237.788062 
L 277.95172 239.429029 
L 280.335456 240.666691 
L 282.719192 241.501447 
L 285.102929 241.907152 
L 287.486665 241.954871 
L 292.254138 241.81528 
L 294.637874 241.948388 
L 302.980951 242.703477 
L 307.748424 242.742917 
L 319.667105 242.862581 
L 323.24271 242.990708 
L 328.010182 243.468462 
L 332.777655 243.904575 
L 337.545128 244.056798 
L 351.847546 244.07796 
L 362.574359 243.998428 
L 369.725568 243.819489 
L 369.725568 243.819489 
" clip-path="url(#p0c0a6c25ad)" style="fill: none; stroke: #1f77b4; stroke-width: 1.5; stroke-linecap: square"/>
   </g>
   <g id="line2d_17">
    <path d="M 65.361932 244.052926 
L 79.127121 244.004093 
L 121.952156 243.978544 
L 131.128949 243.698106 
L 137.246811 243.553208 
L 140.305742 243.285233 
L 144.894138 242.520767 
L 149.482535 241.84088 
L 154.070931 241.190339 
L 157.129862 240.479292 
L 163.247724 238.801068 
L 164.77719 238.226461 
L 166.306655 237.501639 
L 167.836121 236.574621 
L 169.365586 235.352254 
L 170.895052 233.691701 
L 172.424517 231.439344 
L 173.953983 228.504495 
L 175.483448 224.935107 
L 178.54238 217.018927 
L 180.071845 213.619959 
L 181.601311 211.250506 
L 183.130776 210.178425 
L 184.660242 210.378096 
L 186.189707 211.576971 
L 190.778104 217.063679 
L 192.307569 218.323487 
L 193.837035 219.006703 
L 195.3665 219.141791 
L 196.895966 218.791981 
L 198.425431 217.973038 
L 199.954897 216.640107 
L 201.484362 214.744703 
L 203.013828 212.318054 
L 207.602224 203.692967 
L 209.13169 200.829135 
L 210.661155 197.724636 
L 212.190621 193.917922 
L 213.720086 188.824648 
L 215.249552 181.799464 
L 216.779017 172.260057 
L 218.308483 159.940601 
L 219.837948 145.171145 
L 225.95581 80.830522 
L 227.485276 66.73944 
L 229.014741 54.68773 
L 230.544207 45.80463 
L 232.073672 40.854077 
L 233.603138 39.76854 
L 235.132603 41.874023 
L 236.662069 46.542842 
L 238.191534 53.59798 
L 239.721 63.143927 
L 241.250465 75.134857 
L 242.779931 89.163362 
L 245.838862 120.658642 
L 248.897793 152.012809 
L 250.427258 165.897653 
L 251.956724 177.840661 
L 253.486189 187.587417 
L 255.015655 195.211954 
L 256.54512 201.103548 
L 258.074586 205.851231 
L 261.133517 213.98209 
L 264.192448 221.278499 
L 265.721914 224.390761 
L 267.251379 227.07782 
L 268.780845 229.376255 
L 270.31031 231.332121 
L 271.839776 232.977753 
L 273.369241 234.346195 
L 274.898707 235.485767 
L 276.428172 236.449181 
L 277.957638 237.270223 
L 281.016569 238.52755 
L 284.0755 239.434934 
L 287.134431 240.175424 
L 288.663896 240.421692 
L 291.722827 240.569848 
L 297.840689 240.550656 
L 302.429086 240.576511 
L 305.488017 240.368914 
L 307.017482 240.094586 
L 310.076413 239.145506 
L 311.605879 238.690094 
L 313.135344 238.488518 
L 314.66481 238.655514 
L 316.194275 239.158041 
L 319.253206 240.479732 
L 320.782672 240.967017 
L 322.312137 241.270485 
L 328.429999 241.997483 
L 336.077327 243.423587 
L 340.665724 243.744318 
L 346.783586 243.923306 
L 357.489844 243.97946 
L 369.725568 243.768868 
L 369.725568 243.768868 
" clip-path="url(#p0c0a6c25ad)" style="fill: none; stroke: #ff7f0e; stroke-width: 1.5; stroke-linecap: square"/>
   </g>
   <g id="line2d_18">
    <path d="M 83.637476 244.077622 
L 93.700876 243.96056 
L 99.45139 243.992974 
L 108.077162 244.077666 
L 119.578191 243.998207 
L 126.766334 243.905149 
L 131.07922 243.937702 
L 133.954477 243.769011 
L 139.704991 243.234404 
L 144.017877 242.882113 
L 146.893134 242.411807 
L 152.643649 241.331347 
L 155.518906 240.802406 
L 159.831792 239.647601 
L 162.707049 238.78223 
L 164.144678 238.204924 
L 165.582306 237.467525 
L 167.019935 236.536904 
L 168.457563 235.352807 
L 169.895192 233.818748 
L 171.332821 231.841761 
L 172.770449 229.383946 
L 174.208078 226.476205 
L 177.083335 219.728476 
L 178.520964 216.344195 
L 179.958592 213.47821 
L 181.396221 211.540296 
L 182.83385 210.716033 
L 184.271478 210.894888 
L 185.709107 211.79876 
L 187.146735 213.155603 
L 190.021993 216.31377 
L 191.459621 217.606164 
L 192.89725 218.423894 
L 194.334878 218.733567 
L 195.772507 218.630281 
L 197.210136 218.23299 
L 198.647764 217.617687 
L 200.085393 216.805545 
L 201.523021 215.758855 
L 202.96065 214.389847 
L 204.398279 212.618965 
L 205.835907 210.447296 
L 207.273536 207.951349 
L 208.711164 205.176205 
L 210.148793 202.018186 
L 211.586422 198.206488 
L 213.02405 193.399955 
L 214.461679 187.308884 
L 215.899307 179.718278 
L 217.336936 170.397212 
L 218.774565 159.091313 
L 220.212193 145.786883 
L 224.525079 100.353284 
L 227.400336 70.567631 
L 228.837965 56.868675 
L 230.275594 45.515496 
L 231.713222 37.750476 
L 233.150851 33.992669 
L 234.588479 33.769058 
L 236.026108 36.368916 
L 237.463737 41.500783 
L 238.901365 49.265506 
L 240.338994 59.617649 
L 241.776622 72.064621 
L 244.65188 100.624923 
L 248.964765 145.730395 
L 250.402394 159.18139 
L 251.840023 171.059126 
L 253.277651 181.260021 
L 254.71528 189.832087 
L 256.152908 196.915847 
L 257.590537 202.769456 
L 259.028166 207.740883 
L 260.465794 212.128392 
L 261.903423 216.057479 
L 263.341051 219.516096 
L 264.77868 222.50818 
L 267.653937 227.597723 
L 270.529194 232.057445 
L 271.966823 233.865094 
L 273.404452 235.294943 
L 274.84208 236.417063 
L 277.717337 238.208775 
L 279.154966 238.962332 
L 280.592595 239.569452 
L 282.030223 239.99905 
L 284.90548 240.447498 
L 289.218366 240.706146 
L 294.968881 241.005105 
L 303.594652 241.653275 
L 310.782795 242.707628 
L 323.721453 243.333453 
L 351.036396 243.921517 
L 358.224539 243.973433 
L 369.725568 243.864776 
L 369.725568 243.864776 
" clip-path="url(#p0c0a6c25ad)" style="fill: none; stroke: #2ca02c; stroke-width: 1.5; stroke-linecap: square"/>
   </g>
   <g id="line2d_19">
    <path d="M 65.361932 244.070613 
L 88.303914 244.054206 
L 123.481621 243.923213 
L 128.070018 243.584396 
L 131.128949 243.59856 
L 134.18788 243.654099 
L 137.246811 243.530486 
L 141.835207 243.092884 
L 146.423604 242.440065 
L 154.070931 241.123444 
L 157.129862 240.725143 
L 160.188793 240.037437 
L 163.247724 239.004131 
L 164.77719 238.332905 
L 166.306655 237.495346 
L 167.836121 236.372886 
L 169.365586 234.824766 
L 170.895052 232.772158 
L 172.424517 230.239376 
L 173.953983 227.312425 
L 178.54238 217.509427 
L 180.071845 214.828527 
L 181.601311 213.021826 
L 183.130776 212.179874 
L 184.660242 212.16781 
L 186.189707 212.811058 
L 187.719173 213.982963 
L 190.778104 217.044156 
L 192.307569 218.29154 
L 193.837035 219.075357 
L 195.3665 219.417343 
L 196.895966 219.405996 
L 198.425431 219.055169 
L 199.954897 218.263393 
L 201.484362 216.895376 
L 203.013828 214.89416 
L 204.543293 212.324019 
L 206.072759 209.325994 
L 207.602224 206.020334 
L 209.13169 202.405917 
L 210.661155 198.311479 
L 212.190621 193.41026 
L 213.720086 187.271741 
L 215.249552 179.438932 
L 216.779017 169.508535 
L 218.308483 157.237105 
L 219.837948 142.810849 
L 224.426345 96.803955 
L 227.485276 69.532362 
L 229.014741 57.467622 
L 230.544207 48.116637 
L 232.073672 42.6002 
L 233.603138 40.971054 
L 235.132603 42.522073 
L 236.662069 46.673018 
L 238.191534 53.438089 
L 239.721 63.062679 
L 241.250465 75.354284 
L 244.309396 104.436751 
L 247.368327 134.120669 
L 250.427258 161.211672 
L 251.956724 172.903132 
L 253.486189 182.922984 
L 255.015655 191.175155 
L 256.54512 197.86677 
L 258.074586 203.434149 
L 259.604052 208.312781 
L 261.133517 212.745642 
L 262.662983 216.784482 
L 264.192448 220.413308 
L 265.721914 223.635011 
L 267.251379 226.474844 
L 268.780845 228.95298 
L 270.31031 231.074786 
L 271.839776 232.847217 
L 273.369241 234.296722 
L 274.898707 235.465915 
L 276.428172 236.401088 
L 277.957638 237.150369 
L 281.016569 238.301519 
L 285.604965 239.736951 
L 288.663896 240.401296 
L 291.722827 240.759216 
L 294.781758 240.913966 
L 299.370155 240.864883 
L 308.546948 240.365619 
L 311.605879 239.899673 
L 313.135344 239.821597 
L 314.66481 239.972242 
L 317.723741 240.783761 
L 319.253206 241.19113 
L 322.312137 241.655776 
L 326.900534 242.109318 
L 337.606792 243.506287 
L 345.25412 243.924873 
L 352.901448 243.991288 
L 362.078241 243.952371 
L 369.725568 243.897072 
L 369.725568 243.897072 
" clip-path="url(#p0c0a6c25ad)" style="fill: none; stroke: #d62728; stroke-width: 1.5; stroke-linecap: square"/>
   </g>
   <g id="line2d_20">
    <path d="M 65.361932 244.071046 
L 99.010173 243.955271 
L 108.186966 244.042671 
L 121.952156 243.921783 
L 137.246811 243.490501 
L 141.835207 242.955663 
L 146.423604 242.207705 
L 158.659328 239.541806 
L 160.188793 239.064816 
L 161.718259 238.464176 
L 163.247724 237.704116 
L 166.306655 235.730406 
L 167.836121 234.554273 
L 169.365586 233.168559 
L 170.895052 231.440858 
L 172.424517 229.309836 
L 173.953983 226.841709 
L 177.012914 221.35667 
L 180.071845 215.876925 
L 181.601311 213.783039 
L 183.130776 212.571334 
L 184.660242 212.334125 
L 186.189707 212.91581 
L 187.719173 214.035325 
L 189.248638 215.357911 
L 190.778104 216.519476 
L 192.307569 217.20983 
L 193.837035 217.284691 
L 195.3665 216.787603 
L 196.895966 215.86697 
L 198.425431 214.670216 
L 199.954897 213.255796 
L 201.484362 211.546272 
L 203.013828 209.39916 
L 204.543293 206.776912 
L 207.602224 200.603009 
L 209.13169 197.025469 
L 210.661155 192.693158 
L 212.190621 187.223663 
L 213.720086 180.437308 
L 215.249552 172.342094 
L 216.779017 162.948119 
L 218.308483 152.113714 
L 219.837948 139.718347 
L 224.426345 98.897145 
L 225.95581 86.550458 
L 227.485276 75.451018 
L 229.014741 66.277041 
L 230.544207 59.939161 
L 232.073672 56.877514 
L 233.603138 56.689029 
L 235.132603 58.576019 
L 236.662069 62.173001 
L 238.191534 67.790077 
L 239.721 75.794738 
L 241.250465 85.978304 
L 242.779931 97.665432 
L 245.838862 123.33872 
L 248.897793 149.744907 
L 250.427258 161.969395 
L 251.956724 172.863489 
L 253.486189 182.202986 
L 255.015655 189.986806 
L 256.54512 196.39902 
L 258.074586 201.799145 
L 261.133517 211.030385 
L 262.662983 215.08288 
L 264.192448 218.652021 
L 265.721914 221.757301 
L 268.780845 227.136466 
L 270.31031 229.491525 
L 271.839776 231.507725 
L 273.369241 233.146497 
L 274.898707 234.473761 
L 276.428172 235.57818 
L 277.957638 236.498678 
L 281.016569 237.882366 
L 285.604965 239.599041 
L 287.134431 239.977324 
L 288.663896 240.156586 
L 291.722827 240.121527 
L 296.311224 240.065194 
L 300.89962 239.988403 
L 310.076413 239.641786 
L 313.135344 239.375459 
L 314.66481 239.37442 
L 317.723741 239.765178 
L 323.841603 241.10602 
L 328.429999 242.122871 
L 334.547861 243.017507 
L 339.136258 243.573443 
L 343.724655 243.873371 
L 351.371982 243.96271 
L 360.548775 243.896777 
L 369.725568 243.669244 
L 369.725568 243.669244 
" clip-path="url(#p0c0a6c25ad)" style="fill: none; stroke: #9467bd; stroke-width: 1.5; stroke-linecap: square"/>
   </g>
   <g id="line2d_21">
    <path d="M 65.361932 244.070059 
L 86.774449 244.024742 
L 94.421776 243.986033 
L 112.775363 244.048769 
L 121.952156 243.933514 
L 137.246811 243.59857 
L 140.305742 243.387444 
L 147.953069 242.457579 
L 151.012 241.890463 
L 155.600397 240.831054 
L 158.659328 240.062753 
L 161.718259 239.417598 
L 163.247724 238.89825 
L 164.77719 238.106739 
L 166.306655 237.055832 
L 167.836121 235.765343 
L 169.365586 234.173842 
L 170.895052 232.206028 
L 172.424517 229.870782 
L 173.953983 227.220937 
L 177.012914 221.151762 
L 178.54238 218.106848 
L 180.071845 215.624816 
L 181.601311 214.125363 
L 183.130776 213.704805 
L 184.660242 214.084294 
L 189.248638 216.240431 
L 192.307569 217.259563 
L 193.837035 217.547368 
L 195.3665 217.564909 
L 196.895966 217.212196 
L 198.425431 216.440205 
L 199.954897 215.282305 
L 201.484362 213.817015 
L 203.013828 212.101958 
L 204.543293 210.160323 
L 206.072759 207.99087 
L 207.602224 205.500177 
L 209.13169 202.400263 
L 210.661155 198.271487 
L 212.190621 192.809852 
L 213.720086 185.977699 
L 215.249552 177.857887 
L 216.779017 168.352399 
L 218.308483 157.09102 
L 219.837948 143.858891 
L 225.95581 86.311136 
L 227.485276 72.73343 
L 229.014741 60.466328 
L 230.544207 51.300143 
L 232.073672 46.373473 
L 233.603138 45.373103 
L 235.132603 47.153168 
L 236.662069 50.978825 
L 238.191534 56.998453 
L 239.721 65.577527 
L 241.250465 76.518875 
L 242.779931 89.11528 
L 245.838862 116.929305 
L 248.897793 145.363635 
L 250.427258 158.446917 
L 251.956724 170.340265 
L 253.486189 180.957782 
L 255.015655 190.188634 
L 256.54512 197.920179 
L 258.074586 204.185747 
L 259.604052 209.200018 
L 261.133517 213.281978 
L 264.192448 220.01694 
L 267.251379 225.987727 
L 268.780845 228.515117 
L 270.31031 230.637385 
L 271.839776 232.415388 
L 273.369241 233.939402 
L 274.898707 235.27197 
L 276.428172 236.442611 
L 277.957638 237.443959 
L 279.487103 238.246284 
L 281.016569 238.848089 
L 284.0755 239.673531 
L 287.134431 240.235849 
L 290.193362 240.514773 
L 297.840689 240.831731 
L 300.89962 240.706615 
L 305.488017 240.179542 
L 310.076413 239.479961 
L 311.605879 239.370917 
L 313.135344 239.392135 
L 316.194275 239.71963 
L 319.253206 240.157177 
L 322.312137 240.834778 
L 325.371068 241.656705 
L 328.429999 242.209941 
L 340.665724 243.754125 
L 343.724655 243.918837 
L 351.371982 243.966436 
L 368.196103 243.763875 
L 369.725568 243.704193 
L 369.725568 243.704193 
" clip-path="url(#p0c0a6c25ad)" style="fill: none; stroke: #8c564b; stroke-width: 1.5; stroke-linecap: square"/>
   </g>
   <g id="line2d_22">
    <path d="M 65.361932 244.070864 
L 85.244983 244.022169 
L 99.010173 243.988624 
L 118.893225 243.923142 
L 137.246811 243.47662 
L 140.305742 243.155444 
L 152.541466 241.325845 
L 155.600397 240.772546 
L 158.659328 240.00118 
L 161.718259 238.984113 
L 163.247724 238.293231 
L 164.77719 237.383055 
L 166.306655 236.230258 
L 167.836121 234.861732 
L 169.365586 233.296725 
L 170.895052 231.505141 
L 172.424517 229.431903 
L 173.953983 227.047017 
L 177.012914 221.491169 
L 178.54238 218.685504 
L 180.071845 216.367052 
L 181.601311 214.880648 
L 183.130776 214.256489 
L 184.660242 214.228825 
L 186.189707 214.497717 
L 189.248638 215.464949 
L 190.778104 216.017281 
L 192.307569 216.421906 
L 193.837035 216.579396 
L 195.3665 216.444034 
L 196.895966 215.925266 
L 198.425431 214.949698 
L 199.954897 213.594011 
L 201.484362 211.984367 
L 203.013828 210.099349 
L 204.543293 207.815734 
L 206.072759 205.097392 
L 207.602224 201.991649 
L 209.13169 198.421832 
L 210.661155 194.088084 
L 212.190621 188.636217 
L 213.720086 181.870402 
L 215.249552 173.728721 
L 216.779017 164.077319 
L 218.308483 152.690995 
L 221.367414 125.690364 
L 224.426345 98.822665 
L 227.485276 73.975343 
L 229.014741 63.277949 
L 230.544207 55.523677 
L 232.073672 51.504627 
L 233.603138 50.926202 
L 235.132603 52.94305 
L 236.662069 57.028634 
L 238.191534 63.291565 
L 239.721 71.991436 
L 241.250465 82.932911 
L 244.309396 108.890866 
L 248.897793 150.781586 
L 250.427258 163.365705 
L 251.956724 174.248106 
L 253.486189 183.410336 
L 255.015655 191.095737 
L 256.54512 197.545861 
L 258.074586 203.027478 
L 259.604052 207.858112 
L 261.133517 212.248482 
L 262.662983 216.21619 
L 264.192448 219.726442 
L 265.721914 222.849151 
L 268.780845 228.341172 
L 270.31031 230.652133 
L 271.839776 232.547426 
L 273.369241 234.01899 
L 274.898707 235.146386 
L 276.428172 236.043589 
L 279.487103 237.493198 
L 282.546034 238.682918 
L 285.604965 239.675708 
L 287.134431 240.01755 
L 288.663896 240.208767 
L 291.722827 240.287822 
L 297.840689 240.296486 
L 300.89962 240.254891 
L 310.076413 239.332676 
L 313.135344 238.991519 
L 314.66481 239.095287 
L 317.723741 239.791576 
L 320.782672 240.457178 
L 336.077327 243.327937 
L 339.136258 243.621382 
L 343.724655 243.824492 
L 355.960379 243.972853 
L 362.078241 243.857186 
L 369.725568 243.737917 
L 369.725568 243.737917 
" clip-path="url(#p0c0a6c25ad)" style="fill: none; stroke: #e377c2; stroke-width: 1.5; stroke-linecap: square"/>
   </g>
   <g id="line2d_23">
    <path d="M 65.361932 244.070467 
L 85.244983 243.964872 
L 92.892311 243.972823 
L 99.010173 243.95568 
L 115.834294 243.994127 
L 125.011087 243.804573 
L 132.658414 243.526168 
L 138.776276 243.179312 
L 143.364673 242.730144 
L 147.953069 242.090822 
L 151.012 241.417797 
L 155.600397 240.288329 
L 160.188793 239.389812 
L 161.718259 238.795805 
L 163.247724 237.957868 
L 166.306655 235.829164 
L 167.836121 234.562294 
L 169.365586 233.013358 
L 170.895052 231.063636 
L 172.424517 228.708372 
L 175.483448 223.302683 
L 178.54238 217.88693 
L 180.071845 215.562536 
L 181.601311 213.800145 
L 183.130776 212.738731 
L 184.660242 212.346665 
L 186.189707 212.494858 
L 187.719173 213.065776 
L 189.248638 213.966835 
L 192.307569 216.154296 
L 193.837035 216.994279 
L 195.3665 217.382856 
L 196.895966 217.196656 
L 198.425431 216.400703 
L 199.954897 215.023835 
L 201.484362 213.123754 
L 203.013828 210.80103 
L 206.072759 205.466637 
L 207.602224 202.42275 
L 209.13169 198.700705 
L 210.661155 193.858271 
L 212.190621 187.616269 
L 213.720086 179.977856 
L 215.249552 171.163996 
L 216.779017 161.362582 
L 218.308483 150.520592 
L 221.367414 125.747813 
L 224.426345 100.598074 
L 227.485276 77.87059 
L 229.014741 68.630444 
L 230.544207 62.1809 
L 232.073672 58.938568 
L 233.603138 58.477121 
L 235.132603 60.082619 
L 236.662069 63.490948 
L 238.191534 69.042671 
L 239.721 77.081779 
L 241.250465 87.347695 
L 244.309396 111.49181 
L 248.897793 148.660839 
L 251.956724 170.331368 
L 253.486189 179.989155 
L 255.015655 188.596412 
L 256.54512 195.838147 
L 258.074586 201.724805 
L 259.604052 206.648274 
L 261.133517 211.034901 
L 262.662983 215.0429 
L 264.192448 218.625086 
L 265.721914 221.768227 
L 267.251379 224.560901 
L 268.780845 227.087288 
L 270.31031 229.360299 
L 271.839776 231.339231 
L 273.369241 232.978161 
L 274.898707 234.295465 
L 277.957638 236.396917 
L 279.487103 237.303037 
L 281.016569 238.047647 
L 282.546034 238.582917 
L 284.0755 238.928099 
L 287.134431 239.25364 
L 290.193362 239.53901 
L 294.781758 240.075063 
L 297.840689 240.165901 
L 300.89962 240.007015 
L 305.488017 239.467867 
L 308.546948 238.888386 
L 311.605879 238.304809 
L 313.135344 238.238554 
L 314.66481 238.392917 
L 317.723741 239.173189 
L 320.782672 240.02993 
L 334.547861 242.911759 
L 339.136258 243.455721 
L 343.724655 243.846497 
L 348.313051 243.965565 
L 357.489844 243.920388 
L 366.666637 243.742543 
L 369.725568 243.692578 
L 369.725568 243.692578 
" clip-path="url(#p0c0a6c25ad)" style="fill: none; stroke: #7f7f7f; stroke-width: 1.5; stroke-linecap: square"/>
   </g>
   <g id="line2d_24">
    <path d="M 65.361932 244.071461 
L 85.244983 244.007863 
L 94.421776 243.977096 
L 103.59857 244.028258 
L 117.363759 244.028389 
L 132.658414 243.718013 
L 137.246811 243.349091 
L 143.364673 242.631047 
L 146.423604 242.415833 
L 149.482535 241.962229 
L 152.541466 241.45202 
L 155.600397 241.047099 
L 157.129862 240.689359 
L 161.718259 239.114075 
L 163.247724 238.557673 
L 164.77719 237.847153 
L 166.306655 236.881616 
L 167.836121 235.600548 
L 169.365586 233.938922 
L 170.895052 231.852374 
L 172.424517 229.386111 
L 175.483448 223.806422 
L 178.54238 218.268634 
L 180.071845 216.045277 
L 181.601311 214.497259 
L 183.130776 213.716474 
L 184.660242 213.65363 
L 186.189707 214.111736 
L 192.307569 216.899066 
L 193.837035 217.460815 
L 195.3665 217.865989 
L 196.895966 217.943917 
L 198.425431 217.50068 
L 199.954897 216.47894 
L 201.484362 214.928815 
L 203.013828 212.87988 
L 204.543293 210.358502 
L 206.072759 207.455843 
L 207.602224 204.252743 
L 209.13169 200.63576 
L 210.661155 196.200245 
L 212.190621 190.429768 
L 213.720086 183.101018 
L 215.249552 174.451169 
L 216.779017 164.719556 
L 218.308483 153.550736 
L 219.837948 140.310275 
L 222.896879 110.344432 
L 224.426345 96.792784 
L 227.485276 73.233408 
L 229.014741 62.776957 
L 230.544207 54.453083 
L 232.073672 49.324688 
L 233.603138 47.618047 
L 235.132603 48.990721 
L 236.662069 53.133854 
L 238.191534 59.985988 
L 239.721 69.461667 
L 241.250465 81.035016 
L 244.309396 107.074158 
L 250.427258 161.6453 
L 251.956724 172.878193 
L 253.486189 182.52227 
L 255.015655 190.583687 
L 256.54512 197.217108 
L 258.074586 202.768962 
L 259.604052 207.6149 
L 261.133517 211.975529 
L 262.662983 215.929645 
L 264.192448 219.531319 
L 265.721914 222.836569 
L 267.251379 225.845896 
L 268.780845 228.499633 
L 270.31031 230.755614 
L 271.839776 232.629656 
L 273.369241 234.163017 
L 274.898707 235.406277 
L 276.428172 236.415952 
L 277.957638 237.218146 
L 279.487103 237.808542 
L 282.546034 238.538803 
L 290.193362 240.197563 
L 293.252293 240.431118 
L 302.429086 240.450452 
L 305.488017 240.403045 
L 308.546948 240.041703 
L 311.605879 239.631444 
L 314.66481 239.530327 
L 317.723741 239.774297 
L 319.253206 239.995517 
L 320.782672 240.333467 
L 326.900534 242.043602 
L 334.547861 243.130284 
L 340.665724 243.751789 
L 345.25412 243.899266 
L 359.01931 243.975056 
L 369.725568 243.780569 
L 369.725568 243.780569 
" clip-path="url(#p0c0a6c25ad)" style="fill: none; stroke: #bcbd22; stroke-width: 1.5; stroke-linecap: square"/>
   </g>
   <g id="line2d_25">
    <path d="M 65.361932 244.074742 
L 99.010173 244.024974 
L 108.186966 244.071751 
L 123.481621 243.925261 
L 131.128949 243.741585 
L 135.717345 243.528087 
L 141.835207 242.982708 
L 146.423604 242.284448 
L 154.070931 240.941556 
L 157.129862 240.405983 
L 160.188793 239.499854 
L 163.247724 238.419432 
L 164.77719 237.690436 
L 166.306655 236.745111 
L 167.836121 235.509747 
L 169.365586 233.850195 
L 170.895052 231.64357 
L 172.424517 228.925537 
L 175.483448 222.990737 
L 177.012914 220.31794 
L 178.54238 217.98508 
L 180.071845 216.025214 
L 181.601311 214.57256 
L 183.130776 213.784645 
L 184.660242 213.648886 
L 186.189707 213.996992 
L 187.719173 214.6762 
L 189.248638 215.597457 
L 192.307569 217.689708 
L 193.837035 218.536573 
L 195.3665 218.986745 
L 196.895966 218.751981 
L 198.425431 217.711647 
L 199.954897 216.141132 
L 201.484362 214.375948 
L 203.013828 212.395014 
L 204.543293 210.004927 
L 207.602224 204.225041 
L 209.13169 200.904502 
L 210.661155 196.795991 
L 212.190621 191.458927 
L 213.720086 184.752268 
L 215.249552 176.673119 
L 216.779017 167.118188 
L 218.308483 155.851394 
L 219.837948 142.784376 
L 224.426345 100.142806 
L 227.485276 73.785296 
L 229.014741 61.88669 
L 230.544207 52.509349 
L 232.073672 46.654989 
L 233.603138 44.317487 
L 235.132603 45.003158 
L 236.662069 48.583167 
L 238.191534 55.387661 
L 239.721 65.415791 
L 241.250465 77.736172 
L 245.838862 118.073582 
L 250.427258 159.895927 
L 251.956724 171.852924 
L 253.486189 182.037356 
L 255.015655 190.43449 
L 256.54512 197.275996 
L 258.074586 202.895207 
L 259.604052 207.682377 
L 261.133517 212.00316 
L 262.662983 215.968339 
L 264.192448 219.483302 
L 267.251379 225.465455 
L 268.780845 228.175364 
L 270.31031 230.640497 
L 271.839776 232.756411 
L 273.369241 234.431131 
L 274.898707 235.690453 
L 277.957638 237.639281 
L 279.487103 238.40975 
L 281.016569 238.95092 
L 284.0755 239.57132 
L 288.663896 240.201348 
L 293.252293 240.751627 
L 296.311224 240.729677 
L 299.370155 240.67856 
L 305.488017 240.663738 
L 308.546948 240.627036 
L 313.135344 240.356063 
L 314.66481 240.478607 
L 317.723741 241.140468 
L 320.782672 241.793327 
L 336.077327 243.537669 
L 343.724655 243.785168 
L 359.01931 243.952135 
L 369.725568 243.805647 
L 369.725568 243.805647 
" clip-path="url(#p0c0a6c25ad)" style="fill: none; stroke: #17becf; stroke-width: 1.5; stroke-linecap: square"/>
   </g>
   <g id="line2d_26">
    <path d="M 65.361932 244.072947 
L 95.951242 243.973614 
L 126.540552 243.876124 
L 138.776276 243.355212 
L 141.835207 242.987537 
L 146.423604 242.294067 
L 151.012 241.716494 
L 157.129862 240.541422 
L 160.188793 239.75957 
L 163.247724 238.648236 
L 164.77719 237.926715 
L 166.306655 237.004437 
L 167.836121 235.750678 
L 169.365586 234.094451 
L 170.895052 232.071174 
L 172.424517 229.759769 
L 175.483448 224.468941 
L 178.54238 218.792256 
L 180.071845 216.375574 
L 181.601311 214.637733 
L 183.130776 213.652872 
L 184.660242 213.246326 
L 186.189707 213.205879 
L 187.719173 213.484873 
L 189.248638 214.124873 
L 192.307569 215.88281 
L 193.837035 216.471343 
L 195.3665 216.700326 
L 196.895966 216.475852 
L 198.425431 215.682674 
L 199.954897 214.379183 
L 201.484362 212.763154 
L 203.013828 210.931084 
L 204.543293 208.791303 
L 206.072759 206.172187 
L 207.602224 202.986122 
L 209.13169 199.267614 
L 210.661155 194.884088 
L 212.190621 189.294622 
L 213.720086 182.030483 
L 215.249552 173.291166 
L 216.779017 163.515521 
L 218.308483 152.586304 
L 219.837948 140.091191 
L 222.896879 112.763274 
L 225.95581 88.436642 
L 227.485276 76.978095 
L 229.014741 66.420946 
L 230.544207 58.307188 
L 232.073672 53.64108 
L 233.603138 52.158998 
L 235.132603 53.200384 
L 236.662069 56.670406 
L 238.191534 62.910294 
L 239.721 71.964637 
L 241.250465 83.178635 
L 244.309396 108.37899 
L 250.427258 161.450577 
L 251.956724 172.668339 
L 253.486189 182.476011 
L 255.015655 190.916604 
L 256.54512 198.01566 
L 258.074586 203.95631 
L 259.604052 209.025204 
L 261.133517 213.370985 
L 262.662983 217.026342 
L 264.192448 220.114245 
L 267.251379 225.541817 
L 268.780845 228.114137 
L 270.31031 230.461399 
L 271.839776 232.43899 
L 273.369241 234.021068 
L 274.898707 235.283665 
L 276.428172 236.311203 
L 277.957638 237.149589 
L 279.487103 237.817776 
L 281.016569 238.332562 
L 284.0755 239.050129 
L 288.663896 239.806935 
L 293.252293 240.224912 
L 297.840689 240.32204 
L 300.89962 240.138325 
L 302.429086 239.855623 
L 310.076413 237.871527 
L 311.605879 237.713191 
L 313.135344 237.691556 
L 316.194275 237.97726 
L 319.253206 238.499985 
L 320.782672 238.97785 
L 325.371068 240.801858 
L 328.429999 241.521354 
L 337.606792 243.332373 
L 340.665724 243.693019 
L 345.25412 243.917013 
L 351.371982 244.003942 
L 369.725568 243.898539 
L 369.725568 243.898539 
" clip-path="url(#p0c0a6c25ad)" style="fill: none; stroke: #1f77b4; stroke-width: 1.5; stroke-linecap: square"/>
   </g>
   <g id="line2d_27">
    <path d="M 65.361932 244.076466 
L 112.775363 244.041325 
L 120.42269 243.981089 
L 135.717345 243.554159 
L 138.776276 243.246496 
L 144.894138 242.440334 
L 155.600397 240.844165 
L 158.659328 239.972798 
L 163.247724 238.525717 
L 164.77719 237.876063 
L 166.306655 237.018396 
L 167.836121 235.862336 
L 169.365586 234.265646 
L 170.895052 232.149244 
L 173.953983 226.983616 
L 177.012914 221.857723 
L 178.54238 219.414282 
L 180.071845 217.253333 
L 181.601311 215.648202 
L 183.130776 214.712115 
L 184.660242 214.343415 
L 186.189707 214.393212 
L 187.719173 214.810484 
L 189.248638 215.570419 
L 190.778104 216.513309 
L 192.307569 217.325061 
L 193.837035 217.706847 
L 195.3665 217.545937 
L 196.895966 216.92164 
L 198.425431 216.000977 
L 199.954897 214.90697 
L 201.484362 213.604641 
L 203.013828 211.930172 
L 204.543293 209.77765 
L 206.072759 207.192211 
L 207.602224 204.219028 
L 209.13169 200.680612 
L 210.661155 196.168712 
L 212.190621 190.314255 
L 213.720086 183.050006 
L 215.249552 174.555006 
L 216.779017 164.87559 
L 218.308483 153.64534 
L 219.837948 140.455408 
L 224.426345 97.144315 
L 227.485276 71.841801 
L 229.014741 61.231037 
L 230.544207 53.859315 
L 232.073672 50.31444 
L 233.603138 49.803739 
L 235.132603 51.336995 
L 236.662069 54.876436 
L 238.191534 61.076989 
L 239.721 70.117477 
L 241.250465 81.290186 
L 244.309396 107.0781 
L 248.897793 148.073813 
L 250.427258 160.349885 
L 251.956724 171.371074 
L 253.486189 181.155308 
L 255.015655 189.824362 
L 256.54512 197.414941 
L 258.074586 203.847202 
L 259.604052 209.121918 
L 261.133517 213.431376 
L 262.662983 216.988652 
L 264.192448 219.969307 
L 268.780845 227.955832 
L 270.31031 230.301374 
L 271.839776 232.182116 
L 273.369241 233.645109 
L 274.898707 234.857206 
L 276.428172 235.927059 
L 277.957638 236.85751 
L 279.487103 237.617973 
L 282.546034 238.717141 
L 285.604965 239.512381 
L 288.663896 239.960603 
L 293.252293 240.439277 
L 297.840689 240.55743 
L 300.89962 240.563091 
L 303.958551 240.253583 
L 308.546948 239.495091 
L 311.605879 239.350938 
L 314.66481 239.589758 
L 319.253206 240.265819 
L 329.959465 242.357423 
L 334.547861 242.970495 
L 340.665724 243.628014 
L 346.783586 243.914401 
L 352.901448 243.961056 
L 362.078241 243.862731 
L 368.196103 243.762767 
L 369.725568 243.783806 
L 369.725568 243.783806 
" clip-path="url(#p0c0a6c25ad)" style="fill: none; stroke: #ff7f0e; stroke-width: 1.5; stroke-linecap: square"/>
   </g>
   <g id="patch_3">
    <path d="M 50.14375 244.078125 
L 50.14375 22.318125 
" style="fill: none; stroke: #000000; stroke-width: 0.8; stroke-linejoin: miter; stroke-linecap: square"/>
   </g>
   <g id="patch_4">
    <path d="M 384.94375 244.078125 
L 384.94375 22.318125 
" style="fill: none; stroke: #000000; stroke-width: 0.8; stroke-linejoin: miter; stroke-linecap: square"/>
   </g>
   <g id="patch_5">
    <path d="M 50.14375 244.078125 
L 384.94375 244.078125 
" style="fill: none; stroke: #000000; stroke-width: 0.8; stroke-linejoin: miter; stroke-linecap: square"/>
   </g>
   <g id="patch_6">
    <path d="M 50.14375 22.318125 
L 384.94375 22.318125 
" style="fill: none; stroke: #000000; stroke-width: 0.8; stroke-linejoin: miter; stroke-linecap: square"/>
   </g>
   <g id="text_18">
    <!-- (b) KDEs of EV departure time -->
    <g transform="translate(127.180938 16.318125) scale(0.12 -0.12)">
     <defs>
      <path id="DejaVuSans-28" d="M 1984 4856 
Q 1566 4138 1362 3434 
Q 1159 2731 1159 2009 
Q 1159 1288 1364 580 
Q 1569 -128 1984 -844 
L 1484 -844 
Q 1016 -109 783 600 
Q 550 1309 550 2009 
Q 550 2706 781 3412 
Q 1013 4119 1484 4856 
L 1984 4856 
z
" transform="scale(0.015625)"/>
      <path id="DejaVuSans-62" d="M 3116 1747 
Q 3116 2381 2855 2742 
Q 2594 3103 2138 3103 
Q 1681 3103 1420 2742 
Q 1159 2381 1159 1747 
Q 1159 1113 1420 752 
Q 1681 391 2138 391 
Q 2594 391 2855 752 
Q 3116 1113 3116 1747 
z
M 1159 2969 
Q 1341 3281 1617 3432 
Q 1894 3584 2278 3584 
Q 2916 3584 3314 3078 
Q 3713 2572 3713 1747 
Q 3713 922 3314 415 
Q 2916 -91 2278 -91 
Q 1894 -91 1617 61 
Q 1341 213 1159 525 
L 1159 0 
L 581 0 
L 581 4863 
L 1159 4863 
L 1159 2969 
z
" transform="scale(0.015625)"/>
      <path id="DejaVuSans-29" d="M 513 4856 
L 1013 4856 
Q 1481 4119 1714 3412 
Q 1947 2706 1947 2009 
Q 1947 1309 1714 600 
Q 1481 -109 1013 -844 
L 513 -844 
Q 928 -128 1133 580 
Q 1338 1288 1338 2009 
Q 1338 2731 1133 3434 
Q 928 4138 513 4856 
z
" transform="scale(0.015625)"/>
      <path id="DejaVuSans-20" transform="scale(0.015625)"/>
      <path id="DejaVuSans-4b" d="M 628 4666 
L 1259 4666 
L 1259 2694 
L 3353 4666 
L 4166 4666 
L 1850 2491 
L 4331 0 
L 3500 0 
L 1259 2247 
L 1259 0 
L 628 0 
L 628 4666 
z
" transform="scale(0.015625)"/>
      <path id="DejaVuSans-45" d="M 628 4666 
L 3578 4666 
L 3578 4134 
L 1259 4134 
L 1259 2753 
L 3481 2753 
L 3481 2222 
L 1259 2222 
L 1259 531 
L 3634 531 
L 3634 0 
L 628 0 
L 628 4666 
z
" transform="scale(0.015625)"/>
      <path id="DejaVuSans-66" d="M 2375 4863 
L 2375 4384 
L 1825 4384 
Q 1516 4384 1395 4259 
Q 1275 4134 1275 3809 
L 1275 3500 
L 2222 3500 
L 2222 3053 
L 1275 3053 
L 1275 0 
L 697 0 
L 697 3053 
L 147 3053 
L 147 3500 
L 697 3500 
L 697 3744 
Q 697 4328 969 4595 
Q 1241 4863 1831 4863 
L 2375 4863 
z
" transform="scale(0.015625)"/>
      <path id="DejaVuSans-56" d="M 1831 0 
L 50 4666 
L 709 4666 
L 2188 738 
L 3669 4666 
L 4325 4666 
L 2547 0 
L 1831 0 
z
" transform="scale(0.015625)"/>
      <path id="DejaVuSans-64" d="M 2906 2969 
L 2906 4863 
L 3481 4863 
L 3481 0 
L 2906 0 
L 2906 525 
Q 2725 213 2448 61 
Q 2172 -91 1784 -91 
Q 1150 -91 751 415 
Q 353 922 353 1747 
Q 353 2572 751 3078 
Q 1150 3584 1784 3584 
Q 2172 3584 2448 3432 
Q 2725 3281 2906 2969 
z
M 947 1747 
Q 947 1113 1208 752 
Q 1469 391 1925 391 
Q 2381 391 2643 752 
Q 2906 1113 2906 1747 
Q 2906 2381 2643 2742 
Q 2381 3103 1925 3103 
Q 1469 3103 1208 2742 
Q 947 2381 947 1747 
z
" transform="scale(0.015625)"/>
      <path id="DejaVuSans-70" d="M 1159 525 
L 1159 -1331 
L 581 -1331 
L 581 3500 
L 1159 3500 
L 1159 2969 
Q 1341 3281 1617 3432 
Q 1894 3584 2278 3584 
Q 2916 3584 3314 3078 
Q 3713 2572 3713 1747 
Q 3713 922 3314 415 
Q 2916 -91 2278 -91 
Q 1894 -91 1617 61 
Q 1341 213 1159 525 
z
M 3116 1747 
Q 3116 2381 2855 2742 
Q 2594 3103 2138 3103 
Q 1681 3103 1420 2742 
Q 1159 2381 1159 1747 
Q 1159 1113 1420 752 
Q 1681 391 2138 391 
Q 2594 391 2855 752 
Q 3116 1113 3116 1747 
z
" transform="scale(0.015625)"/>
      <path id="DejaVuSans-61" d="M 2194 1759 
Q 1497 1759 1228 1600 
Q 959 1441 959 1056 
Q 959 750 1161 570 
Q 1363 391 1709 391 
Q 2188 391 2477 730 
Q 2766 1069 2766 1631 
L 2766 1759 
L 2194 1759 
z
M 3341 1997 
L 3341 0 
L 2766 0 
L 2766 531 
Q 2569 213 2275 61 
Q 1981 -91 1556 -91 
Q 1019 -91 701 211 
Q 384 513 384 1019 
Q 384 1609 779 1909 
Q 1175 2209 1959 2209 
L 2766 2209 
L 2766 2266 
Q 2766 2663 2505 2880 
Q 2244 3097 1772 3097 
Q 1472 3097 1187 3025 
Q 903 2953 641 2809 
L 641 3341 
Q 956 3463 1253 3523 
Q 1550 3584 1831 3584 
Q 2591 3584 2966 3190 
Q 3341 2797 3341 1997 
z
" transform="scale(0.015625)"/>
      <path id="DejaVuSans-72" d="M 2631 2963 
Q 2534 3019 2420 3045 
Q 2306 3072 2169 3072 
Q 1681 3072 1420 2755 
Q 1159 2438 1159 1844 
L 1159 0 
L 581 0 
L 581 3500 
L 1159 3500 
L 1159 2956 
Q 1341 3275 1631 3429 
Q 1922 3584 2338 3584 
Q 2397 3584 2469 3576 
Q 2541 3569 2628 3553 
L 2631 2963 
z
" transform="scale(0.015625)"/>
      <path id="DejaVuSans-75" d="M 544 1381 
L 544 3500 
L 1119 3500 
L 1119 1403 
Q 1119 906 1312 657 
Q 1506 409 1894 409 
Q 2359 409 2629 706 
Q 2900 1003 2900 1516 
L 2900 3500 
L 3475 3500 
L 3475 0 
L 2900 0 
L 2900 538 
Q 2691 219 2414 64 
Q 2138 -91 1772 -91 
Q 1169 -91 856 284 
Q 544 659 544 1381 
z
M 1991 3584 
L 1991 3584 
z
" transform="scale(0.015625)"/>
     </defs>
     <use xlink:href="#DejaVuSans-28"/>
     <use xlink:href="#DejaVuSans-62" x="39.013672"/>
     <use xlink:href="#DejaVuSans-29" x="102.490234"/>
     <use xlink:href="#DejaVuSans-20" x="141.503906"/>
     <use xlink:href="#DejaVuSans-4b" x="173.291016"/>
     <use xlink:href="#DejaVuSans-44" x="238.867188"/>
     <use xlink:href="#DejaVuSans-45" x="315.869141"/>
     <use xlink:href="#DejaVuSans-73" x="379.052734"/>
     <use xlink:href="#DejaVuSans-20" x="431.152344"/>
     <use xlink:href="#DejaVuSans-6f" x="462.939453"/>
     <use xlink:href="#DejaVuSans-66" x="524.121094"/>
     <use xlink:href="#DejaVuSans-20" x="559.326172"/>
     <use xlink:href="#DejaVuSans-45" x="591.113281"/>
     <use xlink:href="#DejaVuSans-56" x="654.296875"/>
     <use xlink:href="#DejaVuSans-20" x="722.705078"/>
     <use xlink:href="#DejaVuSans-64" x="754.492188"/>
     <use xlink:href="#DejaVuSans-65" x="817.96875"/>
     <use xlink:href="#DejaVuSans-70" x="879.492188"/>
     <use xlink:href="#DejaVuSans-61" x="942.96875"/>
     <use xlink:href="#DejaVuSans-72" x="1004.248047"/>
     <use xlink:href="#DejaVuSans-74" x="1045.361328"/>
     <use xlink:href="#DejaVuSans-75" x="1084.570312"/>
     <use xlink:href="#DejaVuSans-72" x="1147.949219"/>
     <use xlink:href="#DejaVuSans-65" x="1186.8125"/>
     <use xlink:href="#DejaVuSans-20" x="1248.335938"/>
     <use xlink:href="#DejaVuSans-74" x="1280.123047"/>
     <use xlink:href="#DejaVuSans-69" x="1319.332031"/>
     <use xlink:href="#DejaVuSans-6d" x="1347.115234"/>
     <use xlink:href="#DejaVuSans-65" x="1444.527344"/>
    </g>
   </g>
  </g>
 </g>
 <defs>
  <clipPath id="p0c0a6c25ad">
   <rect x="50.14375" y="22.318125" width="334.8" height="221.76"/>
  </clipPath>
 </defs>
</svg>
