<?xml version="1.0" encoding="utf-8" standalone="no"?>
<!DOCTYPE svg PUBLIC "-//W3C//DTD SVG 1.1//EN"
  "http://www.w3.org/Graphics/SVG/1.1/DTD/svg11.dtd">
<svg xmlns:xlink="http://www.w3.org/1999/xlink" width="385.803125pt" height="266.51625pt" viewBox="0 0 385.803125 266.51625" xmlns="http://www.w3.org/2000/svg" version="1.1">
 <metadata>
  <rdf:RDF xmlns:dc="http://purl.org/dc/elements/1.1/" xmlns:cc="http://creativecommons.org/ns#" xmlns:rdf="http://www.w3.org/1999/02/22-rdf-syntax-ns#">
   <cc:Work>
    <dc:type rdf:resource="http://purl.org/dc/dcmitype/StillImage"/>
    <dc:date>2024-06-03T20:00:39.001917</dc:date>
    <dc:format>image/svg+xml</dc:format>
    <dc:creator>
     <cc:Agent>
      <dc:title>Matplotlib v3.7.1, https://matplotlib.org/</dc:title>
     </cc:Agent>
    </dc:creator>
   </cc:Work>
  </rdf:RDF>
 </metadata>
 <defs>
  <style type="text/css">*{stroke-linejoin: round; stroke-linecap: butt}</style>
 </defs>
 <g id="figure_1">
  <g id="patch_1">
   <path d="M 0 266.51625 
L 385.803125 266.51625 
L 385.803125 0 
L 0 0 
z
" style="fill: #ffffff"/>
  </g>
  <g id="axes_1">
   <g id="patch_2">
    <path d="M 43.803125 228.96 
L 378.603125 228.96 
L 378.603125 7.2 
L 43.803125 7.2 
z
" style="fill: #ffffff"/>
   </g>
   <g id="patch_3">
    <path d="M 50.608003 228.96 
L 57.86654 228.96 
L 57.86654 20.562893 
L 50.608003 20.562893 
z
" clip-path="url(#p8219af68bb)" style="fill: #1f77b4"/>
   </g>
   <g id="patch_4">
    <path d="M 77.827515 228.96 
L 85.086052 228.96 
L 85.086052 17.76 
L 77.827515 17.76 
z
" clip-path="url(#p8219af68bb)" style="fill: #1f77b4"/>
   </g>
   <g id="patch_5">
    <path d="M 105.047027 228.96 
L 112.305564 228.96 
L 112.305564 37.058453 
L 105.047027 37.058453 
z
" clip-path="url(#p8219af68bb)" style="fill: #1f77b4"/>
   </g>
   <g id="patch_6">
    <path d="M 132.26654 228.96 
L 139.525076 228.96 
L 139.525076 162.304563 
L 132.26654 162.304563 
z
" clip-path="url(#p8219af68bb)" style="fill: #1f77b4"/>
   </g>
   <g id="patch_7">
    <path d="M 159.486052 228.96 
L 166.744588 228.96 
L 166.744588 218.458541 
L 159.486052 218.458541 
z
" clip-path="url(#p8219af68bb)" style="fill: #1f77b4"/>
   </g>
   <g id="patch_8">
    <path d="M 186.705564 228.96 
L 193.964101 228.96 
L 193.964101 215.446544 
L 186.705564 215.446544 
z
" clip-path="url(#p8219af68bb)" style="fill: #1f77b4"/>
   </g>
   <g id="patch_9">
    <path d="M 213.925076 228.96 
L 221.183613 228.96 
L 221.183613 167.281695 
L 213.925076 167.281695 
z
" clip-path="url(#p8219af68bb)" style="fill: #1f77b4"/>
   </g>
   <g id="patch_10">
    <path d="M 241.144588 228.96 
L 248.403125 228.96 
L 248.403125 193.365641 
L 241.144588 193.365641 
z
" clip-path="url(#p8219af68bb)" style="fill: #1f77b4"/>
   </g>
   <g id="patch_11">
    <path d="M 268.364101 228.96 
L 275.622637 228.96 
L 275.622637 192.272482 
L 268.364101 192.272482 
z
" clip-path="url(#p8219af68bb)" style="fill: #1f77b4"/>
   </g>
   <g id="patch_12">
    <path d="M 295.583613 228.96 
L 302.842149 228.96 
L 302.842149 200.447327 
L 295.583613 200.447327 
z
" clip-path="url(#p8219af68bb)" style="fill: #1f77b4"/>
   </g>
   <g id="patch_13">
    <path d="M 322.803125 228.96 
L 330.061662 228.96 
L 330.061662 211.330737 
L 322.803125 211.330737 
z
" clip-path="url(#p8219af68bb)" style="fill: #1f77b4"/>
   </g>
   <g id="patch_14">
    <path d="M 350.022637 228.96 
L 357.281174 228.96 
L 357.281174 191.580582 
L 350.022637 191.580582 
z
" clip-path="url(#p8219af68bb)" style="fill: #1f77b4"/>
   </g>
   <g id="patch_15">
    <path d="M 57.86654 228.96 
L 65.125076 228.96 
L 65.125076 20.562855 
L 57.86654 20.562855 
z
" clip-path="url(#p8219af68bb)" style="fill: #ff7f0e"/>
   </g>
   <g id="patch_16">
    <path d="M 85.086052 228.96 
L 92.344588 228.96 
L 92.344588 62.682705 
L 85.086052 62.682705 
z
" clip-path="url(#p8219af68bb)" style="fill: #ff7f0e"/>
   </g>
   <g id="patch_17">
    <path d="M 112.305564 228.96 
L 119.564101 228.96 
L 119.564101 197.904411 
L 112.305564 197.904411 
z
" clip-path="url(#p8219af68bb)" style="fill: #ff7f0e"/>
   </g>
   <g id="patch_18">
    <path d="M 139.525076 228.96 
L 146.783613 228.96 
L 146.783613 206.380366 
L 139.525076 206.380366 
z
" clip-path="url(#p8219af68bb)" style="fill: #ff7f0e"/>
   </g>
   <g id="patch_19">
    <path d="M 166.744588 228.96 
L 174.003125 228.96 
L 174.003125 214.181332 
L 166.744588 214.181332 
z
" clip-path="url(#p8219af68bb)" style="fill: #ff7f0e"/>
   </g>
   <g id="patch_20">
    <path d="M 193.964101 228.96 
L 201.222637 228.96 
L 201.222637 199.292355 
L 193.964101 199.292355 
z
" clip-path="url(#p8219af68bb)" style="fill: #ff7f0e"/>
   </g>
   <g id="patch_21">
    <path d="M 221.183613 228.96 
L 228.442149 228.96 
L 228.442149 198.653609 
L 221.183613 198.653609 
z
" clip-path="url(#p8219af68bb)" style="fill: #ff7f0e"/>
   </g>
   <g id="patch_22">
    <path d="M 248.403125 228.96 
L 255.661662 228.96 
L 255.661662 223.99102 
L 248.403125 223.99102 
z
" clip-path="url(#p8219af68bb)" style="fill: #ff7f0e"/>
   </g>
   <g id="patch_23">
    <path d="M 275.622637 228.96 
L 282.881174 228.96 
L 282.881174 214.783375 
L 275.622637 214.783375 
z
" clip-path="url(#p8219af68bb)" style="fill: #ff7f0e"/>
   </g>
   <g id="patch_24">
    <path d="M 302.842149 228.96 
L 310.100686 228.96 
L 310.100686 187.747782 
L 302.842149 187.747782 
z
" clip-path="url(#p8219af68bb)" style="fill: #ff7f0e"/>
   </g>
   <g id="patch_25">
    <path d="M 330.061662 228.96 
L 337.320198 228.96 
L 337.320198 166.458196 
L 330.061662 166.458196 
z
" clip-path="url(#p8219af68bb)" style="fill: #ff7f0e"/>
   </g>
   <g id="patch_26">
    <path d="M 357.281174 228.96 
L 364.53971 228.96 
L 364.53971 127.299939 
L 357.281174 127.299939 
z
" clip-path="url(#p8219af68bb)" style="fill: #ff7f0e"/>
   </g>
   <g id="patch_27">
    <path d="M 65.125076 228.96 
L 72.383613 228.96 
L 72.383613 20.562922 
L 65.125076 20.562922 
z
" clip-path="url(#p8219af68bb)" style="fill: #2ca02c"/>
   </g>
   <g id="patch_28">
    <path d="M 92.344588 228.96 
L 99.603125 228.96 
L 99.603125 228.639023 
L 92.344588 228.639023 
z
" clip-path="url(#p8219af68bb)" style="fill: #2ca02c"/>
   </g>
   <g id="patch_29">
    <path d="M 119.564101 228.96 
L 126.822637 228.96 
L 126.822637 221.30816 
L 119.564101 221.30816 
z
" clip-path="url(#p8219af68bb)" style="fill: #2ca02c"/>
   </g>
   <g id="patch_30">
    <path d="M 146.783613 228.96 
L 154.042149 228.96 
L 154.042149 215.809679 
L 146.783613 215.809679 
z
" clip-path="url(#p8219af68bb)" style="fill: #2ca02c"/>
   </g>
   <g id="patch_31">
    <path d="M 174.003125 228.96 
L 181.261662 228.96 
L 181.261662 223.788958 
L 174.003125 223.788958 
z
" clip-path="url(#p8219af68bb)" style="fill: #2ca02c"/>
   </g>
   <g id="patch_32">
    <path d="M 201.222637 228.96 
L 208.481174 228.96 
L 208.481174 224.938936 
L 201.222637 224.938936 
z
" clip-path="url(#p8219af68bb)" style="fill: #2ca02c"/>
   </g>
   <g id="patch_33">
    <path d="M 228.442149 228.96 
L 235.700686 228.96 
L 235.700686 201.456737 
L 228.442149 201.456737 
z
" clip-path="url(#p8219af68bb)" style="fill: #2ca02c"/>
   </g>
   <g id="patch_34">
    <path d="M 255.661662 228.96 
L 262.920198 228.96 
L 262.920198 193.837765 
L 255.661662 193.837765 
z
" clip-path="url(#p8219af68bb)" style="fill: #2ca02c"/>
   </g>
   <g id="patch_35">
    <path d="M 282.881174 228.96 
L 290.13971 228.96 
L 290.13971 92.172848 
L 282.881174 92.172848 
z
" clip-path="url(#p8219af68bb)" style="fill: #2ca02c"/>
   </g>
   <g id="patch_36">
    <path d="M 310.100686 228.96 
L 317.359223 228.96 
L 317.359223 170.604369 
L 310.100686 170.604369 
z
" clip-path="url(#p8219af68bb)" style="fill: #2ca02c"/>
   </g>
   <g id="patch_37">
    <path d="M 337.320198 228.96 
L 344.578735 228.96 
L 344.578735 118.672791 
L 337.320198 118.672791 
z
" clip-path="url(#p8219af68bb)" style="fill: #2ca02c"/>
   </g>
   <g id="patch_38">
    <path d="M 364.53971 228.96 
L 371.798247 228.96 
L 371.798247 171.852495 
L 364.53971 171.852495 
z
" clip-path="url(#p8219af68bb)" style="fill: #2ca02c"/>
   </g>
   <g id="matplotlib.axis_1">
    <g id="xtick_1">
     <g id="line2d_1">
      <defs>
       <path id="m92c1254dab" d="M 0 0 
L 0 3.5 
" style="stroke: #000000; stroke-width: 0.8"/>
      </defs>
      <g>
       <use xlink:href="#m92c1254dab" x="61.495808" y="228.96" style="stroke: #000000; stroke-width: 0.8"/>
      </g>
     </g>
     <g id="text_1">
      <!-- 10 -->
      <g transform="translate(55.133308 243.558437) scale(0.1 -0.1)">
       <defs>
        <path id="DejaVuSans-31" d="M 794 531 
L 1825 531 
L 1825 4091 
L 703 3866 
L 703 4441 
L 1819 4666 
L 2450 4666 
L 2450 531 
L 3481 531 
L 3481 0 
L 794 0 
L 794 531 
z
" transform="scale(0.015625)"/>
        <path id="DejaVuSans-30" d="M 2034 4250 
Q 1547 4250 1301 3770 
Q 1056 3291 1056 2328 
Q 1056 1369 1301 889 
Q 1547 409 2034 409 
Q 2525 409 2770 889 
Q 3016 1369 3016 2328 
Q 3016 3291 2770 3770 
Q 2525 4250 2034 4250 
z
M 2034 4750 
Q 2819 4750 3233 4129 
Q 3647 3509 3647 2328 
Q 3647 1150 3233 529 
Q 2819 -91 2034 -91 
Q 1250 -91 836 529 
Q 422 1150 422 2328 
Q 422 3509 836 4129 
Q 1250 4750 2034 4750 
z
" transform="scale(0.015625)"/>
       </defs>
       <use xlink:href="#DejaVuSans-31"/>
       <use xlink:href="#DejaVuSans-30" x="63.623047"/>
      </g>
     </g>
    </g>
    <g id="xtick_2">
     <g id="line2d_2">
      <g>
       <use xlink:href="#m92c1254dab" x="88.71532" y="228.96" style="stroke: #000000; stroke-width: 0.8"/>
      </g>
     </g>
     <g id="text_2">
      <!-- 50 -->
      <g transform="translate(82.35282 243.558437) scale(0.1 -0.1)">
       <defs>
        <path id="DejaVuSans-35" d="M 691 4666 
L 3169 4666 
L 3169 4134 
L 1269 4134 
L 1269 2991 
Q 1406 3038 1543 3061 
Q 1681 3084 1819 3084 
Q 2600 3084 3056 2656 
Q 3513 2228 3513 1497 
Q 3513 744 3044 326 
Q 2575 -91 1722 -91 
Q 1428 -91 1123 -41 
Q 819 9 494 109 
L 494 744 
Q 775 591 1075 516 
Q 1375 441 1709 441 
Q 2250 441 2565 725 
Q 2881 1009 2881 1497 
Q 2881 1984 2565 2268 
Q 2250 2553 1709 2553 
Q 1456 2553 1204 2497 
Q 953 2441 691 2322 
L 691 4666 
z
" transform="scale(0.015625)"/>
       </defs>
       <use xlink:href="#DejaVuSans-35"/>
       <use xlink:href="#DejaVuSans-30" x="63.623047"/>
      </g>
     </g>
    </g>
    <g id="xtick_3">
     <g id="line2d_3">
      <g>
       <use xlink:href="#m92c1254dab" x="115.934832" y="228.96" style="stroke: #000000; stroke-width: 0.8"/>
      </g>
     </g>
     <g id="text_3">
      <!-- 90 -->
      <g transform="translate(109.572332 243.558437) scale(0.1 -0.1)">
       <defs>
        <path id="DejaVuSans-39" d="M 703 97 
L 703 672 
Q 941 559 1184 500 
Q 1428 441 1663 441 
Q 2288 441 2617 861 
Q 2947 1281 2994 2138 
Q 2813 1869 2534 1725 
Q 2256 1581 1919 1581 
Q 1219 1581 811 2004 
Q 403 2428 403 3163 
Q 403 3881 828 4315 
Q 1253 4750 1959 4750 
Q 2769 4750 3195 4129 
Q 3622 3509 3622 2328 
Q 3622 1225 3098 567 
Q 2575 -91 1691 -91 
Q 1453 -91 1209 -44 
Q 966 3 703 97 
z
M 1959 2075 
Q 2384 2075 2632 2365 
Q 2881 2656 2881 3163 
Q 2881 3666 2632 3958 
Q 2384 4250 1959 4250 
Q 1534 4250 1286 3958 
Q 1038 3666 1038 3163 
Q 1038 2656 1286 2365 
Q 1534 2075 1959 2075 
z
" transform="scale(0.015625)"/>
       </defs>
       <use xlink:href="#DejaVuSans-39"/>
       <use xlink:href="#DejaVuSans-30" x="63.623047"/>
      </g>
     </g>
    </g>
    <g id="xtick_4">
     <g id="line2d_4">
      <g>
       <use xlink:href="#m92c1254dab" x="143.154345" y="228.96" style="stroke: #000000; stroke-width: 0.8"/>
      </g>
     </g>
     <g id="text_4">
      <!-- 130 -->
      <g transform="translate(133.610595 243.558437) scale(0.1 -0.1)">
       <defs>
        <path id="DejaVuSans-33" d="M 2597 2516 
Q 3050 2419 3304 2112 
Q 3559 1806 3559 1356 
Q 3559 666 3084 287 
Q 2609 -91 1734 -91 
Q 1441 -91 1130 -33 
Q 819 25 488 141 
L 488 750 
Q 750 597 1062 519 
Q 1375 441 1716 441 
Q 2309 441 2620 675 
Q 2931 909 2931 1356 
Q 2931 1769 2642 2001 
Q 2353 2234 1838 2234 
L 1294 2234 
L 1294 2753 
L 1863 2753 
Q 2328 2753 2575 2939 
Q 2822 3125 2822 3475 
Q 2822 3834 2567 4026 
Q 2313 4219 1838 4219 
Q 1578 4219 1281 4162 
Q 984 4106 628 3988 
L 628 4550 
Q 988 4650 1302 4700 
Q 1616 4750 1894 4750 
Q 2613 4750 3031 4423 
Q 3450 4097 3450 3541 
Q 3450 3153 3228 2886 
Q 3006 2619 2597 2516 
z
" transform="scale(0.015625)"/>
       </defs>
       <use xlink:href="#DejaVuSans-31"/>
       <use xlink:href="#DejaVuSans-33" x="63.623047"/>
       <use xlink:href="#DejaVuSans-30" x="127.246094"/>
      </g>
     </g>
    </g>
    <g id="xtick_5">
     <g id="line2d_5">
      <g>
       <use xlink:href="#m92c1254dab" x="170.373857" y="228.96" style="stroke: #000000; stroke-width: 0.8"/>
      </g>
     </g>
     <g id="text_5">
      <!-- 170 -->
      <g transform="translate(160.830107 243.558437) scale(0.1 -0.1)">
       <defs>
        <path id="DejaVuSans-37" d="M 525 4666 
L 3525 4666 
L 3525 4397 
L 1831 0 
L 1172 0 
L 2766 4134 
L 525 4134 
L 525 4666 
z
" transform="scale(0.015625)"/>
       </defs>
       <use xlink:href="#DejaVuSans-31"/>
       <use xlink:href="#DejaVuSans-37" x="63.623047"/>
       <use xlink:href="#DejaVuSans-30" x="127.246094"/>
      </g>
     </g>
    </g>
    <g id="xtick_6">
     <g id="line2d_6">
      <g>
       <use xlink:href="#m92c1254dab" x="197.593369" y="228.96" style="stroke: #000000; stroke-width: 0.8"/>
      </g>
     </g>
     <g id="text_6">
      <!-- 210 -->
      <g transform="translate(188.049619 243.558437) scale(0.1 -0.1)">
       <defs>
        <path id="DejaVuSans-32" d="M 1228 531 
L 3431 531 
L 3431 0 
L 469 0 
L 469 531 
Q 828 903 1448 1529 
Q 2069 2156 2228 2338 
Q 2531 2678 2651 2914 
Q 2772 3150 2772 3378 
Q 2772 3750 2511 3984 
Q 2250 4219 1831 4219 
Q 1534 4219 1204 4116 
Q 875 4013 500 3803 
L 500 4441 
Q 881 4594 1212 4672 
Q 1544 4750 1819 4750 
Q 2544 4750 2975 4387 
Q 3406 4025 3406 3419 
Q 3406 3131 3298 2873 
Q 3191 2616 2906 2266 
Q 2828 2175 2409 1742 
Q 1991 1309 1228 531 
z
" transform="scale(0.015625)"/>
       </defs>
       <use xlink:href="#DejaVuSans-32"/>
       <use xlink:href="#DejaVuSans-31" x="63.623047"/>
       <use xlink:href="#DejaVuSans-30" x="127.246094"/>
      </g>
     </g>
    </g>
    <g id="xtick_7">
     <g id="line2d_7">
      <g>
       <use xlink:href="#m92c1254dab" x="224.812881" y="228.96" style="stroke: #000000; stroke-width: 0.8"/>
      </g>
     </g>
     <g id="text_7">
      <!-- 250 -->
      <g transform="translate(215.269131 243.558437) scale(0.1 -0.1)">
       <use xlink:href="#DejaVuSans-32"/>
       <use xlink:href="#DejaVuSans-35" x="63.623047"/>
       <use xlink:href="#DejaVuSans-30" x="127.246094"/>
      </g>
     </g>
    </g>
    <g id="xtick_8">
     <g id="line2d_8">
      <g>
       <use xlink:href="#m92c1254dab" x="252.032393" y="228.96" style="stroke: #000000; stroke-width: 0.8"/>
      </g>
     </g>
     <g id="text_8">
      <!-- 290 -->
      <g transform="translate(242.488643 243.558437) scale(0.1 -0.1)">
       <use xlink:href="#DejaVuSans-32"/>
       <use xlink:href="#DejaVuSans-39" x="63.623047"/>
       <use xlink:href="#DejaVuSans-30" x="127.246094"/>
      </g>
     </g>
    </g>
    <g id="xtick_9">
     <g id="line2d_9">
      <g>
       <use xlink:href="#m92c1254dab" x="279.251905" y="228.96" style="stroke: #000000; stroke-width: 0.8"/>
      </g>
     </g>
     <g id="text_9">
      <!-- 330 -->
      <g transform="translate(269.708155 243.558437) scale(0.1 -0.1)">
       <use xlink:href="#DejaVuSans-33"/>
       <use xlink:href="#DejaVuSans-33" x="63.623047"/>
       <use xlink:href="#DejaVuSans-30" x="127.246094"/>
      </g>
     </g>
    </g>
    <g id="xtick_10">
     <g id="line2d_10">
      <g>
       <use xlink:href="#m92c1254dab" x="306.471418" y="228.96" style="stroke: #000000; stroke-width: 0.8"/>
      </g>
     </g>
     <g id="text_10">
      <!-- 370 -->
      <g transform="translate(296.927668 243.558437) scale(0.1 -0.1)">
       <use xlink:href="#DejaVuSans-33"/>
       <use xlink:href="#DejaVuSans-37" x="63.623047"/>
       <use xlink:href="#DejaVuSans-30" x="127.246094"/>
      </g>
     </g>
    </g>
    <g id="xtick_11">
     <g id="line2d_11">
      <g>
       <use xlink:href="#m92c1254dab" x="333.69093" y="228.96" style="stroke: #000000; stroke-width: 0.8"/>
      </g>
     </g>
     <g id="text_11">
      <!-- 410 -->
      <g transform="translate(324.14718 243.558437) scale(0.1 -0.1)">
       <defs>
        <path id="DejaVuSans-34" d="M 2419 4116 
L 825 1625 
L 2419 1625 
L 2419 4116 
z
M 2253 4666 
L 3047 4666 
L 3047 1625 
L 3713 1625 
L 3713 1100 
L 3047 1100 
L 3047 0 
L 2419 0 
L 2419 1100 
L 313 1100 
L 313 1709 
L 2253 4666 
z
" transform="scale(0.015625)"/>
       </defs>
       <use xlink:href="#DejaVuSans-34"/>
       <use xlink:href="#DejaVuSans-31" x="63.623047"/>
       <use xlink:href="#DejaVuSans-30" x="127.246094"/>
      </g>
     </g>
    </g>
    <g id="xtick_12">
     <g id="line2d_12">
      <g>
       <use xlink:href="#m92c1254dab" x="360.910442" y="228.96" style="stroke: #000000; stroke-width: 0.8"/>
      </g>
     </g>
     <g id="text_12">
      <!-- 450 -->
      <g transform="translate(351.366692 243.558437) scale(0.1 -0.1)">
       <use xlink:href="#DejaVuSans-34"/>
       <use xlink:href="#DejaVuSans-35" x="63.623047"/>
       <use xlink:href="#DejaVuSans-30" x="127.246094"/>
      </g>
     </g>
    </g>
    <g id="text_13">
     <!-- Numbers of charging piles -->
     <g transform="translate(145.435937 257.236562) scale(0.1 -0.1)">
      <defs>
       <path id="DejaVuSans-4e" d="M 628 4666 
L 1478 4666 
L 3547 763 
L 3547 4666 
L 4159 4666 
L 4159 0 
L 3309 0 
L 1241 3903 
L 1241 0 
L 628 0 
L 628 4666 
z
" transform="scale(0.015625)"/>
       <path id="DejaVuSans-75" d="M 544 1381 
L 544 3500 
L 1119 3500 
L 1119 1403 
Q 1119 906 1312 657 
Q 1506 409 1894 409 
Q 2359 409 2629 706 
Q 2900 1003 2900 1516 
L 2900 3500 
L 3475 3500 
L 3475 0 
L 2900 0 
L 2900 538 
Q 2691 219 2414 64 
Q 2138 -91 1772 -91 
Q 1169 -91 856 284 
Q 544 659 544 1381 
z
M 1991 3584 
L 1991 3584 
z
" transform="scale(0.015625)"/>
       <path id="DejaVuSans-6d" d="M 3328 2828 
Q 3544 3216 3844 3400 
Q 4144 3584 4550 3584 
Q 5097 3584 5394 3201 
Q 5691 2819 5691 2113 
L 5691 0 
L 5113 0 
L 5113 2094 
Q 5113 2597 4934 2840 
Q 4756 3084 4391 3084 
Q 3944 3084 3684 2787 
Q 3425 2491 3425 1978 
L 3425 0 
L 2847 0 
L 2847 2094 
Q 2847 2600 2669 2842 
Q 2491 3084 2119 3084 
Q 1678 3084 1418 2786 
Q 1159 2488 1159 1978 
L 1159 0 
L 581 0 
L 581 3500 
L 1159 3500 
L 1159 2956 
Q 1356 3278 1631 3431 
Q 1906 3584 2284 3584 
Q 2666 3584 2933 3390 
Q 3200 3197 3328 2828 
z
" transform="scale(0.015625)"/>
       <path id="DejaVuSans-62" d="M 3116 1747 
Q 3116 2381 2855 2742 
Q 2594 3103 2138 3103 
Q 1681 3103 1420 2742 
Q 1159 2381 1159 1747 
Q 1159 1113 1420 752 
Q 1681 391 2138 391 
Q 2594 391 2855 752 
Q 3116 1113 3116 1747 
z
M 1159 2969 
Q 1341 3281 1617 3432 
Q 1894 3584 2278 3584 
Q 2916 3584 3314 3078 
Q 3713 2572 3713 1747 
Q 3713 922 3314 415 
Q 2916 -91 2278 -91 
Q 1894 -91 1617 61 
Q 1341 213 1159 525 
L 1159 0 
L 581 0 
L 581 4863 
L 1159 4863 
L 1159 2969 
z
" transform="scale(0.015625)"/>
       <path id="DejaVuSans-65" d="M 3597 1894 
L 3597 1613 
L 953 1613 
Q 991 1019 1311 708 
Q 1631 397 2203 397 
Q 2534 397 2845 478 
Q 3156 559 3463 722 
L 3463 178 
Q 3153 47 2828 -22 
Q 2503 -91 2169 -91 
Q 1331 -91 842 396 
Q 353 884 353 1716 
Q 353 2575 817 3079 
Q 1281 3584 2069 3584 
Q 2775 3584 3186 3129 
Q 3597 2675 3597 1894 
z
M 3022 2063 
Q 3016 2534 2758 2815 
Q 2500 3097 2075 3097 
Q 1594 3097 1305 2825 
Q 1016 2553 972 2059 
L 3022 2063 
z
" transform="scale(0.015625)"/>
       <path id="DejaVuSans-72" d="M 2631 2963 
Q 2534 3019 2420 3045 
Q 2306 3072 2169 3072 
Q 1681 3072 1420 2755 
Q 1159 2438 1159 1844 
L 1159 0 
L 581 0 
L 581 3500 
L 1159 3500 
L 1159 2956 
Q 1341 3275 1631 3429 
Q 1922 3584 2338 3584 
Q 2397 3584 2469 3576 
Q 2541 3569 2628 3553 
L 2631 2963 
z
" transform="scale(0.015625)"/>
       <path id="DejaVuSans-73" d="M 2834 3397 
L 2834 2853 
Q 2591 2978 2328 3040 
Q 2066 3103 1784 3103 
Q 1356 3103 1142 2972 
Q 928 2841 928 2578 
Q 928 2378 1081 2264 
Q 1234 2150 1697 2047 
L 1894 2003 
Q 2506 1872 2764 1633 
Q 3022 1394 3022 966 
Q 3022 478 2636 193 
Q 2250 -91 1575 -91 
Q 1294 -91 989 -36 
Q 684 19 347 128 
L 347 722 
Q 666 556 975 473 
Q 1284 391 1588 391 
Q 1994 391 2212 530 
Q 2431 669 2431 922 
Q 2431 1156 2273 1281 
Q 2116 1406 1581 1522 
L 1381 1569 
Q 847 1681 609 1914 
Q 372 2147 372 2553 
Q 372 3047 722 3315 
Q 1072 3584 1716 3584 
Q 2034 3584 2315 3537 
Q 2597 3491 2834 3397 
z
" transform="scale(0.015625)"/>
       <path id="DejaVuSans-20" transform="scale(0.015625)"/>
       <path id="DejaVuSans-6f" d="M 1959 3097 
Q 1497 3097 1228 2736 
Q 959 2375 959 1747 
Q 959 1119 1226 758 
Q 1494 397 1959 397 
Q 2419 397 2687 759 
Q 2956 1122 2956 1747 
Q 2956 2369 2687 2733 
Q 2419 3097 1959 3097 
z
M 1959 3584 
Q 2709 3584 3137 3096 
Q 3566 2609 3566 1747 
Q 3566 888 3137 398 
Q 2709 -91 1959 -91 
Q 1206 -91 779 398 
Q 353 888 353 1747 
Q 353 2609 779 3096 
Q 1206 3584 1959 3584 
z
" transform="scale(0.015625)"/>
       <path id="DejaVuSans-66" d="M 2375 4863 
L 2375 4384 
L 1825 4384 
Q 1516 4384 1395 4259 
Q 1275 4134 1275 3809 
L 1275 3500 
L 2222 3500 
L 2222 3053 
L 1275 3053 
L 1275 0 
L 697 0 
L 697 3053 
L 147 3053 
L 147 3500 
L 697 3500 
L 697 3744 
Q 697 4328 969 4595 
Q 1241 4863 1831 4863 
L 2375 4863 
z
" transform="scale(0.015625)"/>
       <path id="DejaVuSans-63" d="M 3122 3366 
L 3122 2828 
Q 2878 2963 2633 3030 
Q 2388 3097 2138 3097 
Q 1578 3097 1268 2742 
Q 959 2388 959 1747 
Q 959 1106 1268 751 
Q 1578 397 2138 397 
Q 2388 397 2633 464 
Q 2878 531 3122 666 
L 3122 134 
Q 2881 22 2623 -34 
Q 2366 -91 2075 -91 
Q 1284 -91 818 406 
Q 353 903 353 1747 
Q 353 2603 823 3093 
Q 1294 3584 2113 3584 
Q 2378 3584 2631 3529 
Q 2884 3475 3122 3366 
z
" transform="scale(0.015625)"/>
       <path id="DejaVuSans-68" d="M 3513 2113 
L 3513 0 
L 2938 0 
L 2938 2094 
Q 2938 2591 2744 2837 
Q 2550 3084 2163 3084 
Q 1697 3084 1428 2787 
Q 1159 2491 1159 1978 
L 1159 0 
L 581 0 
L 581 4863 
L 1159 4863 
L 1159 2956 
Q 1366 3272 1645 3428 
Q 1925 3584 2291 3584 
Q 2894 3584 3203 3211 
Q 3513 2838 3513 2113 
z
" transform="scale(0.015625)"/>
       <path id="DejaVuSans-61" d="M 2194 1759 
Q 1497 1759 1228 1600 
Q 959 1441 959 1056 
Q 959 750 1161 570 
Q 1363 391 1709 391 
Q 2188 391 2477 730 
Q 2766 1069 2766 1631 
L 2766 1759 
L 2194 1759 
z
M 3341 1997 
L 3341 0 
L 2766 0 
L 2766 531 
Q 2569 213 2275 61 
Q 1981 -91 1556 -91 
Q 1019 -91 701 211 
Q 384 513 384 1019 
Q 384 1609 779 1909 
Q 1175 2209 1959 2209 
L 2766 2209 
L 2766 2266 
Q 2766 2663 2505 2880 
Q 2244 3097 1772 3097 
Q 1472 3097 1187 3025 
Q 903 2953 641 2809 
L 641 3341 
Q 956 3463 1253 3523 
Q 1550 3584 1831 3584 
Q 2591 3584 2966 3190 
Q 3341 2797 3341 1997 
z
" transform="scale(0.015625)"/>
       <path id="DejaVuSans-67" d="M 2906 1791 
Q 2906 2416 2648 2759 
Q 2391 3103 1925 3103 
Q 1463 3103 1205 2759 
Q 947 2416 947 1791 
Q 947 1169 1205 825 
Q 1463 481 1925 481 
Q 2391 481 2648 825 
Q 2906 1169 2906 1791 
z
M 3481 434 
Q 3481 -459 3084 -895 
Q 2688 -1331 1869 -1331 
Q 1566 -1331 1297 -1286 
Q 1028 -1241 775 -1147 
L 775 -588 
Q 1028 -725 1275 -790 
Q 1522 -856 1778 -856 
Q 2344 -856 2625 -561 
Q 2906 -266 2906 331 
L 2906 616 
Q 2728 306 2450 153 
Q 2172 0 1784 0 
Q 1141 0 747 490 
Q 353 981 353 1791 
Q 353 2603 747 3093 
Q 1141 3584 1784 3584 
Q 2172 3584 2450 3431 
Q 2728 3278 2906 2969 
L 2906 3500 
L 3481 3500 
L 3481 434 
z
" transform="scale(0.015625)"/>
       <path id="DejaVuSans-69" d="M 603 3500 
L 1178 3500 
L 1178 0 
L 603 0 
L 603 3500 
z
M 603 4863 
L 1178 4863 
L 1178 4134 
L 603 4134 
L 603 4863 
z
" transform="scale(0.015625)"/>
       <path id="DejaVuSans-6e" d="M 3513 2113 
L 3513 0 
L 2938 0 
L 2938 2094 
Q 2938 2591 2744 2837 
Q 2550 3084 2163 3084 
Q 1697 3084 1428 2787 
Q 1159 2491 1159 1978 
L 1159 0 
L 581 0 
L 581 3500 
L 1159 3500 
L 1159 2956 
Q 1366 3272 1645 3428 
Q 1925 3584 2291 3584 
Q 2894 3584 3203 3211 
Q 3513 2838 3513 2113 
z
" transform="scale(0.015625)"/>
       <path id="DejaVuSans-70" d="M 1159 525 
L 1159 -1331 
L 581 -1331 
L 581 3500 
L 1159 3500 
L 1159 2969 
Q 1341 3281 1617 3432 
Q 1894 3584 2278 3584 
Q 2916 3584 3314 3078 
Q 3713 2572 3713 1747 
Q 3713 922 3314 415 
Q 2916 -91 2278 -91 
Q 1894 -91 1617 61 
Q 1341 213 1159 525 
z
M 3116 1747 
Q 3116 2381 2855 2742 
Q 2594 3103 2138 3103 
Q 1681 3103 1420 2742 
Q 1159 2381 1159 1747 
Q 1159 1113 1420 752 
Q 1681 391 2138 391 
Q 2594 391 2855 752 
Q 3116 1113 3116 1747 
z
" transform="scale(0.015625)"/>
       <path id="DejaVuSans-6c" d="M 603 4863 
L 1178 4863 
L 1178 0 
L 603 0 
L 603 4863 
z
" transform="scale(0.015625)"/>
      </defs>
      <use xlink:href="#DejaVuSans-4e"/>
      <use xlink:href="#DejaVuSans-75" x="74.804688"/>
      <use xlink:href="#DejaVuSans-6d" x="138.183594"/>
      <use xlink:href="#DejaVuSans-62" x="235.595703"/>
      <use xlink:href="#DejaVuSans-65" x="299.072266"/>
      <use xlink:href="#DejaVuSans-72" x="360.595703"/>
      <use xlink:href="#DejaVuSans-73" x="401.708984"/>
      <use xlink:href="#DejaVuSans-20" x="453.808594"/>
      <use xlink:href="#DejaVuSans-6f" x="485.595703"/>
      <use xlink:href="#DejaVuSans-66" x="546.777344"/>
      <use xlink:href="#DejaVuSans-20" x="581.982422"/>
      <use xlink:href="#DejaVuSans-63" x="613.769531"/>
      <use xlink:href="#DejaVuSans-68" x="668.75"/>
      <use xlink:href="#DejaVuSans-61" x="732.128906"/>
      <use xlink:href="#DejaVuSans-72" x="793.408203"/>
      <use xlink:href="#DejaVuSans-67" x="832.771484"/>
      <use xlink:href="#DejaVuSans-69" x="896.248047"/>
      <use xlink:href="#DejaVuSans-6e" x="924.03125"/>
      <use xlink:href="#DejaVuSans-67" x="987.410156"/>
      <use xlink:href="#DejaVuSans-20" x="1050.886719"/>
      <use xlink:href="#DejaVuSans-70" x="1082.673828"/>
      <use xlink:href="#DejaVuSans-69" x="1146.150391"/>
      <use xlink:href="#DejaVuSans-6c" x="1173.933594"/>
      <use xlink:href="#DejaVuSans-65" x="1201.716797"/>
      <use xlink:href="#DejaVuSans-73" x="1263.240234"/>
     </g>
    </g>
   </g>
   <g id="matplotlib.axis_2">
    <g id="ytick_1">
     <g id="line2d_13">
      <defs>
       <path id="m1308a537ad" d="M 0 0 
L -3.5 0 
" style="stroke: #000000; stroke-width: 0.8"/>
      </defs>
      <g>
       <use xlink:href="#m1308a537ad" x="43.803125" y="228.96" style="stroke: #000000; stroke-width: 0.8"/>
      </g>
     </g>
     <g id="text_14">
      <!-- 0.0 -->
      <g transform="translate(20.9 232.759219) scale(0.1 -0.1)">
       <defs>
        <path id="DejaVuSans-2e" d="M 684 794 
L 1344 794 
L 1344 0 
L 684 0 
L 684 794 
z
" transform="scale(0.015625)"/>
       </defs>
       <use xlink:href="#DejaVuSans-30"/>
       <use xlink:href="#DejaVuSans-2e" x="63.623047"/>
       <use xlink:href="#DejaVuSans-30" x="95.410156"/>
      </g>
     </g>
    </g>
    <g id="ytick_2">
     <g id="line2d_14">
      <g>
       <use xlink:href="#m1308a537ad" x="43.803125" y="186.650458" style="stroke: #000000; stroke-width: 0.8"/>
      </g>
     </g>
     <g id="text_15">
      <!-- 0.2 -->
      <g transform="translate(20.9 190.449677) scale(0.1 -0.1)">
       <use xlink:href="#DejaVuSans-30"/>
       <use xlink:href="#DejaVuSans-2e" x="63.623047"/>
       <use xlink:href="#DejaVuSans-32" x="95.410156"/>
      </g>
     </g>
    </g>
    <g id="ytick_3">
     <g id="line2d_15">
      <g>
       <use xlink:href="#m1308a537ad" x="43.803125" y="144.340917" style="stroke: #000000; stroke-width: 0.8"/>
      </g>
     </g>
     <g id="text_16">
      <!-- 0.4 -->
      <g transform="translate(20.9 148.140135) scale(0.1 -0.1)">
       <use xlink:href="#DejaVuSans-30"/>
       <use xlink:href="#DejaVuSans-2e" x="63.623047"/>
       <use xlink:href="#DejaVuSans-34" x="95.410156"/>
      </g>
     </g>
    </g>
    <g id="ytick_4">
     <g id="line2d_16">
      <g>
       <use xlink:href="#m1308a537ad" x="43.803125" y="102.031375" style="stroke: #000000; stroke-width: 0.8"/>
      </g>
     </g>
     <g id="text_17">
      <!-- 0.6 -->
      <g transform="translate(20.9 105.830594) scale(0.1 -0.1)">
       <defs>
        <path id="DejaVuSans-36" d="M 2113 2584 
Q 1688 2584 1439 2293 
Q 1191 2003 1191 1497 
Q 1191 994 1439 701 
Q 1688 409 2113 409 
Q 2538 409 2786 701 
Q 3034 994 3034 1497 
Q 3034 2003 2786 2293 
Q 2538 2584 2113 2584 
z
M 3366 4563 
L 3366 3988 
Q 3128 4100 2886 4159 
Q 2644 4219 2406 4219 
Q 1781 4219 1451 3797 
Q 1122 3375 1075 2522 
Q 1259 2794 1537 2939 
Q 1816 3084 2150 3084 
Q 2853 3084 3261 2657 
Q 3669 2231 3669 1497 
Q 3669 778 3244 343 
Q 2819 -91 2113 -91 
Q 1303 -91 875 529 
Q 447 1150 447 2328 
Q 447 3434 972 4092 
Q 1497 4750 2381 4750 
Q 2619 4750 2861 4703 
Q 3103 4656 3366 4563 
z
" transform="scale(0.015625)"/>
       </defs>
       <use xlink:href="#DejaVuSans-30"/>
       <use xlink:href="#DejaVuSans-2e" x="63.623047"/>
       <use xlink:href="#DejaVuSans-36" x="95.410156"/>
      </g>
     </g>
    </g>
    <g id="ytick_5">
     <g id="line2d_17">
      <g>
       <use xlink:href="#m1308a537ad" x="43.803125" y="59.721833" style="stroke: #000000; stroke-width: 0.8"/>
      </g>
     </g>
     <g id="text_18">
      <!-- 0.8 -->
      <g transform="translate(20.9 63.521052) scale(0.1 -0.1)">
       <defs>
        <path id="DejaVuSans-38" d="M 2034 2216 
Q 1584 2216 1326 1975 
Q 1069 1734 1069 1313 
Q 1069 891 1326 650 
Q 1584 409 2034 409 
Q 2484 409 2743 651 
Q 3003 894 3003 1313 
Q 3003 1734 2745 1975 
Q 2488 2216 2034 2216 
z
M 1403 2484 
Q 997 2584 770 2862 
Q 544 3141 544 3541 
Q 544 4100 942 4425 
Q 1341 4750 2034 4750 
Q 2731 4750 3128 4425 
Q 3525 4100 3525 3541 
Q 3525 3141 3298 2862 
Q 3072 2584 2669 2484 
Q 3125 2378 3379 2068 
Q 3634 1759 3634 1313 
Q 3634 634 3220 271 
Q 2806 -91 2034 -91 
Q 1263 -91 848 271 
Q 434 634 434 1313 
Q 434 1759 690 2068 
Q 947 2378 1403 2484 
z
M 1172 3481 
Q 1172 3119 1398 2916 
Q 1625 2713 2034 2713 
Q 2441 2713 2670 2916 
Q 2900 3119 2900 3481 
Q 2900 3844 2670 4047 
Q 2441 4250 2034 4250 
Q 1625 4250 1398 4047 
Q 1172 3844 1172 3481 
z
" transform="scale(0.015625)"/>
       </defs>
       <use xlink:href="#DejaVuSans-30"/>
       <use xlink:href="#DejaVuSans-2e" x="63.623047"/>
       <use xlink:href="#DejaVuSans-38" x="95.410156"/>
      </g>
     </g>
    </g>
    <g id="ytick_6">
     <g id="line2d_18">
      <g>
       <use xlink:href="#m1308a537ad" x="43.803125" y="17.412291" style="stroke: #000000; stroke-width: 0.8"/>
      </g>
     </g>
     <g id="text_19">
      <!-- 1.0 -->
      <g transform="translate(20.9 21.21151) scale(0.1 -0.1)">
       <use xlink:href="#DejaVuSans-31"/>
       <use xlink:href="#DejaVuSans-2e" x="63.623047"/>
       <use xlink:href="#DejaVuSans-30" x="95.410156"/>
      </g>
     </g>
    </g>
    <g id="text_20">
     <!-- $\mathit{p}$ value -->
     <g transform="translate(14.8 136.53) rotate(-90) scale(0.1 -0.1)">
      <defs>
       <path id="DejaVuSans-Oblique-70" d="M 3175 2156 
Q 3175 2616 2975 2859 
Q 2775 3103 2400 3103 
Q 2144 3103 1911 2972 
Q 1678 2841 1497 2591 
Q 1319 2344 1212 1994 
Q 1106 1644 1106 1300 
Q 1106 863 1306 627 
Q 1506 391 1875 391 
Q 2147 391 2380 519 
Q 2613 647 2778 891 
Q 2956 1147 3065 1494 
Q 3175 1841 3175 2156 
z
M 1394 2969 
Q 1625 3272 1939 3428 
Q 2253 3584 2638 3584 
Q 3175 3584 3472 3232 
Q 3769 2881 3769 2247 
Q 3769 1728 3584 1258 
Q 3400 788 3053 416 
Q 2822 169 2531 39 
Q 2241 -91 1919 -91 
Q 1547 -91 1294 64 
Q 1041 219 916 525 
L 556 -1331 
L -19 -1331 
L 922 3500 
L 1497 3500 
L 1394 2969 
z
" transform="scale(0.015625)"/>
       <path id="DejaVuSans-76" d="M 191 3500 
L 800 3500 
L 1894 563 
L 2988 3500 
L 3597 3500 
L 2284 0 
L 1503 0 
L 191 3500 
z
" transform="scale(0.015625)"/>
      </defs>
      <use xlink:href="#DejaVuSans-Oblique-70" transform="translate(0 0.015625)"/>
      <use xlink:href="#DejaVuSans-20" transform="translate(63.476562 0.015625)"/>
      <use xlink:href="#DejaVuSans-76" transform="translate(95.263672 0.015625)"/>
      <use xlink:href="#DejaVuSans-61" transform="translate(154.443359 0.015625)"/>
      <use xlink:href="#DejaVuSans-6c" transform="translate(215.722656 0.015625)"/>
      <use xlink:href="#DejaVuSans-75" transform="translate(243.505859 0.015625)"/>
      <use xlink:href="#DejaVuSans-65" transform="translate(306.884766 0.015625)"/>
     </g>
    </g>
   </g>
   <g id="line2d_19">
    <path d="M 43.803125 218.382615 
L 378.603125 218.382615 
" clip-path="url(#p8219af68bb)" style="fill: none; stroke-dasharray: 5.55,2.4; stroke-dashoffset: 0; stroke: #808080; stroke-width: 1.5"/>
   </g>
   <g id="patch_39">
    <path d="M 43.803125 228.96 
L 43.803125 7.2 
" style="fill: none; stroke: #000000; stroke-width: 0.8; stroke-linejoin: miter; stroke-linecap: square"/>
   </g>
   <g id="patch_40">
    <path d="M 378.603125 228.96 
L 378.603125 7.2 
" style="fill: none; stroke: #000000; stroke-width: 0.8; stroke-linejoin: miter; stroke-linecap: square"/>
   </g>
   <g id="patch_41">
    <path d="M 43.803125 228.96 
L 378.603125 228.96 
" style="fill: none; stroke: #000000; stroke-width: 0.8; stroke-linejoin: miter; stroke-linecap: square"/>
   </g>
   <g id="patch_42">
    <path d="M 43.803125 7.2 
L 378.603125 7.2 
" style="fill: none; stroke: #000000; stroke-width: 0.8; stroke-linejoin: miter; stroke-linecap: square"/>
   </g>
   <g id="legend_1">
    <g id="patch_43">
     <path d="M 185.058437 70.597656 
L 371.953125 70.597656 
Q 373.853125 70.597656 373.853125 68.697656 
L 373.853125 13.85 
Q 373.853125 11.95 371.953125 11.95 
L 185.058437 11.95 
Q 183.158437 11.95 183.158437 13.85 
L 183.158437 68.697656 
Q 183.158437 70.597656 185.058437 70.597656 
z
" style="fill: #ffffff; opacity: 0.8; stroke: #cccccc; stroke-linejoin: miter"/>
    </g>
    <g id="line2d_20">
     <path d="M 186.958438 19.645 
L 196.458438 19.645 
L 205.958438 19.645 
" style="fill: none; stroke-dasharray: 5.55,2.4; stroke-dashoffset: 0; stroke: #808080; stroke-width: 1.5"/>
    </g>
    <g id="text_21">
     <!-- $\mathit{p}$ value = .05 -->
     <g transform="translate(213.558437 22.97) scale(0.095 -0.095)">
      <defs>
       <path id="DejaVuSans-3d" d="M 678 2906 
L 4684 2906 
L 4684 2381 
L 678 2381 
L 678 2906 
z
M 678 1631 
L 4684 1631 
L 4684 1100 
L 678 1100 
L 678 1631 
z
" transform="scale(0.015625)"/>
      </defs>
      <use xlink:href="#DejaVuSans-Oblique-70" transform="translate(0 0.015625)"/>
      <use xlink:href="#DejaVuSans-20" transform="translate(63.476562 0.015625)"/>
      <use xlink:href="#DejaVuSans-76" transform="translate(95.263672 0.015625)"/>
      <use xlink:href="#DejaVuSans-61" transform="translate(154.443359 0.015625)"/>
      <use xlink:href="#DejaVuSans-6c" transform="translate(215.722656 0.015625)"/>
      <use xlink:href="#DejaVuSans-75" transform="translate(243.505859 0.015625)"/>
      <use xlink:href="#DejaVuSans-65" transform="translate(306.884766 0.015625)"/>
      <use xlink:href="#DejaVuSans-20" transform="translate(368.408203 0.015625)"/>
      <use xlink:href="#DejaVuSans-3d" transform="translate(400.195312 0.015625)"/>
      <use xlink:href="#DejaVuSans-20" transform="translate(483.984375 0.015625)"/>
      <use xlink:href="#DejaVuSans-2e" transform="translate(515.771484 0.015625)"/>
      <use xlink:href="#DejaVuSans-30" transform="translate(547.558594 0.015625)"/>
      <use xlink:href="#DejaVuSans-35" transform="translate(611.181641 0.015625)"/>
     </g>
    </g>
    <g id="patch_44">
     <path d="M 186.958438 36.933516 
L 205.958438 36.933516 
L 205.958438 30.283516 
L 186.958438 30.283516 
z
" style="fill: #1f77b4"/>
    </g>
    <g id="text_22">
     <!-- Level 1 of existing electrical load -->
     <g transform="translate(213.558437 36.933516) scale(0.095 -0.095)">
      <defs>
       <path id="DejaVuSans-4c" d="M 628 4666 
L 1259 4666 
L 1259 531 
L 3531 531 
L 3531 0 
L 628 0 
L 628 4666 
z
" transform="scale(0.015625)"/>
       <path id="DejaVuSans-78" d="M 3513 3500 
L 2247 1797 
L 3578 0 
L 2900 0 
L 1881 1375 
L 863 0 
L 184 0 
L 1544 1831 
L 300 3500 
L 978 3500 
L 1906 2253 
L 2834 3500 
L 3513 3500 
z
" transform="scale(0.015625)"/>
       <path id="DejaVuSans-74" d="M 1172 4494 
L 1172 3500 
L 2356 3500 
L 2356 3053 
L 1172 3053 
L 1172 1153 
Q 1172 725 1289 603 
Q 1406 481 1766 481 
L 2356 481 
L 2356 0 
L 1766 0 
Q 1100 0 847 248 
Q 594 497 594 1153 
L 594 3053 
L 172 3053 
L 172 3500 
L 594 3500 
L 594 4494 
L 1172 4494 
z
" transform="scale(0.015625)"/>
       <path id="DejaVuSans-64" d="M 2906 2969 
L 2906 4863 
L 3481 4863 
L 3481 0 
L 2906 0 
L 2906 525 
Q 2725 213 2448 61 
Q 2172 -91 1784 -91 
Q 1150 -91 751 415 
Q 353 922 353 1747 
Q 353 2572 751 3078 
Q 1150 3584 1784 3584 
Q 2172 3584 2448 3432 
Q 2725 3281 2906 2969 
z
M 947 1747 
Q 947 1113 1208 752 
Q 1469 391 1925 391 
Q 2381 391 2643 752 
Q 2906 1113 2906 1747 
Q 2906 2381 2643 2742 
Q 2381 3103 1925 3103 
Q 1469 3103 1208 2742 
Q 947 2381 947 1747 
z
" transform="scale(0.015625)"/>
      </defs>
      <use xlink:href="#DejaVuSans-4c"/>
      <use xlink:href="#DejaVuSans-65" x="53.962891"/>
      <use xlink:href="#DejaVuSans-76" x="115.486328"/>
      <use xlink:href="#DejaVuSans-65" x="174.666016"/>
      <use xlink:href="#DejaVuSans-6c" x="236.189453"/>
      <use xlink:href="#DejaVuSans-20" x="263.972656"/>
      <use xlink:href="#DejaVuSans-31" x="295.759766"/>
      <use xlink:href="#DejaVuSans-20" x="359.382812"/>
      <use xlink:href="#DejaVuSans-6f" x="391.169922"/>
      <use xlink:href="#DejaVuSans-66" x="452.351562"/>
      <use xlink:href="#DejaVuSans-20" x="487.556641"/>
      <use xlink:href="#DejaVuSans-65" x="519.34375"/>
      <use xlink:href="#DejaVuSans-78" x="579.117188"/>
      <use xlink:href="#DejaVuSans-69" x="638.296875"/>
      <use xlink:href="#DejaVuSans-73" x="666.080078"/>
      <use xlink:href="#DejaVuSans-74" x="718.179688"/>
      <use xlink:href="#DejaVuSans-69" x="757.388672"/>
      <use xlink:href="#DejaVuSans-6e" x="785.171875"/>
      <use xlink:href="#DejaVuSans-67" x="848.550781"/>
      <use xlink:href="#DejaVuSans-20" x="912.027344"/>
      <use xlink:href="#DejaVuSans-65" x="943.814453"/>
      <use xlink:href="#DejaVuSans-6c" x="1005.337891"/>
      <use xlink:href="#DejaVuSans-65" x="1033.121094"/>
      <use xlink:href="#DejaVuSans-63" x="1094.644531"/>
      <use xlink:href="#DejaVuSans-74" x="1149.625"/>
      <use xlink:href="#DejaVuSans-72" x="1188.833984"/>
      <use xlink:href="#DejaVuSans-69" x="1229.947266"/>
      <use xlink:href="#DejaVuSans-63" x="1257.730469"/>
      <use xlink:href="#DejaVuSans-61" x="1312.710938"/>
      <use xlink:href="#DejaVuSans-6c" x="1373.990234"/>
      <use xlink:href="#DejaVuSans-20" x="1401.773438"/>
      <use xlink:href="#DejaVuSans-6c" x="1433.560547"/>
      <use xlink:href="#DejaVuSans-6f" x="1461.34375"/>
      <use xlink:href="#DejaVuSans-61" x="1522.525391"/>
      <use xlink:href="#DejaVuSans-64" x="1583.804688"/>
     </g>
    </g>
    <g id="patch_45">
     <path d="M 186.958438 50.877734 
L 205.958438 50.877734 
L 205.958438 44.227734 
L 186.958438 44.227734 
z
" style="fill: #ff7f0e"/>
    </g>
    <g id="text_23">
     <!-- Level 2 of existing electrical load -->
     <g transform="translate(213.558437 50.877734) scale(0.095 -0.095)">
      <use xlink:href="#DejaVuSans-4c"/>
      <use xlink:href="#DejaVuSans-65" x="53.962891"/>
      <use xlink:href="#DejaVuSans-76" x="115.486328"/>
      <use xlink:href="#DejaVuSans-65" x="174.666016"/>
      <use xlink:href="#DejaVuSans-6c" x="236.189453"/>
      <use xlink:href="#DejaVuSans-20" x="263.972656"/>
      <use xlink:href="#DejaVuSans-32" x="295.759766"/>
      <use xlink:href="#DejaVuSans-20" x="359.382812"/>
      <use xlink:href="#DejaVuSans-6f" x="391.169922"/>
      <use xlink:href="#DejaVuSans-66" x="452.351562"/>
      <use xlink:href="#DejaVuSans-20" x="487.556641"/>
      <use xlink:href="#DejaVuSans-65" x="519.34375"/>
      <use xlink:href="#DejaVuSans-78" x="579.117188"/>
      <use xlink:href="#DejaVuSans-69" x="638.296875"/>
      <use xlink:href="#DejaVuSans-73" x="666.080078"/>
      <use xlink:href="#DejaVuSans-74" x="718.179688"/>
      <use xlink:href="#DejaVuSans-69" x="757.388672"/>
      <use xlink:href="#DejaVuSans-6e" x="785.171875"/>
      <use xlink:href="#DejaVuSans-67" x="848.550781"/>
      <use xlink:href="#DejaVuSans-20" x="912.027344"/>
      <use xlink:href="#DejaVuSans-65" x="943.814453"/>
      <use xlink:href="#DejaVuSans-6c" x="1005.337891"/>
      <use xlink:href="#DejaVuSans-65" x="1033.121094"/>
      <use xlink:href="#DejaVuSans-63" x="1094.644531"/>
      <use xlink:href="#DejaVuSans-74" x="1149.625"/>
      <use xlink:href="#DejaVuSans-72" x="1188.833984"/>
      <use xlink:href="#DejaVuSans-69" x="1229.947266"/>
      <use xlink:href="#DejaVuSans-63" x="1257.730469"/>
      <use xlink:href="#DejaVuSans-61" x="1312.710938"/>
      <use xlink:href="#DejaVuSans-6c" x="1373.990234"/>
      <use xlink:href="#DejaVuSans-20" x="1401.773438"/>
      <use xlink:href="#DejaVuSans-6c" x="1433.560547"/>
      <use xlink:href="#DejaVuSans-6f" x="1461.34375"/>
      <use xlink:href="#DejaVuSans-61" x="1522.525391"/>
      <use xlink:href="#DejaVuSans-64" x="1583.804688"/>
     </g>
    </g>
    <g id="patch_46">
     <path d="M 186.958438 64.821953 
L 205.958438 64.821953 
L 205.958438 58.171953 
L 186.958438 58.171953 
z
" style="fill: #2ca02c"/>
    </g>
    <g id="text_24">
     <!-- Level 3 of existing electrical load -->
     <g transform="translate(213.558437 64.821953) scale(0.095 -0.095)">
      <use xlink:href="#DejaVuSans-4c"/>
      <use xlink:href="#DejaVuSans-65" x="53.962891"/>
      <use xlink:href="#DejaVuSans-76" x="115.486328"/>
      <use xlink:href="#DejaVuSans-65" x="174.666016"/>
      <use xlink:href="#DejaVuSans-6c" x="236.189453"/>
      <use xlink:href="#DejaVuSans-20" x="263.972656"/>
      <use xlink:href="#DejaVuSans-33" x="295.759766"/>
      <use xlink:href="#DejaVuSans-20" x="359.382812"/>
      <use xlink:href="#DejaVuSans-6f" x="391.169922"/>
      <use xlink:href="#DejaVuSans-66" x="452.351562"/>
      <use xlink:href="#DejaVuSans-20" x="487.556641"/>
      <use xlink:href="#DejaVuSans-65" x="519.34375"/>
      <use xlink:href="#DejaVuSans-78" x="579.117188"/>
      <use xlink:href="#DejaVuSans-69" x="638.296875"/>
      <use xlink:href="#DejaVuSans-73" x="666.080078"/>
      <use xlink:href="#DejaVuSans-74" x="718.179688"/>
      <use xlink:href="#DejaVuSans-69" x="757.388672"/>
      <use xlink:href="#DejaVuSans-6e" x="785.171875"/>
      <use xlink:href="#DejaVuSans-67" x="848.550781"/>
      <use xlink:href="#DejaVuSans-20" x="912.027344"/>
      <use xlink:href="#DejaVuSans-65" x="943.814453"/>
      <use xlink:href="#DejaVuSans-6c" x="1005.337891"/>
      <use xlink:href="#DejaVuSans-65" x="1033.121094"/>
      <use xlink:href="#DejaVuSans-63" x="1094.644531"/>
      <use xlink:href="#DejaVuSans-74" x="1149.625"/>
      <use xlink:href="#DejaVuSans-72" x="1188.833984"/>
      <use xlink:href="#DejaVuSans-69" x="1229.947266"/>
      <use xlink:href="#DejaVuSans-63" x="1257.730469"/>
      <use xlink:href="#DejaVuSans-61" x="1312.710938"/>
      <use xlink:href="#DejaVuSans-6c" x="1373.990234"/>
      <use xlink:href="#DejaVuSans-20" x="1401.773438"/>
      <use xlink:href="#DejaVuSans-6c" x="1433.560547"/>
      <use xlink:href="#DejaVuSans-6f" x="1461.34375"/>
      <use xlink:href="#DejaVuSans-61" x="1522.525391"/>
      <use xlink:href="#DejaVuSans-64" x="1583.804688"/>
     </g>
    </g>
   </g>
  </g>
 </g>
 <defs>
  <clipPath id="p8219af68bb">
   <rect x="43.803125" y="7.2" width="334.8" height="221.76"/>
  </clipPath>
 </defs>
</svg>
